<svg xmlns="http://www.w3.org/2000/svg" width="11" height="11" fill="none"><path fill="#F68114" d="M6.33 10.896c.137 0 .255-.05.354-.149.1-.099.15-.217.15-.353v-3.39h3.314c.136 0 .254-.05.354-.148.099-.1.149-.218.149-.354v-1.23a.483.483 0 0 0-.15-.353.483.483 0 0 0-.353-.15H6.833V1.4a.483.483 0 0 0-.149-.354.483.483 0 0 0-.354-.149H4.915a.483.483 0 0 0-.354.15c-.099.099-.149.217-.149.353v3.37H1.08a.483.483 0 0 0-.354.15c-.1.1-.149.217-.149.354v1.229c0 .136.05.254.15.354.098.099.216.148.353.148h3.333v3.39c0 .136.05.254.15.354.099.099.217.149.353.149H6.33Z"/></svg>