<svg width="64" height="41" viewBox="0 0 64 41" fill="none" xmlns="http://www.w3.org/2000/svg">
<mask id="path-1-outside-1_149_292" maskUnits="userSpaceOnUse" x="-1" y="-1" width="66" height="43" fill="black">
<rect fill="white" x="-1" y="-1" width="66" height="43"/>
<path d="M16.592 40.56C13.4933 40.56 10.6933 39.72 8.192 38.04C5.69067 36.36 3.69333 33.9893 2.2 30.928C0.744 27.8667 0.0160001 24.3013 0.0160001 20.232C0.0160001 16.1627 0.744 12.616 2.2 9.592C3.656 6.568 5.616 4.216 8.08 2.536C10.5813 0.855998 13.3627 0.0159974 16.424 0.0159974C19.56 0.0159974 22.36 0.855998 24.824 2.536C27.3253 4.216 29.304 6.58667 30.76 9.648C32.216 12.672 32.944 16.2373 32.944 20.344C32.944 24.4133 32.216 27.9787 30.76 31.04C29.304 34.064 27.344 36.416 24.88 38.096C22.416 39.7387 19.6533 40.56 16.592 40.56ZM16.48 33.672C18.272 33.672 19.8213 33.168 21.128 32.16C22.4347 31.152 23.4427 29.6587 24.152 27.68C24.8987 25.7013 25.272 23.2373 25.272 20.288C25.272 17.3387 24.8987 14.8747 24.152 12.896C23.4427 10.9173 22.416 9.44267 21.072 8.472C19.7653 7.464 18.216 6.96 16.424 6.96C14.6693 6.96 13.1387 7.464 11.832 8.472C10.5253 9.44267 9.49867 10.9173 8.752 12.896C8.04267 14.8373 7.688 17.2827 7.688 20.232C7.688 23.2187 8.04267 25.7013 8.752 27.68C9.49867 29.6587 10.5253 31.152 11.832 32.16C13.1387 33.168 14.688 33.672 16.48 33.672ZM35.8647 35.632L50.7047 20.12C51.7501 19 52.5901 18.0107 53.2248 17.152C53.8967 16.256 54.3821 15.416 54.6807 14.632C54.9794 13.8107 55.1287 12.9893 55.1287 12.168C55.1287 10.5253 54.5874 9.23733 53.5047 8.304C52.4594 7.37067 51.0967 6.904 49.4167 6.904C47.6994 6.904 46.1687 7.352 44.8247 8.248C43.5181 9.144 42.2861 10.5627 41.1287 12.504L35.9207 8.08C37.4887 5.42933 39.4301 3.432 41.7447 2.088C44.0967 0.706664 46.7847 0.0159974 49.8087 0.0159974C52.3847 0.0159974 54.6247 0.519998 56.5287 1.528C58.4701 2.536 59.9634 3.936 61.0087 5.728C62.0541 7.52 62.5767 9.61067 62.5767 12C62.5767 13.6053 62.3714 15.0613 61.9607 16.368C61.5874 17.6747 60.9341 18.9813 60.0007 20.288C59.1047 21.5573 57.8541 22.9947 56.2487 24.6L45.4407 35.632H35.8647ZM35.8647 40V35.632L42.3607 33.392H63.4167V40H35.8647Z"/>
</mask>
<path d="M8.192 38.04L8.74956 37.2099L8.192 38.04ZM2.2 30.928L1.29689 31.3575L1.30123 31.3664L2.2 30.928ZM2.2 9.592L1.299 9.15818H1.299L2.2 9.592ZM8.08 2.536L7.52243 1.70584L7.51666 1.70977L8.08 2.536ZM24.824 2.536L24.2607 3.36225L24.2664 3.36614L24.824 2.536ZM30.76 9.648L29.8569 10.0775L29.859 10.0818L30.76 9.648ZM30.76 31.04L31.661 31.4738L31.6631 31.4695L30.76 31.04ZM24.88 38.096L25.4347 38.9281L25.4433 38.9222L24.88 38.096ZM21.128 32.16L21.7388 32.9518L21.128 32.16ZM24.152 27.68L23.2164 27.3269L23.2135 27.3347L23.2107 27.3425L24.152 27.68ZM24.152 12.896L23.2107 13.2335L23.2135 13.2413L23.2164 13.2491L24.152 12.896ZM21.072 8.472L20.4612 9.26378L20.4737 9.27343L20.4865 9.28268L21.072 8.472ZM11.832 8.472L12.4283 9.27474L12.4356 9.26933L12.4428 9.26378L11.832 8.472ZM8.752 12.896L7.81635 12.5429L7.81274 12.5528L8.752 12.896ZM8.752 27.68L7.81066 28.0175L7.81347 28.0253L7.8164 28.0331L8.752 27.68ZM11.832 32.16L11.2212 32.9518L11.832 32.16ZM16.592 39.56C13.6859 39.56 11.0811 38.7758 8.74956 37.2099L7.63444 38.8701C10.3055 40.6642 13.3007 41.56 16.592 41.56V39.56ZM8.74956 37.2099C6.41278 35.6404 4.52513 33.4136 3.09877 30.4896L1.30123 31.3664C2.86154 34.565 4.96856 37.0796 7.63444 38.8701L8.74956 37.2099ZM3.10306 30.4985C1.7224 27.5956 1.016 24.1821 1.016 20.232H-0.984C-0.984 24.4206 -0.234401 28.1378 1.29694 31.3575L3.10306 30.4985ZM1.016 20.232C1.016 16.2815 1.72254 12.8888 3.101 10.0258L1.299 9.15818C-0.234537 12.3432 -0.984 16.0439 -0.984 20.232H1.016ZM3.101 10.0258C4.49059 7.13975 6.34189 4.9314 8.64334 3.36223L7.51666 1.70977C4.89011 3.5006 2.82141 5.99625 1.299 9.15818L3.101 10.0258ZM8.63756 3.36614C10.9712 1.79874 13.5579 1.016 16.424 1.016V-0.984003C13.1675 -0.984003 10.1914 -0.0867405 7.52244 1.70586L8.63756 3.36614ZM16.424 1.016C19.37 1.016 21.9715 1.80146 24.2607 3.36223L25.3873 1.70977C22.7485 -0.0894632 19.75 -0.984003 16.424 -0.984003V1.016ZM24.2664 3.36614C26.6008 4.93396 28.4682 7.15757 29.8569 10.0775L31.6631 9.21849C30.1398 6.01576 28.0499 3.49804 25.3816 1.70586L24.2664 3.36614ZM29.859 10.0818C31.2369 12.9436 31.944 16.3546 31.944 20.344H33.944C33.944 16.1201 33.1951 12.4004 31.661 9.21418L29.859 10.0818ZM31.944 20.344C31.944 24.2941 31.2376 27.7076 29.8569 30.6105L31.6631 31.4695C33.1944 28.2498 33.944 24.5326 33.944 20.344H31.944ZM29.859 30.6062C28.4694 33.4923 26.6181 35.7006 24.3167 37.2698L25.4433 38.9222C28.0699 37.1314 30.1386 34.6357 31.661 31.4738L29.859 30.6062ZM24.3253 37.264C22.0313 38.7933 19.463 39.56 16.592 39.56V41.56C19.8437 41.56 22.8007 40.6841 25.4347 38.9281L24.3253 37.264ZM16.48 34.672C18.4728 34.672 20.2418 34.1066 21.7388 32.9518L20.5172 31.3682C19.4009 32.2294 18.0712 32.672 16.48 32.672V34.672ZM21.7388 32.9518C23.2332 31.799 24.337 30.1272 25.0933 28.0175L23.2107 27.3425C22.5483 29.1901 21.6361 30.505 20.5172 31.3682L21.7388 32.9518ZM25.0876 28.0331C25.89 25.9066 26.272 23.3139 26.272 20.288H24.272C24.272 23.1608 23.9073 25.4961 23.2164 27.3269L25.0876 28.0331ZM26.272 20.288C26.272 17.2621 25.89 14.6694 25.0876 12.5429L23.2164 13.2491C23.9073 15.0799 24.272 17.4152 24.272 20.288H26.272ZM25.0933 12.5585C24.3341 10.4407 23.2041 8.77832 21.6575 7.66132L20.4865 9.28268C21.6279 10.107 22.5512 11.3939 23.2107 13.2335L25.0933 12.5585ZM21.6828 7.68022C20.1858 6.52539 18.4168 5.96 16.424 5.96V7.96C18.0152 7.96 19.3449 8.4026 20.4612 9.26378L21.6828 7.68022ZM16.424 5.96C14.4633 5.96 12.7143 6.52836 11.2212 7.68022L12.4428 9.26378C13.563 8.39963 14.8754 7.96 16.424 7.96V5.96ZM11.2357 7.66925C9.73535 8.78379 8.61078 10.4378 7.8164 12.5429L9.6876 13.2491C10.3866 11.3968 11.3153 10.1015 12.4283 9.27474L11.2357 7.66925ZM7.81274 12.5528C7.05004 14.6402 6.688 17.2114 6.688 20.232H8.688C8.688 17.3539 9.0353 15.0345 9.69127 13.2392L7.81274 12.5528ZM6.688 20.232C6.688 23.2893 7.04991 25.8954 7.81066 28.0175L9.69334 27.3425C9.03542 25.5073 8.688 23.1481 8.688 20.232H6.688ZM7.8164 28.0331C8.61038 30.1371 9.73165 31.8027 11.2212 32.9518L12.4428 31.3682C11.319 30.5013 10.387 29.1802 9.6876 27.3269L7.8164 28.0331ZM11.2212 32.9518C12.7182 34.1066 14.4872 34.672 16.48 34.672V32.672C14.8888 32.672 13.5591 32.2294 12.4428 31.3682L11.2212 32.9518ZM35.8647 35.632L35.1422 34.9407L33.5242 36.632H35.8647V35.632ZM50.7048 20.12L51.4274 20.8113L51.4358 20.8023L50.7048 20.12ZM53.2248 17.152L52.4247 16.552L52.4206 16.5576L53.2248 17.152ZM54.6807 14.632L55.6152 14.988L55.6179 14.9809L55.6205 14.9737L54.6807 14.632ZM53.5047 8.304L52.8387 9.04994L52.8452 9.05573L52.8518 9.06141L53.5047 8.304ZM44.8247 8.248L44.27 7.41588L44.2592 7.42327L44.8247 8.248ZM41.1287 12.504L40.4813 13.2661L41.3823 14.0315L41.9877 13.0161L41.1287 12.504ZM35.9207 8.08L35.0601 7.57086L34.6309 8.29639L35.2733 8.84214L35.9207 8.08ZM41.7448 2.088L42.2469 2.9528L42.2512 2.95028L41.7448 2.088ZM56.5287 1.528L56.0608 2.41181L56.0679 2.41549L56.5287 1.528ZM61.0088 5.728L61.8725 5.22413L61.0088 5.728ZM61.9608 16.368L61.0068 16.0682L61.0028 16.0807L60.9992 16.0933L61.9608 16.368ZM60.0007 20.288L59.187 19.7068L59.1838 19.7113L60.0007 20.288ZM56.2487 24.6L55.5416 23.8929L55.5344 23.9002L56.2487 24.6ZM45.4408 35.632V36.632H45.861L46.1551 36.3318L45.4408 35.632ZM35.8647 40H34.8647V41H35.8647V40ZM35.8647 35.632L35.5388 34.6866L34.8647 34.919V35.632H35.8647ZM42.3607 33.392V32.392H42.1932L42.0348 32.4466L42.3607 33.392ZM63.4167 33.392H64.4167V32.392H63.4167V33.392ZM63.4167 40V41H64.4167V40H63.4167ZM36.5873 36.3233L51.4273 20.8113L49.9822 19.4287L35.1422 34.9407L36.5873 36.3233ZM51.4358 20.8023C52.497 19.6653 53.3642 18.6457 54.0289 17.7464L52.4206 16.5576C51.816 17.3756 51.0031 18.3347 49.9737 19.4377L51.4358 20.8023ZM54.0247 17.752C54.7353 16.8046 55.2744 15.8828 55.6152 14.988L53.7463 14.276C53.4898 14.9492 53.0582 15.7074 52.4248 16.552L54.0247 17.752ZM55.6205 14.9737C55.9565 14.0499 56.1287 13.1132 56.1287 12.168H54.1287C54.1287 12.8655 54.0024 13.5714 53.741 14.2903L55.6205 14.9737ZM56.1287 12.168C56.1287 10.2826 55.4948 8.69927 54.1577 7.54659L52.8518 9.06141C53.68 9.77539 54.1287 10.768 54.1287 12.168H56.1287ZM54.1708 7.55806C52.9071 6.42982 51.291 5.904 49.4167 5.904V7.904C50.9025 7.904 52.0117 8.31151 52.8387 9.04994L54.1708 7.55806ZM49.4167 5.904C47.5151 5.904 45.7889 6.40338 44.2701 7.41595L45.3794 9.08005C46.5486 8.30062 47.8837 7.904 49.4167 7.904V5.904ZM44.2592 7.42327C42.7937 8.4282 41.4719 9.97556 40.2698 11.9919L41.9877 13.0161C43.1003 11.1498 44.2425 9.8598 45.3903 9.07273L44.2592 7.42327ZM41.7762 11.7419L36.5682 7.31786L35.2733 8.84214L40.4813 13.2661L41.7762 11.7419ZM36.7814 8.58913C38.2756 6.06331 40.1012 4.19866 42.2469 2.95279L41.2426 1.22321C38.759 2.66533 36.7019 4.79535 35.0601 7.57086L36.7814 8.58913ZM42.2512 2.95028C44.4334 1.66867 46.9429 1.016 49.8088 1.016V-0.984003C46.6265 -0.984003 43.7601 -0.255345 41.2383 1.22571L42.2512 2.95028ZM49.8088 1.016C52.2534 1.016 54.3267 1.49369 56.0609 2.41179L56.9966 0.64421C54.9228 -0.453699 52.5161 -0.984003 49.8088 -0.984003V1.016ZM56.0679 2.41549C57.8509 3.34128 59.2003 4.61236 60.145 6.23187L61.8725 5.22413C60.7266 3.25964 59.0892 1.73072 56.9896 0.640502L56.0679 2.41549ZM60.145 6.23187C61.0883 7.849 61.5768 9.76047 61.5768 12H63.5768C63.5768 9.46086 63.0199 7.191 61.8725 5.22413L60.145 6.23187ZM61.5768 12C61.5768 13.5207 61.3822 14.8735 61.0068 16.0682L62.9147 16.6678C63.3606 15.2491 63.5768 13.69 63.5768 12H61.5768ZM60.9992 16.0933C60.6624 17.2722 60.0657 18.4766 59.187 19.7068L60.8145 20.8692C61.8025 19.4861 62.5124 18.0772 62.9223 16.6427L60.9992 16.0933ZM59.1838 19.7113C58.3318 20.9182 57.1233 22.3112 55.5416 23.8929L56.9559 25.3071C58.5849 23.6781 59.8777 22.1964 60.8177 20.8647L59.1838 19.7113ZM55.5344 23.9002L44.7264 34.9322L46.1551 36.3318L56.9631 25.2998L55.5344 23.9002ZM45.4408 34.632H35.8647V36.632H45.4408V34.632ZM36.8647 40V35.632H34.8647V40H36.8647ZM36.1907 36.5774L42.6867 34.3374L42.0348 32.4466L35.5388 34.6866L36.1907 36.5774ZM42.3607 34.392H63.4167V32.392H42.3607V34.392ZM62.4167 33.392V40H64.4167V33.392H62.4167ZM63.4167 39H35.8647V41H63.4167V39Z" fill="black" fill-opacity="0.07" mask="url(#path-1-outside-1_149_292)"/>
</svg>
