<svg width="64" height="41" viewBox="0 0 64 41" fill="none" xmlns="http://www.w3.org/2000/svg">
<mask id="path-1-outside-1_149_301" maskUnits="userSpaceOnUse" x="-1" y="-1" width="66" height="43" fill="black">
<rect fill="white" x="-1" y="-1" width="66" height="43"/>
<path d="M16.592 40.56C13.4933 40.56 10.6933 39.72 8.192 38.04C5.69067 36.36 3.69333 33.9893 2.2 30.928C0.744 27.8667 0.0160001 24.3013 0.0160001 20.232C0.0160001 16.1627 0.744 12.616 2.2 9.592C3.656 6.568 5.616 4.216 8.08 2.536C10.5813 0.855998 13.3627 0.0159974 16.424 0.0159974C19.56 0.0159974 22.36 0.855998 24.824 2.536C27.3253 4.216 29.304 6.58667 30.76 9.648C32.216 12.672 32.944 16.2373 32.944 20.344C32.944 24.4133 32.216 27.9787 30.76 31.04C29.304 34.064 27.344 36.416 24.88 38.096C22.416 39.7387 19.6533 40.56 16.592 40.56ZM16.48 33.672C18.272 33.672 19.8213 33.168 21.128 32.16C22.4347 31.152 23.4427 29.6587 24.152 27.68C24.8987 25.7013 25.272 23.2373 25.272 20.288C25.272 17.3387 24.8987 14.8747 24.152 12.896C23.4427 10.9173 22.416 9.44267 21.072 8.472C19.7653 7.464 18.216 6.96 16.424 6.96C14.6693 6.96 13.1387 7.464 11.832 8.472C10.5253 9.44267 9.49867 10.9173 8.752 12.896C8.04267 14.8373 7.688 17.2827 7.688 20.232C7.688 23.2187 8.04267 25.7013 8.752 27.68C9.49867 29.6587 10.5253 31.152 11.832 32.16C13.1387 33.168 14.688 33.672 16.48 33.672ZM48.3527 40.56C45.7021 40.56 43.2754 40.0933 41.0727 39.16C38.8701 38.1893 37.0221 36.808 35.5287 35.016L40.5687 30.032C41.3154 31.152 42.3794 32.048 43.7607 32.72C45.1421 33.392 46.6354 33.728 48.2407 33.728C49.7341 33.728 51.0221 33.4667 52.1047 32.944C53.1874 32.384 54.0274 31.6187 54.6248 30.648C55.2594 29.64 55.5767 28.4827 55.5767 27.176C55.5767 25.7947 55.2594 24.6187 54.6248 23.648C54.0274 22.6773 53.1501 21.9307 51.9927 21.408C50.8354 20.8853 49.4541 20.624 47.8487 20.624C47.1394 20.624 46.4114 20.68 45.6647 20.792C44.9181 20.8667 44.2834 20.9973 43.7607 21.184L47.1207 16.928C48.0541 16.6293 48.9687 16.3867 49.8647 16.2C50.7981 15.976 51.6568 15.864 52.4408 15.864C54.4567 15.864 56.2674 16.3493 57.8728 17.32C59.5154 18.2533 60.8034 19.5973 61.7368 21.352C62.7074 23.0693 63.1927 25.104 63.1927 27.456C63.1927 30.0693 62.5767 32.3653 61.3448 34.344C60.1127 36.2853 58.3767 37.816 56.1367 38.936C53.9341 40.0187 51.3394 40.56 48.3527 40.56ZM43.7607 21.184V16.816L53.8407 5.112L62.5767 5L52.1607 16.928L43.7607 21.184ZM37.7127 7.24V0.631999H62.5767V5L56.3607 7.24H37.7127Z"/>
</mask>
<path d="M8.192 38.04L8.74956 37.2099L8.192 38.04ZM2.2 30.928L1.29689 31.3575L1.30123 31.3664L2.2 30.928ZM2.2 9.592L1.299 9.15818H1.299L2.2 9.592ZM8.08 2.536L7.52243 1.70584L7.51666 1.70977L8.08 2.536ZM24.824 2.536L24.2607 3.36225L24.2664 3.36614L24.824 2.536ZM30.76 9.648L29.8569 10.0775L29.859 10.0818L30.76 9.648ZM30.76 31.04L31.661 31.4738L31.6631 31.4695L30.76 31.04ZM24.88 38.096L25.4347 38.9281L25.4433 38.9222L24.88 38.096ZM21.128 32.16L21.7388 32.9518L21.128 32.16ZM24.152 27.68L23.2164 27.3269L23.2135 27.3347L23.2107 27.3425L24.152 27.68ZM24.152 12.896L23.2107 13.2335L23.2135 13.2413L23.2164 13.2491L24.152 12.896ZM21.072 8.472L20.4612 9.26378L20.4737 9.27343L20.4865 9.28268L21.072 8.472ZM11.832 8.472L12.4283 9.27474L12.4356 9.26933L12.4428 9.26378L11.832 8.472ZM8.752 12.896L7.81635 12.5429L7.81274 12.5528L8.752 12.896ZM8.752 27.68L7.81066 28.0175L7.81347 28.0253L7.8164 28.0331L8.752 27.68ZM11.832 32.16L11.2212 32.9518L11.832 32.16ZM16.592 39.56C13.6859 39.56 11.0811 38.7758 8.74956 37.2099L7.63444 38.8701C10.3055 40.6642 13.3007 41.56 16.592 41.56V39.56ZM8.74956 37.2099C6.41278 35.6404 4.52513 33.4136 3.09877 30.4896L1.30123 31.3664C2.86154 34.565 4.96856 37.0796 7.63444 38.8701L8.74956 37.2099ZM3.10306 30.4985C1.7224 27.5956 1.016 24.1821 1.016 20.232H-0.984C-0.984 24.4206 -0.234401 28.1378 1.29694 31.3575L3.10306 30.4985ZM1.016 20.232C1.016 16.2815 1.72254 12.8888 3.101 10.0258L1.299 9.15818C-0.234537 12.3432 -0.984 16.0439 -0.984 20.232H1.016ZM3.101 10.0258C4.49059 7.13975 6.34189 4.9314 8.64334 3.36223L7.51666 1.70977C4.89011 3.5006 2.82141 5.99625 1.299 9.15818L3.101 10.0258ZM8.63756 3.36614C10.9712 1.79874 13.5579 1.016 16.424 1.016V-0.984003C13.1675 -0.984003 10.1914 -0.0867405 7.52244 1.70586L8.63756 3.36614ZM16.424 1.016C19.37 1.016 21.9715 1.80146 24.2607 3.36223L25.3873 1.70977C22.7485 -0.0894632 19.75 -0.984003 16.424 -0.984003V1.016ZM24.2664 3.36614C26.6008 4.93396 28.4682 7.15757 29.8569 10.0775L31.6631 9.21849C30.1398 6.01576 28.0499 3.49804 25.3816 1.70586L24.2664 3.36614ZM29.859 10.0818C31.2369 12.9436 31.944 16.3546 31.944 20.344H33.944C33.944 16.1201 33.1951 12.4004 31.661 9.21418L29.859 10.0818ZM31.944 20.344C31.944 24.2941 31.2376 27.7076 29.8569 30.6105L31.6631 31.4695C33.1944 28.2498 33.944 24.5326 33.944 20.344H31.944ZM29.859 30.6062C28.4694 33.4923 26.6181 35.7006 24.3167 37.2698L25.4433 38.9222C28.0699 37.1314 30.1386 34.6357 31.661 31.4738L29.859 30.6062ZM24.3253 37.264C22.0313 38.7933 19.463 39.56 16.592 39.56V41.56C19.8437 41.56 22.8007 40.6841 25.4347 38.9281L24.3253 37.264ZM16.48 34.672C18.4728 34.672 20.2418 34.1066 21.7388 32.9518L20.5172 31.3682C19.4009 32.2294 18.0712 32.672 16.48 32.672V34.672ZM21.7388 32.9518C23.2332 31.799 24.337 30.1272 25.0933 28.0175L23.2107 27.3425C22.5483 29.1901 21.6361 30.505 20.5172 31.3682L21.7388 32.9518ZM25.0876 28.0331C25.89 25.9066 26.272 23.3139 26.272 20.288H24.272C24.272 23.1608 23.9073 25.4961 23.2164 27.3269L25.0876 28.0331ZM26.272 20.288C26.272 17.2621 25.89 14.6694 25.0876 12.5429L23.2164 13.2491C23.9073 15.0799 24.272 17.4152 24.272 20.288H26.272ZM25.0933 12.5585C24.3341 10.4407 23.2041 8.77832 21.6575 7.66132L20.4865 9.28268C21.6279 10.107 22.5512 11.3939 23.2107 13.2335L25.0933 12.5585ZM21.6828 7.68022C20.1858 6.52539 18.4168 5.96 16.424 5.96V7.96C18.0152 7.96 19.3449 8.4026 20.4612 9.26378L21.6828 7.68022ZM16.424 5.96C14.4633 5.96 12.7143 6.52836 11.2212 7.68022L12.4428 9.26378C13.563 8.39963 14.8754 7.96 16.424 7.96V5.96ZM11.2357 7.66925C9.73535 8.78379 8.61078 10.4378 7.8164 12.5429L9.6876 13.2491C10.3866 11.3968 11.3153 10.1015 12.4283 9.27474L11.2357 7.66925ZM7.81274 12.5528C7.05004 14.6402 6.688 17.2114 6.688 20.232H8.688C8.688 17.3539 9.0353 15.0345 9.69127 13.2392L7.81274 12.5528ZM6.688 20.232C6.688 23.2893 7.04991 25.8954 7.81066 28.0175L9.69334 27.3425C9.03542 25.5073 8.688 23.1481 8.688 20.232H6.688ZM7.8164 28.0331C8.61038 30.1371 9.73165 31.8027 11.2212 32.9518L12.4428 31.3682C11.319 30.5013 10.387 29.1802 9.6876 27.3269L7.8164 28.0331ZM11.2212 32.9518C12.7182 34.1066 14.4872 34.672 16.48 34.672V32.672C14.8888 32.672 13.5591 32.2294 12.4428 31.3682L11.2212 32.9518ZM41.0728 39.16L40.6695 40.0751L40.676 40.078L40.6826 40.0808L41.0728 39.16ZM35.5287 35.016L34.8256 34.305L34.1726 34.9507L34.7605 35.6562L35.5287 35.016ZM40.5687 30.032L41.4008 29.4773L40.728 28.4681L39.8656 29.321L40.5687 30.032ZM43.7607 32.72L44.1982 31.8208L43.7607 32.72ZM52.1047 32.944L52.5395 33.8446L52.5519 33.8386L52.5642 33.8322L52.1047 32.944ZM54.6248 30.648L53.7785 30.1152L53.7731 30.1239L54.6248 30.648ZM54.6248 23.648L53.7731 24.1721L53.7803 24.1838L53.7878 24.1952L54.6248 23.648ZM51.9927 21.408L51.5812 22.3194L51.9927 21.408ZM45.6647 20.792L45.7643 21.787L45.7887 21.7846L45.8131 21.7809L45.6647 20.792ZM43.7607 21.184L42.9759 20.5644L40.8189 23.2965L44.0971 22.1257L43.7607 21.184ZM47.1208 16.928L46.816 15.9756L46.5251 16.0687L46.3359 16.3084L47.1208 16.928ZM49.8647 16.2L50.0687 17.179L50.0835 17.1759L50.0981 17.1724L49.8647 16.2ZM57.8727 17.32L57.3553 18.1757L57.3669 18.1828L57.3787 18.1895L57.8727 17.32ZM61.7368 21.352L60.8539 21.8216L60.8599 21.8329L60.8662 21.8441L61.7368 21.352ZM61.3447 34.344L62.1891 34.8798L62.1936 34.8726L61.3447 34.344ZM56.1367 38.936L56.5779 39.8335L56.584 39.8304L56.1367 38.936ZM43.7607 21.184H42.7607V22.8117L44.2127 22.076L43.7607 21.184ZM43.7607 16.816L43.003 16.1634L42.7607 16.4447V16.816H43.7607ZM53.8407 5.112L53.8279 4.11208L53.3772 4.11786L53.083 4.45942L53.8407 5.112ZM62.5768 5L63.33 5.65775L64.8026 3.97138L62.5639 4.00008L62.5768 5ZM52.1607 16.928L52.6127 17.82L52.7861 17.7322L52.914 17.5858L52.1607 16.928ZM37.7127 7.24H36.7127V8.24H37.7127V7.24ZM37.7127 0.632V-0.368H36.7127V0.632H37.7127ZM62.5768 0.632H63.5768V-0.368H62.5768V0.632ZM62.5768 5L62.9158 5.94078L63.5768 5.70259V5H62.5768ZM56.3607 7.24V8.24H56.5354L56.6998 8.18078L56.3607 7.24ZM48.3527 39.56C45.8216 39.56 43.5294 39.1149 41.4629 38.2392L40.6826 40.0808C43.0214 41.0718 45.5826 41.56 48.3527 41.56V39.56ZM41.476 38.2449C39.4099 37.3344 37.6883 36.0454 36.297 34.3758L34.7605 35.6562C36.3559 37.5706 38.3302 39.0442 40.6695 40.0751L41.476 38.2449ZM36.2319 35.727L41.2719 30.743L39.8656 29.321L34.8256 34.305L36.2319 35.727ZM39.7367 30.5867C40.5952 31.8745 41.8051 32.8807 43.3233 33.6192L44.1982 31.8208C42.9537 31.2153 42.0356 30.4295 41.4008 29.4773L39.7367 30.5867ZM43.3233 33.6192C44.8471 34.3605 46.4909 34.728 48.2407 34.728V32.728C46.78 32.728 45.4371 32.4235 44.1982 31.8208L43.3233 33.6192ZM48.2407 34.728C49.849 34.728 51.2925 34.4466 52.5395 33.8446L51.67 32.0434C50.7517 32.4868 49.6191 32.728 48.2407 32.728V34.728ZM52.5642 33.8322C53.7966 33.1948 54.7772 32.3083 55.4764 31.1721L53.7731 30.1239C53.2776 30.929 52.5782 31.5732 51.6453 32.0558L52.5642 33.8322ZM55.471 31.1808C56.2157 29.9979 56.5768 28.6523 56.5768 27.176H54.5768C54.5768 28.3131 54.3031 29.2821 53.7785 30.1152L55.471 31.1808ZM56.5768 27.176C56.5768 25.638 56.2217 24.263 55.4617 23.1007L53.7878 24.1952C54.2972 24.9743 54.5768 25.9513 54.5768 27.176H56.5768ZM55.4764 23.1239C54.7626 21.9639 53.7221 21.0918 52.4043 20.4966L51.5812 22.3194C52.578 22.7696 53.2922 23.3907 53.7731 24.1721L55.4764 23.1239ZM52.4043 20.4966C51.0883 19.9023 49.5598 19.624 47.8487 19.624V21.624C49.3484 21.624 50.5826 21.8684 51.5812 22.3194L52.4043 20.4966ZM47.8487 19.624C47.0867 19.624 46.3091 19.6842 45.5164 19.8031L45.8131 21.7809C46.5138 21.6758 47.1921 21.624 47.8487 21.624V19.624ZM45.5652 19.797C44.7641 19.8771 44.045 20.0206 43.4244 20.2423L44.0971 22.1257C44.5218 21.974 45.0721 21.8563 45.7643 21.787L45.5652 19.797ZM44.5456 21.8036L47.9056 17.5476L46.3359 16.3084L42.9759 20.5644L44.5456 21.8036ZM47.4255 17.8804C48.328 17.5916 49.209 17.3581 50.0687 17.179L49.6608 15.221C48.7285 15.4153 47.7801 15.667 46.816 15.9756L47.4255 17.8804ZM50.0981 17.1724C50.9714 16.9628 51.7506 16.864 52.4408 16.864V14.864C51.5629 14.864 50.6248 14.9892 49.6314 15.2276L50.0981 17.1724ZM52.4408 16.864C54.2885 16.864 55.9178 17.3065 57.3553 18.1757L58.3902 16.4643C56.6171 15.3922 54.625 14.864 52.4408 14.864V16.864ZM57.3787 18.1895C58.8477 19.0241 60.0048 20.2253 60.8539 21.8216L62.6196 20.8824C61.6021 18.9694 60.1831 17.4826 58.3668 16.4505L57.3787 18.1895ZM60.8662 21.8441C61.737 23.3848 62.1927 25.2432 62.1927 27.456H64.1927C64.1927 24.9648 63.6778 22.7539 62.6073 20.8599L60.8662 21.8441ZM62.1927 27.456C62.1927 29.9058 61.6175 32.0141 60.4959 33.8154L62.1936 34.8726C63.536 32.7166 64.1927 30.2329 64.1927 27.456H62.1927ZM60.5004 33.8082C59.3744 35.5826 57.782 36.9953 55.6895 38.0416L56.584 39.8304C58.9715 38.6367 60.8511 36.9881 62.1891 34.8798L60.5004 33.8082ZM55.6956 38.0386C53.6568 39.0407 51.2191 39.56 48.3527 39.56V41.56C51.4597 41.56 54.2114 40.9966 56.5779 39.8335L55.6956 38.0386ZM44.7607 21.184V16.816H42.7607V21.184H44.7607ZM44.5185 17.4686L54.5985 5.76458L53.083 4.45942L43.003 16.1634L44.5185 17.4686ZM53.8536 6.11192L62.5896 5.99992L62.5639 4.00008L53.8279 4.11208L53.8536 6.11192ZM61.8235 4.34225L51.4075 16.2702L52.914 17.5858L63.33 5.65775L61.8235 4.34225ZM51.7088 16.036L43.3088 20.292L44.2127 22.076L52.6127 17.82L51.7088 16.036ZM38.7127 7.24V0.632H36.7127V7.24H38.7127ZM37.7127 1.632H62.5768V-0.368H37.7127V1.632ZM61.5768 0.632V5H63.5768V0.632H61.5768ZM62.2377 4.05922L56.0217 6.29922L56.6998 8.18078L62.9158 5.94078L62.2377 4.05922ZM56.3607 6.24H37.7127V8.24H56.3607V6.24Z" fill="black" fill-opacity="0.07" mask="url(#path-1-outside-1_149_301)"/>
</svg>
