<svg width="67" height="41" viewBox="0 0 67 41" fill="none" xmlns="http://www.w3.org/2000/svg">
<mask id="path-1-outside-1_149_310" maskUnits="userSpaceOnUse" x="-1" y="-1" width="69" height="43" fill="black">
<rect fill="white" x="-1" y="-1" width="69" height="43"/>
<path d="M16.592 40.56C13.4933 40.56 10.6933 39.72 8.192 38.04C5.69067 36.36 3.69333 33.9893 2.2 30.928C0.744 27.8667 0.0160001 24.3013 0.0160001 20.232C0.0160001 16.1627 0.744 12.616 2.2 9.592C3.656 6.568 5.616 4.216 8.08 2.536C10.5813 0.855998 13.3627 0.0159974 16.424 0.0159974C19.56 0.0159974 22.36 0.855998 24.824 2.536C27.3253 4.216 29.304 6.58667 30.76 9.648C32.216 12.672 32.944 16.2373 32.944 20.344C32.944 24.4133 32.216 27.9787 30.76 31.04C29.304 34.064 27.344 36.416 24.88 38.096C22.416 39.7387 19.6533 40.56 16.592 40.56ZM16.48 33.672C18.272 33.672 19.8213 33.168 21.128 32.16C22.4347 31.152 23.4427 29.6587 24.152 27.68C24.8987 25.7013 25.272 23.2373 25.272 20.288C25.272 17.3387 24.8987 14.8747 24.152 12.896C23.4427 10.9173 22.416 9.44267 21.072 8.472C19.7653 7.464 18.216 6.96 16.424 6.96C14.6693 6.96 13.1387 7.464 11.832 8.472C10.5253 9.44267 9.49867 10.9173 8.752 12.896C8.04267 14.8373 7.688 17.2827 7.688 20.232C7.688 23.2187 8.04267 25.7013 8.752 27.68C9.49867 29.6587 10.5253 31.152 11.832 32.16C13.1387 33.168 14.688 33.672 16.48 33.672ZM35.8087 26.112L49.2487 0.631999H57.6487L43.8727 26.112H35.8087ZM35.8087 30.592V26.112L38.6087 23.928H66.8328V30.592H35.8087ZM54.4007 40V14.912H61.9048V40H54.4007Z"/>
</mask>
<path d="M8.192 38.04L8.74956 37.2099L8.192 38.04ZM2.2 30.928L1.29689 31.3575L1.30123 31.3664L2.2 30.928ZM2.2 9.592L1.299 9.15818H1.299L2.2 9.592ZM8.08 2.536L7.52243 1.70584L7.51666 1.70977L8.08 2.536ZM24.824 2.536L24.2607 3.36225L24.2664 3.36614L24.824 2.536ZM30.76 9.648L29.8569 10.0775L29.859 10.0818L30.76 9.648ZM30.76 31.04L31.661 31.4738L31.6631 31.4695L30.76 31.04ZM24.88 38.096L25.4347 38.9281L25.4433 38.9222L24.88 38.096ZM21.128 32.16L21.7388 32.9518L21.128 32.16ZM24.152 27.68L23.2164 27.3269L23.2135 27.3347L23.2107 27.3425L24.152 27.68ZM24.152 12.896L23.2107 13.2335L23.2135 13.2413L23.2164 13.2491L24.152 12.896ZM21.072 8.472L20.4612 9.26378L20.4737 9.27343L20.4865 9.28268L21.072 8.472ZM11.832 8.472L12.4283 9.27474L12.4356 9.26933L12.4428 9.26378L11.832 8.472ZM8.752 12.896L7.81635 12.5429L7.81274 12.5528L8.752 12.896ZM8.752 27.68L7.81066 28.0175L7.81347 28.0253L7.8164 28.0331L8.752 27.68ZM11.832 32.16L11.2212 32.9518L11.832 32.16ZM16.592 39.56C13.6859 39.56 11.0811 38.7758 8.74956 37.2099L7.63444 38.8701C10.3055 40.6642 13.3007 41.56 16.592 41.56V39.56ZM8.74956 37.2099C6.41278 35.6404 4.52513 33.4136 3.09877 30.4896L1.30123 31.3664C2.86154 34.565 4.96856 37.0796 7.63444 38.8701L8.74956 37.2099ZM3.10306 30.4985C1.7224 27.5956 1.016 24.1821 1.016 20.232H-0.984C-0.984 24.4206 -0.234401 28.1378 1.29694 31.3575L3.10306 30.4985ZM1.016 20.232C1.016 16.2815 1.72254 12.8888 3.101 10.0258L1.299 9.15818C-0.234537 12.3432 -0.984 16.0439 -0.984 20.232H1.016ZM3.101 10.0258C4.49059 7.13975 6.34189 4.9314 8.64334 3.36223L7.51666 1.70977C4.89011 3.5006 2.82141 5.99625 1.299 9.15818L3.101 10.0258ZM8.63756 3.36614C10.9712 1.79874 13.5579 1.016 16.424 1.016V-0.984003C13.1675 -0.984003 10.1914 -0.0867405 7.52244 1.70586L8.63756 3.36614ZM16.424 1.016C19.37 1.016 21.9715 1.80146 24.2607 3.36223L25.3873 1.70977C22.7485 -0.0894632 19.75 -0.984003 16.424 -0.984003V1.016ZM24.2664 3.36614C26.6008 4.93396 28.4682 7.15757 29.8569 10.0775L31.6631 9.21849C30.1398 6.01576 28.0499 3.49804 25.3816 1.70586L24.2664 3.36614ZM29.859 10.0818C31.2369 12.9436 31.944 16.3546 31.944 20.344H33.944C33.944 16.1201 33.1951 12.4004 31.661 9.21418L29.859 10.0818ZM31.944 20.344C31.944 24.2941 31.2376 27.7076 29.8569 30.6105L31.6631 31.4695C33.1944 28.2498 33.944 24.5326 33.944 20.344H31.944ZM29.859 30.6062C28.4694 33.4923 26.6181 35.7006 24.3167 37.2698L25.4433 38.9222C28.0699 37.1314 30.1386 34.6357 31.661 31.4738L29.859 30.6062ZM24.3253 37.264C22.0313 38.7933 19.463 39.56 16.592 39.56V41.56C19.8437 41.56 22.8007 40.6841 25.4347 38.9281L24.3253 37.264ZM16.48 34.672C18.4728 34.672 20.2418 34.1066 21.7388 32.9518L20.5172 31.3682C19.4009 32.2294 18.0712 32.672 16.48 32.672V34.672ZM21.7388 32.9518C23.2332 31.799 24.337 30.1272 25.0933 28.0175L23.2107 27.3425C22.5483 29.1901 21.6361 30.505 20.5172 31.3682L21.7388 32.9518ZM25.0876 28.0331C25.89 25.9066 26.272 23.3139 26.272 20.288H24.272C24.272 23.1608 23.9073 25.4961 23.2164 27.3269L25.0876 28.0331ZM26.272 20.288C26.272 17.2621 25.89 14.6694 25.0876 12.5429L23.2164 13.2491C23.9073 15.0799 24.272 17.4152 24.272 20.288H26.272ZM25.0933 12.5585C24.3341 10.4407 23.2041 8.77832 21.6575 7.66132L20.4865 9.28268C21.6279 10.107 22.5512 11.3939 23.2107 13.2335L25.0933 12.5585ZM21.6828 7.68022C20.1858 6.52539 18.4168 5.96 16.424 5.96V7.96C18.0152 7.96 19.3449 8.4026 20.4612 9.26378L21.6828 7.68022ZM16.424 5.96C14.4633 5.96 12.7143 6.52836 11.2212 7.68022L12.4428 9.26378C13.563 8.39963 14.8754 7.96 16.424 7.96V5.96ZM11.2357 7.66925C9.73535 8.78379 8.61078 10.4378 7.8164 12.5429L9.6876 13.2491C10.3866 11.3968 11.3153 10.1015 12.4283 9.27474L11.2357 7.66925ZM7.81274 12.5528C7.05004 14.6402 6.688 17.2114 6.688 20.232H8.688C8.688 17.3539 9.0353 15.0345 9.69127 13.2392L7.81274 12.5528ZM6.688 20.232C6.688 23.2893 7.04991 25.8954 7.81066 28.0175L9.69334 27.3425C9.03542 25.5073 8.688 23.1481 8.688 20.232H6.688ZM7.8164 28.0331C8.61038 30.1371 9.73165 31.8027 11.2212 32.9518L12.4428 31.3682C11.319 30.5013 10.387 29.1802 9.6876 27.3269L7.8164 28.0331ZM11.2212 32.9518C12.7182 34.1066 14.4872 34.672 16.48 34.672V32.672C14.8888 32.672 13.5591 32.2294 12.4428 31.3682L11.2212 32.9518ZM35.8088 26.112L34.9243 25.6455L34.1507 27.112H35.8088V26.112ZM49.2487 0.632V-0.368H48.6456L48.3643 0.165452L49.2487 0.632ZM57.6488 0.632L58.5284 1.1076L59.3262 -0.368H57.6488V0.632ZM43.8727 26.112V27.112H44.4689L44.7524 26.5876L43.8727 26.112ZM35.8088 30.592H34.8088V31.592H35.8088V30.592ZM35.8088 26.112L35.1937 25.3235L34.8088 25.6238V26.112H35.8088ZM38.6087 23.928V22.928H38.2649L37.9937 23.1395L38.6087 23.928ZM66.8327 23.928H67.8327V22.928H66.8327V23.928ZM66.8327 30.592V31.592H67.8327V30.592H66.8327ZM54.4007 40H53.4007V41H54.4007V40ZM54.4007 14.912V13.912H53.4007V14.912H54.4007ZM61.9048 14.912H62.9047V13.912H61.9048V14.912ZM61.9048 40V41H62.9047V40H61.9048ZM36.6932 26.5785L50.1332 1.09855L48.3643 0.165452L34.9243 25.6455L36.6932 26.5785ZM49.2487 1.632H57.6488V-0.368H49.2487V1.632ZM56.7691 0.156402L42.9931 25.6364L44.7524 26.5876L58.5284 1.1076L56.7691 0.156402ZM43.8727 25.112H35.8088V27.112H43.8727V25.112ZM36.8088 30.592V26.112H34.8088V30.592H36.8088ZM36.4238 26.9005L39.2238 24.7165L37.9937 23.1395L35.1937 25.3235L36.4238 26.9005ZM38.6087 24.928H66.8327V22.928H38.6087V24.928ZM65.8327 23.928V30.592H67.8327V23.928H65.8327ZM66.8327 29.592H35.8088V31.592H66.8327V29.592ZM55.4007 40V14.912H53.4007V40H55.4007ZM54.4007 15.912H61.9048V13.912H54.4007V15.912ZM60.9048 14.912V40H62.9047V14.912H60.9048ZM61.9048 39H54.4007V41H61.9048V39Z" fill="black" fill-opacity="0.07" mask="url(#path-1-outside-1_149_310)"/>
</svg>
