<svg xmlns="http://www.w3.org/2000/svg" width="56" height="56" fill="none"><circle cx="28" cy="28" r="28" fill="#EEF9FF"/><g stroke="#1489F6" stroke-linecap="round" stroke-linejoin="round" stroke-width="1.2" clip-path="url(#a)"><path d="M35.484 28.546a9.438 9.438 0 1 0-18.607-2.25 9.44 9.44 0 0 0 5.666 8.654M16.877 26.295h18.877"/><path d="M23.511 30.652a16.29 16.29 0 0 1-.83-4.357 16.293 16.293 0 0 1 3.63-9.438 16.292 16.292 0 0 1 3.63 9.438 16.31 16.31 0 0 1-.194 1.809M32.214 30.019l6.908 2.993-6.908 2.993-6.907-2.993 6.907-2.993Z"/><path d="m28.44 34.377.007 3.257s1.14 1.509 3.767 1.509c2.625 0 3.772-1.51 3.772-1.51v-3.256M25.307 38.277v-5.265"/></g><defs><clipPath id="a"><path fill="#fff" d="M16 16h24v24H16z"/></clipPath></defs></svg>