<svg xmlns="http://www.w3.org/2000/svg" width="56" height="56" fill="none"><circle cx="28" cy="28" r="28" fill="#DDF5D2"/><g stroke="#5ABF35" stroke-linecap="round" stroke-linejoin="round" stroke-width="1.2" clip-path="url(#a)"><path d="M21.144 28V23.49A6.735 6.735 0 0 1 28 16.857a6.74 6.74 0 0 1 6.857 6.634V28M18.572 25.428h1.714a.857.857 0 0 1 .857.857v5.143a.857.857 0 0 1-.857.857h-1.714a1.715 1.715 0 0 1-1.715-1.714v-3.429a1.714 1.714 0 0 1 1.715-1.714Z"/><path d="M37.429 32.285h-1.714a.857.857 0 0 1-.858-.857v-5.143a.858.858 0 0 1 .858-.857h1.714a1.714 1.714 0 0 1 1.714 1.714v3.43a1.714 1.714 0 0 1-1.714 1.713Z"/><path d="M31.429 37a3.428 3.428 0 0 0 3.428-3.428v-3.858M31.428 37a2.143 2.143 0 0 1-2.142 2.143h-2.572a2.143 2.143 0 1 1 0-4.286h2.572A2.143 2.143 0 0 1 31.428 37Z"/></g><defs><clipPath id="a"><path fill="#fff" d="M16 16h24v24H16z"/></clipPath></defs></svg>