<svg width="30" height="28" fill="none" xmlns="http://www.w3.org/2000/svg"><path d="M23.125 8.375H6.875a2.5 2.5 0 0 0-2.5 2.5V24a2.5 2.5 0 0 0 2.5 2.5h16.25a2.5 2.5 0 0 0 2.5-2.5V10.875a2.5 2.5 0 0 0-2.5-2.5Z" fill="#EFF3F9"/><path d="M6.875 22.75V8.375a2.5 2.5 0 0 0-2.5 2.5V24a2.5 2.5 0 0 0 2.5 2.5h16.25a2.5 2.5 0 0 0 2.5-2.5h-17.5a1.25 1.25 0 0 1-1.25-1.25Z" fill="#CFE0F3"/><path d="M11.25 15.875a1.25 1.25 0 1 0 0-2.5 1.25 1.25 0 0 0 0 2.5ZM18.75 15.875a1.25 1.25 0 1 0 0-2.5 1.25 1.25 0 0 0 0 2.5Z" fill="#AFB4C2"/><path d="M28.125 21.5h-2.5v-8.125h2.5a1.25 1.25 0 0 1 1.25 1.25v5.625a1.25 1.25 0 0 1-1.25 1.25Zm-26.25 0h2.5v-8.125h-2.5a1.25 1.25 0 0 0-1.25 1.25v5.625a1.25 1.25 0 0 0 1.25 1.25Z" fill="#8C94AF"/><path d="M28.125 19h-2.5v2.5h2.5a1.25 1.25 0 0 0 1.25-1.25v-2.5a1.25 1.25 0 0 1-1.25 1.25Zm-27.5-1.25v2.5a1.25 1.25 0 0 0 1.25 1.25h2.5V19h-2.5a1.25 1.25 0 0 1-1.25-1.25Z" fill="#6F7792"/><path d="M15 4.625a1.875 1.875 0 1 0 0-3.75 1.875 1.875 0 0 0 0 3.75Z" fill="#FF3B65"/><path d="M15.938 3.375a1.563 1.563 0 0 1-1.563-1.563c0-.337.11-.648.292-.903A1.872 1.872 0 0 0 15 4.625a1.872 1.872 0 0 0 1.841-1.542c-.263.19-.58.291-.904.292Z" fill="#D82B50" fill-opacity=".459"/><path d="M13.125 14.625a1.877 1.877 0 0 0-1.875-1.875 1.877 1.877 0 0 0-1.875 1.875c0 1.034.841 1.875 1.875 1.875a1.877 1.877 0 0 0 1.875-1.875Zm-1.875.625a.626.626 0 0 1 0-1.25.626.626 0 0 1 0 1.25Zm7.5-2.5a1.877 1.877 0 0 0-1.875 1.875c0 1.034.841 1.875 1.875 1.875a1.877 1.877 0 0 0 1.875-1.875 1.877 1.877 0 0 0-1.875-1.875Zm0 2.5a.626.626 0 0 1 0-1.25.626.626 0 0 1 0 1.25Zm-.91 4.944a6.282 6.282 0 0 1-5.68 0 .625.625 0 0 0-.57 1.112 7.497 7.497 0 0 0 3.41.82 7.49 7.49 0 0 0 3.41-.82.625.625 0 0 0-.57-1.112Z" fill="#08105E"/><path d="M28.125 12.75H26.25v-1.875a3.129 3.129 0 0 0-3.125-3.125h-7.5V5.161A2.498 2.498 0 0 0 17.5 2.75c0-1.379-1.121-2.5-2.5-2.5a2.503 2.503 0 0 0-2.5 2.5c0 1.161.8 2.132 1.875 2.411V7.75h-7.5a3.129 3.129 0 0 0-3.125 3.125v1.875H1.875A1.877 1.877 0 0 0 0 14.625v5.625c0 1.034.841 1.875 1.875 1.875H3.75V24a3.129 3.129 0 0 0 3.125 3.125h16.25A3.129 3.129 0 0 0 26.25 24v-1.875h1.875A1.877 1.877 0 0 0 30 20.25v-5.625a1.877 1.877 0 0 0-1.875-1.875Zm-14.375-10a1.251 1.251 0 0 1 2.5 0 1.251 1.251 0 0 1-2.5 0ZM1.875 20.875a.626.626 0 0 1-.625-.625v-5.625c0-.344.28-.625.625-.625H3.75v6.875H1.875ZM25 24a1.877 1.877 0 0 1-1.875 1.875H6.875A1.877 1.877 0 0 1 5 24V10.875C5 9.841 5.841 9 6.875 9h16.25C24.159 9 25 9.841 25 10.875V24Zm3.75-3.75c0 .345-.28.625-.625.625H26.25V14h1.875c.344 0 .625.28.625.625v5.625Z" fill="#08105E"/></svg>