<svg width="20" height="20" fill="none" xmlns="http://www.w3.org/2000/svg"><path d="M18.75 5.625a4.969 4.969 0 0 1-1.465 3.536L8.28 18.274a3.745 3.745 0 0 1-2.655 1.098 3.738 3.738 0 0 1-2.651-1.096 3.755 3.755 0 0 1 0-5.303l6.506-6.47c.977-.97 2.53-1.002 3.463-.07a2.325 2.325 0 0 1 .676 1.733c-.02.65-.29 1.268-.752 1.726l-6.174 6.175a.625.625 0 1 1-.884-.884l6.174-6.174c.24-.24.377-.552.387-.88a1.087 1.087 0 0 0-.311-.812c-.447-.445-1.208-.413-1.697.073l-6.506 6.468a2.503 2.503 0 0 0 .002 3.534 2.504 2.504 0 0 0 3.535 0L16.4 8.28a3.727 3.727 0 0 0 1.1-2.654c0-1.002-.39-1.943-1.097-2.651a3.725 3.725 0 0 0-2.652-1.099c-1.002 0-1.943.39-2.652 1.099l-8.783 8.72a.624.624 0 0 1-1.065-.446c0-.166.067-.325.185-.442l8.781-8.718A4.964 4.964 0 0 1 13.75.625c1.335 0 2.591.52 3.535 1.465a4.963 4.963 0 0 1 1.465 3.535Z" fill="#494F5A"/></svg>