<svg width="16" height="16" fill="none" xmlns="http://www.w3.org/2000/svg"><g clip-path="url(#a)" fill="#32363E"><path d="M15.36 9.56A7.523 7.523 0 0 0 9.975.74 7.574 7.574 0 0 0 6.44.64a4.21 4.21 0 0 0-5.8 5.8 7.521 7.521 0 0 0 2.04 6.88 7.522 7.522 0 0 0 6.88 2.04 4.215 4.215 0 0 0 5.207-.592 4.21 4.21 0 0 0 .593-5.208Zm-1.288 4.512a3.217 3.217 0 0 1-4.132.36.493.493 0 0 0-.399-.076 6.5 6.5 0 0 1-6.165-1.732A6.5 6.5 0 0 1 1.644 6.46a.492.492 0 0 0-.076-.399 3.216 3.216 0 0 1 .36-4.132 3.216 3.216 0 0 1 4.132-.36.492.492 0 0 0 .399.076 6.5 6.5 0 0 1 6.165 1.732 6.5 6.5 0 0 1 1.732 6.165.492.492 0 0 0 .076.399 3.216 3.216 0 0 1-.36 4.132Z"/><path d="M8.092 7.462c-1.016-.344-2.167-.733-2.167-1.309 0-.734.95-1.355 2.075-1.355 1.125 0 2.075.62 2.075 1.355a.492.492 0 0 0 .984 0c0-.656-.34-1.261-.957-1.705-.568-.409-1.314-.634-2.102-.634-.788 0-1.534.225-2.102.634-.617.444-.957 1.05-.957 1.705 0 .598.344 1.103 1.021 1.5.511.3 1.174.524 1.815.74 1.13.383 2.298.778 2.298 1.454 0 .735-.95 1.355-2.075 1.355-1.125 0-2.075-.62-2.075-1.355a.492.492 0 0 0-.984 0c0 .656.34 1.261.957 1.705.568.409 1.314.634 2.102.634.788 0 1.534-.225 2.102-.634.617-.444.957-1.05.957-1.705 0-1.381-1.577-1.915-2.967-2.385Z"/></g><defs><clipPath id="a"><path fill="#fff" d="M0 0h16v16H0z"/></clipPath></defs></svg>