<svg width="1346" height="280" viewBox="0 0 1346 280" fill="none" xmlns="http://www.w3.org/2000/svg">
<path d="M120.371 11.3401C123.789 4.40869 130.982 0 138.874 0H673V280H20.5521C5.43459 280 -4.49644 264.617 2.04932 251.34L120.371 11.3401Z" fill="#5065E2"/>
<path d="M1225.63 11.3401C1222.21 4.40869 1215.02 0 1207.13 0H673V280H1325.45C1340.57 280 1350.5 264.617 1343.95 251.34L1225.63 11.3401Z" fill="#5065E2"/>
<mask id="mask0_2305_3696" style="mask-type:alpha" maskUnits="userSpaceOnUse" x="0" y="0" width="1346" height="280">
<path d="M120.371 11.3401C123.789 4.40869 130.982 0 138.874 0H673V280H20.5521C5.43459 280 -4.49644 264.617 2.04932 251.34L120.371 11.3401Z" fill="#5F0BF4"/>
<path d="M1225.63 11.3401C1222.21 4.40869 1215.02 0 1207.13 0H673V280H1325.45C1340.57 280 1350.5 264.617 1343.95 251.34L1225.63 11.3401Z" fill="#5F0BF4"/>
</mask>
<g mask="url(#mask0_2305_3696)">
<path opacity="0.08" d="M1045 -4.00001C1045 20.6651 1054.75 44.32 1072.09 61.7609C1089.44 79.2018 1112.97 89 1137.5 89C1162.03 89 1185.56 79.2018 1202.91 61.7609C1220.25 44.3201 1230 20.6652 1230 -3.99998L1137.5 -4L1045 -4.00001Z" fill="white" fill-opacity="0.5"/>
<path opacity="0.08" d="M792 153.5C792 185.193 804.59 215.589 827.001 237.999C849.411 260.41 879.807 273 911.5 273C943.193 273 973.589 260.41 995.999 237.999C1018.41 215.589 1031 185.193 1031 153.5L911.5 153.5L792 153.5Z" fill="white" fill-opacity="0.5"/>
<circle opacity="0.07" cx="908" cy="73" r="29" fill="white" fill-opacity="0.5"/>
<path opacity="0.07" d="M908 216L842.182 102L973.818 102L908 216Z" fill="white" fill-opacity="0.5"/>
<rect opacity="0.08" x="1031" y="89" width="214" height="214" fill="white" fill-opacity="0.5"/>
<circle opacity="0.08" cx="1260" cy="202" r="113" fill="white" fill-opacity="0.5"/>
<circle opacity="0.05" cx="6.5" cy="173.5" r="177.5" fill="white" fill-opacity="0.5"/>
</g>
</svg>
