<svg width="48" height="48" viewBox="0 0 48 48" fill="none" xmlns="http://www.w3.org/2000/svg">
<circle cx="24" cy="24" r="24" fill="white"/>
<g clip-path="url(#clip0_344_1137)">
<path d="M16.89 27.9536C19.2572 30.7833 22.1068 33.0112 25.3592 34.5877C26.5975 35.1745 28.2535 35.8707 30.0985 35.9901C30.2129 35.995 30.3223 36 30.4367 36C31.675 36 32.6696 35.5723 33.4802 34.6921C33.4852 34.6871 33.4951 34.6772 33.5001 34.6672C33.7885 34.3191 34.1167 34.0058 34.4599 33.6726C34.6936 33.4488 34.9323 33.2151 35.1611 32.9764C36.2203 31.8724 36.2203 30.47 35.1511 29.4007L32.1623 26.4119C31.6551 25.8848 31.0484 25.6063 30.4118 25.6063C29.7753 25.6063 29.1636 25.8848 28.6414 26.407L26.861 28.1873C26.6969 28.0928 26.5278 28.0083 26.3687 27.9287C26.1698 27.8293 25.9858 27.7348 25.8217 27.6303C24.2004 26.6009 22.7284 25.2582 21.321 23.5325C20.6099 22.6324 20.1325 21.8765 19.7993 21.1057C20.2668 20.683 20.7044 20.2404 21.1271 19.8077C21.2763 19.6535 21.4305 19.4994 21.5846 19.3452C22.1217 18.8081 22.4101 18.1865 22.4101 17.5549C22.4101 16.9233 22.1267 16.3017 21.5846 15.7646L20.1026 14.2826C19.9286 14.1086 19.7645 13.9395 19.5954 13.7654C19.2672 13.4273 18.924 13.0792 18.5859 12.7659C18.0736 12.2636 17.4719 12 16.8353 12C16.2038 12 15.5971 12.2636 15.0649 12.7708L13.205 14.6308C12.5287 15.3071 12.1457 16.1276 12.0662 17.0775C11.9717 18.2661 12.1905 19.5292 12.7574 21.0559C13.6277 23.4182 14.9406 25.6113 16.89 27.9536ZM13.2796 17.1819C13.3393 16.5205 13.5929 15.9685 14.0703 15.4911L15.9203 13.6411C16.2087 13.3626 16.527 13.2184 16.8353 13.2184C17.1387 13.2184 17.447 13.3626 17.7305 13.6511C18.0637 13.9594 18.377 14.2826 18.7152 14.6258C18.8842 14.7998 19.0583 14.9739 19.2324 15.1529L20.7143 16.6349C21.0227 16.9432 21.1818 17.2565 21.1818 17.5649C21.1818 17.8732 21.0227 18.1865 20.7143 18.4948C20.5602 18.649 20.406 18.8081 20.2518 18.9623C19.7893 19.4298 19.3567 19.8724 18.8793 20.2951L18.8544 20.3199C18.4416 20.7327 18.5063 21.1256 18.6058 21.424C18.6107 21.4389 18.6157 21.4488 18.6207 21.4637C19.0036 22.3838 19.5357 23.259 20.3662 24.3034C21.8581 26.1434 23.4296 27.5707 25.1603 28.6697C25.3741 28.809 25.6029 28.9184 25.8167 29.0278C26.0156 29.1272 26.1996 29.2217 26.3637 29.3261C26.3836 29.3361 26.3985 29.346 26.4184 29.356C26.5825 29.4405 26.7417 29.4803 26.9008 29.4803C27.2987 29.4803 27.5573 29.2267 27.6418 29.1421L29.5017 27.2822C29.7902 26.9938 30.1035 26.8396 30.4118 26.8396C30.7898 26.8396 31.0981 27.0734 31.292 27.2822L34.2908 30.276C34.8876 30.8728 34.8826 31.5193 34.2759 32.1508C34.067 32.3746 33.8482 32.5885 33.6145 32.8123C33.2663 33.1504 32.9033 33.4985 32.5751 33.8914C32.0032 34.5081 31.3219 34.7965 30.4416 34.7965C30.3571 34.7965 30.2676 34.7915 30.183 34.7866C28.5519 34.6821 27.0351 34.0456 25.8963 33.5035C22.803 32.0066 20.0877 29.8831 17.8349 27.1877C15.98 24.9548 14.7317 22.8761 13.9062 20.6482C13.394 19.2806 13.2 18.1815 13.2796 17.1819Z" fill="#5065E2"/>
</g>
<defs>
<clipPath id="clip0_344_1137">
<rect width="24" height="24" fill="white" transform="translate(12 12)"/>
</clipPath>
</defs>
</svg>
