<svg width="16" height="17" viewBox="0 0 16 17" fill="none" xmlns="http://www.w3.org/2000/svg">
<g clip-path="url(#clip0_1903_16276)">
<path d="M15.5426 2.68688C15.3072 2.4511 14.9253 2.45069 14.6899 2.68588L7.45577 9.90094L4.8457 7.06616C4.62017 6.82135 4.23886 6.80547 3.99364 7.03097C3.74861 7.2565 3.73292 7.638 3.95845 7.88304L6.99364 11.1793C7.04863 11.2391 7.11513 11.2871 7.18916 11.3205C7.26318 11.3539 7.3432 11.372 7.42439 11.3737C7.4288 11.3739 7.43305 11.3739 7.43727 11.3739C7.59684 11.3738 7.7499 11.3106 7.86299 11.198L15.5414 3.53972C15.7774 3.30457 15.7778 2.92266 15.5426 2.68688Z" fill="#1C1E22"/>
<path d="M15.397 7.89697C15.0639 7.89697 14.794 8.16691 14.794 8.5C14.794 12.2463 11.7463 15.294 8 15.294C4.25387 15.294 1.20603 12.2463 1.20603 8.5C1.20603 4.75387 4.25387 1.70603 8 1.70603C8.33306 1.70603 8.60303 1.43609 8.60303 1.10303C8.60303 0.769938 8.33306 0.5 8 0.5C3.58875 0.5 0 4.08875 0 8.5C0 12.9111 3.58875 16.5 8 16.5C12.4111 16.5 16 12.9111 16 8.5C16 8.16694 15.7301 7.89697 15.397 7.89697Z" fill="#1C1E22"/>
</g>
<defs>
<clipPath id="clip0_1903_16276">
<rect width="16" height="16" fill="white" transform="translate(0 0.5)"/>
</clipPath>
</defs>
</svg>
