<svg width="78" height="78" fill="none" xmlns="http://www.w3.org/2000/svg"><rect width="78" height="78" rx="12" fill="#DDF5D2"/><g clip-path="url(#a)" stroke="#5ABF35" stroke-width="2" stroke-linecap="round" stroke-linejoin="round"><path d="M46.296 41.071a3.45 3.45 0 1 1 0-6.9 3.45 3.45 0 0 1 0 6.9ZM41.283 46.396a6.902 6.902 0 0 1 9.631-.384M35.134 39.964a4.275 4.275 0 1 1 0-8.551 4.275 4.275 0 0 1 0 8.55Z"/><path d="M43.143 52.174c-.213-2.553-.85-4.232-1.199-4.824a8.462 8.462 0 0 0-3.03-3.03 8.099 8.099 0 0 0-4.077-1.105c-1.428 0-2.831.38-4.076 1.104a8.415 8.415 0 0 0-2.546 2.295l-.436.652"/><path d="M38.929 52.857C31.236 52.857 25 46.621 25 38.93 25 31.236 31.236 25 38.929 25c7.692 0 13.928 6.236 13.928 13.929 0 7.692-6.236 13.928-13.928 13.928Z"/></g><defs><clipPath id="a"><path fill="#fff" transform="translate(24 24)" d="M0 0h30v30H0z"/></clipPath></defs></svg>