<svg width="32" height="32" fill="none" xmlns="http://www.w3.org/2000/svg"><path fill-rule="evenodd" clip-rule="evenodd" d="M30.165 13.797c.111.719.168 1.454.168 2.203 0 7.91-6.422 14.333-14.333 14.333-7.91 0-14.333-6.422-14.333-14.333C1.667 8.09 8.089 1.666 16 1.666c.612 0 1.215.04 1.807.114a1 1 0 0 1 .78 1.419 2.661 2.661 0 0 0 .802 3.258 1 1 0 0 1 .371 1.012 4 4 0 0 0 4.297 4.846 1 1 0 0 1 .872.364 2.66 2.66 0 0 0 3.654.467.999.999 0 0 1 1.582.651Zm-7.832 4.536a1.667 1.667 0 1 0 0 3.334 1.667 1.667 0 0 0 0-3.334Zm-10 3.334a1.667 1.667 0 1 0 0 3.333 1.667 1.667 0 0 0 0-3.334Zm.32-14.4a1 1 0 1 0 0 2 1 1 0 0 0 0-2Zm3.68 11.066a1 1 0 1 0 0 2 1 1 0 0 0 0-2Zm-7.666-4a1 1 0 1 0 0 2 1 1 0 0 0 0-2Zm6.333-3a1.667 1.667 0 1 0 0 3.334 1.667 1.667 0 0 0 0-3.334Z" fill="#F7FCFF"/></svg>