<svg width="20" height="20" fill="none" xmlns="http://www.w3.org/2000/svg"><mask id="a" style="mask-type:luminance" maskUnits="userSpaceOnUse" x="0" y="0" width="20" height="20"><path d="M0 0h20v20H0V0Z" fill="#fff"/></mask><g mask="url(#a)"><path d="M12.5.833H3.334c-.917 0-1.667.75-1.667 1.667v10.833c0 .458.375.833.833.833a.836.836 0 0 0 .834-.833v-10c0-.458.375-.833.833-.833H12.5a.836.836 0 0 0 .834-.834.836.836 0 0 0-.834-.833Zm3.334 3.333H6.667C5.75 4.166 5 4.916 5 5.833V17.5c0 .916.75 1.666 1.667 1.666h9.167c.916 0 1.666-.75 1.666-1.666V5.833c0-.917-.75-1.667-1.666-1.667ZM15 17.5H7.5a.836.836 0 0 1-.833-.834v-10c0-.458.375-.833.833-.833H15c.459 0 .834.375.834.833v10A.836.836 0 0 1 15 17.5Z" fill="#fff"/></g></svg>