<svg width="20" height="20" fill="none" xmlns="http://www.w3.org/2000/svg"><mask id="a" style="mask-type:luminance" maskUnits="userSpaceOnUse" x="0" y="0" width="20" height="20"><path d="M0 0h20v20H0V0Z" fill="#fff"/></mask><g mask="url(#a)"><path d="M12.5.833H3.333c-.916 0-1.666.75-1.666 1.667v10.833c0 .459.375.834.833.834a.836.836 0 0 0 .833-.834v-10c0-.458.375-.833.834-.833H12.5a.836.836 0 0 0 .833-.833.836.836 0 0 0-.833-.834Zm3.333 3.334H6.667C5.75 4.167 5 4.917 5 5.833V17.5c0 .917.75 1.667 1.667 1.667h9.166c.917 0 1.667-.75 1.667-1.667V5.833c0-.916-.75-1.666-1.667-1.666ZM15 17.5H7.5a.836.836 0 0 1-.833-.833v-10c0-.459.375-.834.833-.834H15c.458 0 .833.375.833.834v10A.836.836 0 0 1 15 17.5Z" fill="#636A79"/></g></svg>