<svg width="35" height="35" viewBox="0 0 35 35" fill="none" xmlns="http://www.w3.org/2000/svg">
<circle cx="17.5" cy="17.5" r="17" stroke="#32363E"/>
<g clip-path="url(#clip0_2006_7106)">
<path d="M18.1502 20.7511L15.5491 23.3523L15.5491 23.3523L15.549 23.3524C14.4734 24.4281 12.7231 24.4281 11.6474 23.3524C11.1262 22.8312 10.8393 22.1384 10.8393 21.4015C10.8393 20.6647 11.1262 19.9719 11.6472 19.4508L11.6474 19.4506L14.2485 16.8495C14.6075 16.4903 14.6075 15.908 14.2484 15.5489C13.8893 15.1898 13.307 15.1898 12.9478 15.5489L10.3467 18.15L10.3462 18.1507C9.4781 19.019 9 20.1736 9 21.4015C9 22.6297 9.47828 23.7844 10.3468 24.653C11.2433 25.5494 12.4207 25.9976 13.5983 25.9976C14.7758 25.9976 15.9533 25.5494 16.8497 24.653L16.8497 24.6528L19.4508 22.0517C19.8099 21.6926 19.8099 21.1103 19.4507 20.7511C19.0917 20.392 18.5094 20.392 18.1502 20.7511ZM26 13.598C26 12.3698 25.5217 11.2151 24.6531 10.3466C22.8602 8.55372 19.9431 8.55378 18.1503 10.3466L18.15 10.3469L15.549 12.9478C15.1899 13.3069 15.1899 13.8893 15.549 14.2484C15.6343 14.3339 15.7357 14.4018 15.8473 14.448C15.9589 14.4942 16.0785 14.5179 16.1993 14.5178C16.4346 14.5178 16.6701 14.428 16.8496 14.2484L19.4506 11.6474L19.4509 11.6471C20.5265 10.5715 22.2768 10.5714 23.3526 11.6471C23.8736 12.1683 24.1607 12.8611 24.1607 13.598C24.1607 14.3348 23.8738 15.0276 23.3528 15.5487L23.3526 15.5489L20.7515 18.15C20.3924 18.5091 20.3924 19.0915 20.7515 19.4506C20.8368 19.5361 20.9382 19.604 21.0498 19.6502C21.1614 19.6964 21.281 19.7202 21.4018 19.72C21.6372 19.72 21.8725 19.6302 22.0521 19.4506L24.6532 16.8495L24.6538 16.8489C25.5218 15.9805 26 14.8259 26 13.598Z" fill="#32363E"/>
<path d="M14.2479 20.7507C14.3332 20.8362 14.4345 20.904 14.5461 20.9503C14.6577 20.9965 14.7773 21.0202 14.8981 21.0201C15.1335 21.0201 15.3689 20.9303 15.5485 20.7507L20.7507 15.5484C21.1099 15.1893 21.1099 14.607 20.7507 14.2478C20.3916 13.8887 19.8093 13.8887 19.4502 14.2478L14.2479 19.4501C13.8887 19.8093 13.8887 20.3916 14.2479 20.7507Z" fill="#32363E"/>
</g>
<defs>
<clipPath id="clip0_2006_7106">
<rect width="17" height="17" fill="white" transform="translate(9 9)"/>
</clipPath>
</defs>
</svg>
