<svg width="30" height="30" fill="none" xmlns="http://www.w3.org/2000/svg"><g clip-path="url(#a)"><path d="M28.718 25.815H1.282c-.708 0-1.282.574-1.282 1.282v.094A2.81 2.81 0 0 0 2.81 30h24.38A2.81 2.81 0 0 0 30 27.19v-.093c0-.708-.574-1.282-1.282-1.282Z" fill="#AC9EF9"/><path d="M27.146 7.54H2.854c-.708 0-1.282.574-1.282 1.282v16.993h26.856V8.822c0-.708-.574-1.282-1.282-1.282Z" fill="#6262F4"/><path d="M3.077 9.07h23.846v16.745H3.077V9.07Z" fill="#fff"/><path d="M17.577 27.907h-5.154c-.566 0-1.026-.459-1.026-1.025v-1.067h7.206v1.067c0 .566-.46 1.025-1.026 1.025Z" fill="#6262F4"/><path d="M20.157 19.562v2.096c0 .904 2.201 1.637 4.918 1.637 2.716 0 4.918-.733 4.918-1.637v-2.096h-9.836Z" fill="#FDBF38"/><path d="M25.075 21.003c2.716 0 4.918-.645 4.918-1.441s-2.202-1.441-4.918-1.441c-2.717 0-4.918.645-4.918 1.44 0 .797 2.201 1.442 4.918 1.442Z" fill="#FFD085"/><path d="M20.157 15.566v2.096c0 .905 2.201 1.638 4.918 1.638 2.716 0 4.918-.733 4.918-1.638v-2.096h-9.836Z" fill="#FDBF38"/><path d="M25.075 17.007c2.716 0 4.918-.645 4.918-1.44 0-.797-2.202-1.442-4.918-1.442-2.717 0-4.918.645-4.918 1.441s2.201 1.441 4.918 1.441Z" fill="#FFD085"/><path d="M20.157 11.57v2.097c0 .904 2.201 1.637 4.918 1.637 2.716 0 4.918-.733 4.918-1.637V11.57h-9.836Z" fill="#FDBF38"/><path d="M25.075 13.012c2.716 0 4.918-.645 4.918-1.441s-2.202-1.441-4.918-1.441c-2.717 0-4.918.645-4.918 1.44 0 .797 2.201 1.442 4.918 1.442Z" fill="#FFD085"/><path d="M5.843 22.687a5.833 5.833 0 0 0 5.837-5.83c0-3.22-2.613-5.83-5.837-5.83a5.833 5.833 0 0 0-5.836 5.83c0 3.22 2.613 5.83 5.836 5.83Z" fill="#E0E9EF"/><path d="M6.835 14.001h1.983v5.696H6.835v-5.696Z" fill="#35C9AD"/><path d="M4.852 15.311h1.983v4.386H4.852V15.31Z" fill="#FDBF38"/><path d="M2.869 16.621h1.983v3.076H2.869V16.62Z" fill="#F761A6"/><path d="M15 10.92a5.463 5.463 0 0 0 5.466-5.46A5.463 5.463 0 0 0 15 0a5.463 5.463 0 0 0-5.466 5.46A5.463 5.463 0 0 0 15 10.92Z" fill="#E0E9EF"/><path d="M17.287 8.809h-4.574V6.444c0-.495.401-.897.897-.897h2.78c.495 0 .897.402.897.897V8.81Z" fill="#AC9EF9"/><path d="M15 4.172a1.245 1.245 0 1 0 0-2.489 1.245 1.245 0 0 0 0 2.49Z" fill="#6262F4"/></g><defs><clipPath id="a"><path fill="#fff" d="M0 0h30v30H0z"/></clipPath></defs></svg>