<svg width="266" height="194" viewBox="0 0 266 194" fill="none" xmlns="http://www.w3.org/2000/svg">
<path opacity="0.3" fill-rule="evenodd" clip-rule="evenodd" d="M-45.8248 29.1916C-36.9258 37.2091 -27.8797 41.9441 -19.0165 46.7022C3.50464 58.8046 26.4229 70.1545 49.0358 82.0904C66.6603 91.3819 84.1039 101.027 101.521 110.706C105.444 112.875 109.068 115.672 112.563 118.515C114.564 120.132 116.336 122.211 117.68 124.417C120.602 129.192 119.971 133.982 115.63 137.515C113.089 139.571 109.967 141.452 106.812 142.14C99.1465 143.821 91.3459 145.415 83.5265 145.844C68.5377 146.694 53.4985 146.609 38.4819 147.09C26.4714 147.481 14.4648 148.057 2.47409 148.755C-1.1774 148.968 -4.99171 149.201 -8.53149 151.601C-5.82709 158.727 0.16493 162.164 5.86226 165.483C13.9659 170.203 22.4773 174.251 30.8767 178.469C34.2311 180.163 37.8203 181.362 41.1598 183.099C45.3874 185.303 49.858 187.31 52.9707 192.433C51.1941 193.07 49.8987 193.988 48.7253 193.867C45.3818 193.515 41.9668 193.089 38.8022 192.053C23.7884 187.131 9.01101 181.57 -4.96182 174.111C-11.6541 170.535 -17.8768 166.208 -21.7427 159.445C-23.2022 156.913 -24.3694 153.931 -24.6303 151.082C-25.0556 146.353 -23.1195 142.37 -19.0381 139.531C-14.5883 136.428 -9.54462 134.934 -4.28941 134.497C6.17764 133.61 16.6731 132.78 27.1709 132.519C45.1893 132.072 63.2276 132.17 81.2506 131.836C87.973 131.711 94.735 131.415 100.955 129.276C102.248 126.531 100.351 125.469 98.8878 124.559C90.6007 119.387 82.4742 113.865 73.8437 109.304C47.2428 95.2587 20.4045 81.6874 -6.26165 67.774C-20.2653 60.4733 -34.3509 53.2552 -47.1981 43.9803C-51.4681 40.9043 -55.482 37.4965 -59.5313 34.1344C-60.9595 32.941 -62.3305 31.5544 -63.3779 30.034C-68.0529 23.2494 -65.2832 16.093 -57.1826 14.8946C-52.8126 14.2499 -48.1412 14.4038 -43.755 15.1411C-34.1255 16.7658 -24.5251 18.6421 -15.0638 21.0316C33.3819 33.3107 81.7704 45.783 130.191 58.1891C143.294 61.5444 156.39 64.9313 169.511 68.1913C172.311 68.8913 175.235 69.1212 177.989 69.5481C179.249 66.8688 177.191 66.4675 176.244 65.8642C162.219 57.0684 148.168 48.307 134.07 39.6548C113.858 27.2712 93.0375 15.8422 74.5844 0.798914C70.5547 -2.49334 66.6784 -6.26966 63.7035 -10.5007C58.9384 -17.2636 62.3238 -23.9812 70.6296 -25.1125C73.2094 -25.4589 75.8982 -25.4474 78.4794 -25.1536C83.3261 -24.6087 88.2163 -24.0486 92.9407 -22.9408C105.013 -20.1063 117.08 -17.2399 129.022 -13.9035C160.148 -5.22176 191.189 3.75994 222.299 12.4849C229.887 14.6153 237.601 16.2957 245.318 17.9965C247.361 18.441 249.56 18.1841 251.418 18.249C252.488 15.7693 251.038 14.8884 249.969 13.9905C243.64 8.61296 237.009 3.69696 229.322 0.339669C225.89 -1.15851 222.415 -2.67183 219.258 -4.66957C218.074 -5.41873 217.771 -7.57021 216.658 -9.98095C219.882 -10.0678 222.218 -10.6932 224.169 -10.0822C237.614 -5.93356 250.012 0.165014 260.135 10.259C264.059 14.1637 267.43 18.4997 264.66 24.1585C262.178 29.2542 256.847 29.7414 251.911 29.3833C245.943 28.9593 239.911 28.285 234.094 26.8814C220.584 23.65 207.157 20.0259 193.738 16.3904C165.447 8.74521 137.195 0.929845 108.888 -6.67209C101.635 -8.61744 94.2579 -10.0927 86.9044 -11.6226C85.2577 -11.9621 83.4932 -11.6256 81.6771 -11.6028C81.9826 -7.31363 85.1015 -6.07545 87.4125 -4.45639C95.7241 1.37325 104.061 7.24094 112.692 12.5862C131.571 24.2704 150.747 35.4525 169.565 47.2169C177.852 52.3885 185.678 58.3001 193.446 64.2397C196.02 66.2077 198.256 69.0654 199.714 71.98C201.998 76.5359 199.782 81.3811 194.849 82.6133C191.306 83.4945 187.363 83.8477 183.769 83.3202C175.602 82.1306 167.454 80.6081 159.447 78.5926C117.902 68.1691 76.4109 57.5322 34.8751 47.0249C13.0224 41.5002 -8.8478 35.9983 -30.7551 30.6871C-34.9701 29.6802 -39.2609 27.9394 -45.8248 29.1916Z" fill="#FFAD3D"/>
</svg>
