<svg width="201" height="127" viewBox="0 0 201 127" fill="none" xmlns="http://www.w3.org/2000/svg">
<path opacity="0.3" fill-rule="evenodd" clip-rule="evenodd" d="M16.1596 42.6381C22.9796 48.7827 29.9125 52.4115 36.7052 56.058C53.9651 65.3332 71.5294 74.0316 88.8597 83.1792C102.367 90.3001 115.735 97.6918 129.084 105.11C132.091 106.772 134.868 108.915 137.546 111.094C139.08 112.334 140.438 113.927 141.468 115.618C143.708 119.277 143.224 122.948 139.896 125.656C137.949 127.232 135.556 128.674 133.138 129.201C127.264 130.488 121.286 131.71 115.293 132.039C103.806 132.69 92.2798 132.626 80.7713 132.994C71.5666 133.293 62.3648 133.735 53.1753 134.27C50.3768 134.433 47.4536 134.612 44.7408 136.451C46.8134 141.913 51.4056 144.547 55.772 147.09C61.9825 150.708 68.5056 153.81 74.9427 157.043C77.5135 158.341 80.2642 159.26 82.8236 160.591C86.0636 162.28 89.4898 163.819 91.8753 167.744C90.5138 168.233 89.521 168.936 88.6217 168.844C86.0593 168.574 83.4421 168.247 81.0168 167.453C69.5104 163.681 58.1851 159.42 47.4765 153.703C42.3476 150.962 37.5786 147.646 34.6158 142.463C33.4973 140.522 32.6027 138.237 32.4028 136.053C32.0768 132.429 33.5607 129.377 36.6886 127.201C40.0989 124.823 43.9643 123.678 47.9918 123.343C56.0137 122.663 64.0573 122.027 72.1026 121.827C85.9118 121.485 99.7361 121.56 113.549 121.304C118.701 121.208 123.883 120.981 128.65 119.342C129.641 117.238 128.187 116.424 127.066 115.727C120.715 111.763 114.486 107.531 107.872 104.036C87.4856 93.2713 66.917 82.8703 46.4803 72.2072C35.7481 66.612 24.9531 61.0802 15.1071 53.972C11.8346 51.6146 8.75839 49.0029 5.6551 46.4263C4.56054 45.5116 3.50982 44.4489 2.70707 43.2837C-0.875752 38.0841 1.24685 32.5995 7.45512 31.6811C10.8042 31.187 14.3843 31.3049 17.7459 31.87C25.1258 33.1151 32.4835 34.5531 39.7345 36.3844C76.8627 45.795 113.947 55.3536 151.056 64.8615C161.098 67.4329 171.135 70.0287 181.191 72.5271C183.336 73.0635 185.577 73.2397 187.688 73.5669C188.654 71.5135 187.077 71.206 186.35 70.7436C175.602 64.0026 164.834 57.2879 154.029 50.6571C138.538 41.1664 122.582 32.4074 108.44 20.8783C105.352 18.3552 102.381 15.461 100.101 12.2184C96.4489 7.03541 99.0434 1.88709 105.409 1.02007C107.386 0.754614 109.447 0.763428 111.425 0.988621C115.139 1.40623 118.887 1.83548 122.508 2.68447C131.76 4.85681 141.008 7.05354 150.16 9.61054C174.015 16.2641 197.804 23.1476 221.647 29.8343C227.462 31.467 233.374 32.7549 239.288 34.0584C240.854 34.399 242.539 34.2021 243.963 34.2519C244.783 32.3515 243.672 31.6763 242.853 30.9882C238.002 26.8669 232.92 23.0993 227.029 20.5264C224.399 19.3782 221.735 18.2184 219.316 16.6873C218.409 16.1132 218.176 14.4643 217.323 12.6168C219.794 12.5502 221.584 12.0709 223.08 12.5391C233.383 15.7186 242.886 20.3925 250.644 28.1284C253.651 31.1209 256.235 34.444 254.112 38.7808C252.209 42.6861 248.123 43.0595 244.341 42.7851C239.767 42.4601 235.144 41.9433 230.686 40.8677C220.332 38.3911 210.042 35.6137 199.758 32.8274C178.076 26.9683 156.424 20.9787 134.73 15.1526C129.171 13.6617 123.517 12.5311 117.882 11.3586C116.62 11.0984 115.267 11.3563 113.876 11.3737C114.11 14.661 116.5 15.6099 118.271 16.8507C124.641 21.3185 131.031 25.8154 137.645 29.9119C152.114 38.8666 166.81 47.4364 181.232 56.4525C187.583 60.416 193.581 64.9466 199.534 69.4986C201.507 71.0069 203.22 73.197 204.338 75.4307C206.088 78.9223 204.39 82.6356 200.609 83.58C197.894 84.2553 194.872 84.526 192.118 84.1217C185.859 83.21 179.614 82.0432 173.478 80.4985C141.638 72.5101 109.84 64.3581 78.0071 56.3054C61.2594 52.0713 44.4983 47.8547 27.7089 43.7842C24.4785 43.0126 21.1901 41.6785 16.1596 42.6381Z" fill="#FFAD3D"/>
</svg>
