<svg xmlns="http://www.w3.org/2000/svg" width="24" height="24" fill="none"><g fill="#143157" clip-path="url(#a)"><path d="M23.72 8.508a2.007 2.007 0 0 0-1.723-.94H6.08c-.79 0-1.507.445-1.829 1.134l-4.21 8.827c.159.646.763 1.129 1.482 1.129h16.934a1.91 1.91 0 0 0 1.71-1.057l3.638-7.294a1.84 1.84 0 0 0-.084-1.799Z"/><path d="M3.394 7.343c.322-.688 1.04-1.133 1.829-1.133H20.21V4.293c0-.79-.667-1.434-1.486-1.434h-8.74a.047.047 0 0 1-.025-.005L8.396.667a1.502 1.502 0 0 0-1.223-.62H1.486C.666.047 0 .69 0 1.48V14.46l3.394-7.116Z"/></g><defs><clipPath id="a"><path fill="#fff" d="M0 0h24v24H0z"/></clipPath></defs></svg>