<svg width="1920" height="766" viewBox="0 0 1920 766" fill="none" xmlns="http://www.w3.org/2000/svg">
<g clip-path="url(#clip0_2305_3553)">
<rect width="1920" height="766" fill="#070D34"/>
<mask id="mask0_2305_3553" style="mask-type:luminance" maskUnits="userSpaceOnUse" x="-232" y="197" width="2384" height="569">
<path d="M778.532 705.118C779.676 705.44 780.824 705.754 781.976 706.06C782.807 706.819 783.643 707.57 784.479 708.312C783.342 707.884 782.213 707.434 781.085 706.987C780.23 706.372 779.378 705.749 778.532 705.118ZM766.007 695.104C767.963 695.553 769.944 695.947 771.916 696.349C773.314 697.776 774.72 699.176 776.133 700.553C774.214 699.98 772.297 699.397 770.396 698.777C768.924 697.577 767.46 696.352 766.007 695.104ZM755.082 692.292C756.208 692.609 757.339 692.921 758.471 693.224C759.293 693.977 760.121 694.72 760.949 695.458C759.836 695.04 758.734 694.598 757.629 694.161C756.777 693.544 755.931 692.921 755.082 692.292ZM754.712 684.746C757.233 685.195 759.762 685.624 762.314 685.997C763.997 687.908 765.693 689.785 767.402 691.619C764.937 691.063 762.49 690.448 760.054 689.811C758.26 688.161 756.479 686.473 754.712 684.746ZM742.56 682.275C744.506 682.725 746.473 683.116 748.437 683.518C749.83 684.94 751.23 686.34 752.638 687.714C750.735 687.144 748.831 686.566 746.947 685.951C745.474 684.748 744.01 683.524 742.56 682.275ZM731.642 679.467C732.769 679.784 733.895 680.095 735.026 680.398C735.849 681.152 736.674 681.894 737.502 682.629C736.392 682.211 735.287 681.769 734.185 681.333C733.333 680.718 732.489 680.095 731.642 679.467ZM508.447 463.48C509.123 463.754 509.797 464.02 510.47 464.297L510.784 464.518L508.886 463.85L508.447 463.48ZM744.237 673.882C747.151 674.254 750.083 674.585 753.029 674.869C754.855 677.175 756.698 679.429 758.558 681.636C755.707 681.152 752.867 680.638 750.045 680.071C748.091 678.056 746.156 675.993 744.237 673.882ZM731.27 671.923C733.785 672.37 736.307 672.798 738.849 673.168C740.526 675.08 742.216 676.951 743.923 678.785C741.465 678.232 739.032 677.619 736.607 676.986C734.816 675.335 733.037 673.648 731.27 671.923ZM719.12 669.452C721.066 669.899 723.031 670.293 724.995 670.693C726.388 672.117 727.785 673.512 729.193 674.888C727.29 674.318 725.392 673.741 723.505 673.126C722.035 671.923 720.574 670.701 719.12 669.452ZM708.201 666.644C709.329 666.961 710.458 667.269 711.587 667.575C712.409 668.326 713.232 669.069 714.057 669.804C712.947 669.386 711.848 668.946 710.743 668.51C709.896 667.892 709.047 667.272 708.201 666.644ZM493.18 457.528C494.546 458.039 495.914 458.542 497.277 459.064C497.865 459.516 498.446 459.99 499.032 460.445C497.682 459.99 496.329 459.553 494.983 459.112L493.18 457.528ZM485 450.649L487.015 451.464L487.436 451.759L485.511 451.08L485 450.649ZM734.435 662.47C737.653 662.72 740.893 662.912 744.149 663.063C746.05 665.72 747.972 668.318 749.912 670.858C746.752 670.522 743.616 670.128 740.499 669.678C738.457 667.336 736.434 664.932 734.435 662.47ZM720.795 661.059C723.707 661.431 726.635 661.762 729.579 662.044C731.403 664.346 733.243 666.601 735.098 668.805C732.252 668.321 729.42 667.807 726.606 667.243C724.652 665.23 722.711 663.17 720.795 661.059ZM707.828 659.1C710.344 659.549 712.865 659.975 715.407 660.345C717.084 662.257 718.777 664.128 720.483 665.962C718.029 665.409 715.593 664.796 713.168 664.163C711.374 662.512 709.593 660.827 707.828 659.1ZM695.684 656.629C697.63 657.076 699.594 657.47 701.559 657.87C702.951 659.294 704.349 660.689 705.757 662.065C703.854 661.495 701.953 660.915 700.066 660.3C698.596 659.1 697.135 657.878 695.684 656.629ZM684.764 653.821C685.89 654.137 687.022 654.449 688.153 654.752C688.975 655.503 689.798 656.246 690.623 656.981C689.513 656.563 688.411 656.123 687.309 655.687C686.457 655.072 685.608 654.449 684.764 653.821ZM477.993 452.089C479.889 452.739 481.784 453.391 483.679 454.062C484.59 454.81 485.476 455.592 486.379 456.351C484.491 455.76 482.607 455.188 480.722 454.618C479.817 453.766 478.906 452.93 477.993 452.089ZM469.733 444.697C471.099 445.205 472.464 445.711 473.827 446.233C474.445 446.707 475.052 447.199 475.664 447.675C474.309 447.22 472.952 446.781 471.597 446.336C470.976 445.793 470.359 445.24 469.733 444.697ZM461.563 437.823L463.581 438.638L464.007 438.936L462.082 438.257L461.563 437.823ZM725.171 650.432C728.648 650.541 732.14 650.602 735.66 650.589C737.571 653.539 739.504 656.424 741.463 659.246C738.042 659.054 734.643 658.804 731.267 658.498C729.209 655.873 727.178 653.184 725.171 650.432ZM710.996 649.647C714.212 649.9 717.451 650.089 720.707 650.243C722.605 652.9 724.524 655.495 726.462 658.035C723.305 657.699 720.169 657.305 717.057 656.855C715.016 654.51 712.995 652.106 710.996 649.647ZM697.353 648.233C700.265 648.606 703.196 648.936 706.14 649.221C707.961 651.523 709.801 653.778 711.659 655.982C708.813 655.498 705.975 654.987 703.162 654.42C701.21 652.407 699.272 650.344 697.353 648.233ZM684.389 646.277C686.904 646.724 689.428 647.152 691.97 647.522C693.647 649.434 695.34 651.305 697.047 653.139C694.59 652.586 692.157 651.973 689.731 651.34C687.935 649.689 686.154 648.002 684.389 646.277ZM672.247 643.806C674.193 644.256 676.158 644.647 678.122 645.047C679.515 646.471 680.912 647.866 682.32 649.242C680.417 648.67 678.516 648.092 676.629 647.477C675.16 646.277 673.698 645.055 672.247 643.806ZM661.336 640.998C662.462 641.314 663.588 641.626 664.719 641.927C665.542 642.677 666.364 643.423 667.192 644.157C666.082 643.74 664.983 643.298 663.878 642.861C663.029 642.249 662.182 641.629 661.336 640.998ZM462.793 447.098C465.101 447.822 467.412 448.559 469.72 449.315C470.851 450.308 471.953 451.341 473.071 452.353C470.753 451.682 468.434 451.027 466.121 450.385C465.024 449.278 463.906 448.189 462.793 447.098ZM454.552 439.258C456.447 439.908 458.342 440.563 460.238 441.233C461.169 441.997 462.072 442.801 462.996 443.576C461.105 442.985 459.215 442.41 457.328 441.838C456.407 440.972 455.48 440.115 454.552 439.258ZM446.299 431.876C447.662 432.387 449.028 432.891 450.391 433.412C451.008 433.886 451.613 434.379 452.228 434.855C450.873 434.4 449.518 433.961 448.163 433.516C447.545 432.97 446.925 432.417 446.299 431.876ZM438.127 425.003L440.142 425.817L440.565 426.116L438.641 425.437L438.127 425.003ZM716.36 637.707C720.055 637.657 723.774 637.54 727.511 637.377C729.417 640.622 731.35 643.795 733.304 646.902C729.662 646.875 726.042 646.788 722.448 646.641C720.393 643.734 718.364 640.755 716.36 637.707ZM701.732 637.609C705.209 637.718 708.701 637.779 712.22 637.766C714.132 640.716 716.064 643.601 718.018 646.423C714.598 646.231 711.201 645.981 707.825 645.675C705.77 643.05 703.739 640.361 701.732 637.609ZM687.557 636.824C690.775 637.074 694.012 637.266 697.268 637.42C699.166 640.077 701.085 642.672 703.023 645.212C699.866 644.876 696.73 644.482 693.615 644.032C691.574 641.687 689.556 639.286 687.557 636.824ZM673.916 635.41C676.829 635.783 679.76 636.113 682.704 636.398C684.527 638.7 686.364 640.955 688.222 643.159C685.374 642.675 682.541 642.164 679.725 641.594C677.771 639.584 675.833 637.521 673.916 635.41ZM660.952 633.453C663.468 633.901 665.991 634.329 668.534 634.699C670.211 636.611 671.904 638.482 673.61 640.316C671.153 639.762 668.72 639.15 666.295 638.517C664.498 636.866 662.717 635.178 660.952 633.453ZM648.813 630.986C650.759 631.433 652.724 631.824 654.689 632.226C656.081 633.648 657.476 635.045 658.884 636.422C656.98 635.852 655.083 635.274 653.198 634.659C651.728 633.456 650.267 632.234 648.813 630.986ZM637.899 628.177C639.022 628.494 640.151 628.803 641.28 629.104C642.102 629.854 642.925 630.597 643.753 631.332C642.646 630.914 641.549 630.475 640.447 630.041C639.595 629.429 638.745 628.806 637.899 628.177ZM447.473 442.503C450.125 443.262 452.779 444.039 455.435 444.838C456.716 446.044 457.97 447.287 459.231 448.514C456.548 447.801 453.87 447.108 451.195 446.432C449.965 445.107 448.716 443.81 447.473 442.503ZM439.351 434.269C441.659 434.991 443.967 435.731 446.278 436.484C447.425 437.493 448.546 438.542 449.685 439.57C447.361 438.896 445.043 438.241 442.724 437.6C441.609 436.479 440.48 435.377 439.351 434.269ZM431.12 426.44C433.016 427.09 434.908 427.742 436.804 428.413C437.733 429.177 438.641 429.978 439.562 430.753C437.672 430.162 435.782 429.584 433.892 429.015C432.973 428.149 432.047 427.295 431.12 426.44ZM422.865 419.056C424.231 419.564 425.594 420.07 426.957 420.589C427.572 421.063 428.176 421.55 428.791 422.029C427.436 421.574 426.078 421.135 424.723 420.69C424.106 420.147 423.488 419.594 422.865 419.056ZM414.688 412.177L416.705 412.992L417.126 413.287L415.199 412.608L414.688 412.177ZM708.03 624.379C711.704 624.174 715.399 623.915 719.12 623.593C721.271 626.945 723.377 630.355 725.427 633.821C721.599 633.975 717.795 634.063 714.015 634.087C711.994 630.927 709.998 627.69 708.03 624.379ZM692.923 624.884C696.618 624.834 700.337 624.717 704.075 624.554C705.981 627.799 707.911 630.972 709.867 634.079C706.225 634.05 702.605 633.962 699.009 633.816C696.954 630.911 694.925 627.932 692.923 624.884ZM678.293 624.786C681.767 624.895 685.262 624.956 688.784 624.943C690.692 627.892 692.625 630.778 694.582 633.6C691.164 633.408 687.764 633.155 684.386 632.849C682.334 630.224 680.303 627.536 678.293 624.786ZM664.12 624.001C667.336 624.251 670.578 624.442 673.831 624.597C675.729 627.254 677.649 629.849 679.586 632.389C676.427 632.053 673.293 631.659 670.179 631.209C668.137 628.864 666.119 626.46 664.12 624.001ZM650.48 622.587C653.392 622.96 656.323 623.29 659.267 623.575C661.088 625.877 662.928 628.132 664.783 630.336C661.935 629.852 659.099 629.338 656.286 628.771C654.334 626.761 652.396 624.698 650.48 622.587ZM637.516 620.63C640.031 621.08 642.555 621.506 645.1 621.876C646.777 623.788 648.47 625.659 650.174 627.493C647.719 626.939 645.286 626.33 642.861 625.696C641.067 624.046 639.283 622.355 637.516 620.63ZM625.377 618.16C627.323 618.61 629.29 619.001 631.252 619.401C632.644 620.822 634.039 622.22 635.447 623.596C633.547 623.026 631.646 622.451 629.764 621.836C628.292 620.636 626.83 619.411 625.377 618.16ZM614.455 615.352C615.581 615.668 616.709 615.98 617.843 616.283C618.663 617.034 619.488 617.777 620.314 618.511C619.204 618.094 618.104 617.654 617 617.218C616.148 616.6 615.298 615.98 614.455 615.352ZM431.954 438.257C434.903 439.026 437.855 439.814 440.813 440.629C442.189 442.019 443.541 443.448 444.894 444.867C441.896 444.135 438.909 443.435 435.928 442.748C434.621 441.231 433.279 439.751 431.954 438.257ZM424.034 429.677C426.685 430.436 429.339 431.211 431.996 432.012C433.29 433.231 434.557 434.488 435.835 435.728C433.149 435.015 430.468 434.323 427.793 433.644C426.552 432.305 425.291 430.998 424.034 429.677ZM415.923 421.452C418.231 422.176 420.539 422.913 422.847 423.667C423.994 424.676 425.112 425.722 426.249 426.747C423.928 426.076 421.604 425.421 419.288 424.777C418.172 423.659 417.046 422.557 415.923 421.452ZM407.686 413.62C409.582 414.27 411.477 414.922 413.37 415.593C414.299 416.357 415.201 417.155 416.125 417.93C414.238 417.339 412.345 416.764 410.458 416.194C409.537 415.326 408.613 414.472 407.686 413.62ZM399.426 406.23C400.789 406.741 402.155 407.245 403.518 407.766C404.133 408.24 404.737 408.73 405.349 409.206C403.994 408.751 402.639 408.312 401.284 407.867C400.667 407.319 400.052 406.771 399.426 406.23ZM391.251 399.352L393.272 400.166L393.703 400.47L391.773 399.791L391.251 399.352ZM699.597 610.406C702.866 610.094 706.146 609.759 709.452 609.365C711.973 612.879 714.443 616.459 716.85 620.106C713.195 620.386 709.556 620.63 705.941 620.811C703.878 617.287 701.761 613.818 699.597 610.406ZM684.594 611.556C688.267 611.348 691.962 611.092 695.681 610.77C697.835 614.122 699.938 617.532 701.987 620.998C698.157 621.152 694.353 621.24 690.575 621.264C688.555 618.101 686.558 614.864 684.594 611.556ZM669.484 612.061C673.179 612.011 676.898 611.894 680.638 611.731C682.544 614.976 684.474 618.152 686.428 621.256C682.786 621.229 679.166 621.142 675.572 620.995C673.517 618.088 671.486 615.109 669.484 612.061ZM654.856 611.963C658.333 612.072 661.825 612.133 665.347 612.12C667.259 615.069 669.191 617.955 671.145 620.777C667.725 620.585 664.325 620.332 660.95 620.026C658.897 617.401 656.863 614.713 654.856 611.963ZM640.683 611.175C643.899 611.428 647.139 611.617 650.395 611.771C652.293 614.428 654.212 617.023 656.15 619.563C652.99 619.228 649.857 618.834 646.742 618.384C644.701 616.041 642.683 613.637 640.683 611.175ZM627.046 609.767C629.958 610.137 632.884 610.469 635.831 610.754C637.654 613.057 639.494 615.312 641.349 617.516C638.503 617.031 635.671 616.52 632.857 615.953C630.903 613.938 628.965 611.875 627.046 609.767ZM614.084 607.807C616.6 608.255 619.124 608.683 621.666 609.053C623.343 610.965 625.033 612.836 626.74 614.67C624.285 614.116 621.85 613.507 619.427 612.871C617.63 611.223 615.852 609.532 614.084 607.807ZM601.935 605.337C603.881 605.787 605.846 606.178 607.81 606.578C609.202 607.999 610.6 609.397 612.008 610.773C610.102 610.201 608.204 609.623 606.317 609.008C604.847 607.807 603.388 606.583 601.935 605.337ZM591.023 602.529C592.149 602.845 593.275 603.157 594.407 603.458C595.227 604.208 596.052 604.954 596.88 605.688C595.77 605.271 594.67 604.829 593.566 604.392C592.719 603.78 591.87 603.16 591.023 602.529ZM416.189 434.336C419.399 435.095 422.62 435.877 425.847 436.689C427.284 438.244 428.695 439.838 430.103 441.43C426.829 440.704 423.565 440.006 420.318 439.33C418.96 437.64 417.565 435.997 416.189 434.336ZM408.514 425.431C411.464 426.201 414.416 426.989 417.376 427.803C418.763 429.206 420.126 430.646 421.492 432.079C418.494 431.347 415.502 430.644 412.521 429.957C411.2 428.426 409.853 426.936 408.514 425.431ZM400.603 416.86C403.254 417.618 405.908 418.396 408.565 419.194C409.856 420.411 411.12 421.665 412.396 422.905C409.71 422.192 407.029 421.497 404.354 420.821C403.116 419.482 401.857 418.175 400.603 416.86ZM392.484 408.631C394.792 409.353 397.102 410.093 399.41 410.846C400.555 411.852 401.673 412.899 402.807 413.924C400.486 413.253 398.164 412.598 395.848 411.954C394.738 410.836 393.61 409.734 392.484 408.631ZM384.247 400.794C386.142 401.444 388.038 402.096 389.931 402.767C390.86 403.531 391.765 404.33 392.686 405.104C390.796 404.513 388.906 403.938 387.016 403.366C386.097 402.503 385.171 401.646 384.247 400.794ZM375.987 393.405C377.35 393.913 378.718 394.419 380.081 394.938C380.699 395.414 381.306 395.907 381.923 396.386C380.568 395.931 379.213 395.492 377.858 395.047C377.233 394.501 376.612 393.948 375.987 393.405ZM367.814 386.531L369.832 387.346L370.258 387.644L368.334 386.965L367.814 386.531ZM689.947 596.039C692.769 595.679 695.593 595.301 698.439 594.883C701.354 598.512 704.21 602.212 706.998 605.995C703.779 606.362 700.577 606.697 697.393 606.982C694.973 603.266 692.489 599.616 689.947 596.039ZM676.16 597.583C679.429 597.271 682.712 596.936 686.015 596.542C688.539 600.056 691.004 603.639 693.413 607.286C689.758 607.565 686.116 607.81 682.504 607.988C680.441 604.461 678.325 600.993 676.16 597.583ZM661.155 598.733C664.828 598.525 668.52 598.269 672.239 597.95C674.393 601.301 676.499 604.711 678.548 608.177C674.72 608.332 670.916 608.42 667.136 608.441C665.116 605.281 663.125 602.044 661.155 598.733ZM646.048 599.238C649.743 599.188 653.461 599.071 657.199 598.908C659.105 602.153 661.035 605.329 662.991 608.433C659.35 608.406 655.732 608.319 652.133 608.172C650.081 605.265 648.052 602.286 646.048 599.238ZM631.42 599.14C634.896 599.249 638.389 599.31 641.911 599.297C643.819 602.246 645.752 605.132 647.709 607.954C644.288 607.762 640.889 607.509 637.513 607.203C635.458 604.578 633.427 601.89 631.42 599.14ZM617.247 598.355C620.463 598.605 623.702 598.794 626.955 598.948C628.854 601.605 630.773 604.203 632.713 606.743C629.556 606.407 626.423 606.013 623.308 605.563C621.267 603.218 619.246 600.814 617.247 598.355ZM603.609 596.941C606.522 597.314 609.453 597.644 612.397 597.929C614.218 600.231 616.057 602.486 617.915 604.69C615.069 604.206 612.232 603.695 609.418 603.128C607.464 601.115 605.526 599.052 603.609 596.941ZM590.64 594.984C593.156 595.432 595.677 595.86 598.221 596.23C599.899 598.142 601.592 600.013 603.298 601.847C600.841 601.293 598.408 600.681 595.983 600.048C594.188 598.397 592.408 596.709 590.64 594.984ZM578.501 592.517C580.447 592.964 582.414 593.355 584.376 593.757C585.768 595.179 587.163 596.576 588.572 597.953C586.671 597.383 584.77 596.805 582.886 596.19C581.419 594.987 579.955 593.765 578.501 592.517ZM567.589 589.708C568.713 590.025 569.841 590.334 570.97 590.635C571.793 591.385 572.618 592.128 573.443 592.865C572.336 592.447 571.236 592.008 570.137 591.574C569.285 590.959 568.436 590.337 567.589 589.708ZM400.156 430.726C403.603 431.461 407.064 432.225 410.535 433.018C412.001 434.727 413.442 436.471 414.876 438.22C411.352 437.512 407.844 436.836 404.354 436.186C402.98 434.336 401.558 432.544 400.156 430.726ZM392.752 421.51C395.963 422.269 399.184 423.052 402.41 423.864C403.856 425.434 405.275 427.037 406.696 428.639C403.419 427.91 400.153 427.212 396.902 426.536C395.537 424.835 394.139 423.182 392.752 421.51ZM385.083 412.616C388.033 413.386 390.985 414.174 393.942 414.991C395.329 416.391 396.687 417.829 398.05 419.256C395.052 418.524 392.06 417.821 389.079 417.134C387.767 415.606 386.422 414.115 385.083 412.616ZM377.163 404.037C379.818 404.798 382.472 405.57 385.128 406.371C386.419 407.588 387.684 408.844 388.956 410.082C386.27 409.369 383.592 408.677 380.914 407.998C379.682 406.664 378.42 405.354 377.163 404.037ZM369.047 395.806C371.355 396.53 373.666 397.267 375.974 398.021C377.118 399.029 378.236 400.073 379.37 401.098C377.049 400.427 374.73 399.772 372.412 399.128C371.299 398.01 370.17 396.91 369.047 395.806ZM360.805 387.966C362.701 388.613 364.596 389.27 366.491 389.941C367.423 390.708 368.331 391.512 369.257 392.287C367.367 391.696 365.477 391.121 363.587 390.548C362.663 389.68 361.734 388.823 360.805 387.966ZM352.553 380.584C353.916 381.095 355.282 381.598 356.645 382.118C357.262 382.591 357.866 383.084 358.481 383.563C357.126 383.108 355.774 382.669 354.417 382.224C353.794 381.678 353.176 381.125 352.553 380.584ZM344.378 373.708L346.393 374.523L346.822 374.821L344.894 374.142L344.378 373.708ZM2009.8 304.232C1993.59 298.205 1977.11 292.554 1960.4 287.323C1809.52 240.082 1640.52 226.836 1498.42 275.759C1384.86 314.856 1267.57 374.052 1153.23 431.757C993.826 512.203 840.184 589.727 710.98 605.526C708.19 601.695 705.334 597.947 702.413 594.274C829.089 574.583 977.566 499.673 1131.39 422.045C1245.67 364.37 1362.91 305.203 1476.13 266.223C1617.45 217.569 1785.66 230.784 1935.92 277.83C1961.12 285.72 1985.82 294.569 2009.8 304.232ZM678.977 581.451C681.322 581.086 683.667 580.716 686.029 580.314C689.351 583.998 692.604 587.768 695.788 591.628C693.027 592.022 690.283 592.368 687.543 592.703C684.754 588.872 681.897 585.122 678.977 581.451ZM666.508 583.216C669.327 582.856 672.154 582.478 674.995 582.063C677.912 585.689 680.768 589.392 683.558 593.174C680.343 593.542 677.137 593.877 673.956 594.162C671.534 590.443 669.05 586.793 666.508 583.216ZM652.724 584.76C655.993 584.448 659.27 584.115 662.571 583.721C665.094 587.238 667.562 590.813 669.969 594.463C666.316 594.742 662.677 594.987 659.062 595.165C657.004 591.641 654.888 588.172 652.724 584.76ZM637.718 585.91C641.394 585.705 645.089 585.446 648.805 585.127C650.959 588.478 653.062 591.888 655.112 595.354C651.281 595.509 647.477 595.597 643.7 595.621C641.682 592.458 639.688 589.221 637.718 585.91ZM622.611 586.415C626.306 586.365 630.025 586.248 633.762 586.085C635.668 589.33 637.598 592.506 639.552 595.61C635.911 595.581 632.293 595.496 628.696 595.346C626.644 592.442 624.616 589.463 622.611 586.415ZM607.983 586.317C611.46 586.426 614.952 586.487 618.472 586.474C620.383 589.423 622.316 592.309 624.27 595.131C620.849 594.939 617.452 594.689 614.077 594.383C612.024 591.758 609.993 589.069 607.983 586.317ZM593.811 585.529C597.026 585.779 600.266 585.973 603.522 586.125C605.42 588.782 607.339 591.377 609.28 593.917C606.122 593.581 602.984 593.188 599.872 592.738C597.83 590.395 595.81 587.991 593.811 585.529ZM580.17 584.118C583.085 584.491 586.011 584.821 588.958 585.106C590.781 587.408 592.618 589.663 594.476 591.867C591.63 591.383 588.795 590.869 585.979 590.302C584.022 588.292 582.087 586.229 580.17 584.118ZM567.206 582.159C569.724 582.609 572.245 583.035 574.79 583.405C576.467 585.316 578.16 587.187 579.867 589.021C577.412 588.468 574.979 587.858 572.554 587.225C570.757 585.577 568.974 583.886 567.206 582.159ZM555.065 579.691C557.011 580.141 558.978 580.532 560.94 580.932C562.332 582.353 563.727 583.751 565.138 585.124C563.237 584.555 561.336 583.98 559.454 583.365C557.982 582.167 556.521 580.942 555.065 579.691ZM544.145 576.883C545.271 577.199 546.4 577.511 547.531 577.814C548.354 578.565 549.176 579.308 550.001 580.042C548.891 579.624 547.792 579.185 546.687 578.749C545.838 578.131 544.989 577.511 544.145 576.883ZM383.84 427.428C387.5 428.125 391.176 428.855 394.877 429.616C396.351 431.466 397.797 433.354 399.237 435.246C395.484 434.573 391.754 433.931 388.054 433.319C386.675 431.325 385.246 429.39 383.84 427.428ZM376.719 417.901C380.166 418.638 383.624 419.399 387.098 420.193C388.573 421.912 390.021 423.667 391.467 425.426C387.939 424.718 384.431 424.042 380.938 423.39C379.557 421.532 378.13 419.727 376.719 417.901ZM369.321 408.695C372.532 409.454 375.753 410.239 378.982 411.051C380.425 412.616 381.841 414.216 383.26 415.816C379.983 415.09 376.719 414.389 373.466 413.713C372.103 412.012 370.705 410.362 369.321 408.695ZM361.647 399.791C364.596 400.56 367.548 401.348 370.506 402.163C371.89 403.566 373.253 405 374.619 406.433C371.621 405.701 368.629 404.995 365.645 404.308C364.33 402.783 362.983 401.289 361.647 399.791ZM353.724 391.211C356.376 391.972 359.033 392.747 361.689 393.546C362.98 394.762 364.242 396.019 365.517 397.259C362.831 396.546 360.151 395.854 357.475 395.175C356.24 393.836 354.981 392.526 353.724 391.211ZM345.608 382.98C347.916 383.704 350.224 384.442 352.532 385.195C353.679 386.206 354.805 387.255 355.942 388.283C353.618 387.609 351.297 386.954 348.978 386.313C347.865 385.192 346.734 384.087 345.608 382.98ZM337.374 375.148C339.27 375.798 341.162 376.45 343.058 377.121C343.987 377.885 344.894 378.686 345.815 379.464C343.925 378.873 342.035 378.298 340.148 377.725C339.224 376.86 338.303 376.003 337.374 375.148ZM329.117 367.761C330.48 368.272 331.848 368.775 333.208 369.297C333.823 369.771 334.43 370.264 335.042 370.74C333.687 370.285 332.335 369.846 330.977 369.401C330.357 368.855 329.739 368.302 329.117 367.761ZM320.944 360.888L322.962 361.702L323.382 361.998L321.455 361.319L320.944 360.888ZM1986.31 291.388C1970.12 285.366 1953.65 279.723 1936.96 274.497C1786.08 227.257 1617.08 214.01 1474.98 262.933C1361.42 302.03 1244.13 361.226 1129.79 418.931C975.394 496.851 826.408 572.022 699.794 591.023C696.618 587.126 693.368 583.319 690.051 579.598C814.269 557.41 958.586 484.595 1107.94 409.22C1222.23 351.547 1339.46 292.378 1452.68 253.398C1594.01 204.744 1762.22 217.958 1912.48 265.004C1937.67 272.892 1962.35 281.732 1986.31 291.388ZM666.614 566.775C668.457 566.445 670.288 566.139 672.138 565.787C675.876 569.477 679.547 573.265 683.138 577.146C680.87 577.519 678.615 577.86 676.36 578.198C673.182 574.306 669.931 570.496 666.614 566.775ZM655.538 568.628C657.878 568.263 660.22 567.893 662.576 567.494C665.901 571.178 669.159 574.947 672.343 578.807C669.585 579.201 666.843 579.545 664.107 579.88C661.317 576.049 658.461 572.299 655.538 568.628ZM643.071 570.393C645.888 570.033 648.715 569.655 651.555 569.237C654.473 572.863 657.329 576.568 660.116 580.349C656.901 580.716 653.698 581.051 650.52 581.333C648.097 577.617 645.614 573.97 643.071 570.393ZM629.287 571.937C632.559 571.625 635.836 571.29 639.14 570.896C641.663 574.41 644.128 577.99 646.537 581.637C642.885 581.917 639.243 582.161 635.628 582.342C633.565 578.815 631.452 575.349 629.287 571.937ZM614.282 573.087C617.955 572.879 621.65 572.623 625.369 572.301C627.52 575.653 629.626 579.063 631.675 582.529C627.845 582.686 624.043 582.771 620.266 582.795C618.245 579.635 616.249 576.398 614.282 573.087ZM599.174 573.592C602.869 573.542 606.588 573.425 610.326 573.262C612.232 576.507 614.162 579.68 616.118 582.787C612.477 582.76 608.856 582.673 605.26 582.526C603.207 579.619 601.179 576.64 599.174 573.592ZM584.547 573.494C588.021 573.603 591.516 573.664 595.035 573.651C596.944 576.6 598.876 579.486 600.833 582.308C597.415 582.116 594.018 581.866 590.64 581.56C588.588 578.932 586.556 576.246 584.547 573.494ZM570.371 572.709C573.587 572.959 576.827 573.153 580.082 573.305C581.98 575.962 583.9 578.557 585.838 581.097C582.678 580.761 579.545 580.367 576.43 579.917C574.391 577.572 572.37 575.168 570.371 572.709ZM556.736 571.295C559.649 571.668 562.574 571.998 565.521 572.283C567.345 574.585 569.181 576.84 571.039 579.044C568.194 578.56 565.361 578.049 562.545 577.482C560.594 575.469 558.653 573.406 556.736 571.295ZM543.772 569.338C546.288 569.786 548.811 570.214 551.354 570.584C553.031 572.496 554.721 574.367 556.428 576.201C553.97 575.647 551.54 575.038 549.115 574.402C547.321 572.751 545.54 571.063 543.772 569.338ZM531.625 566.868C533.571 567.318 535.536 567.709 537.498 568.109C538.89 569.533 540.288 570.928 541.696 572.304C539.79 571.732 537.892 571.154 536.004 570.539C534.538 569.338 533.079 568.114 531.625 566.868ZM520.714 564.06C521.84 564.376 522.966 564.688 524.097 564.989C524.92 565.739 525.742 566.485 526.573 567.219C525.463 566.801 524.361 566.36 523.259 565.923C522.407 565.311 521.56 564.69 520.714 564.06ZM367.221 424.439C371.075 425.091 374.959 425.772 378.867 426.494C380.334 428.48 381.769 430.505 383.196 432.536C379.229 431.906 375.298 431.312 371.4 430.748C370.04 428.61 368.616 426.542 367.221 424.439ZM360.403 414.605C364.064 415.302 367.74 416.032 371.44 416.796C372.92 418.657 374.374 420.552 375.822 422.455C372.066 421.779 368.339 421.14 364.636 420.528C363.252 418.518 361.817 416.575 360.403 414.605ZM353.288 405.086C356.735 405.823 360.193 406.584 363.667 407.378C365.139 409.097 366.585 410.846 368.027 412.603C364.5 411.895 360.989 411.219 357.499 410.567C356.12 408.709 354.696 406.906 353.288 405.086ZM345.885 395.87C349.095 396.628 352.314 397.411 355.543 398.223C356.985 399.788 358.402 401.391 359.82 402.991C356.543 402.261 353.28 401.564 350.027 400.888C348.667 399.189 347.269 397.536 345.885 395.87ZM338.207 386.965C341.157 387.734 344.109 388.522 347.067 389.34C348.454 390.743 349.816 392.18 351.182 393.61C348.185 392.877 345.193 392.175 342.208 391.488C340.891 389.96 339.546 388.466 338.207 386.965ZM330.288 378.391C332.939 379.149 335.593 379.924 338.25 380.723C339.544 381.942 340.811 383.201 342.089 384.441C339.403 383.725 336.722 383.033 334.047 382.357C332.806 381.018 331.547 379.706 330.288 378.391ZM322.174 370.16C324.482 370.884 326.79 371.621 329.098 372.374C330.245 373.386 331.366 374.432 332.503 375.457C330.179 374.786 327.857 374.131 325.539 373.487C324.426 372.367 323.3 371.264 322.174 370.16ZM313.935 362.325C315.83 362.975 317.723 363.627 319.618 364.298C320.547 365.062 321.452 365.861 322.376 366.635C320.486 366.044 318.596 365.469 316.706 364.897C315.788 364.034 314.864 363.18 313.935 362.325ZM305.68 354.938C307.043 355.447 308.409 355.952 309.772 356.471C310.387 356.945 310.991 357.438 311.606 357.914C310.251 357.459 308.898 357.017 307.541 356.575C306.92 356.032 306.303 355.479 305.68 354.938ZM297.505 348.062L299.523 348.877L299.941 349.17L298.016 348.491L297.505 348.062ZM1962.93 278.586C1946.72 272.556 1930.23 266.908 1913.52 261.677C1762.64 214.434 1593.64 201.193 1451.54 250.113C1337.99 289.21 1220.69 348.406 1106.35 406.111C956.347 481.813 811.448 554.929 687.208 576.451C683.622 572.528 679.959 568.699 676.227 564.97C798.249 540.847 938.986 469.84 1084.51 396.399C1198.79 338.726 1316.03 279.557 1429.25 240.577C1570.57 191.923 1738.78 205.138 1889.04 252.184C1914.25 260.071 1938.95 268.923 1962.93 278.586ZM2146.97 379.892L2146.7 379.682L2148.97 380.587L2149.09 380.678L2146.97 379.892ZM652.785 552.147L656.64 551.372C660.822 555.041 664.935 558.813 668.965 562.694C667.232 563.008 665.496 563.325 663.769 563.626C660.18 559.702 656.517 555.876 652.785 552.147ZM643.175 553.952C645.009 553.624 646.833 553.316 648.678 552.97C652.418 556.659 656.089 560.445 659.683 564.328C657.42 564.698 655.17 565.042 652.921 565.377C649.742 561.483 646.492 557.673 643.175 553.952ZM632.104 555.802C634.444 555.44 636.786 555.067 639.14 554.668C642.464 558.352 645.72 562.122 648.904 565.982C646.146 566.373 643.407 566.722 640.673 567.057C637.88 563.226 635.024 559.476 632.104 555.802ZM619.635 557.57C622.457 557.208 625.281 556.83 628.124 556.414C631.042 560.04 633.898 563.743 636.685 567.526C633.469 567.893 630.264 568.228 627.083 568.513C624.661 564.797 622.177 561.147 619.635 557.57ZM605.854 559.113C609.125 558.802 612.402 558.467 615.703 558.073C618.227 561.589 620.692 565.167 623.101 568.814C619.449 569.094 615.807 569.338 612.192 569.519C610.129 565.992 608.015 562.526 605.854 559.113ZM590.845 560.264C594.521 560.059 598.214 559.8 601.932 559.478C604.086 562.832 606.189 566.24 608.239 569.708C604.411 569.863 600.607 569.951 596.829 569.972C594.809 566.809 592.812 563.572 590.845 560.264ZM575.74 560.769C579.433 560.719 583.154 560.602 586.892 560.439C588.798 563.684 590.728 566.857 592.682 569.964C589.04 569.937 585.42 569.849 581.826 569.703C579.771 566.793 577.745 563.817 575.74 560.769ZM561.11 560.668C564.584 560.777 568.077 560.839 571.601 560.825C573.512 563.775 575.445 566.66 577.399 569.482C573.981 569.29 570.582 569.038 567.204 568.731C565.148 566.109 563.117 563.421 561.11 560.668ZM546.937 559.883C550.153 560.133 553.393 560.325 556.646 560.476C558.547 563.133 560.463 565.731 562.404 568.271C559.247 567.935 556.113 567.541 552.999 567.092C550.957 564.749 548.937 562.345 546.937 559.883ZM533.297 558.472C536.209 558.845 539.14 559.175 542.084 559.46C543.908 561.762 545.747 564.017 547.603 566.221C544.757 565.737 541.922 565.226 539.106 564.659C537.152 562.646 535.216 560.583 533.297 558.472ZM520.33 556.513C522.846 556.963 525.367 557.389 527.912 557.759C529.589 559.67 531.282 561.541 532.986 563.375C530.529 562.822 528.095 562.209 525.67 561.576C523.879 559.928 522.095 558.24 520.33 556.513ZM508.191 554.048C510.137 554.495 512.105 554.886 514.067 555.288C515.459 556.71 516.854 558.107 518.262 559.484C516.359 558.914 514.461 558.336 512.576 557.721C511.109 556.518 509.645 555.296 508.191 554.048ZM497.28 551.239C498.403 551.556 499.532 551.865 500.661 552.166C501.483 552.916 502.306 553.659 503.134 554.396C502.026 553.978 500.929 553.539 499.827 553.105C498.973 552.49 498.124 551.867 497.28 551.239ZM350.296 421.761C354.331 422.357 358.404 422.985 362.512 423.656C363.957 425.77 365.365 427.928 366.766 430.093C362.586 429.512 358.455 428.969 354.369 428.464C353.038 426.198 351.664 423.983 350.296 421.761ZM343.787 411.618C347.642 412.27 351.523 412.949 355.431 413.671C356.903 415.667 358.343 417.701 359.778 419.74C355.811 419.109 351.877 418.515 347.98 417.951C346.609 415.808 345.193 413.719 343.787 411.618ZM336.97 401.785C340.63 402.485 344.309 403.214 348.006 403.975C349.486 405.834 350.937 407.726 352.385 409.627C348.629 408.951 344.9 408.312 341.197 407.702C339.81 405.7 338.386 403.747 336.97 401.785ZM329.851 392.263C333.298 393 336.759 393.761 340.231 394.555C341.703 396.272 343.145 398.023 344.588 399.778C341.061 399.069 337.553 398.393 334.063 397.741C332.681 395.886 331.262 394.081 329.851 392.263ZM322.445 383.047C325.656 383.805 328.874 384.588 332.103 385.4C333.549 386.968 334.965 388.57 336.384 390.168C333.107 389.441 329.843 388.741 326.59 388.065C325.227 386.369 323.835 384.71 322.445 383.047ZM314.771 374.145C317.718 374.914 320.673 375.699 323.63 376.517C325.017 377.92 326.38 379.362 327.748 380.792C324.751 380.06 321.756 379.354 318.775 378.668C317.457 377.14 316.112 375.646 314.771 374.145ZM306.857 365.57C309.508 366.329 312.162 367.104 314.819 367.902C316.113 369.122 317.377 370.375 318.652 371.616C315.966 370.9 313.285 370.208 310.61 369.531C309.37 368.195 308.11 366.883 306.857 365.57ZM298.737 357.337C301.045 358.061 303.353 358.798 305.661 359.554C306.809 360.563 307.927 361.609 309.061 362.634C306.739 361.961 304.418 361.306 302.102 360.664C300.99 359.541 299.863 358.441 298.737 357.337ZM290.498 349.502C292.394 350.152 294.286 350.804 296.182 351.475C297.111 352.239 298.016 353.037 298.94 353.812C297.05 353.221 295.16 352.646 293.27 352.074C292.349 351.211 291.427 350.354 290.498 349.502ZM282.241 342.115C283.606 342.626 284.972 343.127 286.332 343.649C286.95 344.122 287.554 344.612 288.169 345.091C286.814 344.636 285.459 344.197 284.104 343.752C283.481 343.207 282.864 342.656 282.241 342.115ZM274.068 335.239L276.086 336.054L276.504 336.344L274.58 335.665L274.068 335.239ZM1939.51 265.771C1923.3 259.739 1906.81 254.085 1890.09 248.854C1739.21 201.613 1570.21 188.37 1428.11 237.29C1314.55 276.387 1197.26 335.583 1082.92 393.288C936.675 467.092 795.278 538.456 673.152 561.93C669.138 558.017 665.044 554.21 660.878 550.505C781.013 524.912 918.762 455.398 1061.08 383.574C1175.36 325.901 1292.6 266.732 1405.82 227.752C1547.14 179.098 1715.35 192.312 1865.61 239.358C1890.82 247.251 1915.52 256.105 1939.51 265.771ZM2123.52 367.069L2123.26 366.856L2125.53 367.761L2125.65 367.852L2123.52 367.069ZM2133.13 374.917L2131.98 373.951L2135.51 375.303L2136.62 376.152L2133.13 374.917ZM2142.5 382.922L2140.6 381.284L2145.29 382.994L2147.16 384.492L2142.5 382.922ZM2117.16 368.464L2121.85 370.173L2117.16 368.464ZM2121.85 370.173L2123.72 371.672L2119.06 370.101M637.423 537.684C638.109 537.538 638.799 537.378 639.488 537.226C644.136 540.836 648.71 544.56 653.203 548.401C652.034 548.638 650.863 548.886 649.703 549.11C645.686 545.191 641.591 541.387 637.423 537.684ZM629.343 539.321L633.166 538.557C637.353 542.223 641.466 545.998 645.502 549.876C643.777 550.188 642.049 550.502 640.332 550.803C636.744 546.879 633.078 543.051 629.343 539.321ZM619.741 541.129C621.575 540.801 623.396 540.49 625.238 540.144C628.979 543.833 632.65 547.622 636.243 551.503C633.981 551.873 631.734 552.216 629.484 552.552C626.309 548.66 623.061 544.85 619.741 541.129ZM608.667 542.982C611.007 542.617 613.35 542.247 615.706 541.848C619.031 545.532 622.289 549.301 625.473 553.161C622.712 553.553 619.97 553.899 617.236 554.234C614.444 550.403 611.587 546.653 608.667 542.982ZM596.201 544.747C599.02 544.387 601.847 544.007 604.688 543.591C607.605 547.217 610.459 550.922 613.246 554.703C610.03 555.07 606.828 555.405 603.644 555.687C601.227 551.971 598.741 548.324 596.201 544.747ZM582.414 546.29C585.683 545.979 588.966 545.644 592.269 545.25C594.79 548.764 597.258 552.344 599.664 555.991C596.012 556.273 592.37 556.518 588.755 556.696C586.695 553.169 584.579 549.703 582.414 546.29ZM567.408 547.441C571.082 547.236 574.777 546.977 578.496 546.658C580.649 550.009 582.752 553.419 584.802 556.885C580.974 557.04 577.17 557.128 573.393 557.152C571.37 553.986 569.376 550.749 567.408 547.441ZM552.301 547.946C555.994 547.896 559.715 547.779 563.453 547.616C565.359 550.861 567.289 554.037 569.245 557.141C565.604 557.112 561.986 557.026 558.387 556.877C556.334 553.973 554.303 550.994 552.301 547.946ZM537.673 547.848C541.147 547.957 544.643 548.018 548.162 548.005C550.071 550.954 552.006 553.84 553.96 556.662C550.539 556.47 547.142 556.22 543.767 555.914C541.714 553.286 539.681 550.6 537.673 547.848ZM523.498 547.06C526.714 547.31 529.954 547.504 533.209 547.656C535.107 550.313 537.027 552.908 538.967 555.448C535.808 555.112 532.674 554.718 529.56 554.269C527.518 551.926 525.497 549.522 523.498 547.06ZM509.858 545.649C512.773 546.022 515.698 546.352 518.645 546.637C520.466 548.939 522.306 551.194 524.164 553.398C521.318 552.914 518.48 552.4 515.667 551.833C513.713 549.82 511.777 547.76 509.858 545.649ZM496.897 543.69C499.412 544.14 501.936 544.565 504.481 544.935C506.158 546.847 507.851 548.718 509.557 550.552C507.1 549.999 504.67 549.389 502.245 548.756C500.448 547.105 498.664 545.417 496.897 543.69ZM484.755 541.222C486.701 541.672 488.668 542.063 490.63 542.463C492.022 543.884 493.417 545.282 494.825 546.655C492.925 546.086 491.024 545.511 489.142 544.896C487.67 543.695 486.208 542.473 484.755 541.222ZM473.833 538.414C474.959 538.73 476.087 539.042 477.221 539.345C478.041 540.096 478.866 540.839 479.692 541.573C478.582 541.155 477.482 540.716 476.378 540.28C475.526 539.662 474.677 539.042 473.833 538.414ZM333.211 419.407C337.361 419.937 341.562 420.501 345.805 421.106C347.218 423.342 348.579 425.634 349.944 427.923C345.746 427.423 341.607 426.962 337.523 426.534C336.07 424.21 334.643 421.798 333.211 419.407ZM326.859 408.938C330.895 409.534 334.968 410.162 339.075 410.833C340.526 412.955 341.934 415.124 343.345 417.291C339.166 416.711 335.032 416.168 330.945 415.659C329.609 413.391 328.235 411.166 326.859 408.938ZM320.353 398.795C324.208 399.447 328.089 400.129 331.997 400.85C333.469 402.841 334.906 404.875 336.341 406.912C332.372 406.281 328.44 405.687 324.541 405.123C323.172 402.985 321.756 400.896 320.353 398.795ZM313.533 388.964C317.193 389.662 320.87 390.391 324.57 391.155C326.05 393.013 327.501 394.909 328.946 396.807C325.19 396.13 321.461 395.492 317.758 394.879C316.373 392.875 314.949 390.924 313.533 388.964ZM306.412 379.437C309.862 380.172 313.317 380.936 316.791 381.729C318.266 383.449 319.709 385.2 321.152 386.954C317.625 386.246 314.113 385.57 310.623 384.918C309.244 383.065 307.826 381.255 306.412 379.437ZM299.009 370.224C302.219 370.982 305.44 371.765 308.667 372.577C310.112 374.145 311.531 375.75 312.95 377.35C309.673 376.62 306.409 375.923 303.156 375.247C301.791 373.548 300.398 371.887 299.009 370.224ZM291.337 361.324C294.287 362.094 297.239 362.882 300.196 363.696C301.583 365.099 302.941 366.537 304.309 367.966C301.309 367.234 298.319 366.529 295.335 365.842C294.017 364.316 292.676 362.82 291.337 361.324ZM283.42 352.745C286.071 353.503 288.725 354.281 291.382 355.079C292.673 356.296 293.938 357.552 295.213 358.793C292.527 358.079 289.849 357.387 287.171 356.708C285.93 355.372 284.674 354.057 283.42 352.745ZM275.298 344.514C277.606 345.235 279.914 345.975 282.225 346.729C283.372 347.737 284.487 348.786 285.624 349.808C283.303 349.138 280.984 348.483 278.666 347.839C277.55 346.72 276.427 345.618 275.298 344.514ZM267.059 336.677C268.955 337.326 270.85 337.981 272.745 338.652C273.674 339.416 274.579 340.217 275.501 340.989C273.613 340.398 271.72 339.823 269.833 339.251C268.912 338.388 267.988 337.528 267.059 336.677ZM258.804 329.292C260.17 329.803 261.533 330.304 262.896 330.826C263.511 331.299 264.118 331.786 264.73 332.266C263.375 331.81 262.02 331.371 260.665 330.927C260.042 330.381 259.427 329.83 258.804 329.292ZM250.629 322.416L252.65 323.231L253.06 323.518L251.135 322.839L250.629 322.416ZM2100.08 354.241L2099.83 354.033L2102.09 354.938L2102.21 355.026L2100.08 354.241ZM2109.69 362.091L2108.54 361.13L2112.07 362.48L2113.18 363.329L2109.69 362.091ZM2128.17 378.252L2125.73 376.043C2127.63 376.695 2129.53 377.355 2131.42 378.016L2133.88 380.084C2131.98 379.469 2130.07 378.859 2128.17 378.252ZM2137.04 386.585C2136.09 385.674 2135.15 384.758 2134.19 383.851C2136.38 384.564 2138.58 385.291 2140.76 386.02C2141.74 386.88 2142.72 387.743 2143.69 388.605C2141.47 387.926 2139.26 387.253 2137.04 386.585ZM620.396 523.437L620.551 523.405C625.694 526.932 630.767 530.584 635.761 534.365L634.039 534.711C629.569 530.837 625.02 527.081 620.396 523.437ZM613.989 524.861C614.66 524.717 615.338 524.558 616.012 524.411C620.66 528.018 625.236 531.742 629.729 535.584C628.574 535.818 627.413 536.063 626.263 536.284C622.252 532.371 618.157 528.564 613.989 524.861ZM605.909 526.498L609.732 525.734C613.917 529.4 618.03 533.175 622.063 537.053C620.338 537.365 618.613 537.681 616.893 537.98C613.307 534.053 609.644 530.228 605.909 526.498ZM596.302 528.306C598.136 527.978 599.962 527.67 601.807 527.321C605.547 531.01 609.221 534.798 612.812 538.68C610.549 539.052 608.297 539.393 606.048 539.731C602.872 535.834 599.622 532.027 596.302 528.306ZM585.241 530.156C587.581 529.794 589.921 529.424 592.275 529.022C595.599 532.706 598.855 536.478 602.039 540.336C599.281 540.727 596.539 541.073 593.805 541.408C591.015 537.578 588.159 533.829 585.241 530.156ZM572.767 531.924C575.586 531.564 578.413 531.186 581.254 530.768C584.169 534.394 587.028 538.099 589.815 541.879C586.599 542.247 583.394 542.582 580.213 542.867C577.793 539.148 575.307 535.501 572.767 531.924ZM558.978 533.467C562.247 533.156 565.526 532.821 568.83 532.427C571.351 535.94 573.819 539.521 576.225 543.168C572.57 543.447 568.931 543.692 565.319 543.873C563.258 540.346 561.145 536.88 558.978 533.467ZM543.972 534.617C547.646 534.41 551.34 534.154 555.059 533.832C557.21 537.184 559.316 540.594 561.366 544.06C557.538 544.217 553.734 544.302 549.956 544.326C547.933 541.166 545.939 537.929 543.972 534.617ZM528.865 535.123C532.56 535.073 536.279 534.956 540.016 534.793C541.922 538.038 543.852 541.211 545.806 544.318C542.164 544.291 538.544 544.203 534.95 544.057C532.898 541.147 530.867 538.171 528.865 535.123ZM514.237 535.022C517.714 535.131 521.206 535.192 524.725 535.179C526.637 538.129 528.567 541.014 530.523 543.836C527.105 543.644 523.709 543.394 520.33 543.085C518.278 540.463 516.244 537.777 514.237 535.022ZM500.062 534.237C503.277 534.487 506.52 534.681 509.773 534.833C511.671 537.49 513.59 540.085 515.528 542.625C512.368 542.289 509.232 541.895 506.121 541.446C504.079 539.103 502.061 536.699 500.062 534.237ZM486.427 532.826C489.339 533.199 492.265 533.529 495.211 533.814C497.035 536.116 498.874 538.371 500.73 540.575C497.884 540.091 495.052 539.579 492.238 539.012C490.281 537 488.343 534.937 486.427 532.826ZM473.463 530.867C475.978 531.314 478.502 531.742 481.044 532.112C482.721 534.024 484.412 535.895 486.118 537.729C483.663 537.173 481.23 536.563 478.805 535.93C477.008 534.282 475.23 532.594 473.463 530.867ZM461.316 528.399C463.262 528.846 465.226 529.24 467.191 529.639C468.58 531.064 469.981 532.459 471.389 533.835C469.485 533.262 467.585 532.685 465.697 532.07C464.228 530.869 462.767 529.645 461.316 528.399ZM450.404 525.591C451.53 525.907 452.656 526.219 453.788 526.52C454.61 527.27 455.433 528.016 456.261 528.75C455.15 528.332 454.051 527.891 452.946 527.454C452.097 526.842 451.248 526.219 450.404 525.591ZM316.509 417.448C320.55 417.882 324.647 418.353 328.797 418.859C330.237 421.319 331.704 423.709 333.173 426.089C329.218 425.692 325.323 425.33 321.49 425C319.802 422.543 318.16 419.99 316.509 417.448ZM309.774 406.587C313.924 407.117 318.125 407.681 322.368 408.285C323.787 410.524 325.15 412.827 326.521 415.119C322.323 414.618 318.181 414.155 314.097 413.727C312.636 411.403 311.209 408.988 309.774 406.587ZM303.425 396.117C307.461 396.713 311.534 397.342 315.641 398.013C317.09 400.132 318.5 402.298 319.906 404.465C315.726 403.885 311.592 403.342 307.506 402.836C306.17 400.565 304.796 398.343 303.425 396.117ZM296.917 385.975C300.771 386.627 304.655 387.308 308.563 388.03C310.033 390.021 311.47 392.055 312.905 394.089C308.938 393.458 305.004 392.864 301.104 392.3C299.736 390.162 298.319 388.073 296.917 385.975ZM290.094 376.139C293.754 376.836 297.433 377.565 301.131 378.327C302.611 380.188 304.061 382.083 305.51 383.981C301.753 383.305 298.027 382.666 294.321 382.054C292.937 380.054 291.513 378.101 290.094 376.139ZM282.975 366.614C286.423 367.349 289.883 368.113 293.355 368.906C294.83 370.623 296.272 372.377 297.718 374.134C294.191 373.426 290.682 372.747 287.189 372.098C285.808 370.245 284.389 368.432 282.975 366.614ZM275.575 357.403C278.785 358.162 282.007 358.945 285.233 359.756C286.676 361.322 288.092 362.927 289.513 364.524C286.234 363.797 282.973 363.097 279.72 362.421C278.354 360.725 276.962 359.067 275.575 357.403ZM267.9 348.501C270.85 349.271 273.802 350.059 276.76 350.873C278.144 352.276 279.504 353.714 280.87 355.14C277.872 354.408 274.88 353.703 271.896 353.016C270.581 351.491 269.239 349.997 267.9 348.501ZM259.981 339.922C262.632 340.68 265.286 341.455 267.943 342.256C269.234 343.473 270.499 344.729 271.774 345.967C269.088 345.254 266.41 344.562 263.732 343.883C262.494 342.549 261.237 341.234 259.981 339.922ZM251.859 331.685C254.167 332.409 256.478 333.149 258.786 333.903C259.933 334.912 261.051 335.961 262.185 336.985C259.864 336.312 257.542 335.657 255.226 335.016C254.111 333.895 252.985 332.79 251.859 331.685ZM243.623 323.854C245.518 324.503 247.416 325.158 249.309 325.829C250.238 326.593 251.14 327.394 252.061 328.166C250.171 327.575 248.281 327 246.394 326.428C245.473 325.563 244.549 324.705 243.623 323.854ZM235.365 316.469C236.731 316.978 238.094 317.481 239.457 318.002C240.072 318.474 240.676 318.963 241.288 319.44C239.933 318.985 238.575 318.546 237.22 318.101C236.603 317.558 235.988 317.007 235.365 316.469ZM227.195 309.596L229.21 310.41L229.628 310.701L227.706 310.022L227.195 309.596ZM2076.65 341.423L2076.39 341.213L2078.66 342.118L2078.78 342.209L2076.65 341.423ZM2086.25 349.271L2085.1 348.31L2088.64 349.66L2089.74 350.503L2086.25 349.271ZM2095.62 357.273C2095 356.727 2094.36 356.187 2093.74 355.644L2098.42 357.35L2100.29 358.844L2095.62 357.273ZM2104.72 365.429L2102.29 363.223C2104.19 363.875 2106.09 364.532 2107.98 365.195L2110.43 367.261C2108.53 366.643 2106.63 366.034 2104.72 365.429ZM2113.6 373.762C2112.66 372.851 2111.71 371.938 2110.75 371.03C2112.95 371.744 2115.14 372.468 2117.33 373.197C2118.31 374.057 2119.28 374.92 2120.25 375.782C2118.04 375.101 2115.82 374.43 2113.6 373.762ZM2122.21 382.253C2121.15 381.186 2120.1 380.121 2119.03 379.056C2120.49 379.506 2121.95 379.953 2123.41 380.411L2126.43 381.362C2127.53 382.373 2128.62 383.393 2129.7 384.41C2127.21 383.68 2124.71 382.962 2122.21 382.253ZM2130.55 390.932C2129.41 389.715 2128.27 388.499 2127.1 387.287C2129.83 388.075 2132.55 388.877 2135.26 389.689C2136.46 390.844 2137.64 392.007 2138.82 393.168C2136.07 392.409 2133.31 391.666 2130.55 390.932ZM2138.6 399.794C2137.4 398.439 2136.2 397.086 2134.97 395.734C2137.93 396.538 2140.89 397.355 2143.84 398.188C2145.11 399.482 2146.36 400.779 2147.61 402.075C2144.61 401.3 2141.6 400.542 2138.6 399.794ZM596.96 510.617L597.066 510.593C602.212 514.12 607.286 517.769 612.282 521.55L610.605 521.888C606.133 518.014 601.581 514.258 596.96 510.617ZM590.552 512.038C591.223 511.894 591.904 511.737 592.578 511.588C597.226 515.198 601.802 518.919 606.295 522.761C605.143 522.995 603.982 523.24 602.832 523.461C598.815 519.548 594.718 515.741 590.552 512.038ZM582.473 513.675L586.304 512.909C590.488 516.574 594.601 520.349 598.634 524.228C596.906 524.542 595.179 524.856 593.459 525.154C589.871 521.23 586.208 517.407 582.473 513.675ZM572.884 515.48C574.716 515.153 576.539 514.844 578.379 514.495C582.116 518.185 585.79 521.973 589.383 525.857C587.123 526.229 584.874 526.57 582.627 526.906C579.449 523.008 576.201 519.202 572.884 515.48ZM561.805 517.333C564.145 516.968 566.487 516.598 568.841 516.199C572.165 519.883 575.418 523.655 578.602 527.512C575.844 527.904 573.105 528.25 570.369 528.585C567.579 524.755 564.725 521.006 561.805 517.333ZM549.328 519.101C552.147 518.741 554.974 518.363 557.817 517.945C560.732 521.571 563.588 525.276 566.376 529.056C563.16 529.424 559.957 529.759 556.776 530.044C554.354 526.325 551.87 522.678 549.328 519.101ZM535.541 520.644C538.81 520.333 542.09 519.998 545.391 519.604C547.914 523.117 550.379 526.701 552.789 530.348C549.136 530.627 545.497 530.872 541.882 531.05C539.822 527.523 537.708 524.055 535.541 520.644ZM520.535 521.794C524.209 521.589 527.904 521.331 531.623 521.009C533.774 524.361 535.879 527.771 537.929 531.237C534.101 531.391 530.297 531.479 526.52 531.503C524.496 528.34 522.5 525.103 520.535 521.794ZM505.428 522.3C509.123 522.25 512.842 522.133 516.58 521.97C518.486 525.215 520.416 528.388 522.372 531.495C518.73 531.468 515.11 531.38 511.516 531.234C509.459 528.327 507.433 525.348 505.428 522.3ZM490.798 522.202C494.274 522.308 497.767 522.372 501.289 522.359C503.198 525.308 505.13 528.194 507.087 531.016C503.669 530.824 500.269 530.571 496.891 530.265C494.839 527.64 492.805 524.952 490.798 522.202ZM476.625 521.414C479.841 521.664 483.081 521.856 486.334 522.007C488.232 524.664 490.151 527.262 492.091 529.802C488.934 529.466 485.801 529.072 482.687 528.623C480.647 526.28 478.624 523.876 476.625 521.414ZM462.987 520.003C465.9 520.376 468.831 520.706 471.775 520.991C473.596 523.293 475.435 525.548 477.293 527.752C474.448 527.268 471.613 526.756 468.796 526.189C466.842 524.177 464.904 522.114 462.987 520.003ZM450.021 518.044C452.536 518.494 455.057 518.919 457.602 519.289C459.279 521.201 460.972 523.072 462.679 524.906C460.222 524.353 457.789 523.74 455.363 523.107C453.567 521.459 451.786 519.771 450.021 518.044ZM437.882 515.579C439.828 516.026 441.792 516.417 443.757 516.819C445.149 518.241 446.544 519.638 447.952 521.014C446.049 520.445 444.151 519.867 442.266 519.252C440.797 518.049 439.335 516.827 437.882 515.579ZM426.975 512.77C428.096 513.084 429.222 513.393 430.348 513.697C431.171 514.447 431.996 515.19 432.821 515.927C431.717 515.512 430.622 515.073 429.523 514.639C428.671 514.024 427.822 513.401 426.975 512.77ZM300.689 415.885C304.413 416.221 308.188 416.58 312.021 416.974C313.671 419.58 315.349 422.12 317.034 424.622C313.456 424.329 309.937 424.061 306.476 423.818C304.525 421.236 302.6 418.574 300.689 415.885ZM293.075 404.628C297.116 405.062 301.213 405.533 305.363 406.039C306.806 408.504 308.275 410.899 309.748 413.282C305.792 412.885 301.897 412.526 298.064 412.193C296.376 409.736 294.726 407.178 293.075 404.628ZM286.34 393.767C290.491 394.296 294.691 394.861 298.934 395.465C300.353 397.701 301.714 400.001 303.085 402.296C298.887 401.795 294.744 401.332 290.661 400.904C289.199 398.58 287.772 396.168 286.34 393.767ZM279.989 383.297C284.024 383.893 288.097 384.521 292.205 385.192C293.653 387.311 295.058 389.475 296.467 391.64C292.29 391.059 288.156 390.516 284.07 390.008C282.736 387.742 281.36 385.52 279.989 383.297ZM273.477 373.149C277.332 373.801 281.213 374.483 285.121 375.204C286.593 377.198 288.033 379.229 289.465 381.266C285.499 380.635 281.565 380.041 277.665 379.477C276.299 377.337 274.883 375.25 273.477 373.149ZM266.657 363.316C270.317 364.013 273.996 364.742 277.694 365.506C279.174 367.367 280.625 369.263 282.073 371.161C278.317 370.484 274.59 369.846 270.887 369.233C269.503 367.229 268.076 365.277 266.657 363.316ZM259.542 353.794C262.989 354.528 266.447 355.292 269.921 356.086C271.393 357.803 272.836 359.554 274.281 361.308C270.754 360.6 267.243 359.921 263.753 359.272C262.371 357.419 260.955 355.609 259.542 353.794ZM252.139 344.58C255.349 345.339 258.567 346.122 261.796 346.933C263.239 348.499 264.655 350.101 266.074 351.698C262.795 350.972 259.534 350.272 256.281 349.596C254.918 347.902 253.525 346.244 252.139 344.58ZM244.461 335.678C247.411 336.448 250.363 337.236 253.32 338.05C254.707 339.453 256.065 340.888 257.431 342.317C254.433 341.585 251.441 340.88 248.457 340.193C247.142 338.671 245.8 337.174 244.461 335.678ZM236.539 327.093C239.19 327.855 241.844 328.629 244.501 329.428C245.792 330.647 247.057 331.901 248.335 333.144C245.648 332.431 242.968 331.739 240.293 331.062C239.055 329.723 237.798 328.408 236.539 327.093ZM228.422 318.862C230.73 319.586 233.041 320.326 235.349 321.08C236.496 322.089 237.612 323.135 238.748 324.157C236.427 323.486 234.106 322.831 231.787 322.187C230.672 321.069 229.546 319.967 228.422 318.862ZM220.186 311.031C222.081 311.68 223.977 312.335 225.872 313.006C226.799 313.767 227.698 314.566 228.619 315.338C226.729 314.747 224.839 314.172 222.952 313.599C222.031 312.74 221.112 311.882 220.186 311.031ZM211.934 303.649C213.299 304.16 214.662 304.663 216.025 305.182C216.638 305.653 217.242 306.14 217.851 306.617C216.497 306.162 215.142 305.723 213.787 305.278C213.169 304.738 212.557 304.187 211.934 303.649ZM203.756 296.77L205.777 297.585L206.192 297.875L204.264 297.196L203.756 296.77ZM309.343 427.532C312.697 427.779 316.105 428.048 319.568 428.344C334.475 449.874 350.7 467.729 368.129 482.274C346.888 468.493 327.24 450.417 309.343 427.532ZM180.825 284.37L180.32 283.944L182.343 284.762L182.75 285.049L180.825 284.37ZM190.353 292.458C189.732 291.915 189.118 291.364 188.495 290.823C189.858 291.334 191.226 291.837 192.589 292.359C193.204 292.83 193.805 293.32 194.42 293.799C193.063 293.341 191.708 292.902 190.353 292.458ZM199.515 300.779C198.6 299.919 197.679 299.062 196.752 298.213C198.648 298.862 200.543 299.515 202.436 300.185C203.362 300.947 204.265 301.745 205.183 302.517C203.296 301.926 201.405 301.351 199.515 300.779ZM208.348 309.364C207.235 308.246 206.112 307.141 204.986 306.039C207.294 306.763 209.605 307.503 211.913 308.257C213.057 309.266 214.175 310.309 215.307 311.334C212.983 310.661 210.664 310.006 208.348 309.364ZM216.853 318.231C215.613 316.895 214.359 315.583 213.105 314.27C215.757 315.029 218.411 315.804 221.067 316.605C222.358 317.821 223.623 319.078 224.898 320.316C222.209 319.602 219.529 318.91 216.853 318.231ZM225.023 327.37C223.703 325.842 222.361 324.346 221.019 322.847C223.969 323.617 226.921 324.405 229.881 325.219C231.268 326.622 232.631 328.062 233.997 329.492C230.997 328.762 228.007 328.057 225.023 327.37ZM232.844 336.775C231.484 335.079 230.089 333.424 228.702 331.76C231.912 332.519 235.133 333.301 238.36 334.113C239.803 335.678 241.219 337.281 242.638 338.878C239.358 338.149 236.094 337.449 232.844 336.775ZM240.316 346.446C238.935 344.594 237.516 342.786 236.105 340.97C239.55 341.705 243.01 342.469 246.484 343.263C247.956 344.98 249.402 346.731 250.845 348.483C247.318 347.777 243.806 347.096 240.316 346.446ZM247.448 356.408C246.066 354.406 244.64 352.457 243.223 350.495C246.886 351.193 250.565 351.922 254.26 352.686C255.74 354.544 257.191 356.437 258.637 358.338C254.88 357.661 251.151 357.02 247.448 356.408ZM254.231 366.656C252.86 364.516 251.446 362.426 250.041 360.326C253.895 360.978 257.777 361.66 261.685 362.381C263.157 364.372 264.594 366.409 266.029 368.445C262.063 367.814 258.131 367.221 254.231 366.656ZM260.633 377.187C259.297 374.919 257.923 372.697 256.552 370.471C260.588 371.067 264.661 371.696 268.768 372.366C270.216 374.485 271.625 376.652 273.033 378.819C268.853 378.236 264.719 377.696 260.633 377.187ZM267.222 388.078C265.763 385.751 264.333 383.345 262.904 380.944C267.054 381.473 271.255 382.038 275.495 382.642C276.914 384.878 278.277 387.175 279.643 389.47C275.447 388.97 271.305 388.506 267.222 388.078ZM274.625 399.368C272.942 396.908 271.289 394.36 269.639 391.805C273.68 392.239 277.774 392.71 281.924 393.216C283.367 395.681 284.834 398.074 286.306 400.456C282.35 400.062 278.458 399.7 274.625 399.368ZM283.05 411.014C281.099 408.421 279.163 405.772 277.252 403.065C280.976 403.401 284.751 403.76 288.584 404.154C290.24 406.76 291.915 409.308 293.605 411.815C290.027 411.522 286.511 411.256 283.05 411.014ZM292.609 422.953C290.347 420.254 288.092 417.52 285.88 414.677C289.237 414.924 292.644 415.191 296.107 415.486C297.992 418.201 299.882 420.906 301.807 423.504C298.684 423.302 295.62 423.118 292.609 422.953ZM344.759 469.493C327.306 458.18 310.914 444.015 295.692 426.627C298.623 426.797 301.607 426.989 304.642 427.196C317.177 443.613 330.57 457.65 344.759 469.493ZM385.972 490.292C384.86 489.874 383.76 489.432 382.655 488.996C361.412 473.662 341.852 453.771 324.152 428.746C327.873 429.081 331.648 429.443 335.481 429.837C350.847 454.072 367.724 474.069 385.972 490.292ZM401.1 495.371C399.197 494.801 397.299 494.226 395.414 493.609C375.244 477.123 356.706 456.207 339.972 430.308C344.013 430.745 348.107 431.213 352.257 431.722C367.072 457.035 383.401 478.097 401.1 495.371ZM415.808 499.263C413.365 498.712 410.945 498.105 408.53 497.471C389.657 480.104 372.313 458.542 356.677 432.276C360.827 432.805 365.03 433.372 369.273 433.977C371.27 437.155 373.237 440.365 375.143 443.642L375.146 443.64C387.644 465.13 401.226 483.578 415.808 499.263ZM430.42 502.106C427.574 501.622 424.742 501.11 421.926 500.543C406.145 484.289 391.525 464.854 378.178 441.902L378.178 441.894C376.743 439.428 375.244 437.038 373.762 434.629C377.8 435.225 381.873 435.856 385.983 436.53C390.365 442.966 394.584 449.595 398.58 456.466L398.582 456.463C408.52 473.556 419.147 488.724 430.42 502.106ZM445.218 504.156C442.058 503.82 438.925 503.426 435.811 502.977C423.643 489.004 412.228 472.973 401.614 454.725L401.614 454.717C398.135 448.735 394.464 442.966 390.695 437.312C394.552 437.964 398.436 438.649 402.344 439.37C409.329 448.849 415.915 458.8 422.016 469.286L422.019 469.286C429.382 481.944 437.121 493.55 445.218 504.156ZM460.211 505.37C456.793 505.178 453.396 504.928 450.018 504.622C441.268 493.446 432.938 481.111 425.048 467.55L425.048 467.542C419.519 458.033 413.569 448.993 407.316 440.31C410.979 441.01 414.658 441.739 418.359 442.503C428.147 454.818 437.235 467.984 445.45 482.111L445.453 482.109C450.218 490.3 455.14 498.046 460.211 505.37ZM475.496 505.849C471.855 505.822 468.234 505.734 464.641 505.588C459.069 497.703 453.684 489.304 448.487 480.373L448.487 480.365C440.901 467.324 432.563 455.119 423.643 443.613C427.093 444.351 430.553 445.112 434.027 445.908C446.821 460.853 458.539 477.139 468.889 494.935L468.892 494.932C471.061 498.661 473.263 502.3 475.496 505.849ZM491.053 505.591C487.225 505.748 483.421 505.833 479.644 505.857C477.027 501.763 474.453 497.541 471.924 493.194L471.924 493.186C462.279 476.601 451.44 461.342 439.681 447.22C442.894 447.982 446.116 448.767 449.345 449.579C464.798 466.371 478.848 484.963 491.053 505.591ZM505.913 504.702C502.26 504.981 498.621 505.226 495.009 505.404C483.387 485.516 470.061 467.516 455.454 451.149C458.406 451.919 461.361 452.709 464.324 453.527C479.521 468.91 493.505 485.908 505.913 504.702ZM519.497 503.41C516.281 503.778 513.082 504.113 509.9 504.398C498.233 486.515 485.154 470.239 470.984 455.403C473.641 456.165 476.298 456.945 478.957 457.743C493.566 471.535 507.18 486.711 519.497 503.41ZM531.721 501.866C528.963 502.258 526.224 502.606 523.487 502.942C512.129 487.358 499.657 473.09 486.315 460.003C488.628 460.73 490.942 461.47 493.252 462.226C506.932 474.277 519.825 487.454 531.721 501.866ZM542.51 500.208C540.248 500.581 537.993 500.924 535.744 501.262C525.095 488.208 513.638 476.146 501.528 465C503.426 465.652 505.33 466.31 507.228 466.983C519.614 477.176 531.423 488.226 542.51 500.208ZM551.777 498.579C550.052 498.893 548.324 499.207 546.605 499.505C537.149 489.15 527.164 479.481 516.739 470.452C518.116 470.966 519.492 471.474 520.866 472.001C531.58 480.245 541.914 489.089 551.777 498.579ZM559.438 497.112C558.286 497.344 557.13 497.589 555.983 497.81C548.268 490.287 540.266 483.16 532.014 476.412C532.709 476.694 533.406 476.968 534.098 477.256C542.782 483.496 551.245 490.108 559.438 497.112ZM565.42 495.904L563.73 496.244C558.911 492.07 554 488.029 549.003 484.121C554.561 487.901 560.035 491.828 565.42 495.904ZM2053.22 328.6L2052.95 328.387L2055.22 329.292L2055.34 329.383L2053.22 328.6ZM2062.82 336.448L2061.67 335.482L2065.2 336.834L2066.31 337.683L2062.82 336.448ZM2072.19 344.453L2070.3 342.818L2074.98 344.527L2076.85 346.023L2072.19 344.453ZM2081.29 352.606L2078.86 350.4C2080.76 351.054 2082.66 351.712 2084.55 352.377L2087 354.441C2085.1 353.823 2083.19 353.211 2081.29 352.606ZM2090.17 360.939C2089.22 360.028 2088.27 359.115 2087.31 358.207C2089.51 358.923 2091.7 359.645 2093.89 360.374C2094.87 361.234 2095.84 362.097 2096.81 362.959C2094.6 362.278 2092.38 361.607 2090.17 360.939ZM2098.77 369.43C2097.72 368.363 2096.66 367.298 2095.59 366.233C2097.05 366.683 2098.51 367.13 2099.98 367.588L2102.99 368.539C2104.09 369.55 2105.18 370.57 2106.26 371.584C2103.77 370.857 2101.27 370.139 2098.77 369.43ZM2107.11 378.109C2105.97 376.892 2104.83 375.676 2103.67 374.464C2106.39 375.255 2109.11 376.054 2111.82 376.868C2113.02 378.024 2114.2 379.184 2115.38 380.345C2112.63 379.586 2109.87 378.843 2107.11 378.109ZM2115.16 386.971C2113.96 385.616 2112.76 384.263 2111.53 382.911C2114.49 383.715 2117.45 384.532 2120.4 385.365C2121.67 386.659 2122.93 387.956 2124.17 389.252C2121.17 388.477 2118.17 387.719 2115.16 386.971ZM2122.9 396.035C2121.67 394.547 2120.42 393.059 2119.15 391.576C2122.34 392.385 2125.52 393.208 2128.7 394.052C2130.02 395.476 2131.33 396.903 2132.62 398.329C2129.39 397.544 2126.15 396.783 2122.9 396.035ZM2130.32 405.301C2129.07 403.686 2127.8 402.07 2126.51 400.456C2129.91 401.26 2133.31 402.078 2136.7 402.919C2138.06 404.468 2139.4 406.023 2140.72 407.575C2137.26 406.797 2133.79 406.041 2130.32 405.301ZM2137.38 414.789C2136.13 413.045 2134.86 411.302 2133.56 409.563C2137.18 410.349 2140.79 411.158 2144.4 411.988C2145.78 413.66 2147.13 415.337 2148.45 417.014C2144.77 416.248 2141.07 415.508 2137.38 414.789ZM2128.33 408.443C2129.7 410.237 2131.05 412.034 2132.37 413.833C2012.48 391.195 1888.22 392.26 1779.66 429.635C1666.11 468.732 1548.81 527.928 1434.47 585.633C1207.53 700.167 992.272 808.756 842.578 741.737C991.856 788.256 1197 684.746 1412.63 575.922C1526.91 518.249 1644.15 459.08 1757.37 420.1C1871.37 380.848 2002.87 381.886 2128.33 408.443ZM2120.96 399.163C2122.34 400.834 2123.69 402.509 2125.01 404.189C2000.21 378.346 1869.65 377.763 1756.22 416.812C1642.67 455.909 1525.37 515.105 1411.03 572.81C1184.08 687.346 968.824 795.941 819.13 728.914C968.409 775.436 1173.56 671.925 1389.19 563.099C1503.47 505.423 1620.71 446.257 1733.93 407.277C1852.81 366.345 1990.72 369.22 2120.96 399.163ZM2113.27 390.096C2114.62 391.645 2115.96 393.2 2117.28 394.752C1987.77 365.637 1850.98 363.297 1732.79 403.989C1619.23 443.086 1501.94 502.282 1387.6 559.987C1165.12 672.266 953.872 778.84 804.612 719.847C803.749 719.227 802.887 718.599 802.029 717.962C950.749 759.698 1153.15 657.572 1365.75 550.276C1480.03 492.603 1597.27 433.434 1710.49 394.454C1834.18 351.869 1978.45 356.695 2113.27 390.096ZM2105.26 381.226C2106.58 382.65 2107.89 384.077 2109.18 385.504C1975.19 353.059 1832.22 348.866 1709.35 391.166C1595.79 430.263 1478.5 489.459 1364.16 547.164C1147.93 656.294 942.297 760.041 793.884 711.619C792.409 710.416 790.942 709.188 789.486 707.937C937.117 741.942 1134.87 642.148 1342.32 537.453C1456.6 479.78 1573.84 420.611 1687.06 381.631C1815.47 337.419 1966.09 344.306 2105.26 381.226ZM2096.96 372.542C2098.23 373.833 2099.49 375.13 2100.73 376.429C1962.47 340.606 1813.38 334.459 1685.92 378.34C1572.36 417.438 1455.06 476.633 1340.73 534.338C1130.77 640.298 930.816 741.194 783.523 702.642C781.723 700.989 779.94 699.302 778.17 697.574C924.414 723.691 1117.05 626.487 1318.88 524.627C1433.16 466.954 1550.4 407.785 1663.62 368.805C1796.7 322.986 1953.64 332.045 2096.96 372.542ZM2088.39 364.043C2089.59 365.198 2090.77 366.358 2091.95 367.522C1949.63 328.278 1794.45 320.082 1662.48 365.52C1548.92 404.617 1431.63 463.813 1317.29 521.518C1113.64 624.293 919.404 722.288 773.503 692.897C771.546 690.882 769.606 688.818 767.687 686.705C912.256 705.158 1099.52 610.685 1295.45 511.804C1409.73 454.131 1526.97 394.962 1640.19 355.982C1777.88 308.574 1941.11 319.911 2088.39 364.043ZM2079.55 355.716C2080.65 356.727 2081.74 357.747 2082.83 358.761C1936.65 316.062 1775.46 305.731 1639.04 352.694C1525.48 391.791 1408.19 450.987 1293.85 508.692C1096.6 608.239 908.165 703.332 763.944 682.501C761.899 680.156 759.876 677.752 757.877 675.293C900.49 686.455 1082.18 594.779 1272.01 498.981C1386.29 441.308 1503.53 382.139 1616.74 343.159C1758.07 294.505 1926.28 307.719 2076.54 354.765L2079.55 355.716ZM2070.45 347.551L2073.37 350.136C1923.56 303.96 1756.38 291.406 1615.6 339.874C1502.05 378.971 1384.75 438.167 1270.41 495.872C1079.57 592.187 896.987 684.304 754.706 671.321C752.651 668.696 750.62 666.01 748.61 663.255C888.987 667.618 1064.98 578.813 1248.57 486.158C1362.85 428.485 1480.09 369.316 1593.31 330.336C1734.63 281.682 1902.85 294.896 2053.1 341.942C2058.91 343.76 2064.7 345.635 2070.45 347.551ZM2061.11 339.549L2063.56 341.617C2060.43 340.603 2057.29 339.602 2054.15 338.615C1903.26 291.374 1734.26 278.128 1592.17 327.051C1478.61 366.148 1361.31 425.344 1246.97 483.046C1062.61 576.095 885.945 665.227 745.884 659.464C743.829 656.557 741.798 653.578 739.796 650.53C877.679 648.654 1047.86 562.8 1225.13 473.335C1339.41 415.662 1456.65 356.493 1569.87 317.513C1711.19 268.859 1879.4 282.073 2029.66 329.119C2040.24 332.431 2050.73 335.91 2061.11 339.549ZM2051.55 331.704L2053.41 333.203C2045.9 330.647 2038.33 328.177 2030.71 325.792C1879.83 278.551 1710.83 265.305 1568.73 314.228C1455.17 353.325 1337.88 412.521 1223.54 470.226C1045.69 559.981 875.014 646.103 737.448 646.913C735.428 643.75 733.431 640.516 731.464 637.204C866.576 629.631 1030.84 546.738 1201.69 460.515C1315.97 402.839 1433.21 343.673 1546.43 304.692C1687.75 256.038 1855.97 269.253 2006.23 316.299C2021.54 321.088 2036.66 326.236 2051.55 331.704ZM2041.76 324.011L2042.88 324.86C2031.14 320.689 2019.26 316.722 2007.27 312.969C1856.39 265.728 1687.39 252.482 1545.29 301.405C1431.74 340.502 1314.44 399.698 1200.1 457.403C1028.82 543.849 864.185 626.905 729.372 633.637C727.311 630.11 725.192 626.641 723.028 623.231C855.214 610.704 1013.68 530.75 1178.26 447.692C1292.54 390.019 1409.78 330.85 1523 291.869C1664.32 243.215 1832.53 256.43 1982.79 303.476C2002.81 309.74 2022.5 316.61 2041.76 324.011ZM2031.78 316.469L2031.91 316.562C2016.13 310.719 2000.09 305.236 1983.84 300.146C1832.95 252.903 1663.95 239.659 1521.86 288.582C1408.3 327.679 1291 386.875 1176.67 444.58C1011.64 527.864 852.784 608.036 720.829 619.808C718.407 616.092 715.923 612.445 713.384 608.864C842.735 592.346 995.927 515.06 1154.82 434.868C1269.1 377.196 1386.34 318.027 1499.56 279.046C1640.88 230.392 1809.1 243.607 1959.36 290.653C1984.05 298.383 2008.26 307.035 2031.78 316.469ZM573.52 497.791L573.63 497.767C578.775 501.294 583.852 504.946 588.846 508.727L587.166 509.065C582.694 505.191 578.144 501.435 573.52 497.791ZM567.116 499.215C567.792 499.071 568.471 498.914 569.149 498.763C573.795 502.372 578.371 506.094 582.867 509.935C581.709 510.169 580.548 510.414 579.393 510.638C575.376 506.722 571.282 502.918 567.116 499.215ZM559.063 500.847L562.875 500.083C567.06 503.749 571.17 507.523 575.203 511.402C573.48 511.713 571.756 512.03 570.038 512.328C566.458 508.404 562.795 504.579 559.063 500.847ZM549.445 502.657C551.279 502.33 553.105 502.021 554.947 501.672C558.685 505.362 562.356 509.15 565.947 513.031C563.684 513.404 561.435 513.742 559.185 514.083C556.012 510.185 552.762 506.379 549.445 502.657ZM538.36 504.51C540.703 504.145 543.046 503.775 545.401 503.373C548.726 507.057 551.982 510.83 555.163 514.687C552.405 515.078 549.661 515.424 546.927 515.76C544.14 511.932 541.283 508.183 538.36 504.51ZM525.891 506.277C528.708 505.918 531.532 505.54 534.373 505.122C537.29 508.748 540.147 512.451 542.934 516.234C539.718 516.601 536.518 516.936 533.337 517.218C530.917 513.502 528.434 509.855 525.891 506.277ZM512.102 507.821C515.371 507.51 518.648 507.175 521.949 506.783C524.475 510.297 526.943 513.878 529.349 517.525C525.697 517.804 522.058 518.049 518.443 518.227C516.383 514.7 514.269 511.232 512.102 507.821ZM497.099 508.971C500.772 508.766 504.467 508.508 508.186 508.189C510.34 511.54 512.443 514.95 514.492 518.416C510.664 518.571 506.86 518.659 503.083 518.683C501.057 515.517 499.066 512.28 497.099 508.971ZM481.989 509.477C485.681 509.427 489.403 509.31 493.14 509.147C495.046 512.392 496.976 515.568 498.93 518.672C495.289 518.643 491.671 518.557 488.074 518.411C486.022 515.501 483.994 512.525 481.989 509.477ZM467.361 509.376C470.838 509.483 474.33 509.546 477.85 509.533C479.761 512.483 481.694 515.368 483.648 518.19C480.227 517.998 476.83 517.748 473.455 517.442C471.402 514.817 469.371 512.131 467.361 509.376ZM453.189 508.591C456.404 508.844 459.644 509.033 462.9 509.187C464.798 511.844 466.717 514.439 468.658 516.979C465.498 516.643 462.365 516.249 459.25 515.8C457.208 513.457 455.188 511.053 453.189 508.591ZM439.548 507.18C442.461 507.553 445.391 507.883 448.336 508.168C450.159 510.47 451.996 512.725 453.854 514.929C451.008 514.445 448.173 513.933 445.357 513.364C443.403 511.351 441.465 509.291 439.548 507.18ZM426.584 505.221C429.102 505.671 431.623 506.096 434.168 506.466C435.845 508.378 437.538 510.249 439.245 512.083C436.79 511.53 434.357 510.92 431.932 510.286C430.135 508.636 428.352 506.948 426.584 505.221ZM414.472 502.761C416.407 503.205 418.366 503.597 420.32 503.993C421.713 505.415 423.108 506.813 424.516 508.189C422.62 507.622 420.73 507.049 418.854 506.435C417.387 505.234 415.925 504.009 414.472 502.761ZM403.536 499.947C404.665 500.264 405.799 500.575 406.933 500.879C407.756 501.63 408.578 502.375 409.406 503.112C408.293 502.694 407.191 502.252 406.084 501.816C405.232 501.201 404.383 500.575 403.536 499.947ZM-230.068 197.005L-232 197.825L-232 201.616C-227.323 199.638 -223.711 198.088 -221.206 197.008L-230.068 197.008L-230.068 197.005ZM-4.31367 197.005C19.7537 203.649 44.066 211.801 67.939 221.789C38.9336 211.231 9.64336 203.162 -18.7553 197.005L-35.7792 197.005C5.44512 204.999 49.0999 216.925 91.3704 234.609C34.9112 214.058 -22.6447 202.912 -72.5554 197.005L-107.862 197.005C-44.6279 201.964 37.4109 215.054 114.807 247.432C-35.6113 192.682 -193.816 204.672 -194.527 204.722L-194.841 204.746L-195.118 204.866C-195.341 204.965 -208.881 210.951 -232 220.378L-232 224.142C-209.573 215.016 -195.783 208.974 -193.973 208.175C-185.644 207.587 -14.6132 196.302 138.254 260.26C-12.1667 205.502 -170.382 217.495 -171.09 217.545L-171.402 217.569L-171.679 217.689C-171.969 217.817 -194.841 227.927 -231.998 242.598L-231.998 246.351C-195.839 232.104 -172.908 222.044 -170.534 221.001C-162.252 220.415 6.75762 209.28 158.909 271.944L159.316 272.231C9.6165 218.461 -146.946 230.32 -147.651 230.371L-147.965 230.392L-148.242 230.512C-148.591 230.664 -181.203 245.087 -231.998 264.535L-231.998 268.262C-182.5 249.351 -149.948 235.077 -147.097 233.821C-139.055 233.254 20.587 222.734 169.147 279.531C169.759 280.002 170.364 280.492 170.976 280.968C24.9581 231.902 -123.528 243.141 -124.215 243.191L-124.529 243.215L-124.805 243.335C-125.205 243.511 -168.005 262.435 -231.998 286.194L-231.998 289.902C-169.514 266.758 -126.94 248.089 -123.661 246.647C-115.864 246.096 34.448 236.195 178.999 287.362C179.928 288.126 180.831 288.922 181.752 289.697C39.9319 245.374 -100.11 255.969 -100.778 256.017L-101.092 256.041L-101.369 256.161C-101.813 256.358 -155.201 279.973 -231.998 307.589L-231.998 311.27C-156.904 284.33 -103.901 261.091 -100.222 259.472C-92.6748 258.94 48.368 249.649 188.484 295.444C189.626 296.451 190.744 297.494 191.875 298.516C54.7381 258.849 -76.6921 268.797 -77.3388 268.843L-77.6503 268.867L-77.9272 268.986C-78.4169 269.202 -142.841 297.694 -231.995 328.701L-231.995 332.369C-144.678 302.075 -80.8342 274.082 -76.7827 272.298C-69.4912 271.784 62.3755 263.098 197.636 303.79C198.927 305.006 200.192 306.263 201.467 307.501C69.4644 272.343 -53.2712 281.623 -53.8969 281.668L-54.2111 281.692L-54.488 281.812C-55.0205 282.044 -130.91 315.607 -231.992 349.532L-231.992 353.184C-132.858 320.004 -57.7461 287.062 -53.3432 285.124C-46.3181 284.629 76.4602 276.547 206.453 312.407C207.837 313.807 209.197 315.245 210.56 316.674C84.1429 285.834 -29.8588 294.451 -30.4631 294.491L-30.7746 294.515L-31.0515 294.635C-31.6237 294.885 -119.426 333.716 -231.992 370.074L-231.992 373.705C-121.475 338.114 -34.653 300.036 -29.9067 297.947C-23.1503 297.47 90.6224 289.987 214.923 321.29C216.369 322.858 217.788 324.463 219.209 326.063C98.8294 299.334 -6.44063 307.274 -7.02096 307.314L-7.33516 307.338L-7.61202 307.458C-8.22433 307.724 -108.407 352.037 -231.99 390.314L-231.99 393.918C-110.54 356.416 -11.5439 313.003 -6.46749 310.77C0.00931718 310.312 104.867 303.43 223.058 330.45C224.531 332.167 225.973 333.919 227.419 335.67C113.524 312.817 16.972 320.1 16.4156 320.137L16.1014 320.161L15.8245 320.281C15.1748 320.566 -97.8845 370.572 -231.99 410.237L-231.99 413.812C-100.081 374.927 11.5706 325.97 16.969 323.593C23.1582 323.156 119.183 316.852 230.834 339.874C232.312 341.729 233.762 343.625 235.208 345.523C128.256 326.3 40.3816 332.928 39.8518 332.963L39.5379 332.987L39.261 333.107C38.5743 333.408 -87.886 389.345 -231.99 429.818L-231.99 433.356C-90.122 393.647 34.6902 338.921 40.4056 336.405C46.2967 335.99 133.582 330.261 238.264 349.564C239.733 351.555 241.168 353.586 242.603 355.622C143.046 339.77 63.7942 345.741 63.2913 345.775L62.9771 345.799L62.7002 345.919C61.9761 346.236 -78.4436 408.341 -231.987 449.022L-231.987 452.555C-80.7036 412.622 57.8179 351.885 63.8474 349.231C69.4297 348.837 148.074 343.678 245.345 359.546C246.793 361.665 248.204 363.832 249.612 365.999C157.905 353.245 87.2041 358.567 86.7303 358.598L86.4163 358.622L86.1394 358.742C85.3809 359.075 -69.5976 427.617 -231.984 467.854L-231.984 471.367C-71.8684 431.85 80.9458 364.844 87.2869 362.054C92.5442 361.681 162.649 357.084 252.077 369.819C253.496 372.058 254.856 374.358 256.227 376.65C172.837 366.71 110.614 371.39 110.17 371.422L109.856 371.443L109.579 371.563C108.78 371.911 -61.4038 447.18 -231.984 486.264L-231.984 489.765C-63.6667 451.365 104.074 377.8 110.723 374.874C115.643 374.528 177.333 370.482 258.506 380.395C259.949 382.858 261.416 385.251 262.888 387.633C188.069 380.15 134.022 384.215 133.606 384.245L133.295 384.268L133.018 384.388C132.185 384.753 -53.9157 467.068 -231.982 504.228L-231.982 507.702C-56.1545 471.173 127.204 390.758 134.163 387.697C138.739 387.375 192.402 383.853 265.169 391.333C266.822 393.94 268.499 396.485 270.19 398.992C203.857 393.551 157.431 397.041 157.048 397.067L156.734 397.091L156.457 397.211C155.587 397.592 -47.2099 487.302 -231.979 521.691L-231.979 525.125C-49.3982 491.306 150.334 403.72 157.602 400.523C161.837 400.225 208.127 397.187 272.692 402.666C274.579 405.389 276.475 408.094 278.399 410.697C220.295 406.901 180.839 409.867 180.482 409.893L180.17 409.914L179.894 410.034C178.986 410.431 -41.3696 507.899 -231.979 538.573L-231.979 541.991C-43.4912 511.809 173.459 416.679 181.038 413.343C184.941 413.069 224.525 410.471 281.205 414.341C283.388 417.185 285.587 419.982 287.815 422.698C237.476 420.19 204.246 422.69 203.921 422.711L203.607 422.735L203.33 422.855C202.385 423.267 -36.5007 528.926 -231.979 554.833L-231.979 558.24C-38.5317 532.733 196.579 429.64 204.475 426.166C208.053 425.913 241.629 423.717 290.876 426.353C314.289 453.843 340.444 473.731 368.991 487.129C376.602 491.926 384.41 496.188 392.404 499.942C400.014 504.736 407.822 508.998 415.816 512.752C423.432 517.549 431.245 521.813 439.245 525.572C446.855 530.366 454.666 534.631 462.663 538.387C470.282 543.184 478.095 547.451 486.099 551.21C493.721 556.012 501.539 560.277 509.544 564.036C517.162 568.833 524.976 573.097 532.975 576.856C540.594 581.656 548.407 585.92 556.409 589.679C564.03 594.481 571.849 598.746 579.853 602.505C587.472 607.302 595.285 611.566 603.285 615.325C610.903 620.125 618.716 624.389 626.721 628.148C634.343 632.95 642.161 637.215 650.166 640.974C657.784 645.771 665.598 650.035 673.597 653.794C681.216 658.594 689.029 662.858 697.031 666.617C704.655 671.419 712.471 675.684 720.475 679.443C728.094 684.24 735.907 688.504 743.907 692.263C751.533 697.065 759.354 701.333 767.362 705.094C774.991 709.896 782.815 714.169 790.828 717.93C798.518 722.77 806.403 727.069 814.485 730.852C965.923 825.972 1194.42 710.708 1436.09 588.742C1550.37 531.069 1667.61 471.9 1780.83 432.92C1889.86 395.38 2014.91 394.696 2135.36 417.943C2140.13 424.684 2144.53 431.445 2148.5 438.223C2149.37 439.7 2150.35 441.444 2151.44 443.432L2151.44 436.311C2148.03 430.498 2144.3 424.697 2140.3 418.907C2144.02 419.644 2147.74 420.406 2151.44 421.191L2151.44 415.135L2149.97 413.277L2151.44 413.628L2151.44 410.04L2146.36 408.855C2145.13 407.364 2143.88 405.879 2142.61 404.396C2145.56 405.144 2148.5 405.906 2151.44 406.68L2151.44 401.029L2150.56 400.108L2151.44 400.363L2151.44 396.73C2149.52 396.171 2147.6 395.62 2145.67 395.074C2144.61 394.006 2143.56 392.942 2142.49 391.877C2143.95 392.327 2145.41 392.774 2146.87 393.232L2149.89 394.179L2151.44 395.622L2151.44 390.905L2149.19 388.861L2151.44 389.635L2151.44 370.325C2149.31 369.178 2147.17 368.038 2145.02 366.902C2137.35 362.549 2129.53 358.277 2121.6 354.086C2113.93 349.734 2106.12 345.462 2098.18 341.277C2090.49 336.914 2082.67 332.631 2074.71 328.432C2067.04 324.077 2059.23 319.807 2051.29 315.617C2043.61 311.26 2035.79 306.982 2027.85 302.792C2020.16 298.426 2012.33 294.143 2004.36 289.942C1996.7 285.598 1988.91 281.33 1980.98 277.151C1973.29 272.788 1965.47 268.502 1957.51 264.307C1912.34 238.674 1862.35 215.807 1809.59 197L1799.05 197C1814.87 202.462 1830.46 208.298 1845.75 214.46C1829.55 208.436 1813.07 202.785 1796.37 197.554L1794.57 197L1782.61 197C1786.86 198.267 1791.1 199.561 1795.32 200.884C1820.53 208.777 1845.23 217.628 1869.21 227.291C1853 221.262 1836.51 215.61 1819.8 210.379C1804.39 205.553 1788.78 201.089 1773.03 197L1758.76 197C1779 201.946 1799.04 207.531 1818.76 213.707C1843.95 221.594 1868.64 230.443 1892.61 240.101C1876.42 234.077 1859.94 228.431 1843.24 223.202C1809.61 212.674 1775.09 203.839 1740.16 197L1721.04 197C1762.12 204.177 1802.78 214.189 1842.19 226.53C1867.4 234.423 1892.1 243.274 1916.09 252.94C1899.88 246.91 1883.38 241.259 1866.67 236.025C1804.77 216.643 1739.82 202.995 1674.93 197L1533.07 197C1488.76 201.448 1445.61 210.374 1404.69 224.459C1291.14 263.556 1173.84 322.752 1059.5 380.457C916.35 452.704 777.847 522.588 657.51 547.528C653.041 543.655 648.489 539.896 643.867 536.252C762.482 509.597 897.863 441.297 1037.66 370.745C1151.94 313.072 1269.18 253.903 1382.4 214.923C1403.78 207.563 1425.78 201.624 1448.24 197L1432.1 197C1414.84 201.062 1397.86 205.92 1381.26 211.638C1267.7 250.736 1150.4 309.931 1036.06 367.636C895.334 438.659 759.101 507.396 640.202 533.401C635.258 529.6 630.235 525.929 625.143 522.377C742.623 494.996 876.279 427.54 1014.22 357.922C1128.51 300.249 1245.74 241.08 1358.96 202.1C1364.15 200.314 1369.38 198.621 1374.64 197L1363.22 197C1361.41 197.596 1359.62 198.198 1357.82 198.813C1244.26 237.91 1126.97 297.106 1012.63 354.81C873.611 424.971 738.985 492.895 621.115 519.604C615.65 515.893 610.107 512.318 604.496 508.876C721.303 481.084 853.931 414.168 990.786 345.099C1097.76 291.113 1207.32 235.823 1313.75 197L1303.7 197C1199.78 235.711 1093.26 289.466 989.194 341.987C851.141 411.661 717.409 479.146 600.128 506.235C594.095 502.631 587.989 499.178 581.821 495.872C698.442 467.971 830.793 401.196 967.352 332.276C1063.03 283.99 1160.79 234.657 1256.52 197L1247.07 197C1153.75 234.292 1058.77 282.222 965.76 329.164C827.838 398.771 694.23 466.195 577.029 493.337C575.868 492.733 574.705 492.131 573.542 491.535C565.795 486.994 557.932 482.703 549.977 478.64C542.284 474.133 534.476 469.874 526.578 465.839C518.874 461.324 511.053 457.056 503.142 453.016C495.432 448.498 487.603 444.228 479.686 440.184C472.004 435.686 464.207 431.429 456.319 427.399C448.594 422.873 440.751 418.593 432.821 414.541C425.12 410.029 417.302 405.764 409.395 401.723C401.689 397.209 393.865 392.936 385.954 388.898C378.255 384.388 370.439 380.124 362.536 376.085C354.829 371.571 347.005 367.298 339.091 363.257C331.371 358.734 323.534 354.459 315.609 350.41C307.921 345.906 300.116 341.649 292.226 337.616C284.504 333.091 276.664 328.813 268.736 324.761C261.038 320.252 253.222 315.99 245.321 311.952C237.614 307.437 229.788 303.167 221.874 299.123C214.189 294.619 206.383 290.363 198.491 286.332C190.781 281.815 182.96 277.545 175.043 273.504C167.334 268.986 159.508 264.717 151.594 260.673C143.895 256.163 136.082 251.899 128.178 247.863C89.9383 225.457 48.8416 209.032 8.14458 197.002L-4.31367 197.002L-4.31367 197.005Z" fill="white"/>
</mask>
<g mask="url(#mask0_2305_3553)">
<path d="M-231.805 826.706L2151.62 825.243L2151.22 178.367L-232.202 179.829L-231.805 826.706Z" fill="url(#paint0_linear_2305_3553)" fill-opacity="0.15"/>
</g>
</g>
<defs>
<linearGradient id="paint0_linear_2305_3553" x1="961.244" y1="196.562" x2="958.39" y2="765.619" gradientUnits="userSpaceOnUse">
<stop stop-color="#003780"/>
<stop offset="1" stop-color="#29C5FF"/>
</linearGradient>
<clipPath id="clip0_2305_3553">
<rect width="1920" height="766" fill="white"/>
</clipPath>
</defs>
</svg>
