<svg xmlns="http://www.w3.org/2000/svg" width="30" height="30" fill="none"><g clip-path="url(#a)"><path fill="#FFE559" d="M27.763 1.406h-2.088l-.474.422.27.448v8.274l-1.645 1.575c.148.135.26.303.33.491l.557 1.53c.125.342.61.342.736 0l.558-1.53a1.246 1.246 0 0 1 1.17-.819h.586A2.237 2.237 0 0 0 30 9.561V3.643a2.237 2.237 0 0 0-2.237-2.237Z"/><path fill="#FFD500" d="M22.425 1.793v8.657l-.624.572.133.776h1.051c.374 0 .719.167.95.441a2.65 2.65 0 0 0 2.05-2.58V2.65c0-.433-.106-.86-.31-1.243H22.71l-.285.387Z"/><path fill="#6B7ED9" d="M7.535 10.128v-8.27l-.245-.452H3.807l-.606.271-.636 1.237v7.998l1.468.936 2.24.196c.214-.16.474-.246.742-.247h1.05v-.623l-.53-1.046Z"/><path fill="#4D66D2" d="M5.788 11.798h-.586A2.237 2.237 0 0 1 2.965 9.56V3.643a2.237 2.237 0 0 1 2.237-2.237H2.237A2.237 2.237 0 0 0 0 3.643V9.56a2.237 2.237 0 0 0 2.237 2.237h.586c.524 0 .991.327 1.17.818l.558 1.53c.126.342.61.342.736 0l.558-1.53c.101-.278.299-.51.557-.656a1.242 1.242 0 0 0-.614-.162Z"/><path fill="#60B9FE" d="M20.37 0h-8.985l-.791.37-.966 1.367v9.22l.83.921 1.038.43h1.022c.334 0 .659.114.92.323l2.332-.104.601.287a1.474 1.474 0 0 1 1.111-.505h2.889a2.65 2.65 0 0 0 2.649-2.65V2.65A2.65 2.65 0 0 0 20.37 0Z"/><path fill="#1CA8FF" d="M15.482 12.309h-2.888a2.65 2.65 0 0 1-2.649-2.65V2.65A2.65 2.65 0 0 1 12.595 0H9.628A2.65 2.65 0 0 0 6.98 2.65v7.01a2.65 2.65 0 0 0 2.65 2.649h2.888a1.475 1.475 0 0 1 1.386.97l.66 1.81a.464.464 0 0 0 .872 0l.66-1.81c.081-.222.213-.42.387-.579a1.474 1.474 0 0 0-1-.391Z"/><path fill="#FFE559" d="M24.496 22.853h-.849l-.815.313-.92.875-.287.951v3.471l.52.39h4.202a.718.718 0 0 0 .718-.718v-2.713a2.57 2.57 0 0 0-2.569-2.569Z"/><path fill="#6B7ED9" d="M10.592 24.619a2.57 2.57 0 0 0-2.44-1.766h-.78l-.601.172-.906.705-.473.895v3.622l.212.442.253.164h4.146a.714.714 0 0 0 .32-.076l.431-.58v-3.22l-.162-.358Z"/><path fill="#FFCEBE" d="M24.22 18.51h-.347l-1.016 1.175s-.338 1.248-.31 1.298c.029.05.608.976.625.996.017.02.5.443.5.443l.549.178a2.298 2.298 0 0 0 0-4.09Zm-8.171-1.033h-.264l-1.047.659s-.473 1.066-.493 1.157c-.02.09 0 1.262 0 1.262s.242.84.242.87c0 .031.513.624.513.624l.523.433.526.104a2.761 2.761 0 0 0 0-5.108ZM7.877 18.51h-.402l-.943 1.216-.124 1.067.124.764.54.765.805.279a2.298 2.298 0 0 0 0-4.09Z"/><path fill="#FFB1A0" d="M6.627 20.555c0-.892.508-1.664 1.25-2.046a2.299 2.299 0 1 0 0 4.09 2.298 2.298 0 0 1-1.25-2.044Zm16.344 0c0-.892.508-1.664 1.25-2.046a2.299 2.299 0 1 0 0 4.09 2.298 2.298 0 0 1-1.25-2.044Zm-8.635-.523c0-1.154.708-2.142 1.713-2.555a2.761 2.761 0 1 0 0 5.109 2.761 2.761 0 0 1-1.713-2.554Z"/><path fill="#FFD500" d="M21.776 28.135v-2.713a2.57 2.57 0 0 1 2.569-2.569h-2.497a2.57 2.57 0 0 0-2.44 1.766l-.198.328v3.38l.467.45c.099.05.209.076.32.076h2.497a.718.718 0 0 1-.718-.718Z"/><path fill="#4D66D2" d="M5.5 28.135v-2.713a2.57 2.57 0 0 1 2.57-2.569H5.503a2.57 2.57 0 0 0-2.57 2.57v2.712c0 .397.322.718.719.718h2.565a.718.718 0 0 1-.718-.718Z"/><path fill="#60B9FE" d="M16.59 22.793H15.14l-.697.192-1.293.92-.533 1.193v4.512l.674.39h5.524a.863.863 0 0 0 .863-.863V25.88a3.086 3.086 0 0 0-3.086-3.086Z"/><path fill="#1CA8FF" d="M12.889 29.137V25.88a3.086 3.086 0 0 1 3.086-3.086h-2.566a3.086 3.086 0 0 0-3.086 3.086v3.258c0 .477.386.863.863.863h2.565a.863.863 0 0 1-.862-.863Z"/><path fill="#DBEDFF" d="M10.906 7.697a1.074 1.074 0 1 0 0-2.149 1.074 1.074 0 0 0 0 2.149ZM15 7.697a1.074 1.074 0 1 0 0-2.149 1.074 1.074 0 0 0 0 2.149ZM19.094 7.697a1.074 1.074 0 1 0 0-2.148 1.074 1.074 0 0 0 0 2.148Z"/></g><defs><clipPath id="a"><path fill="#fff" d="M0 0h30v30H0z"/></clipPath></defs></svg>