<svg xmlns="http://www.w3.org/2000/svg" width="1366" height="607" preserveAspectRatio="xMidYMid" style="z-index:1;margin-right:-2px;display:block;background-color:#f1f2f3;animation-play-state:paused"><g style="transform:matrix(1,0,0,1,0,0);animation-play-state:paused"><path fill="none" d="M923.71 197.793c0 29.842-7.302 8.571-15.874 8.571s-15.874 21.271-15.874-8.571 7.302-8.572 15.874-8.572 15.874-21.271 15.874 8.572z" style="animation-play-state:paused"/><circle r="7.315" fill="#5e6fa3" opacity=".9" style="opacity:.9;animation-play-state:paused" transform="translate(911.511 207.512)"/><path fill="none" d="M1269.618 167.891c0 35.457-8.676 10.185-18.86 10.185s-18.86 25.272-18.86-10.185 8.676-10.184 18.86-10.184 18.86-25.273 18.86 10.184z" style="animation-play-state:paused"/><circle r="5.277" fill="#5e6fa3" opacity=".9" style="opacity:.9;animation-play-state:paused" transform="translate(1256.116 180.063)"/><path fill="none" d="M152.816 394.321c0 34.725-8.496 9.974-18.47 9.974s-18.471 24.751-18.471-9.974 8.496-9.974 18.47-9.974 18.471-24.75 18.471 9.974z" style="animation-play-state:paused"/><circle r="4.092" fill="#5e6fa3" opacity=".9" style="opacity:.9;animation-play-state:paused" transform="translate(115.892 396.877)"/><path fill="none" d="M378.67 58.628c0 24.182-5.917 6.946-12.863 6.946s-12.863 17.236-12.863-6.946 5.917-6.946 12.863-6.946 12.862-17.236 12.862 6.946z" style="animation-play-state:paused"/><circle r="6.345" fill="#b3b7e2" opacity=".9" style="opacity:.9;animation-play-state:paused" transform="translate(360.827 67.921)"/><path fill="none" d="M238.544 406.331c0 24.773-6.061 7.116-13.177 7.116s-13.176 17.657-13.176-7.116 6.061-7.115 13.176-7.115 13.177-17.657 13.177 7.115z" style="animation-play-state:paused"/><circle r="7.616" fill="#b3b7e2" opacity=".9" style="opacity:.9;animation-play-state:paused" transform="translate(227.282 398.822)"/><path fill="none" d="M600.779 13.727c0 19.625-4.802 5.637-10.44 5.637s-10.438 13.988-10.438-5.637 4.802-5.637 10.439-5.637 10.439-13.988 10.439 5.637z" style="animation-play-state:paused"/><circle r="6.984" fill="#689cc5" opacity=".9" style="opacity:.9;animation-play-state:paused" transform="translate(579.968 10.149)"/><path fill="none" d="M512.063 167.582c0 22.196-5.431 6.376-11.806 6.376s-11.806 15.82-11.806-6.376 5.43-6.375 11.806-6.375 11.806-15.82 11.806 6.375z" style="animation-play-state:paused"/><circle r="6.214" fill="#5e6fa3" opacity=".9" style="opacity:.9;animation-play-state:paused" transform="translate(509.32 155.772)"/><path fill="none" d="M845.15 406.334c0 26.83-6.565 7.706-14.271 7.706s-14.27 19.123-14.27-7.706 6.564-7.706 14.27-7.706 14.27-19.123 14.27 7.706z" style="animation-play-state:paused"/><circle r="6.322" fill="#93dbe9" opacity=".9" style="opacity:.9;animation-play-state:paused" transform="translate(819.966 420.601)"/><path fill="none" d="M1110.524 227.774c0 18.946-4.636 5.442-10.078 5.442s-10.078 13.504-10.078-5.442 4.636-5.442 10.078-5.442 10.078-13.504 10.078 5.442z" style="animation-play-state:paused"/><circle r="7.296" fill="#3b4368" opacity=".9" style="opacity:.9;animation-play-state:paused" transform="translate(1110.42 232.027)"/><path fill="none" d="M449.622 560.692c0 29.99-7.338 8.614-15.952 8.614s-15.951 21.375-15.951-8.614 7.337-8.613 15.951-8.613 15.952-21.375 15.952 8.613z" style="animation-play-state:paused"/><circle r="7.154" fill="#689cc5" opacity=".9" style="opacity:.9;animation-play-state:paused" transform="translate(448.199 575.043)"/><path fill="none" d="M757.479 577.105c0 23.993-5.87 6.892-12.762 6.892s-12.761 17.1-12.761-6.892 5.87-6.89 12.761-6.89 12.762-17.102 12.762 6.89z" style="animation-play-state:paused"/><circle r="4.036" fill="#b3b7e2" opacity=".9" style="opacity:.9;animation-play-state:paused" transform="translate(752.237 588.522)"/><path fill="none" d="M1344.599 455.183c0 20.344-4.978 5.843-10.822 5.843s-10.821 14.501-10.821-5.843 4.977-5.844 10.821-5.844 10.822-14.5 10.822 5.844z" style="animation-play-state:paused"/><circle r="7.174" fill="#d9dbee" opacity=".9" style="opacity:.9;animation-play-state:paused" transform="translate(1322.957 454.714)"/><path fill="none" d="M1315.39 239.385c0 24.5-5.995 7.037-13.032 7.037s-13.031 17.462-13.031-7.037 5.994-7.036 13.03-7.036 13.032-17.462 13.032 7.036z" style="animation-play-state:paused"/><circle r="7.123" fill="#3b4368" opacity=".9" style="opacity:.9;animation-play-state:paused" transform="translate(1315.16 246.241)"/><path fill="none" d="M785.03 88.556c0 20.434-5 5.87-10.87 5.87s-10.868 14.564-10.868-5.87 5-5.87 10.869-5.87 10.87-14.564 10.87 5.87z" style="animation-play-state:paused"/><circle r="7.133" fill="#d9dbee" opacity=".9" style="opacity:.9;animation-play-state:paused" transform="translate(775.626 94.707)"/><path fill="none" d="M1060.683 307.452c0 27.948-6.838 8.028-14.866 8.028s-14.866 19.92-14.866-8.028 6.839-8.027 14.866-8.027 14.866-19.92 14.866 8.027z" style="animation-play-state:paused"/><circle r="6.765" fill="#b3b7e2" opacity=".9" style="opacity:.9;animation-play-state:paused" transform="translate(1031.015 303.199)"/><path fill="none" d="M404.644 372.034c0 29.53-7.226 8.482-15.708 8.482s-15.707 21.047-15.707-8.482 7.225-8.482 15.707-8.482 15.708-21.048 15.708 8.482z" style="animation-play-state:paused"/><circle r="6.442" fill="#3b4368" opacity=".9" style="opacity:.9;animation-play-state:paused" transform="translate(384.085 382.44)"/><path fill="none" d="M1077.34 20.616c0 35.84-8.77 10.295-19.064 10.295s-19.064 25.546-19.064-10.295 8.77-10.294 19.064-10.294 19.064-25.546 19.064 10.294z" style="animation-play-state:paused"/><circle r="4.292" fill="#d9dbee" opacity=".9" style="opacity:.9;animation-play-state:paused" transform="translate(1077.19 27.79)"/><path fill="none" d="M1119.513 495.917c0 36.549-8.942 10.498-19.44 10.498s-19.441 26.05-19.441-10.498 8.942-10.498 19.44-10.498 19.441-26.05 19.441 10.498z" style="animation-play-state:paused"/><circle r="7.496" fill="#191d3a" opacity=".9" style="opacity:.9;animation-play-state:paused" transform="translate(1081.354 509.46)"/><path fill="none" d="M970.969 557.97c0 25.02-6.122 7.186-13.309 7.186s-13.308 17.833-13.308-7.187 6.121-7.186 13.308-7.186 13.309-17.834 13.309 7.186z" style="animation-play-state:paused"/><circle r="5.696" fill="#5e6fa3" opacity=".9" style="opacity:.9;animation-play-state:paused" transform="translate(954.755 566.018)"/><path fill="none" d="M296.467 413.84c0 27.636-6.762 7.938-14.7 7.938s-14.7 19.698-14.7-7.938 6.762-7.938 14.7-7.938 14.7-19.698 14.7 7.938z" style="animation-play-state:paused"/><circle r="6.698" fill="#d9dbee" opacity=".9" style="opacity:.9;animation-play-state:paused" transform="translate(285.372 422.96)"/><path fill="none" d="M848.596 478.734c0 21.836-5.343 6.272-11.616 6.272s-11.615 15.564-11.615-6.272 5.343-6.272 11.615-6.272 11.616-15.564 11.616 6.272z" style="animation-play-state:paused"/><circle r="4.112" fill="#93dbe9" opacity=".9" style="opacity:.9;animation-play-state:paused" transform="translate(831.962 469.909)"/><path fill="none" d="M512.165 525.81c0 29.938-7.326 8.6-15.925 8.6s-15.925 21.338-15.925-8.6 7.326-8.6 15.925-8.6 15.925-21.339 15.925 8.6z" style="animation-play-state:paused"/><circle r="5.697" fill="#689cc5" opacity=".9" style="opacity:.9;animation-play-state:paused" transform="translate(512.07 531.073)"/><path fill="none" d="M546.444 184.076c0 37.224-9.108 10.692-19.8 10.692s-19.8 26.532-19.8-10.692 9.108-10.693 19.8-10.693 19.8-26.532 19.8 10.693z" style="animation-play-state:paused"/><circle r="4.862" fill="#689cc5" opacity=".9" style="opacity:.9;animation-play-state:paused" transform="translate(525.38 173.264)"/><path fill="none" d="M578.715 578.375c0 31.758-7.77 9.122-16.893 9.122s-16.892 22.636-16.892-9.122 7.77-9.121 16.892-9.121 16.893-22.636 16.893 9.121z" style="animation-play-state:paused"/><circle r="5.662" fill="#689cc5" opacity=".9" style="opacity:.9;animation-play-state:paused" transform="translate(563.277 587.68)"/><path fill="none" d="M635.223 464.287c0 26.951-6.594 7.742-14.335 7.742s-14.336 19.21-14.336-7.742 6.595-7.74 14.336-7.74 14.335-19.21 14.335 7.74z" style="animation-play-state:paused"/><circle r="7.749" fill="#93dbe9" opacity=".9" style="opacity:.9;animation-play-state:paused" transform="translate(626.117 454.187)"/><path fill="none" d="M1076.089 302.427c0 29.879-7.311 8.582-15.894 8.582s-15.893 21.297-15.893-8.582 7.311-8.583 15.893-8.583 15.894-21.297 15.894 8.583z" style="animation-play-state:paused"/><circle r="5.342" fill="#191d3a" opacity=".9" style="opacity:.9;animation-play-state:paused" transform="translate(1076.004 307.463)"/><path fill="none" d="M1158.38 429.83c0 32.49-7.95 9.332-17.283 9.332s-17.283 23.158-17.283-9.333 7.95-9.332 17.283-9.332 17.282-23.159 17.282 9.332z" style="animation-play-state:paused"/><circle r="5.162" fill="#d9dbee" opacity=".9" style="opacity:.9;animation-play-state:paused" transform="translate(1133.679 416.74)"/><path fill="none" d="M800.286 345.99c0 19.96-4.884 5.733-10.617 5.733s-10.617 14.227-10.617-5.733 4.883-5.734 10.617-5.734 10.617-14.227 10.617 5.734z" style="animation-play-state:paused"/><circle r="7.22" fill="#5e6fa3" opacity=".9" style="opacity:.9;animation-play-state:paused" transform="translate(781.916 356.485)"/><path fill="none" d="M381.936 543.777c0 35.806-8.76 10.285-19.046 10.285s-19.045 25.521-19.045-10.285 8.76-10.284 19.045-10.284 19.046-25.521 19.046 10.284z" style="animation-play-state:paused"/><circle r="6.751" fill="#93dbe9" opacity=".9" style="opacity:.9;animation-play-state:paused" transform="translate(376.332 525.174)"/><path fill="none" d="M1131.781 327.389c0 31.231-7.642 8.97-16.612 8.97s-16.613 22.261-16.613-8.97 7.642-8.971 16.613-8.971 16.612-22.26 16.612 8.97z" style="animation-play-state:paused"/><circle r="4.688" fill="#689cc5" opacity=".9" style="opacity:.9;animation-play-state:paused" transform="translate(1128.946 343.93)"/></g></svg>