<svg xmlns="http://www.w3.org/2000/svg" width="30" height="30" fill="none"><path fill="#ED524E" d="M29.107 7.822v18.066a1.133 1.133 0 0 1-1.133 1.133H17.738a.661.661 0 0 0-.662.661.755.755 0 0 1-.753.754h-2.65a.756.756 0 0 1-.754-.754.662.662 0 0 0-.661-.662H2.022a1.129 1.129 0 0 1-1.129-1.128V7.822c0-.618.503-1.133 1.129-1.133h25.953a1.138 1.138 0 0 1 1.132 1.133Z"/><path fill="#CFCFFF" d="M27.6 17.944v7.247c0 .146-.12.265-.265.265H2.652a.265.265 0 0 1-.265-.265v-7.247H27.6Z"/><path fill="#E9E9FF" d="M27.6 7.147v17.008c-3.25-2.376-8.513-2.45-12.305 1.014-.101.093-.203.185-.3.282v.01l-.004-.006c-.101-.097-.194-.19-.3-.277-3.786-3.474-9.046-3.4-12.304-1.023V7.147c0-.287.141-.565.38-.723 3.143-2.138 6.066-2.244 11.925.141.101.04.203.08.304.124.101-.044.202-.084.3-.124 5.863-2.385 8.79-2.279 11.925-.141a.873.873 0 0 1 .379.723Z"/><path fill="#CFCFFF" d="M15.296 6.565v18.89h-.3v.005l-.005-.004h-.3V6.566c.102.039.203.079.305.123.101-.044.203-.085.3-.124Z"/><path fill="#FDC72E" d="M21.255 10.398c0 1.704-.719 3.202-1.8 4.358a6.423 6.423 0 0 1-.482.473h-.003c-.027.03-.268.284-.483.715a3.152 3.152 0 0 0-.34 1.413h-6.293c0-1.244-.75-2.05-.823-2.125l-.003-.003c-1.335-1.211-2.282-2.882-2.282-4.83 0-1.101.284-2.136.787-3.034a6.25 6.25 0 0 1 3.819-3c.383-.102.776-.169 1.172-.198a6.377 6.377 0 0 1 1.387.045 6.254 6.254 0 0 1 5.344 6.186Z"/><path fill="#4F5D99" d="M18.782 18.027v.093c0 .37-.3.67-.67.67h-6.224a.67.67 0 0 1-.67-.67v-.092c0-.37.3-.67.67-.67h6.225c.37 0 .67.3.67.67Z"/><path fill="#4F5D99" d="M18.446 19.459v.093c0 .37-.3.67-.67.67h-5.552a.67.67 0 0 1-.67-.67v-.093c0-.37.3-.67.67-.67h5.552c.37 0 .67.3.67.67Z"/><path fill="#3D4A75" d="M18.283 19.026a.666.666 0 0 0-.507-.237h-5.552a.664.664 0 0 0-.507.237h6.566Zm-4.76 1.195a1.58 1.58 0 0 0 2.954 0h-2.954Z"/><path fill="#F9AC00" d="m10.965 2.861.643 1.113a.297.297 0 0 1-.218.441.296.296 0 0 1-.294-.145l-.643-1.113a.296.296 0 0 1 .512-.296Zm-3.25 3.033 1.113.643a.295.295 0 1 1-.295.512L7.42 6.406a.296.296 0 0 1 .296-.511Zm13.75 7.94 1.114.641a.296.296 0 1 1-.296.512l-1.113-.642a.295.295 0 0 1 .296-.512ZM6.419 10.145h1.285a.296.296 0 0 1 0 .59H6.418a.295.295 0 1 1 0-.59Zm15.878 0h1.285a.296.296 0 0 1 0 .59h-1.285a.295.295 0 1 1 0-.59ZM7.42 14.476l1.113-.643a.296.296 0 0 1 .295.513l-1.112.642a.295.295 0 0 1-.296-.512Zm13.75-7.939 1.113-.642a.296.296 0 1 1 .296.512l-1.113.643a.296.296 0 0 1-.296-.512Zm-2.778-2.562.642-1.113a.296.296 0 1 1 .512.296l-.642 1.113a.295.295 0 1 1-.512-.296Zm-3.688-.83V1.86a.296.296 0 0 1 .592 0v1.286a.295.295 0 1 1-.592 0Z"/><path fill="#fff" d="M19.358 8.596c-.346.245-1.054-.157-1.586-.901-.53-.741-.68-1.544-.336-1.789.342-.244 1.05.157 1.583.901.529.742.682 1.544.34 1.789h-.001Z" opacity=".3"/><path fill="#ED524E" d="M11.129 12.838c.48.833 2.604.508 4.742-.727 2.139-1.235 3.48-2.91 3-3.743-.48-.834-2.604-.509-4.742.726-2.138 1.234-3.481 2.91-3 3.744Zm7.018-4.052c.39.677-.701 2.04-2.44 3.043-1.737 1.003-3.463 1.267-3.853.591-.392-.678.7-2.04 2.438-3.044 1.738-1.004 3.464-1.268 3.855-.59Z"/><path fill="#70C1F9" d="M18.871 12.837c.481-.833-.862-2.51-3-3.743-2.139-1.235-4.262-1.56-4.742-.727-.481.833.86 2.509 3 3.744 2.138 1.234 4.261 1.56 4.742.726Zm-7.017-4.052c.39-.677 2.116-.412 3.854.591 1.737 1.004 2.83 2.366 2.439 3.043s-2.118.413-3.855-.59-2.83-2.366-2.438-3.044Z"/><path fill="#E9E9FF" d="M15 6.132c-.962 0-1.742 2.002-1.742 4.47 0 2.47.78 4.47 1.741 4.47.963 0 1.743-2 1.743-4.47 0-2.468-.78-4.47-1.743-4.47Zm0 8.104c-.782 0-1.416-1.627-1.416-3.634 0-2.007.634-3.633 1.415-3.633.783 0 1.417 1.626 1.417 3.633s-.635 3.634-1.417 3.634Z"/><path fill="#4F5D99" d="M15.552 10.602a.552.552 0 1 1-1.104 0 .552.552 0 0 1 1.104 0Z"/><path fill="#fff" d="M17.723 17.357h-4.83l-3.36-9.992a6.25 6.25 0 0 1 3.819-3l4.371 12.992Zm1.733-2.601a6.443 6.443 0 0 1-.483.473h-.003c-.027.03-.268.284-.483.715L14.524 4.167a6.377 6.377 0 0 1 1.387.046l3.545 10.543Z" opacity=".2"/></svg>