<svg width="35" height="35" viewBox="0 0 35 35" fill="none" xmlns="http://www.w3.org/2000/svg">
<circle cx="17.5" cy="17.5" r="17" stroke="#32363E"/>
<g clip-path="url(#clip0_2006_7101)">
<path d="M10.9327 8.99219C9.76408 8.99219 9 9.75958 9 10.7682C9 11.7546 9.74134 12.5439 10.8879 12.5439H10.9101C12.1016 12.5439 12.8431 11.7546 12.8431 10.7682C12.8209 9.75958 12.1016 8.99219 10.9327 8.99219ZM9.20196 13.9473H12.6184V24.2259H9.20193L9.20196 13.9473ZM21.0043 13.706C19.1612 13.706 17.9254 15.4379 17.9254 15.4379V13.9473H14.5088V24.2259H17.9251V18.4859C17.9251 18.1786 17.9474 17.8718 18.0377 17.6521C18.2847 17.0385 18.8467 16.4028 19.7906 16.4028C21.0269 16.4028 21.5213 17.3454 21.5213 18.7272V24.2259H24.9375V18.3323C24.9375 15.1752 23.2519 13.706 21.0043 13.706Z" fill="#32363E"/>
</g>
<defs>
<clipPath id="clip0_2006_7101">
<rect width="17" height="17" fill="white" transform="translate(9 9)"/>
</clipPath>
</defs>
</svg>
