<svg xmlns="http://www.w3.org/2000/svg" width="30" height="30" fill="none"><path fill="#FED843" d="M22.91 13.251c0 4.362-3.548 7.91-7.91 7.91H7.09v-1.758c.786 0 1.473-.535 1.689-1.267a7.9 7.9 0 0 1-1.69-4.885c0-4.362 3.55-7.91 7.911-7.91 4.362 0 7.91 3.548 7.91 7.91Z"/><path fill="#FABE2C" d="M22.91 13.251c0-4.362-3.548-7.91-7.91-7.91v15.82c4.362 0 7.91-3.548 7.91-7.91Z"/><path fill="#474F54" d="M25.758 17.066a11.311 11.311 0 0 1-8.121 7.277c-.242.07-.49.122-.738.158l-.107-.65a1.153 1.153 0 0 1 .843-1.3l.002-.001a9.625 9.625 0 0 0 5.958-4.884 1.483 1.483 0 0 1 1.825-.723l.338.122Z"/><path fill="#575F64" d="m25.775 9.436-.351.124a1.45 1.45 0 0 1-1.81-.721C22.015 5.762 18.782 3.583 15 3.583a9.59 9.59 0 0 0-8.596 5.273c-.351.65-1.125.95-1.81.704l-.352-.124c.07-.193.14-.386.229-.58A11.424 11.424 0 0 1 15 1.808c5.006 0 9.228 3.253 10.775 7.628Z"/><path fill="#474F54" d="M5.895 10.034a8.8 8.8 0 0 1 .51-1.177H2.636A2.633 2.633 0 0 0 0 11.493v3.516a2.633 2.633 0 0 0 2.637 2.637h3.61l-.37-1.143c-.72-2.197-.703-4.43.018-6.469Zm10.733 12.743a.14.14 0 0 1-.022.001H16.6c-.51.088-1.036.141-1.581.141-1.46 0-2.655 1.178-2.655 2.637A2.633 2.633 0 0 0 15 28.192a2.633 2.633 0 0 0 2.637-2.636V22.55a9.63 9.63 0 0 1-1.01.227Z"/><path fill="#575F64" d="M10.605 12.372h1.758v1.758h-1.758v-1.758Zm3.516 0h1.758v1.758H14.12v-1.758Z"/><path fill="#474F54" d="M17.637 12.372h1.758v1.758h-1.758v-1.758Z"/><path fill="#32393F" d="M16.603 22.778h-.004c-.51.088-1.036.141-1.581.141l-.018.002v5.271a2.633 2.633 0 0 0 2.637-2.636V22.55c-.33.087-.66.173-1.005.226a.187.187 0 0 1-.03.002Z"/><path fill="#474F54" d="m25.775 9.436-.351.124a1.45 1.45 0 0 1-1.81-.721C22.015 5.762 18.782 3.583 15 3.583V1.808c5.006 0 9.228 3.253 10.775 7.628ZM15 12.372h.879v1.758H15v-1.758Z"/><path fill="#32393F" d="M30 11.493a2.633 2.633 0 0 0-2.637-2.637h-3.75l.51 1.196c.194.51.334 1.054.422 1.6a9.699 9.699 0 0 1-.44 4.816l-.492 1.177h3.75A2.633 2.633 0 0 0 30 15.01v-3.516Z"/></svg>