<?xml version="1.0" encoding="UTF-8"?>
<svg version="1.1" xmlns="http://www.w3.org/2000/svg" width="512" height="512">
<path d="M0 0 C5.32812017 2.89649486 8.93426189 7.50599618 12 12.625 C12.6703125 13.74261719 13.340625 14.86023438 14.03125 16.01171875 C14.87580015 17.44484127 15.71943452 18.87850359 16.5625 20.3125 C17.12839844 21.26979004 17.69429687 22.22708008 18.27734375 23.21337891 C20.19004691 26.45175237 22.0963925 29.69377211 24 32.9375 C24.62769287 34.00524658 25.25538574 35.07299316 25.90209961 36.1730957 C26.48999268 37.18073975 27.07788574 38.18838379 27.68359375 39.2265625 C28.2139624 40.1335791 28.74433105 41.0405957 29.29077148 41.97509766 C32.84822518 48.51360057 32.76372327 57.76157985 30.87890625 64.90234375 C27.66406579 71.85226856 21.83025827 75.80782952 14.91796875 78.64453125 C8.16411011 80.55980459 2.6136402 78.22970541 -3.296875 74.95703125 C-8.20858467 71.18361926 -11.38126525 66.01960135 -14.46875 60.734375 C-14.82714966 60.12289612 -15.18554932 59.51141724 -15.55480957 58.88140869 C-16.30692232 57.59549492 -17.05636294 56.3080148 -17.80322266 55.01904297 C-18.92864054 53.0777819 -20.06317721 51.14209031 -21.19921875 49.20703125 C-34.06853287 27.20689193 -34.06853287 27.20689193 -32.4375 14.3125 C-30.76173641 8.10231728 -26.76507315 3.79037519 -21.4375 0.3125 C-14.83621964 -2.87884746 -6.68958651 -3.14130773 0 0 Z " fill="#E0E0E0" transform="translate(160.4375,51.6875)"/>
<path d="M0 0 C6.35887156 3.57010369 11.34922348 9.1653482 13.62890625 16.09765625 C14.55140378 23.27382887 13.88047452 29.18432624 9.62890625 35.09765625 C3.68633201 41.37809005 -3.64142525 45.41834839 -11.12109375 49.59765625 C-13.34520085 50.85781039 -15.56915989 52.11822588 -17.79296875 53.37890625 C-19.43120605 54.29482544 -19.43120605 54.29482544 -21.10253906 55.22924805 C-23.29147183 56.48051055 -25.45796832 57.77181756 -27.60058594 59.10083008 C-36.13652712 64.37054918 -41.31942681 65.50902044 -51.37109375 64.09765625 C-57.96940391 62.4065799 -62.8089018 57.79912602 -66.37109375 52.09765625 C-68.46352882 46.75032218 -69.09202341 41.06077947 -67.43554688 35.50976562 C-63.1555987 25.81116747 -53.72508384 20.35560314 -44.80859375 15.53515625 C-42.49078037 14.25149174 -40.17307175 12.96763805 -37.85546875 11.68359375 C-36.74107422 11.07354492 -35.62667969 10.46349609 -34.47851562 9.83496094 C-31.79370622 8.33393142 -29.1773947 6.77361572 -26.57421875 5.13671875 C-18.05128503 -0.17670847 -10.05193031 -3.82536392 0 0 Z " fill="#E0E0E0" transform="translate(448.37109375,127.90234375)"/>
<path d="M0 0 C8.72037061 5.15448263 13.52228534 13.99993603 18.390625 22.56640625 C18.99793457 23.63028564 19.60524414 24.69416504 20.23095703 25.7902832 C21.44720429 27.92105175 22.66175953 30.05278713 23.87451172 32.18554688 C25.36414223 34.75920486 26.90267519 37.28564357 28.48828125 39.80078125 C32.79979347 46.73380442 35.91814751 52.69852763 35.27734375 61.14453125 C33.71350854 67.81922453 30.34761994 73.35436438 24.578125 77.12890625 C17.90677492 79.71575628 10.76691983 80.42285867 3.859375 78.2890625 C-7.26862901 73.31162697 -12.13166341 61.8078176 -17.984375 51.69140625 C-18.73328994 50.40664794 -19.4826364 49.12214108 -20.23242188 47.83789062 C-21.66854218 45.37548637 -23.09546821 42.90813458 -24.5144043 40.43579102 C-25.67231811 38.42837484 -26.84446555 36.42896081 -28.04223633 34.44506836 C-32.24981596 27.34108047 -32.86260747 20.86340062 -30.828125 12.765625 C-28.40241652 6.98210709 -23.60722781 3.42346743 -18.421875 0.12890625 C-12.69882553 -1.77877691 -5.71867285 -2.05687749 0 0 Z " fill="#E0E0E0" transform="translate(350.421875,383.87109375)"/>
<path d="M0 0 C5.27007572 3.27383492 8.81706612 7.09735774 10.3125 13.25 C11.14253382 20.32333169 11.22033663 26.37701149 7.08984375 32.37109375 C1.10901989 38.69367897 -5.76978338 42.85932604 -13.3125 47.125 C-21.62201799 51.75395958 -21.62201799 51.75395958 -29.5859375 56.9375 C-37.96152638 62.84471634 -44.74795792 63.67914497 -54.6875 62.25 C-61.71837682 60.40984616 -66.11896265 55.43706774 -69.828125 49.390625 C-71.84945714 44.35567039 -71.44992539 38.11150795 -70.0703125 32.93359375 C-65.62552122 22.88364533 -54.9165282 17.77014888 -45.8125 12.6875 C-43.56466486 11.416141 -41.31726277 10.14401599 -39.0703125 8.87109375 C-37.99426758 8.26507324 -36.91822266 7.65905273 -35.80957031 7.03466797 C-32.06395015 4.89356042 -28.37797449 2.66421981 -24.70654297 0.39868164 C-18.08932289 -3.36601249 -6.85393047 -3.31013687 0 0 Z " fill="#E0E0E0" transform="translate(118.6875,321.75)"/>
<path d="M0 0 C5.45434877 3.45071045 9.063181 7.76843013 11.0625 13.9375 C12.65213488 24.95240361 9.63781123 32.62006412 4.0625 41.9375 C3.33297477 43.18989537 2.60381348 44.4425028 1.875 45.6953125 C0.01869209 48.85468371 -1.88981134 51.97908378 -3.81445312 55.09716797 C-4.92556434 56.91794109 -6.00538161 58.75406445 -7.078125 60.59765625 C-11.78017813 68.61057653 -15.94185574 74.54291726 -24.9375 77.9375 C-31.8012833 79.30814797 -37.77425603 79.55383265 -43.9375 75.9375 C-49.40156626 71.59108366 -52.41374299 66.61275218 -53.39453125 59.73046875 C-53.82734397 50.60114 -51.62354393 44.63807115 -46.9375 36.9375 C-46.25216132 35.76534141 -45.56863816 34.59211985 -44.88671875 33.41796875 C-43.02174731 30.23397376 -41.09956361 27.08833271 -39.16259766 23.94775391 C-37.88915224 21.85816652 -36.65210376 19.7497291 -35.41796875 17.63671875 C-27.41869495 4.12345695 -17.31498404 -6.34234247 0 0 Z " fill="#E0E0E0" transform="translate(372.9375,52.0625)"/>
<path d="M0 0 C4.72404568 3.51969412 7.81448339 8.73708852 8.9765625 14.47265625 C9.07587938 16.17079792 9.12465661 17.87224867 9.13769531 19.57324219 C9.14730286 20.58819763 9.1569104 21.60315308 9.16680908 22.64886475 C9.17105896 23.74055969 9.17530884 24.83225464 9.1796875 25.95703125 C9.18538757 27.08659241 9.19108765 28.21615356 9.19696045 29.37994385 C9.20640455 31.77053899 9.21294209 34.16114712 9.21679688 36.55175781 C9.22648865 40.19489487 9.2575128 43.83746439 9.2890625 47.48046875 C9.29559429 49.80598624 9.30084407 52.13150776 9.3046875 54.45703125 C9.3170343 55.54062927 9.3293811 56.62422729 9.34210205 57.74066162 C9.32012238 65.26641396 8.22615419 70.66565493 4.3515625 77.22265625 C-0.69247328 82.00121646 -6.13175729 83.71773441 -13.0234375 83.97265625 C-18.66109201 83.73596083 -23.43235953 82.89328153 -28.0234375 79.47265625 C-32.9351595 73.82521218 -35.12750226 68.81700958 -35.18457031 61.37207031 C-35.19417786 60.35711487 -35.2037854 59.34215942 -35.21368408 58.29644775 C-35.21793396 57.20475281 -35.22218384 56.11305786 -35.2265625 54.98828125 C-35.23226257 53.85872009 -35.23796265 52.72915894 -35.24383545 51.56536865 C-35.25327955 49.17477351 -35.25981709 46.78416538 -35.26367188 44.39355469 C-35.27336365 40.75041763 -35.3043878 37.10784811 -35.3359375 33.46484375 C-35.34246929 31.13932626 -35.34771907 28.81380474 -35.3515625 26.48828125 C-35.3639093 25.40468323 -35.3762561 24.32108521 -35.38897705 23.20465088 C-35.36699738 15.67889854 -34.27302919 10.27965757 -30.3984375 3.72265625 C-22.23790345 -4.00837601 -9.9314494 -5.03795342 0 0 Z " fill="#E0E0E0" transform="translate(269.0234375,407.52734375)"/>
<path d="M0 0 C1.01495544 -0.00960754 2.02991089 -0.01921509 3.07562256 -0.02911377 C4.1673175 -0.03336365 5.25901245 -0.03761353 6.38378906 -0.04199219 C7.51335022 -0.04769226 8.64291138 -0.05339233 9.80670166 -0.05926514 C12.1972968 -0.06870924 14.58790493 -0.07524678 16.97851562 -0.07910156 C20.62165268 -0.08879333 24.2642222 -0.11981749 27.90722656 -0.15136719 C30.23274406 -0.15789898 32.55826557 -0.16314876 34.88378906 -0.16699219 C35.96738708 -0.17933899 37.05098511 -0.19168579 38.16741943 -0.20440674 C45.69317177 -0.18242706 51.09241275 0.91154113 57.64941406 4.78613281 C62.42797428 9.83016859 64.14449222 15.2694526 64.39941406 22.16113281 C64.16271864 27.79878732 63.32003935 32.57005484 59.89941406 37.16113281 C54.25196999 42.07285481 49.24376739 44.26519758 41.79882812 44.32226562 C40.78387268 44.33187317 39.76891724 44.34148071 38.72320557 44.35137939 C37.63151062 44.35562927 36.53981567 44.35987915 35.41503906 44.36425781 C34.28547791 44.36995789 33.15591675 44.37565796 31.99212646 44.38153076 C29.60153132 44.39097486 27.21092319 44.3975124 24.8203125 44.40136719 C21.17717545 44.41105896 17.53460592 44.44208311 13.89160156 44.47363281 C11.56608407 44.4801646 9.24056255 44.48541438 6.91503906 44.48925781 C5.83144104 44.50160461 4.74784302 44.51395142 3.63140869 44.52667236 C-3.89434365 44.50469269 -9.29358462 43.4107245 -15.85058594 39.53613281 C-20.62914615 34.49209703 -22.34566409 29.05281303 -22.60058594 22.16113281 C-22.36389052 16.52347831 -21.52121122 11.75221078 -18.10058594 7.16113281 C-12.45314187 2.24941081 -7.44493926 0.05706805 0 0 Z " fill="#E0E0E0" transform="translate(427.1005859375,233.8388671875)"/>
<path d="M0 0 C1.01495544 -0.00960754 2.02991089 -0.01921509 3.07562256 -0.02911377 C4.1673175 -0.03336365 5.25901245 -0.03761353 6.38378906 -0.04199219 C7.51335022 -0.04769226 8.64291138 -0.05339233 9.80670166 -0.05926514 C12.1972968 -0.06870924 14.58790493 -0.07524678 16.97851562 -0.07910156 C20.62165268 -0.08879333 24.2642222 -0.11981749 27.90722656 -0.15136719 C30.23274406 -0.15789898 32.55826557 -0.16314876 34.88378906 -0.16699219 C35.96738708 -0.17933899 37.05098511 -0.19168579 38.16741943 -0.20440674 C45.69317177 -0.18242706 51.09241275 0.91154113 57.64941406 4.78613281 C62.42797428 9.83016859 64.14449222 15.2694526 64.39941406 22.16113281 C64.16271864 27.79878732 63.32003935 32.57005484 59.89941406 37.16113281 C54.25196999 42.07285481 49.24376739 44.26519758 41.79882812 44.32226562 C40.78387268 44.33187317 39.76891724 44.34148071 38.72320557 44.35137939 C37.63151062 44.35562927 36.53981567 44.35987915 35.41503906 44.36425781 C34.28547791 44.36995789 33.15591675 44.37565796 31.99212646 44.38153076 C29.60153132 44.39097486 27.21092319 44.3975124 24.8203125 44.40136719 C21.17717545 44.41105896 17.53460592 44.44208311 13.89160156 44.47363281 C11.56608407 44.4801646 9.24056255 44.48541438 6.91503906 44.48925781 C5.83144104 44.50160461 4.74784302 44.51395142 3.63140869 44.52667236 C-3.89434365 44.50469269 -9.29358462 43.4107245 -15.85058594 39.53613281 C-20.62914615 34.49209703 -22.34566409 29.05281303 -22.60058594 22.16113281 C-22.36389052 16.52347831 -21.52121122 11.75221078 -18.10058594 7.16113281 C-12.45314187 2.24941081 -7.44493926 0.05706805 0 0 Z " fill="#E0E0E0" transform="translate(43.1005859375,233.8388671875)"/>
<path d="M0 0 C4.72404568 3.51969412 7.81448339 8.73708852 8.9765625 14.47265625 C9.07587938 16.17079792 9.12465661 17.87224867 9.13769531 19.57324219 C9.14730286 20.58819763 9.1569104 21.60315308 9.16680908 22.64886475 C9.17105896 23.74055969 9.17530884 24.83225464 9.1796875 25.95703125 C9.18538757 27.08659241 9.19108765 28.21615356 9.19696045 29.37994385 C9.20640455 31.77053899 9.21294209 34.16114712 9.21679688 36.55175781 C9.22648865 40.19489487 9.2575128 43.83746439 9.2890625 47.48046875 C9.29559429 49.80598624 9.30084407 52.13150776 9.3046875 54.45703125 C9.3170343 55.54062927 9.3293811 56.62422729 9.34210205 57.74066162 C9.32012238 65.26641396 8.22615419 70.66565493 4.3515625 77.22265625 C-0.69247328 82.00121646 -6.13175729 83.71773441 -13.0234375 83.97265625 C-18.66109201 83.73596083 -23.43235953 82.89328153 -28.0234375 79.47265625 C-32.9351595 73.82521218 -35.12750226 68.81700958 -35.18457031 61.37207031 C-35.19417786 60.35711487 -35.2037854 59.34215942 -35.21368408 58.29644775 C-35.21793396 57.20475281 -35.22218384 56.11305786 -35.2265625 54.98828125 C-35.23226257 53.85872009 -35.23796265 52.72915894 -35.24383545 51.56536865 C-35.25327955 49.17477351 -35.25981709 46.78416538 -35.26367188 44.39355469 C-35.27336365 40.75041763 -35.3043878 37.10784811 -35.3359375 33.46484375 C-35.34246929 31.13932626 -35.34771907 28.81380474 -35.3515625 26.48828125 C-35.3639093 25.40468323 -35.3762561 24.32108521 -35.38897705 23.20465088 C-35.36699738 15.67889854 -34.27302919 10.27965757 -30.3984375 3.72265625 C-22.23790345 -4.00837601 -9.9314494 -5.03795342 0 0 Z " fill="#E0E0E0" transform="translate(269.0234375,23.52734375)"/>
<path d="M0 0 C1.51060342 0.86320195 3.0190534 1.73109151 4.50341797 2.63867188 C6.88746219 4.0855899 9.30447051 5.47028566 11.72265625 6.859375 C41.16400581 23.90879301 41.16400581 23.90879301 44.4375 33.8125 C44.703125 37.1875 44.703125 37.1875 44.6875 40.8125 C44.69523437 42.606875 44.69523437 42.606875 44.703125 44.4375 C44.32044614 49.29977256 43.64479002 51.74691068 39.94140625 55.015625 C38.97074219 55.69109375 38.00007813 56.3665625 37 57.0625 C36.03191406 57.74828125 35.06382812 58.4340625 34.06640625 59.140625 C28.77278984 62.5071448 22.95803582 63.18464565 16.7734375 62.39599609 C8.66807443 60.37134959 1.30901277 54.94364122 -5.70458984 50.57861328 C-8.38881461 48.919833 -11.09909872 47.3229652 -13.83203125 45.74609375 C-15.43038144 44.81108108 -17.02807695 43.87494802 -18.625 42.9375 C-19.34397461 42.52266357 -20.06294922 42.10782715 -20.80371094 41.68041992 C-26.96497342 37.9573159 -32.69441722 33.03575343 -34.5625 25.8125 C-35.23296909 18.44604735 -35.63146698 11.18721494 -31.5625 4.8125 C-23.54833162 -3.75436965 -10.37471801 -5.02148415 0 0 Z " fill="#E0E0E0" transform="translate(418.5625,322.1875)"/>
<path d="M0 0 C5.9074864 2.70571896 10.09799222 7.26482428 12.546875 13.3125 C13.92133835 23.56811119 11.83256047 30.630434 6.546875 39.3125 C5.88171875 40.45074219 5.2165625 41.58898437 4.53125 42.76171875 C3.06075361 45.26593708 1.56066669 47.74918382 0.0390625 50.22265625 C-1.75457003 53.14143777 -3.48672932 56.08925604 -5.1953125 59.05859375 C-6.13533562 60.66410996 -7.0754385 62.26957946 -8.015625 63.875 C-8.43803467 64.62475098 -8.86044434 65.37450195 -9.2956543 66.14697266 C-12.94001457 72.29306972 -17.55492523 77.01310008 -24.453125 79.3125 C-36.45869717 80.22223901 -36.45869717 80.22223901 -42.015625 77.6875 C-48.17442227 71.68662061 -51.7321193 67.15272794 -51.953125 58.3125 C-51.92176849 51.2488116 -50.30219094 46.25585089 -46.63134766 40.25097656 C-45.17358983 37.8525934 -43.77437014 35.42283999 -42.37109375 32.9921875 C-19.95134576 -5.59145996 -19.95134576 -5.59145996 0 0 Z " fill="#E0E0E0" transform="translate(179.453125,383.6875)"/>
<path d="M0 0 C2.21291471 1.23923224 4.3870112 2.51088848 6.5625 3.8125 C8.31434466 4.8294345 10.06702369 5.84493237 11.8203125 6.859375 C16.60365976 9.64267959 21.35757629 12.47183579 26.09765625 15.328125 C28.14373446 16.56031156 30.19571498 17.78159647 32.25 19 C38.41514598 22.75269755 42.80746603 25.96813987 45.875 32.6875 C47.60379165 40.54564385 46.56797039 46.82920177 42.5625 53.8125 C38.54262204 58.34535542 34.18104163 61.44906191 28.12890625 62.2890625 C26.79473973 62.34988674 25.45999803 62.39902743 24.125 62.4375 C22.17787109 62.54964844 22.17787109 62.54964844 20.19140625 62.6640625 C14.07131507 62.12817665 9.28440969 58.22438358 4.29989624 54.93133545 C1.47316685 53.11099938 -1.44323291 51.47258082 -4.3671875 49.8125 C-5.52390868 49.14665121 -6.68015872 48.47998327 -7.8359375 47.8125 C-9.58250227 46.80490433 -11.33103507 45.80206001 -13.08789062 44.8125 C-21.34878159 40.14924071 -28.33690654 35.69589757 -32.84765625 27.13671875 C-34.81423636 19.3876117 -33.75625632 12.82978236 -29.86328125 5.91015625 C-23.25188917 -3.81674114 -10.02598476 -4.83862743 0 0 Z " fill="#E0E0E0" transform="translate(83.4375,130.1875)"/>
</svg>
