<?xml version="1.0" encoding="UTF-8" standalone="no" ?>
<!DOCTYPE svg PUBLIC "-//W3C//DTD SVG 1.1//EN" "http://www.w3.org/Graphics/SVG/1.1/DTD/svg11.dtd">
<svg xmlns="http://www.w3.org/2000/svg" xmlns:xlink="http://www.w3.org/1999/xlink" version="1.1" width="1080" height="1080" viewBox="0 0 1080 1080" xml:space="preserve">
<desc>Created with Fabric.js 5.2.4</desc>
<defs>
</defs>
<g transform="matrix(1 0 0 1 540 540)" id="f307f64d-15cf-4f84-83b3-62739ede625d"  >
</g>
<g transform="matrix(1 0 0 1 540 540)" id="93ed34a2-45c5-47db-8bda-e3c8f270a483"  >
<rect style="stroke: none; stroke-width: 1; stroke-dasharray: none; stroke-linecap: butt; stroke-dashoffset: 0; stroke-linejoin: miter; stroke-miterlimit: 4; fill: rgb(255,255,255); fill-rule: nonzero; opacity: 1; visibility: hidden;" vector-effect="non-scaling-stroke"  x="-540" y="-540" rx="0" ry="0" width="1080" height="1080" />
</g>
<g transform="matrix(1 0 0 1 540 540)"  >
<circle style="stroke: none; stroke-width: 1; stroke-dasharray: none; stroke-linecap: butt; stroke-dashoffset: 0; stroke-linejoin: miter; stroke-miterlimit: 4; fill: rgb(255,255,255); fill-rule: nonzero; opacity: 1;" vector-effect="non-scaling-stroke"  cx="0" cy="0" r="24" />
</g>
<g transform="matrix(1 0 0 1 540 540)" clip-path="url(#CLIPPATH_6)"  >
<clipPath id="CLIPPATH_6" >
	<path transform="matrix(1 0 0 1 0 0) translate(-12, -12)" d="M 0 0 L 24 0 L 24 24 L 0 24 z" stroke-linecap="round" />
</clipPath>
<path style="stroke: none; stroke-width: 1; stroke-dasharray: none; stroke-linecap: butt; stroke-dashoffset: 0; stroke-linejoin: miter; stroke-miterlimit: 4; fill: rgb(80,101,226); fill-rule: nonzero; opacity: 1;" vector-effect="non-scaling-stroke"  transform=" translate(-24, -24)" d="M 16.89 27.954 C 19.257 30.784 22.107 33.011 25.36 34.588 C 26.598 35.175000000000004 28.253 35.871 30.099 35.99 C 30.213 35.995000000000005 30.322 36 30.437 36 C 31.675 36 32.67 35.572 33.480000000000004 34.692 C 33.48500000000001 34.687 33.495000000000005 34.677 33.50000000000001 34.667 C 33.788000000000004 34.319 34.117000000000004 34.006 34.46000000000001 33.673 C 34.69400000000001 33.449000000000005 34.93200000000001 33.215 35.16100000000001 32.976 C 36.22100000000001 31.872 36.22100000000001 30.47 35.15100000000001 29.401 L 32.16200000000001 26.411 C 31.655000000000012 25.885 31.048000000000012 25.606 30.412000000000013 25.606 C 29.775000000000013 25.606 29.164000000000012 25.885 28.642000000000014 26.407 L 26.861000000000015 28.187 C 26.697000000000013 28.093 26.528000000000016 28.008000000000003 26.369000000000014 27.929000000000002 C 26.181704131808335 27.838693439173966 25.999133860166044 27.73889725778266 25.822000000000013 27.630000000000003 C 24.200000000000014 26.6 22.728000000000012 25.258000000000003 21.321000000000012 23.532000000000004 C 20.610000000000014 22.632000000000005 20.132000000000012 21.877000000000002 19.799000000000014 21.106 C 20.25500769664856 20.68719658500898 20.69788818489031 20.2543209270739 21.127000000000017 19.808 C 21.27700000000001 19.654 21.430000000000014 19.499 21.58500000000001 19.345 C 22.12200000000001 18.808 22.41000000000001 18.186 22.41000000000001 17.555 C 22.41000000000001 16.923 22.12700000000001 16.302 21.58500000000001 15.765 L 20.103000000000012 14.283000000000001 C 19.929000000000013 14.109000000000002 19.76500000000001 13.940000000000001 19.595000000000013 13.765 C 19.267048985219937 13.422977452246785 18.930268730190864 13.089531655188306 18.584999999999994 12.764999999999993 C 18.074000000000012 12.264000000000001 17.472000000000012 12 16.83500000000001 12 C 16.20400000000001 12 15.597000000000012 12.264 15.065000000000012 12.77 L 13.205000000000013 14.629999999999999 C 12.540295263699335 15.279946312540586 12.135344547408073 16.149932618743154 12.066000000000013 17.077 C 11.972000000000014 18.267 12.190000000000014 19.528999999999996 12.757000000000014 21.055999999999997 C 13.627000000000013 23.418 14.941000000000013 25.610999999999997 16.890000000000015 27.953999999999997 Z M 13.280000000000001 17.182000000000002 C 13.327980915408833 16.54105951976674 13.609007566482862 15.93987592443116 14.07 15.492000000000003 L 15.92 13.642000000000003 C 16.209 13.362000000000004 16.527 13.218000000000004 16.835 13.218000000000004 C 17.139 13.218000000000004 17.447 13.363000000000003 17.73 13.651000000000003 C 18.064 13.959000000000003 18.377 14.283000000000003 18.715 14.626000000000003 C 18.885 14.800000000000002 19.058 14.974000000000004 19.232 15.153000000000002 L 20.714 16.635 C 21.023 16.943 21.182 17.256 21.182 17.565 C 21.182 17.873 21.022 18.186 20.714 18.495 C 20.56 18.649 20.406 18.808 20.252 18.962 C 19.788999999999998 19.43 19.357 19.872 18.878999999999998 20.294999999999998 L 18.854 20.319999999999997 C 18.442 20.732999999999997 18.506 21.125999999999998 18.605999999999998 21.423999999999996 L 18.621 21.463999999999995 C 19.003999999999998 22.383999999999997 19.535999999999998 23.258999999999993 20.366 24.303999999999995 C 21.858 26.143999999999995 23.43 27.570999999999994 25.16 28.669999999999995 C 25.374 28.808999999999994 25.603 28.917999999999996 25.817 29.027999999999995 C 26.016000000000002 29.127999999999997 26.2 29.221999999999994 26.364 29.325999999999993 L 26.418 29.355999999999995 C 26.583 29.439999999999994 26.742 29.479999999999993 26.901 29.479999999999993 C 27.299 29.479999999999993 27.557 29.226999999999993 27.641 29.141999999999992 L 29.500999999999998 27.281999999999993 C 29.790999999999997 26.993999999999993 30.102999999999998 26.839999999999993 30.410999999999998 26.839999999999993 C 30.79 26.839999999999993 31.098 27.072999999999993 31.291999999999998 27.281999999999993 L 34.291 30.275999999999993 C 34.888 30.872999999999994 34.882999999999996 31.51899999999999 34.275999999999996 32.150999999999996 C 34.06699999999999 32.37499999999999 33.848 32.589 33.614 32.812 C 33.266 33.15 32.903999999999996 33.498999999999995 32.574999999999996 33.891999999999996 C 32.00299999999999 34.507999999999996 31.321999999999996 34.796 30.441999999999997 34.796 C 30.356999999999996 34.796 30.267999999999997 34.791 30.182999999999996 34.786 C 28.551999999999996 34.682 27.034999999999997 34.046 25.895999999999997 33.504000000000005 C 22.802999999999997 32.007000000000005 20.087999999999997 29.884000000000004 17.834999999999997 27.188000000000006 C 15.979999999999997 24.955000000000005 14.731999999999998 22.876000000000005 13.905999999999997 20.648000000000007 C 13.393999999999997 19.281000000000006 13.199999999999998 18.182000000000006 13.279999999999998 17.182000000000006 Z" stroke-linecap="round" />
</g>
<g transform="matrix(NaN NaN NaN NaN 0 0)"  >
<g style=""   >
</g>
</g>
<g transform="matrix(NaN NaN NaN NaN 0 0)"  >
<g style=""   >
</g>
</g>
</svg>