<svg xmlns="http://www.w3.org/2000/svg" width="120" height="120" fill="none"><g clip-path="url(#a)"><path fill="#F1F4FA" d="m28.58 57.574 3.182-1.836a14.356 14.356 0 0 0-1.467-3.526l-3.542.95-2.654-2.654.945-3.532a14.296 14.296 0 0 0-3.533-1.46l-1.826 3.164h-3.758l-1.817-3.147a14.394 14.394 0 0 0-3.535 1.476l.938 3.5-2.654 2.651-3.488-.933a14.29 14.29 0 0 0-1.466 3.542l3.125 1.805v3.756l-3.125 1.805c.331 1.257.83 2.445 1.469 3.542l3.485-.933 2.654 2.654-.936 3.497c1.094.64 2.28 1.14 3.535 1.476l1.815-3.144h3.756l1.823 3.158a14.35 14.35 0 0 0 3.536-1.459l-.946-3.528 2.654-2.654 3.54.948a14.362 14.362 0 0 0 1.47-3.526l-3.18-1.836v-3.756Zm-10.748 9.665a7.791 7.791 0 1 1 .001-15.582 7.791 7.791 0 0 1 0 15.582Z"/><path fill="#F5F5F5" d="M66.149 107.575c27.585 0 49.946-2.842 49.946-6.348s-22.361-6.348-49.946-6.348c-27.585 0-49.947 2.842-49.947 6.348s22.362 6.348 49.947 6.348Z"/><path fill="#DADCE3" d="M28.495 59.448V55.87c0-1.644 1.575-2.976 3.514-2.976h36.415l2.542-4.448c.314-.55.974-.9 1.696-.9h8.547c1.041 0 1.884.716 1.884 1.596v46.306c-.041.44-.223 1.798-1.33 2.95-1.533 1.596-3.595 1.5-3.905 1.48H28.495v-40.43Z"/><path fill="#F1F4FA" d="m69.314 57.435-5.287-5.585-.684 3.144-5.594-5.712-1.2 2.935-4.154-5.121-3.567 1.965-3.098-5.352-3.387 2.7-4.433-4.97a73.466 73.466 0 0 1 10.678-16.867l33.149 13.55a164.48 164.48 0 0 0-9.648 19.498l-2.775-.185Z"/><path fill="#F1F4FA" d="m45.986 44.864 3.099 5.352 3.566-1.966 4.155 5.122 1.2-2.935 5.594 5.712.684-3.144 5.287 5.584 2.772.185c-.04.101-.084.197-.124.298a163.988 163.988 0 0 0-7.31 22.003l-33.15-13.55a73.471 73.471 0 0 1 6.406-24.93l4.433 4.971 3.389-2.702Z"/><path fill="#565656" fill-opacity=".3" d="m72.087 57.65-2.775-.184a.03.03 0 0 1-.022-.01l-5.244-5.539-.672 3.084a.03.03 0 0 1-.024.024.036.036 0 0 1-.033-.01l-5.56-5.675-1.182 2.887c-.005.01-.014.019-.026.019a.031.031 0 0 1-.031-.012l-4.155-5.124c-.012-.014-.01-.036.005-.046.014-.012.036-.01.046.005l4.118 5.08 1.179-2.882a.038.038 0 0 1 .023-.019.03.03 0 0 1 .03.01l5.55 5.669.672-3.087a.03.03 0 0 1 .024-.024.036.036 0 0 1 .034.01l5.278 5.575 2.76.182c.019 0 .03.017.03.037.006.019-.009.03-.025.03Z"/><path fill="#565656" fill-opacity=".3" d="M72.346 58.805c-.003 0-.003 0 0 0l-2.775-.185a.03.03 0 0 1-.021-.01l-5.244-5.539-.672 3.084a.03.03 0 0 1-.024.024.036.036 0 0 1-.034-.01l-5.56-5.675-1.181 2.887c-.005.01-.015.02-.027.02a.031.031 0 0 1-.031-.013l-4.154-5.124c-.012-.014-.01-.036.004-.045.015-.012.036-.01.046.004l4.118 5.081 1.179-2.882a.038.038 0 0 1 .024-.02c.01-.002.021 0 .029.01l5.55 5.669.673-3.086a.03.03 0 0 1 .024-.024.036.036 0 0 1 .033.01l5.278 5.574 2.76.183c.02 0 .031.017.031.036.005.017-.01.031-.026.031Z"/><path fill="#F1F4FA" d="M15.41 30.89a1.616 1.616 0 0 0-1.248 1.916 172.9 172.9 0 0 1 5.595 20.083 172.294 172.294 0 0 1 3.24 21.87 1.614 1.614 0 0 0 1.913 1.248l30.552-6.435a1.616 1.616 0 0 0 1.248-1.916 124.745 124.745 0 0 0-7.378-35.04c-3.533-2.212-7.066-4.423-10.598-6.636L15.41 30.89Z"/><path fill="#E0E2E8" d="m41.556 34.255 7.778-1.637-10.598-6.636 1.57 7.46c.12.568.679.933 1.25.813Z"/><path fill="#565656" fill-opacity=".3" d="M41.335 34.31c-.209 0-.413-.06-.593-.177a1.076 1.076 0 0 1-.47-.689l-1.57-7.46a.031.031 0 0 1 .027-.038c.02-.002.036.008.038.027l1.57 7.459c.055.269.213.497.441.646.229.148.502.201.77.144l7.78-1.637c.018-.003.035.007.038.026a.031.031 0 0 1-.027.039l-7.778 1.636a1.015 1.015 0 0 1-.226.024Z"/><path fill="#E0E2E8" d="M35.582 55.123c-.225-1.068-.324-1.947-.3-2.633a4.408 4.408 0 0 1 .574-1.995c.204-.383.451-.73.746-1.036.296-.308.56-.624.795-.948.235-.324.417-.67.547-1.037.13-.367.142-.814.031-1.34-.187-.887-.561-1.456-1.125-1.706s-1.181-.304-1.85-.163c-.96.202-1.566.61-1.815 1.22-.25.611-.324 1.377-.226 2.303l-3.506.74c-.187-.889-.211-1.724-.075-2.51.137-.786.42-1.489.848-2.108a5.58 5.58 0 0 1 1.682-1.574c.694-.43 1.495-.742 2.4-.932 1.956-.413 3.586-.338 4.884.221 1.3.56 2.138 1.735 2.518 3.528.122.58.17 1.1.144 1.56-.027.46-.12.89-.281 1.294-.161.403-.382.794-.66 1.176-.279.381-.603.78-.967 1.197a8.4 8.4 0 0 0-.785 1.059 2.99 2.99 0 0 0-.382.945 3.235 3.235 0 0 0-.053.963c.032.324.09.686.173 1.085l-3.317.69Zm.996 5.265-.748-3.559 3.667-.773.749 3.56-3.668.772Z"/><path fill="#565656" fill-opacity=".3" d="M24.576 76.075c-.317 0-.626-.091-.898-.269a1.7 1.7 0 0 1-.712-1.041c-.61-7.33-1.7-14.686-3.24-21.87a173.219 173.219 0 0 0-5.592-20.078 1.64 1.64 0 0 1 .23-1.243c.24-.37.61-.621 1.042-.713l23.323-4.91c.01-.002.017 0 .024.005l10.598 6.636c.008.005.012.01.015.017 1.701 4.639 3.141 9.43 4.279 14.234a125.407 125.407 0 0 1 3.103 20.818c.091.427.007.866-.233 1.236-.24.37-.61.621-1.041.712l-30.552 6.435a2.15 2.15 0 0 1-.346.031Zm-9.158-45.151a1.584 1.584 0 0 0-1.224 1.874 173.652 173.652 0 0 1 5.594 20.084 173.28 173.28 0 0 1 3.24 21.873c.031.147.173.663.684.996.355.23.778.31 1.19.223l30.553-6.434a1.584 1.584 0 0 0 1.224-1.875 125.243 125.243 0 0 0-3.101-20.81c-1.136-4.8-2.573-9.58-4.272-14.215l-10.58-6.624-23.308 4.908Z"/><path fill="#E5E7ED" d="M18.49 59.449h53.623c1.4 0 2.734 1.135 2.978 2.534l6.173 35.36c.245 1.398-.693 2.533-2.093 2.533H25.548c-1.399 0-2.733-1.135-2.978-2.534l-6.173-35.36c-.245-1.398.694-2.533 2.093-2.533Z"/><path fill="#CDCFD1" d="m83.47 34.834 2.272-.728 3.639 1.047-.094.523h-2.45l-1.44 1.435-1.253.25-.674-2.527Z"/><path fill="#565656" d="M85.478 34.62c.622-.343 2.201-1.102 4.073-.734.576.112 1.63.321 2.292 1.21.355.477.454.954.533 1.358.223 1.154-.158 1.615-.166 3.54-.002.72.05.998.221 1.264.33.516.742.428 1.45.917.098.067 1.094.778 1.505 1.98.293.862-.012 1.107.33 1.577.529.73 1.45.415 1.909 1.027.535.713-.07 2-.147 2.165-1.463 3.122-10.703 4.622-14.692.588-.14-.142-2.43-2.506-1.762-4.145.384-.945 1.615-1.317 1.615-2.421 0-.478-.23-.504-.348-1.32-.084-.584-.197-1.368.202-2 .463-.734 1.229-.638 1.36-1.228.106-.464-.323-.71-.402-1.205-.092-.533.225-1.347 2.028-2.573Z"/><path fill="#565656" d="M97.78 47.145h-.011c-1.207-.225-1.392-.35-1.416-.372-.276-.252-.247-.592-.207-1.022.027-.305.058-.648.005-1.068-.156-1.224-.91-2.074-1.27-2.482-.556-.628-1.048-.87-1.442-1.065-.405-.2-.727-.358-.917-.83-.208-.526-.06-.968.096-1.433.15-.44.315-.936.23-1.601-.1-.778-.51-1.522-1.218-2.213a.06.06 0 0 1-.003-.084.058.058 0 0 1 .084 0c.73.71 1.152 1.478 1.255 2.282.09.692-.084 1.203-.235 1.654-.156.466-.293.866-.098 1.351.17.43.458.571.857.768.403.2.907.447 1.48 1.095.37.417 1.138 1.284 1.299 2.544.055.432.021.799-.005 1.094-.038.427-.065.71.168.924.005.002.18.122 1.358.343.034.007.056.039.048.07-.002.026-.028.045-.057.045ZM83.463 49.87c-.008 0-.013 0-.02-.003a4.485 4.485 0 0 1-.689-.298 4.878 4.878 0 0 1-1.54-1.336c-.75-.984-1.02-1.599-1.04-2.348-.019-.72.41-1.094.867-1.49.418-.362.847-.74.95-1.418.077-.516-.062-.886-.197-1.244-.146-.393-.287-.765-.132-1.276.192-.644.754-1.174 1.666-1.58.031-.014.065 0 .08.032.014.03 0 .064-.032.079-.878.391-1.416.897-1.598 1.505-.142.472-.01.828.13 1.2.138.372.285.758.2 1.303-.11.725-.556 1.113-.99 1.49-.432.377-.843.735-.826 1.397.02.718.286 1.315 1.015 2.278a4.762 4.762 0 0 0 1.503 1.303c.213.115.439.211.67.29.03.01.047.046.038.077a.06.06 0 0 1-.055.038Z"/><path fill="#E5E7ED" d="M83.35 34.383c-5.804.026-10.05 2.481-10.4 5.129-.352 2.656 3.212 5.577 4.697 6.794a17.868 17.868 0 0 0 4.164 2.546l4.483-4.768-7.068-3.754 5.103-2.282-.98-3.665Z"/><path fill="#BBBDC2" d="M89.506 44.086h-3.214c-.886.523-2.165 1.442-3.19 2.956-1.188 1.755-1.5 3.514-1.718 5.875-.24 2.619-.343 6.425.055 10.944l16.15-.13v-8.368a35.561 35.561 0 0 0-.562-5.114c-.379-2.045-.691-2.684-1.027-3.18-.955-1.416-2.318-2.026-2.935-2.3a8.029 8.029 0 0 0-3.56-.683Z"/><path fill="#E5E7ED" d="M87.9 45.387a1.637 1.637 0 0 0 1.642-1.63l.014-3.518-3.271-.012-.015 3.519a1.632 1.632 0 0 0 1.63 1.641Z"/><path fill="#E5E7ED" d="m86.273 42.761 2.129-1.094c-.022.184-.142 1.048-.903 1.644a2.392 2.392 0 0 1-1.23.492l.004-1.042ZM89.633 39.15c.01-.054.151-.135.194-.162a.979.979 0 0 1 .732-.137c.327.075.615.349.67.685.031.194-.014.396-.096.576a1.468 1.468 0 0 1-.595.643 1.604 1.604 0 0 1-.701.206c-.048.003-.552-.01-.547-.029.112-.592.228-1.188.343-1.783Z"/><path fill="#E5E7ED" d="M90.082 39.183c-.039.262-.27 1.647-1.517 2.626-.23.18-1.76 1.377-3.159.794-1.797-.751-1.6-3.703-1.588-3.864.043-.54.168-2.131 1.488-2.98 1.075-.694 2.241-.44 2.407-.399.175.04 1.284.322 1.963 1.409.617.986.468 1.985.406 2.414Z"/><path fill="#565656" d="M84.838 38.742c-.03.23-.207.398-.396.374-.19-.024-.322-.23-.293-.46.029-.231.206-.4.396-.375.192.024.321.23.293.46ZM86.914 39.003c-.029.23-.207.398-.396.374-.19-.024-.322-.23-.293-.46.029-.231.206-.4.396-.375.192.024.322.23.293.46ZM85.486 40.023a.108.108 0 0 1-.046-.013l-.293-.177a.258.258 0 0 1-.117-.168.248.248 0 0 1 .045-.2l.32-.429a.085.085 0 0 1 .12-.017.085.085 0 0 1 .016.12l-.319.43c-.014.02-.02.04-.014.065.005.024.017.04.038.055l.293.178c.04.024.053.076.029.117a.085.085 0 0 1-.072.038Z"/><path fill="#E5E7ED" d="M87.612 40.087a.474.474 0 0 1-.528.41.474.474 0 0 1-.41-.527.474.474 0 0 1 .528-.41c.259.033.441.268.41.527Z"/><path fill="#565656" d="M89.851 40.417a.087.087 0 0 1-.086-.084.961.961 0 0 1 .305-.723.95.95 0 0 1 .602-.235h.002c.046 0 .084.038.087.084a.084.084 0 0 1-.084.086.785.785 0 0 0-.492.19.792.792 0 0 0-.247.59.084.084 0 0 1-.087.092c.003 0 .003 0 0 0Z"/><path fill="#565656" d="M90.533 40.231h-.007a.084.084 0 0 1-.077-.093.295.295 0 0 0-.075-.221c-.103-.11-.254-.089-.259-.089a.084.084 0 0 1-.098-.072.086.086 0 0 1 .072-.098.482.482 0 0 1 .413.139.48.48 0 0 1 .12.353c-.008.048-.044.081-.09.081Z"/><path fill="#E5E7ED" d="M84.063 39.341a.471.471 0 0 0-.252.039c.01.254.033.561.088.885.015.003.03.01.046.01a.473.473 0 0 0 .528-.41.472.472 0 0 0-.41-.524Z"/><path fill="#565656" d="M83.494 36.766a.939.939 0 0 0-.005.612c.074.194.24.35.437.415.252.082.556.017.712-.206 0 0 .077.151.288.199.212.048.452-.197.454-.2-.01.01.195.154.216.162.065.019.135.007.197-.017.033-.015.283-.118.283-.163 0 .163.334.084.399.038.04-.029.194-.142.194-.197 0 0-.007.303.185.336.192.034.487-.261.487-.261s.125.288.24.295c.117.007.391-.233.391-.233s.027.04.166.166c.136.124.405-.166.405-.166l1.059 1.843s-.015-.257.144-.37c.158-.112.372-.16.372-.16.055-.058.065-.26.077-.336.019-.123.03-.247.033-.372a2.182 2.182 0 0 0-.093-.67c-.13-.425-.392-.797-.687-1.12-.621-.685-1.44-1.225-2.35-1.431a3.75 3.75 0 0 0-.967-.094c-.468.017-.9.18-1.303.416-.58.34-1.12.847-1.334 1.514Z"/><path fill="#fff" d="m85.452 40.964 1.054-.252a.556.556 0 0 0-.624-.44.559.559 0 0 0-.43.692Z"/><path fill="#BBBDC2" d="M93.32 52.868c-2.492 3.91-5.17 5.745-7.133 6.696-4.083 1.975-11.583 3.266-12.476 3.765-.317.178-.499.2-.866.243-.13.014-.338.03-.516-.092-.048-.033-.134-.09-.158-.19-.044-.172.112-.395.112-.395a.536.536 0 0 1-.33.11.488.488 0 0 1-.344-.139c-.137-.146-.151-.4-.026-.62-.24.224-.567.222-.723.063a.432.432 0 0 1-.082-.46.43.43 0 0 1 .185-.197c-.088.024-.328.079-.559-.041a.441.441 0 0 1-.223-.211c-.075-.178.036-.363.055-.396.108-.183.293-.248.612-.35.653-.212 1.359-.414 1.359-.414l-1.275-.518c-.168-.163-.24-.389-.175-.564.096-.252.482-.41.845-.226l2.474.605s.814.168 1.495.058c.682-.11 5.736-3.003 6.735-3.768.998-.766 5.316-4.817 5.316-4.817l5.697 1.858ZM82.54 63.862s-4.182 13.915-4.427 15.922c-.245 2.006 1.639 17.714 1.639 17.714h5.75l3.034-15.562s.391 2.79 2.251 4.748c1.86 1.958 8.662 8.712 8.662 8.712l4.305-4.21-5.186-9.494a65.767 65.767 0 0 1-.535-5.007c-.14-2.025-.207-3.038-.106-4.238.209-2.436.754-2.854.71-4.512-.026-1.015-.273-2.463-1.312-4.203l-14.784.13Z"/><path fill="#E5E7ED" d="M85.075 97.497v5.84h-9.362l.245-1.68s2.935-1.647 3.393-2.024c.456-.374.946-1.108 1.044-1.337.099-.228 0-.799 0-.799h4.68Z"/><path fill="#BBBDC2" d="M85.55 99.7a.882.882 0 0 0-.472-.006c-.48.136-.605.691-.812.986l-5.37.06c.011-.271.02-.545.033-.816l-.838-.271a5.745 5.745 0 0 1-1.586 1.262c-.66.353-1.52.631-1.867 1.227-.17.288-.178.583-.18.636-.003.151-.007.364.146.504.113.105.26.12.326.122l10.4-.065a.22.22 0 0 0 .22-.221v-3.417Z"/><path fill="#565656" d="M74.918 104.006h10.22a.413.413 0 0 0 .412-.413v-.458H74.506v.458c0 .228.184.413.412.413Z"/><path fill="#D9DBE0" d="m83.746 60.331.06 2.347a155.574 155.574 0 0 0 4.13-2.13v-1.9l-4.19 1.683Z"/><path fill="#E5E7ED" d="m103.659 91.28 4.077 4.18-6.705 6.535-.999-1.373s.953-3.23 1.018-3.816c.065-.588-.096-1.454-.187-1.687-.089-.233-.557-.571-.557-.571l3.353-3.269Z"/><path fill="#BBBDC2" d="M105.535 92.524a.895.895 0 0 0-.345.324c-.248.432.05.917.108 1.272l-3.804 3.792-.548-.607c-.264.13-.528.26-.789.391a5.768 5.768 0 0 1-.254 2.012c-.229.712-.649 1.512-.48 2.181.081.324.278.543.316.581.103.11.25.264.456.259a.511.511 0 0 0 .319-.139l7.402-7.306a.223.223 0 0 0 .005-.312l-2.386-2.448Z"/><path fill="#565656" d="m100.93 103.029 7.317-7.132a.413.413 0 0 0 .008-.584l-.32-.328-7.908 7.708.32.329a.41.41 0 0 0 .583.007ZM72.691 60.391h-.012a5.023 5.023 0 0 1-1.915-.79.064.064 0 0 1-.017-.084c.02-.028.055-.033.084-.016a5.006 5.006 0 0 0 1.015.53c.276.106.564.187.857.24a.061.061 0 0 1 .048.07.06.06 0 0 1-.06.05ZM70.695 61.745c-.132 0-.19-.03-.2-.034-.029-.017-.04-.053-.024-.082.017-.029.05-.04.08-.024.004.003.115.05.395-.01.308-.064.632-.244.636-.246.03-.017.065-.005.082.024.017.028.005.064-.024.081-.014.007-.343.19-.667.26a1.597 1.597 0 0 1-.278.03ZM71.213 62.48c-.026 0-.053-.02-.058-.046a.06.06 0 0 1 .046-.072s.125-.029.415-.163c.295-.137.574-.322.576-.324a.06.06 0 0 1 .084.017.06.06 0 0 1-.017.083c-.012.008-.288.195-.593.334-.304.14-.431.17-.439.17h-.014ZM72.08 63.05a.06.06 0 0 1-.056-.038.062.062 0 0 1 .034-.08c.002 0 .254-.102.396-.187.139-.081.3-.225.3-.227a.06.06 0 0 1 .084.004.06.06 0 0 1-.005.084c-.007.008-.17.154-.322.243-.148.086-.4.19-.41.194-.007.007-.014.007-.022.007Z"/><path fill="#BCBCBC" d="M87.521 71.906s-3.01 11.484-3.192 14.456c-.182 2.97-.991 11.138-.991 11.138H85.5l3.034-15.562-1.013-10.032Z"/><path fill="#565656" fill-opacity=".3" d="M89.847 85.512a.062.062 0 0 1-.053-.031 12.346 12.346 0 0 1-1.32-3.533c-.068-.329-.096-.552-.274-2.369-.247-2.551-.432-4.6-.434-4.62-.07-.763-.175-1.922-.308-3.36l-.275-4.313c-.003-.033.023-.062.055-.062.03-.007.062.024.064.055.092 1.467.276 4.31.276 4.31.135 1.436.24 2.595.308 3.358.002.02.187 2.069.434 4.62.175 1.8.207 2.038.271 2.357.248 1.214.687 2.39 1.306 3.5.017.028.005.064-.024.08-.005.005-.017.008-.026.008ZM101.971 92.986a.062.062 0 0 1-.05-.027c-.031-.048-3.24-4.733-4.647-6.58-1.38-1.815-2.224-5.276-2.604-7.179-.326-1.637-1.039-15.326-1.046-15.466-.002-.033.024-.06.058-.062.03.003.062.024.062.058.007.139.72 13.819 1.044 15.449.38 1.89 1.217 5.335 2.582 7.13 1.41 1.85 4.618 6.538 4.649 6.585a.062.062 0 0 1-.014.084c-.012.003-.022.008-.034.008Z"/><path fill="#565656" fill-opacity=".3" d="M83.338 97.558h-.005a.06.06 0 0 1-.055-.065c.01-.11.993-11.158 1.183-12.636.192-1.483 2.916-12.638 2.942-12.751a.057.057 0 0 1 .072-.043c.031.007.053.04.043.072-.028.112-2.75 11.26-2.94 12.736-.192 1.479-1.173 12.521-1.183 12.632 0 .033-.026.055-.057.055Z"/><path fill="#E5E7ED" d="m103.659 91.28-3.351 3.268.396.346 3.482-3.075-.527-.54ZM85.075 97.497h-4.68l.041.584h4.64v-.584ZM86.292 44.086s-1.817 6.696-2.15 9.154c-.334 2.457-.339 11.63-.339 11.63h-3.151c-.122-1.387-.749-8.914.646-14.38.686-2.687 1.648-4.047 2.654-4.955a7.948 7.948 0 0 1 2.34-1.45Z"/><path fill="#D9DBE0" d="M80.518 62.99a7.34 7.34 0 0 0 3.288-.312l.03-1.77-3.426 1.331.108.751Z"/><path fill="#E5E7ED" d="M99.953 65.715c-1.018-7.692-2.15-13.52-2.916-16.308-.3-1.095-.816-2.71-2.244-3.843-.874-.691-1.848-1.013-2.215-1.13a8.04 8.04 0 0 0-3.075-.35s-1.356 3.434-1.38 4.754a25.582 25.582 0 0 1-12.792 9.931l.917 4.958s7.685-2.64 11.707-4.593l-.093 5.916 12.09.665Z"/><path fill="#D9DBE0" d="m87.938 60.55.022-1.411c2.834-1.46 4.464-3.197 5.306-4.256 1.162-1.461 2.043-3.156 2.412-3.87.5-.963.864-1.798 1.114-2.415.238.904.478 1.81.715 2.714a17.044 17.044 0 0 1-3.746 5.496 17.083 17.083 0 0 1-5.823 3.742Z"/><path fill="#565656" fill-opacity=".3" d="M76.253 63.792a.065.065 0 0 1-.058-.04.063.063 0 0 1 .039-.077c2.129-.716 4.27-1.5 6.357-2.33 1.79-.711 3.588-1.472 5.343-2.264 2.486-1.258 4.435-2.882 5.79-4.824 1.388-1.99 2.929-5.395 2.946-5.429a.058.058 0 0 1 .067-.033.059.059 0 0 1 .048.057c0 .063-1.591 3.509-2.96 5.472-1.365 1.959-3.33 3.595-5.836 4.865a127.607 127.607 0 0 1-11.717 4.598c-.007.003-.012.005-.02.005ZM75.336 58.831c-.024 0-.048-.014-.055-.038a.06.06 0 0 1 .036-.077c.019-.007 1.956-.742 3.54-1.558.012-.007 1.214-.628 2.568-1.57 3.09-2.15 5.683-5.46 6.655-6.784.535-.85 1.032-1.7 1.476-2.525l.067-.125c.334-.621.598-1.113 1.164-1.476.394-.25.854-.393 1.37-.424.032-.005.063.024.063.055a.058.058 0 0 1-.058.062 2.703 2.703 0 0 0-1.313.406c-.54.346-.784.8-1.123 1.43l-.067.125a44.007 44.007 0 0 1-1.483 2.537c-.977 1.332-3.579 4.656-6.686 6.816-1.361.945-2.57 1.572-2.583 1.58-1.589.82-3.533 1.554-3.552 1.564-.005.002-.012.002-.02.002ZM80.95 52.193h-.012a.063.063 0 0 1-.048-.07c.002-.012.244-1.202.54-2.325.297-1.13.77-2 .775-2.007a.062.062 0 0 1 .081-.024c.03.017.041.053.024.082-.004.01-.47.866-.763 1.98a46.984 46.984 0 0 0-.537 2.32.063.063 0 0 1-.06.044Z"/><path fill="#BABBC0" d="M86.292 44.146a.064.064 0 0 1-.029-.008l-8.023-4.276a.06.06 0 0 1-.024-.082c.017-.029.053-.04.082-.024l8.023 4.277a.06.06 0 0 1 .024.081.06.06 0 0 1-.053.032Z"/><path fill="#fff" d="M75.336 42.653a.065.065 0 0 1-.036-.012c-.163-.123-1.586-1.25-1.418-2.837.09-.85.595-1.416.895-1.755 1-1.123 2.361-1.437 3.084-1.524.036-.005.062.02.067.053.005.034-.02.063-.053.067-.705.084-2.032.391-3.007 1.486-.293.329-.78.876-.866 1.687-.161 1.52 1.214 2.609 1.37 2.729a.06.06 0 0 1 .012.084.074.074 0 0 1-.048.022Z"/><path fill="#565656" fill-opacity=".3" d="M98.246 63.115a.062.062 0 0 1-.06-.052l-1.156-8.806c-.005-.034.019-.062.052-.067.032-.005.063.019.068.053l1.156 8.805c.005.034-.019.063-.052.067h-.008Z"/><path fill="#fff" d="M47.03 83.81c-.199-1.137-.27-2.054-.218-2.748a3.808 3.808 0 0 1 .68-1.91 3.69 3.69 0 0 1 .827-.898c.322-.25.615-.516.874-.796.26-.279.465-.593.617-.941.15-.348.177-.8.081-1.36-.165-.947-.54-1.606-1.128-1.983a3.53 3.53 0 0 0-1.95-.564c-1.023 0-1.678.285-1.964.854-.286.569-.394 1.337-.322 2.3h-3.732c-.165-.946-.16-1.803.012-2.576.173-.77.5-1.428.972-1.968.475-.54 1.087-.955 1.836-1.243.75-.29 1.608-.434 2.573-.434 2.083 0 3.802.424 5.155 1.271 1.354.85 2.199 2.228 2.532 4.138.108.617.14 1.157.096 1.62-.045.463-.16.883-.345 1.258a4.302 4.302 0 0 1-.742 1.056c-.31.329-.665.665-1.068 1.013a6.591 6.591 0 0 0-.869.912 2.54 2.54 0 0 0-.439.883c-.082.31-.11.63-.091.97.02.338.067.72.142 1.142H47.03v.005Zm.862 5.585-.662-3.79h3.905l.662 3.79h-3.905Z"/><path fill="#DADCE3" d="M9.617 104.03a1.382 1.382 0 0 1 .981-1.692l19.076-5.073.71 2.674-19.075 5.073a1.387 1.387 0 0 1-1.692-.982Z"/><path fill="#F4F4F4" d="M48.032 97.182a9.47 9.47 0 1 0-18.416-4.426 9.47 9.47 0 0 0 18.416 4.426Z" opacity=".5"/><path fill="#DADCE3" d="M38.825 84.39c-5.844 0-10.582 4.737-10.582 10.58 0 5.845 4.738 10.582 10.582 10.582s10.581-4.737 10.581-10.581c-.002-5.844-4.737-10.582-10.581-10.582Zm0 19.444a8.862 8.862 0 0 1-8.863-8.863 8.862 8.862 0 0 1 8.863-8.863 8.862 8.862 0 0 1 8.863 8.863 8.865 8.865 0 0 1-8.863 8.863Z"/><path fill="#fff" d="M40.694 101.22a.59.59 0 0 1 .355-1.028 4.128 4.128 0 0 0 1.69-.477 4.016 4.016 0 0 0 1.121-.888c.204-.238.629-.73.785-1.462.216-1.017-.233-1.898-.437-2.23a.589.589 0 1 1 1.006-.616c.343.561.876 1.706.585 3.089-.218 1.027-.797 1.701-1.044 1.99-.276.318-.753.779-1.456 1.158a5.307 5.307 0 0 1-2.175.615.604.604 0 0 1-.43-.151Z"/><path fill="#E5E7ED" d="M22.243 98.707 9.32 102.24a1.968 1.968 0 1 0 1.013 3.806l13.092-3.482-1.18-3.857Z"/><path fill="#565656" d="M10.716 104.918a.058.058 0 0 1-.057-.045c-.01-.031.01-.065.043-.075l11.52-3.009c.033-.007.064.012.072.043a.06.06 0 0 1-.044.074l-11.52 3.01c-.004.002-.01.002-.014.002Z"/><path fill="#CCC" d="M33.576 86.642a.063.063 0 0 1-.05-.026.061.061 0 0 1 .016-.084 9.27 9.27 0 0 1 2.861-1.267c2.78-.699 5.208.103 6.41.64.032.015.044.05.032.08a.062.062 0 0 1-.08.03c-1.185-.532-3.585-1.324-6.33-.635a9.161 9.161 0 0 0-2.823 1.25.054.054 0 0 1-.036.012Z"/><path fill="#F1F4FA" d="M97.776 33.185c.108-.862.262-1.548.459-2.057.196-.509.513-.96.948-1.351.252-.235.528-.43.83-.586.302-.156.583-.324.842-.506.26-.182.488-.396.682-.638.194-.243.317-.576.37-1.001.088-.715-.046-1.241-.404-1.577-.36-.334-.808-.535-1.348-.605-.776-.098-1.335.05-1.683.447-.346.393-.602.952-.768 1.675l-2.827-.355a5.25 5.25 0 0 1 .595-1.908 4.195 4.195 0 0 1 1.186-1.366 4.415 4.415 0 0 1 1.675-.746c.634-.144 1.315-.168 2.047-.077 1.579.199 2.784.677 3.617 1.435.833.758 1.159 1.86.977 3.307a4.72 4.72 0 0 1-.298 1.21 3.257 3.257 0 0 1-.547.9c-.226.261-.494.499-.802.713-.309.213-.655.43-1.039.648a6.529 6.529 0 0 0-.864.592 2.396 2.396 0 0 0-.823 1.323 7.74 7.74 0 0 0-.154.861l-2.67-.338Zm-.619 4.222.36-2.873 2.959.372-.36 2.873-2.959-.372ZM87.211 27.566c-.11-.612-.153-1.11-.13-1.502.027-.389.145-.766.358-1.126.123-.213.27-.408.442-.578a5.22 5.22 0 0 0 .466-.526c.139-.18.247-.374.326-.58.08-.207.093-.461.038-.761-.093-.507-.297-.838-.614-.99a1.68 1.68 0 0 0-1.049-.122c-.55.101-.9.322-1.051.665-.151.344-.207.778-.163 1.306l-2.004.365a3.711 3.711 0 0 1-.003-1.428c.091-.444.262-.84.514-1.186s.58-.636.982-.869c.4-.233.861-.398 1.38-.492 1.118-.204 2.042-.137 2.774.202.73.338 1.188 1.02 1.375 2.045.06.33.08.628.058.888a2.308 2.308 0 0 1-.18.732c-.099.225-.23.446-.394.657-.165.212-.355.435-.569.665-.197.218-.35.415-.463.59a1.726 1.726 0 0 0-.278 1.078c.012.185.038.391.081.62l-1.896.347Zm.483 3.01-.372-2.035 2.097-.382.372 2.035-2.097.382Z"/></g><defs><clipPath id="a"><path fill="#fff" d="M0 0h120v120H0z"/></clipPath></defs></svg>