<svg xmlns="http://www.w3.org/2000/svg" width="22" height="23" fill="none"><path fill="#7E8695" d="M11 14.938c1.085 0 2.005-.378 2.762-1.135.756-.756 1.134-1.676 1.134-2.761 0-1.085-.378-2.005-1.134-2.761-.757-.757-1.677-1.135-2.762-1.135-1.084 0-2.005.378-2.761 1.135-.756.756-1.135 1.676-1.135 2.761 0 1.085.379 2.005 1.135 2.761.756.757 1.677 1.135 2.761 1.135Zm0-1.33c-.718 0-1.325-.248-1.822-.744-.496-.497-.744-1.104-.744-1.822s.248-1.325.744-1.822c.497-.496 1.104-.745 1.822-.745s1.326.249 1.822.745c.497.497.745 1.104.745 1.822s-.248 1.325-.745 1.822c-.496.496-1.104.745-1.822.745Zm0 4.309c-2.23 0-4.247-.634-6.05-1.902-1.802-1.268-3.147-2.926-4.033-4.973.886-2.047 2.23-3.705 4.033-4.973C6.753 4.801 8.77 4.167 11 4.167s4.248.634 6.05 1.902c1.803 1.268 3.148 2.926 4.034 4.973-.886 2.047-2.23 3.705-4.034 4.973-1.803 1.268-3.82 1.902-6.05 1.902Zm0-1.375c1.849 0 3.549-.5 5.1-1.501a9.74 9.74 0 0 0 3.54-3.999 9.74 9.74 0 0 0-3.54-3.999A9.216 9.216 0 0 0 11 5.542c-1.848 0-3.548.5-5.099 1.501a9.904 9.904 0 0 0-3.563 3.999A9.904 9.904 0 0 0 5.9 15.041c1.551 1 3.25 1.501 5.1 1.501Z"/></svg>