<svg width="24" height="24" fill="none" xmlns="http://www.w3.org/2000/svg"><path d="M7.07 15.441c0-.399-.277-.636-.765-.636-.2 0-.334.02-.405.038v1.279c.084.019.187.025.328.025.52 0 .842-.263.842-.706Zm3.02-.623c-.218 0-.36.019-.443.039v2.832c.084.02.219.02.34.02.887.006 1.465-.482 1.465-1.516.007-.9-.52-1.375-1.361-1.375Z" fill="#7E8695"/><path d="M15.703 0h-9.64A2.558 2.558 0 0 0 3.51 2.554V12h-.25c-.568 0-1.029.46-1.029 1.03v6.242c0 .569.461 1.029 1.03 1.029h.25v1.145A2.557 2.557 0 0 0 6.063 24h13.152a2.557 2.557 0 0 0 2.554-2.554v-15.4L15.703 0ZM4.931 14.156c.301-.051.725-.09 1.323-.09.604 0 1.034.116 1.323.347.276.218.462.578.462 1.002 0 .424-.14.784-.398 1.028-.334.314-.828.456-1.406.456-.129 0-.244-.007-.335-.02v1.549h-.97v-4.272Zm14.285 8.28H6.064a.99.99 0 0 1-.99-.99V20.3h12.261c.569 0 1.03-.46 1.03-1.03V13.03c0-.569-.461-1.029-1.03-1.029H5.075V2.554a.99.99 0 0 1 .989-.988l9.054-.01v3.347c0 .978.793 1.772 1.771 1.772l3.279-.01.037 14.78a.99.99 0 0 1-.989.99ZM8.665 18.408v-4.252c.36-.057.828-.09 1.323-.09.822 0 1.355.148 1.773.462.45.335.732.867.732 1.632 0 .829-.302 1.4-.72 1.754-.455.378-1.15.558-1.997.558-.508 0-.867-.032-1.111-.064Zm7.01-2.518v.797H14.12v1.74h-.982V14.1h2.646v.802H14.12v.99h1.555Z" fill="#7E8695"/></svg>