<svg width="24" height="24" fill="none" xmlns="http://www.w3.org/2000/svg"><g clip-path="url(#a)" fill="#7E8695"><path d="M15.466 18.742H8.532a.8.8 0 0 0 0 1.6h6.934a.8.8 0 0 0 0-1.6Zm0-2.523H8.532a.8.8 0 1 0 0 1.6h6.934a.8.8 0 0 0 0-1.6Z"/><path d="M22.133 6.277h-2.545v-4.63a.8.8 0 0 0-.8-.8H5.212a.8.8 0 0 0-.8.8v4.63H1.867C.837 6.277 0 7.114 0 8.143v8.049c0 1.03.837 1.867 1.867 1.867h2.545v4.294a.8.8 0 0 0 .8.8h13.576a.8.8 0 0 0 .8-.8V18.06h2.545c1.03 0 1.867-.838 1.867-1.867V8.143c0-1.029-.837-1.866-1.867-1.866Zm-16.12-3.83h11.975v3.83H6.012v-3.83Zm11.975 19.106H6.012v-6.545h11.976v6.545Zm.8-10.579H16.75a.8.8 0 0 1 0-1.6h2.037a.8.8 0 0 1 0 1.6Z"/></g><defs><clipPath id="a"><path fill="#fff" d="M0 0h24v24H0z"/></clipPath></defs></svg>