<svg width="20" height="20" viewBox="0 0 20 20" fill="none" xmlns="http://www.w3.org/2000/svg">
<path fill-rule="evenodd" clip-rule="evenodd" d="M2.5 10C2.5 9.83424 2.56585 9.67527 2.68306 9.55806C2.80027 9.44085 2.95924 9.375 3.125 9.375H16.875C17.0408 9.375 17.1997 9.44085 17.3169 9.55806C17.4342 9.67527 17.5 9.83424 17.5 10C17.5 10.1658 17.4342 10.3247 17.3169 10.4419C17.1997 10.5592 17.0408 10.625 16.875 10.625H3.125C2.95924 10.625 2.80027 10.5592 2.68306 10.4419C2.56585 10.3247 2.5 10.1658 2.5 10Z" fill="#5065E2"/>
<path fill-rule="evenodd" clip-rule="evenodd" d="M10.808 3.93299C10.9252 3.81582 11.0842 3.75 11.2499 3.75C11.4156 3.75 11.5746 3.81582 11.6918 3.93299L17.3168 9.55799C17.4339 9.6752 17.4998 9.83414 17.4998 9.99987C17.4998 10.1656 17.4339 10.3246 17.3168 10.4418L11.6918 16.0668C11.5739 16.1806 11.416 16.2436 11.2521 16.2422C11.0883 16.2408 10.9315 16.175 10.8156 16.0591C10.6997 15.9433 10.634 15.7865 10.6326 15.6226C10.6312 15.4588 10.6942 15.3009 10.808 15.183L15.9911 9.99987L10.808 4.81674C10.6908 4.69954 10.625 4.5406 10.625 4.37487C10.625 4.20914 10.6908 4.0502 10.808 3.93299Z" fill="#5065E2"/>
</svg>
