<svg width="48" height="48" fill="none" xmlns="http://www.w3.org/2000/svg"><circle cx="24" cy="24" r="24" fill="#FEF0D6"/><path d="M19.92 14.465a4.08 4.08 0 0 1 4.08 4.08v11.093a4.67 4.67 0 1 1-9.324-.393c-.972-1.044-1.585-3.086-1.585-4.79 0-2.322 1.138-4.58 2.772-5.467a4.08 4.08 0 0 1 4.056-4.523Z" stroke="#F68114" stroke-linecap="round" stroke-linejoin="round"/><path d="M18.019 21.761c-.6-.136-1.957-1.027-2.162-2.762M20.52 26.34c2.447-.274 3.416-2.856 3.48-3.907M15.925 26.797c-.61.482-1.096 1.572-1.253 2.446" stroke="#F68114" stroke-linecap="round" stroke-linejoin="round"/><path d="M28.08 14.465a4.08 4.08 0 0 0-4.08 4.08v11.093a4.67 4.67 0 1 0 9.323-.393c.972-1.044 1.585-3.086 1.585-4.79 0-2.322-1.138-4.58-2.771-5.467a4.08 4.08 0 0 0-4.057-4.523Z" stroke="#F68114" stroke-linecap="round" stroke-linejoin="round"/><path d="M29.98 21.761c.6-.136 1.957-1.027 2.162-2.762M27.479 26.34c-2.447-.274-3.417-2.856-3.48-3.907M32.074 26.797c.61.482 1.096 1.572 1.253 2.446" stroke="#F68114" stroke-linecap="round" stroke-linejoin="round"/></svg>