<svg width="48" height="48" fill="none" xmlns="http://www.w3.org/2000/svg"><circle cx="24" cy="24" r="24" fill="#DDF5D2"/><g clip-path="url(#a)" stroke="#5ABF35" stroke-linecap="round" stroke-linejoin="round"><path d="M33.429 12.857H14.572c-.947 0-1.715.767-1.715 1.714v18.857c0 .947.768 1.715 1.715 1.715h18.857c.947 0 1.714-.768 1.714-1.715V14.571c0-.947-.767-1.714-1.714-1.714Z"/><path d="M24 12.857v3.655a2.572 2.572 0 1 0 0 3.833v7.31a2.571 2.571 0 1 1 0 3.833v3.655"/><path d="M12.857 24h3.655a2.571 2.571 0 1 0 3.833 0h7.31a2.571 2.571 0 1 1 3.833 0h3.655"/></g><defs><clipPath id="a"><path fill="#fff" transform="translate(12 12)" d="M0 0h24v24H0z"/></clipPath></defs></svg>