<svg width="48" height="48" fill="none" xmlns="http://www.w3.org/2000/svg"><circle cx="24" cy="24" r="24" fill="#EEF9FF"/><path d="M33.733 21.242c3.429 4.828.806 10.359-.463 12.516a2.436 2.436 0 0 1-1.714 1.13c-2.486.428-8.674.907-12-3.92-3.274-4.555-3.137-12.568-2.846-16.386a1.796 1.796 0 0 1 1.598-1.714c.283-.032.57.004.836.105 3.686 1.061 11.366 3.715 14.589 8.27Z" stroke="#1489F6" stroke-linecap="round" stroke-linejoin="round"/><path d="M22.179 19.65a89.476 89.476 0 0 1 10.286 14.947" stroke="#1489F6" stroke-linecap="round" stroke-linejoin="round"/></svg>