<svg width="48" height="48" fill="none" xmlns="http://www.w3.org/2000/svg"><path d="M48 24c0 13.255-10.745 24-24 24S0 37.255 0 24 10.745 0 24 0s24 10.745 24 24Z" fill="#DDF5D2"/><path d="M34.286 15.429H13.715a.857.857 0 0 0-.858.857V30c0 .474.384.857.858.857h20.571a.857.857 0 0 0 .857-.857V16.286a.857.857 0 0 0-.857-.857ZM22.286 30.857l-1.715 4.286M25.715 30.857l1.714 4.286M18.857 35.143h10.286" stroke="#5ABF35" stroke-width="1.5" stroke-linecap="round" stroke-linejoin="round"/><path d="m19.715 21-3 2.571 2.571 2.143M28.715 21.429l2.571 2.143-3 2.571M22.715 27l2.571-7.714" stroke="#5ABF35" stroke-width="1.5" stroke-linecap="round" stroke-linejoin="round"/></svg>