<svg width="30" height="30" fill="none" xmlns="http://www.w3.org/2000/svg"><path d="M25.714 8.185h-2.93l-.365-.953-.257-.667-.205-.532-.619-1.606-.41-1.066-.256-.666-.344-.89 4.443-1.71a1.431 1.431 0 0 1 1.848.823l1.366 3.553a1.435 1.435 0 0 0-.819 1.847c.215.567.758.915 1.329.915l.519-.096.557 1.456-3.857-.408Z" fill="#F6BB42"/><path d="M25.262 9.562a.238.238 0 0 1-.222-.152l-2.643-6.868a.238.238 0 1 1 .444-.17l2.643 6.867a.238.238 0 0 1-.222.323Zm.9-.31a.238.238 0 0 1-.223-.153l-1.8-4.677a.238.238 0 0 1 .445-.17l1.8 4.676a.238.238 0 0 1-.223.323Z" fill="#EDAB37"/><path d="M23.81 21.518H1.428C.638 21.518 0 20.88 0 20.09v-3.81c.79 0 1.429-.638 1.429-1.428 0-.79-.638-1.429-1.429-1.429v-3.81c0-.79.638-1.428 1.429-1.428h22.38v13.333Z" fill="#AC92EC"/><path d="M23.81 20.09V8.185h4.762c.79 0 1.428.638 1.428 1.429v3.81c-.79 0-1.428.637-1.428 1.428 0 .79.637 1.428 1.428 1.428v3.81c0 .79-.638 1.428-1.428 1.428H23.81V20.09Z" fill="#FFCE54"/><path d="M6.214 8.185H3.735l16.593-6.382.344.891.257.667.41 1.066.618 1.606.205.532.621 1.62H6.214Z" fill="#967ADC"/><path d="M23.81 10.09a.238.238 0 0 1-.238-.239v-.714a.238.238 0 0 1 .476 0v.714a.238.238 0 0 1-.238.238Zm0 8.571a.238.238 0 0 1-.238-.238v-1.428a.238.238 0 0 1 .476 0v1.428a.238.238 0 0 1-.238.238Zm0-2.857a.238.238 0 0 1-.238-.238v-1.429a.238.238 0 1 1 .476 0v1.429a.238.238 0 0 1-.238.238Zm0-2.857a.238.238 0 0 1-.238-.238V11.28a.238.238 0 0 1 .476 0v1.429a.238.238 0 0 1-.238.238Zm0 7.857a.238.238 0 0 1-.238-.238v-.714a.238.238 0 1 1 .476 0v.714a.238.238 0 0 1-.238.238Z" fill="#AC92EC"/><path d="M25.714 20.328a.238.238 0 0 1-.238-.238V9.614a.238.238 0 0 1 .476 0V20.09a.238.238 0 0 1-.238.238Zm.953-2.381a.238.238 0 0 1-.239-.238v-5.714a.238.238 0 1 1 .477 0v5.714a.238.238 0 0 1-.238.238Z" fill="#F6BB42"/><path d="M6.919 19.375h-.005a.236.236 0 0 0-.235.239.24.24 0 0 0 .24.238.239.239 0 0 0 0-.477Zm3.09-4.761a.236.236 0 0 0-.235.238.24.24 0 0 0 .24.238.239.239 0 0 0 0-.476h-.005Zm1.91-4.763a.238.238 0 0 0 0-.476h-.005a.236.236 0 0 0-.235.238.24.24 0 0 0 .24.238Zm8.571.953a.238.238 0 0 0 0-.477h-.004a.236.236 0 0 0-.236.239.24.24 0 0 0 .24.238ZM16.2 15.09a.236.236 0 0 0-.235.238.24.24 0 0 0 .24.238.238.238 0 0 0 0-.476H16.2Zm-7.853 4.285h-.004a.236.236 0 0 0-.235.239.24.24 0 0 0 .24.238.239.239 0 0 0 0-.477Zm1.429 0h-.005a.236.236 0 0 0-.235.239.24.24 0 0 0 .24.238.239.239 0 0 0 0-.477Zm1.429 0H11.2a.236.236 0 0 0-.235.239.24.24 0 0 0 .24.238.238.238 0 0 0 0-.477Zm1.428 0h-.004a.236.236 0 0 0-.236.239.238.238 0 1 0 .24-.238Zm1.429 0h-.005a.236.236 0 0 0-.235.239.238.238 0 1 0 .24-.238Zm1.428 0h-.004a.236.236 0 0 0-.236.239.24.24 0 0 0 .24.238.239.239 0 0 0 0-.477Zm1.429 0h-.005a.236.236 0 0 0-.235.239.24.24 0 0 0 .24.238.238.238 0 0 0 0-.477Zm1.428 0h-.004a.236.236 0 0 0-.235.239.238.238 0 1 0 .24-.238Z" fill="#967ADC"/><path d="M6.429 13.9a.238.238 0 0 0 .476 0v-2.62h.714a.238.238 0 0 0 0-.476H5.714a.238.238 0 0 0 0 .476h.715v2.62Zm12.857-3.096H17.38a.238.238 0 1 0 0 .476h.714v2.619a.238.238 0 0 0 .476 0v-2.62h.715a.238.238 0 1 0 0-.475ZM8.57 14.137a.238.238 0 0 0 .239-.238v-2.857a.238.238 0 1 0-.477 0V13.9c0 .132.107.238.238.238Zm4.048 0a.238.238 0 0 0 .238-.238v-.873l.216-.287.77 1.283a.24.24 0 0 0 .436-.065.24.24 0 0 0-.027-.18l-.87-1.45.857-1.143a.238.238 0 0 0-.382-.285l-1 1.334v-1.19a.238.238 0 1 0-.476 0v2.856c0 .132.107.238.238.238Zm-1.905 0a.953.953 0 0 0 .953-.952.238.238 0 1 0-.476 0 .477.477 0 0 1-.953 0v-1.429a.476.476 0 0 1 .953 0 .238.238 0 0 0 .476 0 .953.953 0 0 0-1.905 0v1.429c0 .525.427.952.952.952Zm4.524 0h1.429a.238.238 0 0 0 0-.476h-1.19v-.952h.713a.238.238 0 0 0 0-.476h-.714v-.953h1.19a.238.238 0 0 0 0-.476h-1.428a.238.238 0 0 0-.238.238V13.9c0 .132.107.238.238.238Z" fill="#F5F7FA"/><path d="M18.571 16.518H6.667a.238.238 0 0 0 0 .476H18.57a.238.238 0 1 0 0-.476Zm-3.095 1.19a.238.238 0 0 0-.238-.237H10a.238.238 0 0 0 0 .476h5.238a.238.238 0 0 0 .238-.238Zm5.476-4.047h-.238v-.238a.238.238 0 0 0-.476 0v.238H20a.238.238 0 0 0 0 .476h.238v.239a.238.238 0 0 0 .476 0v-.239h.238a.238.238 0 0 0 0-.476Zm-16.666-2.38h-.238v-.239a.238.238 0 0 0-.477 0v.238h-.238a.238.238 0 0 0 0 .476h.238v.238a.238.238 0 0 0 .477 0v-.238h.238a.238.238 0 0 0 0-.476Zm16.643-7.682a.24.24 0 0 1-.223-.152l-.257-.667a.238.238 0 0 1 .444-.171l.258.666a.238.238 0 0 1-.222.324Zm.82 2.135a.238.238 0 0 1-.221-.152l-.412-1.069a.236.236 0 0 1 .137-.308.238.238 0 0 1 .307.137l.412 1.069a.238.238 0 0 1-.222.323Zm.67 1.736a.239.239 0 0 1-.223-.152l-.256-.666a.238.238 0 1 1 .444-.172l.257.667a.239.239 0 0 1-.111.296.238.238 0 0 1-.111.027Z" fill="#967ADC"/></svg>