<svg width="48" height="48" viewBox="0 0 48 48" fill="none" xmlns="http://www.w3.org/2000/svg">
<circle cx="24" cy="24" r="24" fill="white"/>
<path d="M33 24C32.8011 24 32.6103 24.079 32.4697 24.2197C32.329 24.3603 32.25 24.5511 32.25 24.75V31.5C32.25 31.6989 32.171 31.8897 32.0303 32.0303C31.8897 32.171 31.6989 32.25 31.5 32.25H16.5C16.3011 32.25 16.1103 32.171 15.9697 32.0303C15.829 31.8897 15.75 31.6989 15.75 31.5V16.5C15.75 16.3011 15.829 16.1103 15.9697 15.9697C16.1103 15.829 16.3011 15.75 16.5 15.75H23.25C23.4489 15.75 23.6397 15.671 23.7803 15.5303C23.921 15.3897 24 15.1989 24 15C24 14.8011 23.921 14.6103 23.7803 14.4697C23.6397 14.329 23.4489 14.25 23.25 14.25H16.5C15.9033 14.25 15.331 14.4871 14.909 14.909C14.4871 15.331 14.25 15.9033 14.25 16.5V31.5C14.25 32.0967 14.4871 32.669 14.909 33.091C15.331 33.5129 15.9033 33.75 16.5 33.75H31.5C32.0967 33.75 32.669 33.5129 33.091 33.091C33.5129 32.669 33.75 32.0967 33.75 31.5V24.75C33.75 24.5511 33.671 24.3603 33.5303 24.2197C33.3897 24.079 33.1989 24 33 24Z" fill="#5065E2"/>
<path d="M32.9992 14.25H27.7492C27.5502 14.25 27.3595 14.329 27.2188 14.4697C27.0782 14.6103 26.9992 14.8011 26.9992 15C26.9992 15.1989 27.0782 15.3897 27.2188 15.5303C27.3595 15.671 27.5502 15.75 27.7492 15.75H31.1917L19.7167 27.2175C19.5754 27.3587 19.4961 27.5503 19.4961 27.75C19.4961 27.9497 19.5754 28.1413 19.7167 28.2825C19.8579 28.4237 20.0494 28.5031 20.2492 28.5031C20.4489 28.5031 20.6404 28.4237 20.7817 28.2825L32.2492 16.8075V20.25C32.2492 20.4489 32.3282 20.6397 32.4688 20.7803C32.6095 20.921 32.8002 21 32.9992 21C33.1981 21 33.3888 20.921 33.5295 20.7803C33.6701 20.6397 33.7492 20.4489 33.7492 20.25V15C33.7492 14.8011 33.6701 14.6103 33.5295 14.4697C33.3888 14.329 33.1981 14.25 32.9992 14.25Z" fill="#5065E2"/>
</svg>
