<svg width="48" height="48" fill="none" xmlns="http://www.w3.org/2000/svg"><circle cx="24" cy="24" r="24" fill="#5ABF35"/><path d="M34.286 15.429H13.715a.857.857 0 0 0-.858.857V30c0 .474.384.857.858.857h20.571a.857.857 0 0 0 .857-.857V16.286a.857.857 0 0 0-.857-.857ZM22.286 30.857l-1.715 4.286M25.715 30.857l1.714 4.286M18.857 35.143h10.286" stroke="#fff" stroke-width="1.5" stroke-linecap="round" stroke-linejoin="round"/><path d="m19.715 21-3 2.571 2.571 2.143M28.715 21.429l2.571 2.143-3 2.571M22.715 27l2.571-7.714" stroke="#fff" stroke-width="1.5" stroke-linecap="round" stroke-linejoin="round"/></svg>