<svg width="48" height="48" viewBox="0 0 48 48" fill="none" xmlns="http://www.w3.org/2000/svg">
<circle cx="24" cy="24" r="24" fill="white"/>
<g clip-path="url(#clip0_344_1149)">
<path d="M34.1511 27.0173C33.8209 27.0173 33.5533 27.2848 33.5533 27.615V32.9221C33.5521 33.9121 32.7501 34.7144 31.7602 34.7153H14.9886C13.9986 34.7144 13.1966 33.9121 13.1954 32.9221V17.346C13.1966 16.3563 13.9987 15.5541 14.9886 15.5529H20.2958C20.6259 15.5529 20.8935 15.2853 20.8935 14.9551C20.8935 14.6252 20.6259 14.3574 20.2958 14.3574H14.9886C13.3388 14.3593 12.0019 15.6962 12 17.346V32.9224C12.0019 34.5722 13.3388 35.9091 14.9886 35.911H31.7602C33.4099 35.9091 34.7469 34.5722 34.7488 32.9224V27.615C34.7488 27.2848 34.4812 27.0173 34.1511 27.0173Z" fill="#5065E2"/>
<path d="M34.5121 12.8191C33.4616 11.7686 31.7585 11.7686 30.7082 12.8191L20.0443 23.4829C19.9713 23.5559 19.9184 23.6465 19.8909 23.746L18.4886 28.8087C18.4603 28.9107 18.4595 29.0183 18.4865 29.1206C18.5134 29.2229 18.567 29.3162 18.6417 29.3911C18.7165 29.4659 18.8099 29.5195 18.9122 29.5464C19.0145 29.5734 19.1221 29.5727 19.224 29.5444L24.2867 28.1419C24.3862 28.1143 24.4769 28.0615 24.5499 27.9885L35.2134 17.3245C36.2622 16.2733 36.2622 14.5717 35.2134 13.5205L34.5121 12.8191ZM21.3467 23.8714L30.0742 15.1437L32.8889 17.9584L24.1612 26.6861L21.3467 23.8714ZM20.7844 24.9996L23.0331 27.2486L19.9226 28.1104L20.7844 24.9996ZM34.3683 16.4792L33.7343 17.1131L30.9194 14.2981L31.5536 13.6643C32.1371 13.0808 33.0832 13.0808 33.6666 13.6643L34.3683 14.3656C34.9508 14.9498 34.9508 15.8953 34.3683 16.4792Z" fill="#5065E2"/>
</g>
<defs>
<clipPath id="clip0_344_1149">
<rect width="24" height="24" fill="white" transform="translate(12 12)"/>
</clipPath>
</defs>
</svg>
