<svg width="478" height="414" viewBox="0 0 478 414" fill="none" xmlns="http://www.w3.org/2000/svg">
<path d="M176.511 -36.6802C179.451 -38.3772 183.072 -38.3772 186.011 -36.6802L332.988 48.1769C335.927 49.8739 337.738 53.0101 337.738 56.4041V226.118C337.738 229.512 335.927 232.649 332.988 234.346L186.011 319.203C183.072 320.9 179.451 320.9 176.511 319.203L29.5344 234.346C26.5951 232.649 24.7844 229.512 24.7844 226.118V56.4041C24.7844 53.0101 26.5951 49.8739 29.5344 48.1769L176.511 -36.6802Z" stroke="black" stroke-opacity="0.15"/>
<path d="M341.171 54.7974C344.11 53.1004 347.732 53.1004 350.671 54.7974L497.648 139.654C500.587 141.351 502.398 144.488 502.398 147.882V317.596C502.398 320.99 500.587 324.126 497.648 325.823L350.671 410.68C347.732 412.377 344.11 412.377 341.171 410.68L194.194 325.823C191.255 324.126 189.444 320.99 189.444 317.596V147.882C189.444 144.488 191.255 141.351 194.194 139.654L341.171 54.7974Z" stroke="black" stroke-opacity="0.15"/>
</svg>
