<svg width="174" height="50" viewBox="0 0 174 50" fill="none" xmlns="http://www.w3.org/2000/svg">
<path d="M2.176 43.8787L0.525539 45.7564L4.28106 49.0574L5.93152 47.1796L2.176 43.8787ZM95.3791 20.2376L94.1919 22.4377L95.3791 20.2376ZM99.116 45.2466L99.9986 47.5856L100.091 47.5507L100.181 47.5086L99.116 45.2466ZM85.5364 19.2427L84.1879 17.1376L84.0334 17.2366L83.8949 17.3571L85.5364 19.2427ZM173.657 24.6033L157.702 0.545532L144.845 26.3918L173.657 24.6033ZM5.93152 47.1796C7.17459 45.7653 8.60059 44.2575 10.1937 42.6961L6.6938 39.1252C5.01797 40.7678 3.5061 42.3654 2.176 43.8787L5.93152 47.1796ZM19.6086 34.527C22.7613 32.0964 26.2138 29.7074 29.9088 27.4916L27.3373 23.2035C23.4628 25.527 19.85 28.0274 16.5557 30.5673L19.6086 34.527ZM40.9579 21.7965C44.718 20.1715 48.6283 18.8 52.6455 17.7787L51.4136 12.9329C47.1126 14.0263 42.9512 15.4882 38.9745 17.2067L40.9579 21.7965ZM64.7665 15.8738C68.777 15.6448 72.8479 15.8241 76.9449 16.4964L77.7546 11.5624C73.2731 10.827 68.8341 10.6334 64.4814 10.8819L64.7665 15.8738ZM88.6539 19.8157C90.4989 20.5705 92.346 21.4417 94.1919 22.4377L96.5663 18.0375C94.5655 16.9578 92.5579 16.0106 90.5471 15.188L88.6539 19.8157ZM94.1919 22.4377C94.0552 22.3639 94.1223 22.3868 94.4987 22.6983C94.8017 22.9492 95.2108 23.3079 95.6904 23.7599C96.6506 24.6648 97.8537 25.9061 99.0229 27.3491L102.908 24.2014C101.574 22.5553 100.212 21.1511 99.1196 20.1212C98.5726 19.6057 98.0831 19.1746 97.687 18.8467C97.3641 18.5795 96.9316 18.2346 96.5663 18.0375L94.1919 22.4377ZM102.739 39.0413C102.103 40.3007 100.763 41.7081 98.0513 42.9847L100.181 47.5086C103.59 45.9038 105.926 43.8203 107.202 41.2965L102.739 39.0413ZM98.2334 42.9076C97.0397 43.3581 95.5342 43.557 93.8384 43.4523L93.5302 48.4428C95.7571 48.5803 97.9976 48.3407 99.9986 47.5856L98.2334 42.9076ZM84.8601 40.2606C82.1535 38.3319 80.4642 35.8307 80.2787 33.0634L75.2899 33.3978C75.6058 38.1109 78.4532 41.8348 81.9585 44.3325L84.8601 40.2606ZM83.5959 24.7707C84.5439 23.6097 85.7255 22.3926 87.1778 21.1284L83.8949 17.3571C82.2593 18.7809 80.8738 20.199 79.723 21.6083L83.5959 24.7707ZM86.8848 21.3479C88.0462 20.604 90.1424 19.7848 93.1649 19.0243L91.9449 14.1754C88.7673 14.9749 86.0403 15.951 84.1879 17.1376L86.8848 21.3479ZM107.676 16.7723C112.262 16.3709 117.289 16.16 122.517 16.1956L122.551 11.1958C117.17 11.1591 111.987 11.3759 107.24 11.7913L107.676 16.7723ZM137.355 16.9716C142.323 17.4683 147.256 18.2161 151.971 19.2541L153.046 14.3711C148.113 13.285 142.984 12.5095 137.852 11.9964L137.355 16.9716Z" fill="white"/>
</svg>
