<svg width="269" height="537" viewBox="0 0 269 537" fill="none" xmlns="http://www.w3.org/2000/svg">
<mask id="path-1-inside-1_483_2202" fill="white">
<path d="M397.604 503.842C361.586 523.579 321.514 534.773 280.482 536.561C239.45 538.349 198.556 530.682 160.958 514.153C123.359 497.624 90.0634 472.675 63.6406 441.231C37.2178 409.788 18.3752 372.693 8.56797 332.81C-1.23927 292.927 -1.7487 251.324 7.07892 211.213C15.9066 171.101 33.8351 133.556 59.4801 101.475C85.125 69.3944 117.8 43.637 154.982 26.1921C192.164 8.74714 232.858 0.0813604 273.922 0.863971L271.943 104.688C246.791 104.208 221.864 109.516 199.089 120.202C176.314 130.887 156.3 146.664 140.592 166.315C124.883 185.965 113.902 208.963 108.494 233.532C103.087 258.101 103.399 283.584 109.407 308.014C115.414 332.443 126.955 355.165 143.14 374.425C159.325 393.685 179.72 408.967 202.749 419.092C225.779 429.216 250.828 433.912 275.961 432.817C301.095 431.722 325.64 424.865 347.702 412.776L397.604 503.842Z"/>
</mask>
<path d="M397.604 503.842C361.586 523.579 321.514 534.773 280.482 536.561C239.45 538.349 198.556 530.682 160.958 514.153C123.359 497.624 90.0634 472.675 63.6406 441.231C37.2178 409.788 18.3752 372.693 8.56797 332.81C-1.23927 292.927 -1.7487 251.324 7.07892 211.213C15.9066 171.101 33.8351 133.556 59.4801 101.475C85.125 69.3944 117.8 43.637 154.982 26.1921C192.164 8.74714 232.858 0.0813604 273.922 0.863971L271.943 104.688C246.791 104.208 221.864 109.516 199.089 120.202C176.314 130.887 156.3 146.664 140.592 166.315C124.883 185.965 113.902 208.963 108.494 233.532C103.087 258.101 103.399 283.584 109.407 308.014C115.414 332.443 126.955 355.165 143.14 374.425C159.325 393.685 179.72 408.967 202.749 419.092C225.779 429.216 250.828 433.912 275.961 432.817C301.095 431.722 325.64 424.865 347.702 412.776L397.604 503.842Z" stroke="#2D2C2B" stroke-opacity="0.2" stroke-width="2" mask="url(#path-1-inside-1_483_2202)"/>
</svg>
