<svg width="301" height="301" viewBox="0 0 301 301" fill="none" xmlns="http://www.w3.org/2000/svg">
<mask id="path-1-inside-1_483_2092" fill="white">
<path d="M222.711 282.173C150.061 321.983 58.8939 295.361 19.0834 222.711C-20.7271 150.061 5.8946 58.8938 78.5447 19.0833C151.195 -20.7272 242.362 5.89455 282.173 78.5446C321.983 151.195 295.361 242.362 222.711 282.173ZM106.475 70.0532C61.9748 94.4383 45.6682 150.281 70.0533 194.781C94.4383 239.281 150.281 255.588 194.781 231.203C239.281 206.818 255.588 150.975 231.203 106.475C206.818 61.9747 150.975 45.6681 106.475 70.0532Z"/>
</mask>
<path d="M222.711 282.173C150.061 321.983 58.8939 295.361 19.0834 222.711C-20.7271 150.061 5.8946 58.8938 78.5447 19.0833C151.195 -20.7272 242.362 5.89455 282.173 78.5446C321.983 151.195 295.361 242.362 222.711 282.173ZM106.475 70.0532C61.9748 94.4383 45.6682 150.281 70.0533 194.781C94.4383 239.281 150.281 255.588 194.781 231.203C239.281 206.818 255.588 150.975 231.203 106.475C206.818 61.9747 150.975 45.6681 106.475 70.0532Z" stroke="#2D2C2B" stroke-opacity="0.2" stroke-width="2" mask="url(#path-1-inside-1_483_2092)"/>
</svg>
