<svg width="200" height="34" viewBox="0 0 200 34" fill="none" xmlns="http://www.w3.org/2000/svg">
<g clip-path="url(#clip0_608_5475)">
<path d="M18.391 2.91793C18.1165 2.25913 18.1165 2.25913 17.6224 2.80813C17.0185 3.52182 16.5244 4.34532 16.1401 5.22372C16.0303 5.49822 15.8656 5.77272 15.7558 6.10212C15.2617 7.20011 14.8774 8.29811 14.548 9.451C14.1088 10.9882 13.7245 12.5803 13.5598 14.2273C13.5049 14.7214 13.1755 14.941 12.6814 14.8312C11.4736 14.5567 10.3207 14.5567 9.11294 14.8312C8.61884 14.941 8.34435 14.7214 8.23455 14.2273C8.17965 13.843 8.12475 13.4038 8.06985 13.0195C7.85025 11.8117 7.57575 10.6039 7.24635 9.451C6.80715 8.02361 6.31305 6.65111 5.65426 5.33352C5.48956 5.00412 5.32486 4.72962 5.16016 4.40022C4.83076 3.74142 4.39156 3.08263 3.84256 2.47873C3.67786 2.31403 3.62296 2.31403 3.51316 2.53363C2.90926 3.85122 2.63477 5.22372 2.63477 6.81581C2.63477 7.03541 2.63477 7.41971 2.68967 7.80401C2.96416 10.2196 3.89746 12.3607 5.21506 14.2822C5.32486 14.4469 5.43466 14.6116 5.54446 14.7763C5.70916 14.9959 5.81895 15.1057 6.03855 14.8312C6.14835 14.7214 6.25815 14.6665 6.36795 14.6116C6.64245 14.4469 6.97185 14.5018 7.19145 14.7214C7.41105 14.941 7.41105 15.2704 7.19145 15.5449C7.08165 15.6547 6.97185 15.7645 6.86205 15.8743C6.09345 16.6978 5.48956 17.5762 5.21506 18.5095C4.99546 19.2232 4.88566 20.0467 4.99546 20.8702C5.05036 21.1447 5.10526 21.2545 5.37976 21.3643C5.59936 21.4192 5.81895 21.529 6.03855 21.5839C7.30125 21.9133 8.61885 22.0231 9.99134 22.078C10.0462 22.078 10.156 22.078 10.156 21.9682C10.156 21.8584 10.156 21.8035 10.0462 21.7486C9.93644 21.6937 9.88154 21.6937 9.77174 21.6388C9.22274 21.3094 9.16784 20.7604 9.66194 20.3761C10.2109 19.9369 10.8697 19.882 11.4736 20.1565C11.8579 20.3212 12.1873 20.5408 12.1873 20.98C12.1873 21.4192 11.9128 21.6388 11.5285 21.7486C11.4187 21.8035 11.3638 21.8584 11.4187 21.9682C11.4187 22.1329 11.5285 22.078 11.6383 22.078C12.1324 22.078 12.6265 22.0231 13.1206 22.0231C13.999 21.9682 14.9323 21.8035 15.7558 21.529C15.9205 21.4741 16.0852 21.4192 16.2499 21.3643C16.4695 21.3094 16.5244 21.1447 16.5793 20.9251C16.6891 20.1016 16.6342 19.3879 16.4695 18.6742C16.195 17.5762 15.5911 16.6429 14.7127 15.7645C14.6029 15.6547 14.4931 15.5449 14.4382 15.4351C14.2735 15.1606 14.3284 14.8861 14.4931 14.6665C14.7127 14.4469 14.9872 14.392 15.2617 14.5018C15.4264 14.5567 15.5362 14.6665 15.7009 14.7763C15.8656 14.941 15.9754 14.941 16.0852 14.7214C16.2499 14.5018 16.3597 14.3371 16.5244 14.1175C17.4577 12.745 18.1714 11.3176 18.6655 9.6706C18.8851 8.90201 18.9949 8.18831 19.0498 7.47461C19.2145 6.04722 18.9949 4.45512 18.391 2.91793ZM8.45415 19.9369C8.17965 20.3212 7.74045 20.3212 7.41105 19.9369C7.24635 19.7173 7.13655 19.3879 7.13655 19.0036C7.13655 18.7291 7.19145 18.3997 7.41105 18.1252C7.68555 17.7409 8.12475 17.7958 8.39925 18.1252C8.78354 18.6193 8.78354 19.4428 8.45415 19.9369ZM14.548 19.0585C14.548 19.3879 14.4931 19.6624 14.2735 19.9369C13.999 20.3212 13.5598 20.3212 13.2304 19.9369C12.901 19.4977 12.901 18.6193 13.2304 18.1801C13.5049 17.7958 13.9441 17.7958 14.2735 18.1801C14.4931 18.3997 14.548 18.7291 14.548 19.0585Z" fill="white"/>
<path d="M13.2861 18.1788C12.9567 18.618 12.9567 19.4964 13.2861 19.9356C13.5606 20.3199 13.9998 20.3199 14.3292 19.9356C14.5488 19.6611 14.6037 19.3866 14.6037 19.0572C14.6037 18.7278 14.5488 18.4533 14.3292 18.1788C13.9998 17.7946 13.5606 17.7946 13.2861 18.1788Z" fill="#1489F6"/>
<path d="M7.41122 18.1253C7.19162 18.3998 7.13672 18.6743 7.13672 19.0037C7.13672 19.388 7.24652 19.7174 7.41122 19.937C7.68572 20.3213 8.12492 20.3213 8.45431 19.937C8.78371 19.4978 8.78371 18.6194 8.45431 18.1802C8.17981 17.7959 7.74062 17.7959 7.41122 18.1253Z" fill="#1489F6"/>
<path d="M21.7403 16.3678C21.7403 13.7875 21.2462 11.317 20.1482 9.28573C20.258 8.68183 20.3678 8.13283 20.3678 7.52894C20.5325 5.33294 20.0933 3.24675 19.0502 1.27036C18.8306 0.886058 18.5561 0.776258 18.1169 0.886058C17.5679 0.995858 17.1287 1.38016 16.7993 1.81935C16.0307 2.69775 15.4817 3.68595 14.9876 4.72904C13.8348 4.28985 12.5172 4.07025 11.0898 4.07025C9.49767 4.07025 8.07027 4.34475 6.86248 4.83884C6.42328 3.85065 5.87428 2.91735 5.16058 2.09385C4.77628 1.65466 4.39198 1.21546 3.84299 0.995858C3.23909 0.721359 2.96459 0.831158 2.63519 1.38016C1.3725 3.74085 1.098 6.32114 1.53719 8.95633C1.53719 9.12103 1.59209 9.28573 1.64699 9.45043C0.548998 11.5366 0 13.9522 0 16.3129C0 23.2303 3.18419 28.9948 10.7055 28.9948C11.9682 28.9948 13.0662 28.8301 14.1093 28.5556L20.5874 33.222L23.2775 29.7634L18.2267 26.2498C20.5874 23.8891 21.7403 20.3755 21.7403 16.3678ZM11.7486 22.0774C11.6388 22.0774 11.529 22.1323 11.529 21.9676C11.529 21.8578 11.529 21.8029 11.6388 21.748C12.0231 21.6382 12.2976 21.4186 12.2976 20.9794C12.2976 20.5402 11.9133 20.3206 11.5839 20.1559C10.9251 19.8814 10.3212 19.9363 9.77217 20.3755C9.27807 20.7598 9.33297 21.3088 9.88196 21.6382C9.93686 21.6931 10.0467 21.748 10.1565 21.748C10.2663 21.8029 10.2663 21.8578 10.2663 21.9676C10.2663 22.0774 10.1565 22.0774 10.1016 22.0774C8.78397 22.0225 7.46637 21.9676 6.14878 21.5833C5.92918 21.5284 5.70958 21.4735 5.48998 21.3637C5.27038 21.2539 5.16058 21.1441 5.10568 20.8696C4.99588 19.9912 5.10568 19.2226 5.32528 18.5089C5.59978 17.5207 6.20368 16.6423 6.97228 15.8737C7.08207 15.7639 7.19187 15.6541 7.30167 15.5443C7.52127 15.2698 7.46637 14.9404 7.30167 14.7208C7.08208 14.5012 6.75268 14.4463 6.47818 14.611C6.36838 14.6659 6.25858 14.7208 6.14878 14.8306C5.92918 15.0502 5.81938 14.9953 5.65468 14.7757C5.54488 14.611 5.43508 14.4463 5.32528 14.2816C3.89789 12.3601 2.96459 10.219 2.69009 7.80343C2.63519 7.41914 2.63519 7.03484 2.63519 6.81524C2.63519 5.22314 2.90969 3.85065 3.51359 2.53305C3.62339 2.31345 3.67829 2.31345 3.84299 2.47815C4.39198 3.02715 4.83118 3.74085 5.21548 4.39965C5.38018 4.67414 5.54488 5.00354 5.65468 5.27804C6.31348 6.59564 6.80758 7.96813 7.24677 9.39553C7.57617 10.5484 7.85067 11.7562 8.07027 12.964C8.12517 13.3483 8.18007 13.7875 8.23497 14.1718C8.28987 14.6659 8.61927 14.8855 9.11337 14.7757C10.3212 14.5012 11.4741 14.5012 12.6819 14.7757C13.176 14.8855 13.5054 14.6659 13.5603 14.1718C13.7799 12.5248 14.1093 10.9327 14.5484 9.39553C14.8778 8.24263 15.317 7.14464 15.7562 6.04664C15.866 5.77214 16.0307 5.49764 16.1405 5.16824C16.5248 4.28985 17.0189 3.46635 17.6228 2.75265C18.062 2.20365 18.1169 2.20365 18.3914 2.86245C19.0502 4.39965 19.2149 5.99174 19.0502 7.58384C18.9953 8.29753 18.8306 9.06613 18.6659 9.77983C18.2267 11.3719 17.513 12.8542 16.5248 14.2267C16.3601 14.4463 16.2503 14.611 16.0856 14.8306C15.9209 15.0502 15.866 14.9953 15.7013 14.8855C15.5915 14.7757 15.4268 14.6659 15.2621 14.611C14.9876 14.4463 14.7131 14.5561 14.4935 14.7757C14.3288 14.9953 14.2739 15.2698 14.4386 15.5443C14.4935 15.6541 14.6033 15.7639 14.7131 15.8737C15.5915 16.7521 16.1954 17.6854 16.4699 18.7834C16.6346 19.4971 16.6895 20.2108 16.5797 21.0343C16.5248 21.2539 16.4699 21.3637 16.2503 21.4735C16.0856 21.5284 15.9209 21.5833 15.7562 21.6382C14.8778 21.9127 13.9995 22.0225 13.1211 22.1323C12.6819 22.0774 12.1878 22.0774 11.7486 22.0774ZM10.8153 7.96813C11.8584 7.96813 12.6819 8.18773 13.4505 8.57203C12.9564 10.0543 12.627 11.5915 12.4074 13.1287C12.3525 13.3483 12.3525 13.4581 12.078 13.4032C11.3094 13.2934 10.4859 13.2934 9.71727 13.4032C9.49767 13.4581 9.44277 13.3483 9.38787 13.1836C9.16827 11.6464 8.78397 10.1092 8.28987 8.62693C9.00357 8.18773 9.82707 7.96813 10.8153 7.96813Z" fill="#1489F6"/>
<path d="M40.7357 10.2734H35.9045V20.4848C35.9045 23.7239 34.6967 24.9317 32.6654 24.9317C30.689 24.9317 29.9753 23.6141 29.9753 21.6926V10.2734H25.2539V22.5161C25.2539 26.6336 27.2303 28.9394 30.9086 28.9394C33.1595 28.9394 34.8065 28.3355 35.9594 26.414C36.0143 27.2924 36.0143 28.061 36.1241 28.61H40.7906C40.7357 27.6767 40.7357 25.8101 40.7357 23.1749V10.2734Z" fill="#1489F6"/>
<path d="M50.1242 10.2734H45.293V28.61H50.1242V10.2734Z" fill="#1489F6"/>
<path d="M50.1242 2.86328H45.293V7.31017H50.1242V2.86328Z" fill="#1489F6"/>
<path d="M61.9268 25.3173C59.7308 25.3173 58.4681 23.6154 58.4681 19.3332C58.4681 15.9843 59.4563 13.6236 62.0366 13.6236C64.1228 13.6236 64.8914 15.1608 65.0561 16.8078H69.8324C69.7226 14.2824 68.1305 9.94531 62.1464 9.94531C56.8211 9.94531 53.582 13.6785 53.582 19.4979C53.582 25.482 56.2172 28.9955 61.817 28.9955C66.9776 28.9955 69.2834 25.9761 69.8324 22.2429H65.0561C64.6718 23.9448 64.013 25.3173 61.9268 25.3173Z" fill="#1489F6"/>
<path d="M89.1581 10.2748H83.723C81.5819 13.1295 79.1664 16.2588 77.8488 17.9058V2.86328H73.0176V28.6662H77.8488V22.8468C77.9586 22.737 79.8252 20.7057 79.935 20.5959C81.1977 23.0115 82.9544 26.3055 84.1622 28.6113H89.7071C87.6209 24.9879 85.1504 20.7057 83.1191 17.4117C85.0406 15.1059 87.4013 12.4158 89.1581 10.2748Z" fill="#1489F6"/>
<path d="M118.145 10.9337C118.145 6.65149 114.851 4.3457 110.294 4.3457H100.412V28.6114H105.298V18.6197H108.592C111.776 18.6197 112.765 19.6078 112.765 22.3528V23.0116C112.765 25.9762 112.874 27.6232 113.204 28.6663H117.98C117.76 27.2938 117.651 25.2625 117.651 23.1214V22.5175C117.651 19.498 116.772 17.5766 114.357 16.6433C116.388 15.8198 118.145 14.2277 118.145 10.9337ZM108.922 14.6669H105.243V8.29849H109.635C111.612 8.29849 113.259 9.12199 113.259 11.3729C113.204 14.063 111.282 14.6669 108.922 14.6669Z" fill="#1489F6"/>
<path d="M136.646 15.9843C136.646 11.4276 133.736 9.94531 129.399 9.94531C123.799 9.94531 122.043 12.9099 121.823 15.7647H126.49C126.654 14.3922 127.148 13.3491 129.289 13.3491C131.431 13.3491 131.925 14.502 131.925 16.0392V17.3019C131.101 17.3019 130.333 17.3019 129.784 17.3019C123.415 17.3019 121.109 20.0469 121.109 23.3409C121.109 26.0859 122.701 28.9406 127.258 28.9406C129.893 28.9406 131.65 27.8975 132.419 26.4153C132.474 26.9643 132.583 28.0622 132.693 28.6112H136.921C136.756 27.2937 136.646 25.0977 136.646 23.835V15.9843ZM132.089 20.8155C132.089 23.3958 131.431 25.3173 128.521 25.3173C126.709 25.3173 125.941 24.2193 125.941 23.0115C125.941 21.8037 126.544 20.4312 129.838 20.4312C130.717 20.4312 131.431 20.4312 132.089 20.4312V20.8155Z" fill="#1489F6"/>
<path d="M151.083 9.94536C148.229 9.94536 146.801 11.1532 146.033 12.306V2.86328H141.201V23.0664C141.201 24.933 141.146 27.4584 141.146 28.6662H145.813C145.868 28.0623 145.923 27.4584 145.923 26.9094C146.527 27.8976 147.734 28.9956 150.37 28.9956C155.53 28.9956 158.111 24.8232 158.111 18.894C158.165 14.0079 155.805 9.94536 151.083 9.94536ZM149.491 25.0977C146.691 25.0977 145.703 23.1213 145.703 19.3332C145.703 15.8196 146.582 13.8981 149.491 13.8981C152.126 13.8981 153.279 16.0941 153.279 19.1136C153.279 22.737 152.072 25.0977 149.491 25.0977Z" fill="#1489F6"/>
<path d="M171.507 9.94536C168.652 9.94536 167.225 11.1532 166.456 12.306V2.86328H161.625V23.0664C161.625 24.933 161.57 27.4584 161.57 28.6662H166.237C166.292 28.0623 166.347 27.4584 166.347 26.9094C166.951 27.8976 168.158 28.9956 170.793 28.9956C175.954 28.9956 178.534 24.8232 178.534 18.894C178.589 14.0079 176.229 9.94536 171.507 9.94536ZM169.97 25.0977C167.17 25.0977 166.182 23.1213 166.182 19.3332C166.182 15.8196 167.06 13.8981 169.97 13.8981C172.605 13.8981 173.758 16.0941 173.758 19.1136C173.758 22.737 172.55 25.0977 169.97 25.0977Z" fill="#1489F6"/>
<path d="M186.935 2.86328H182.104V7.31017H186.935V2.86328Z" fill="#1489F6"/>
<path d="M186.935 10.2734H182.104V28.61H186.935V10.2734Z" fill="#1489F6"/>
<path d="M196.706 5.27734H191.93V10.2732H189.35V14.0064H191.93V23.9433C191.93 27.3471 193.138 28.7745 196.651 28.7745C197.31 28.7745 198.683 28.7196 199.616 28.4451V25.0962C199.122 25.1511 198.957 25.1511 198.518 25.1511C197.036 25.1511 196.706 24.6021 196.706 23.3943V14.0064H200V10.2732H196.706V5.27734Z" fill="#1489F6"/>
</g>
<defs>
<clipPath id="clip0_608_5475">
<rect width="200" height="32.336" fill="white" transform="translate(0 0.832031)"/>
</clipPath>
</defs>
</svg>
