<svg width="83" height="150" viewBox="0 0 83 150" fill="none" xmlns="http://www.w3.org/2000/svg">
<g clip-path="url(#clip0_573_2990)">
<path d="M17.8851 93.9006C23.1362 91.2276 32.0712 85.5469 32.0712 85.5469L49.6886 85.0098L65.0311 93.0349C66.5223 93.9322 67.4323 95.5498 67.4323 97.2876V117.293H15.168V98.3302C15.168 96.4598 16.2169 94.7536 17.8851 93.9006Z" fill="#5181CE"/>
<path d="M33.7074 99.6699H24.9746V101.155H33.7074V99.6699Z" fill="white"/>
<path d="M30.5039 83.0449L51.9948 83.3419L40.7659 91.3165L30.5039 83.0449Z" fill="#1D2747"/>
<path d="M17.5627 55.8542C21.5801 51.8368 21.5801 45.3233 17.5627 41.3059C13.5453 37.2885 7.03179 37.2885 3.01439 41.3059C-1.00302 45.3233 -1.00302 51.8368 3.01439 55.8542C7.03179 59.8716 13.5453 59.8716 17.5627 55.8542Z" fill="#FF9E9E"/>
<path d="M82.3185 50.9294C83.615 45.3979 80.1818 39.8626 74.6503 38.5661C69.1188 37.2696 63.5835 40.7028 62.287 46.2343C60.9905 51.7658 64.4236 57.301 69.9552 58.5976C75.4867 59.8941 81.0219 56.4609 82.3185 50.9294Z" fill="#FF9E9E"/>
<path d="M41.2963 80.8191C24.1719 80.8191 10.2891 66.9363 10.2891 49.8119V42.3744C10.2891 25.25 24.1719 11.3672 41.2963 11.3672C58.4207 11.3672 72.3036 25.25 72.3036 42.3744V49.8119C72.3036 66.9363 58.4207 80.8191 41.2963 80.8191Z" fill="#FFB0B0"/>
<path d="M44.0125 67.7271L38.5781 67.6956C38.5781 67.6956 39.4185 66.3496 41.4785 66.3496C43.5448 66.3559 44.0125 67.7271 44.0125 67.7271Z" fill="#FF9E9E"/>
<path d="M15.6916 36.9409C17.7643 34.0342 19.6852 30.8494 20.0897 27.3045C20.1781 26.5462 20.1908 25.75 19.9254 25.0359C19.641 24.2587 19.0533 23.6395 18.4909 23.0391C17.7832 22.2935 17.0565 21.5352 16.1403 21.0739C13.5621 19.7786 10.27 21.3899 8.79131 23.8669C7.31267 26.344 7.2242 29.3897 7.36322 32.2712C7.46432 34.3501 7.66653 36.4228 7.96352 38.4827C8.1215 39.5633 8.30475 40.6375 8.51328 41.7054C8.64597 42.3752 8.72812 44.4099 9.221 44.8839C10.4216 46.0339 11.4958 42.906 12.0835 42.0087C13.2146 40.2647 14.491 38.6281 15.6916 36.9409Z" fill="#1D2747"/>
<path d="M67.9955 37.933C66.5484 34.6661 65.3099 31.1654 65.6258 27.6078C65.6954 26.8432 65.8407 26.066 66.2451 25.4151C66.6811 24.7137 67.3762 24.2208 68.0587 23.7469C68.8991 23.1593 69.7648 22.5589 70.7569 22.2935C73.5435 21.5479 76.4439 23.7848 77.3918 26.5083C78.3396 29.2318 77.8152 32.2333 77.0948 35.0263C76.5766 37.0421 75.9637 39.0325 75.2497 40.9914C74.8768 42.0151 74.4851 43.0324 74.0617 44.0372C73.7963 44.6627 73.3034 46.6469 72.7284 47.0071C71.3256 47.8917 70.8959 44.6122 70.5041 43.6138C69.7521 41.6865 68.8359 39.8287 67.9955 37.933Z" fill="#1D2747"/>
<path d="M43.7414 33.1434C53.5927 33.3014 63.5325 31.0582 72.12 26.2242C73.2384 25.5986 74.3506 24.9098 75.172 23.9241C75.9935 22.9446 76.499 21.6113 76.2084 20.3665C75.8608 18.8625 74.4959 17.8326 73.1373 17.0932C71.7851 16.3539 70.2938 15.741 69.308 14.553C67.7409 12.6763 67.8673 9.92119 66.7994 7.72218C65.7315 5.52318 63.3998 3.99398 60.9543 3.8992C59.798 3.85496 58.6542 4.10772 57.5105 4.2657C54.1867 4.7333 50.7618 4.44263 47.5644 3.42527C43.4002 2.09829 39.3687 -0.479858 35.0339 0.0698935C30.6611 0.632283 27.3689 4.20251 24.5633 7.60844C23.4196 8.99862 22.2126 10.452 20.5508 11.1407C19.0152 11.7726 17.2712 11.6715 15.6978 12.196C12.8542 13.1375 10.9585 16.1454 10.9649 19.1406C10.9712 21.447 12.0012 23.6902 13.5683 25.3521C14.9774 26.8371 17.4797 27.3742 19.3628 28.1199C24.3169 30.0787 29.4795 31.5321 34.7432 32.3599C37.7257 32.8275 40.7336 33.0929 43.7414 33.1434Z" fill="#1D2747"/>
<path d="M41.2964 94.6984C36.6582 94.6984 32.8984 90.9387 32.8984 86.3005V76.127H49.688V86.3005C49.688 90.9387 45.9345 94.6984 41.2964 94.6984Z" fill="#FFB0B0"/>
<path d="M30.503 83.0449L29.4414 90.8678L38.4712 97.0036L39.6086 89.0543L30.503 83.0449Z" fill="white"/>
<path d="M43.1035 89.1047L44.0324 97.0034L52.2976 91.2911L51.9943 83.3418L43.1035 89.1047Z" fill="white"/>
<path d="M78.3764 149.998H3.67969V113.601C3.67969 107.939 8.26727 103.352 13.9291 103.352H68.127C73.7888 103.352 78.3764 107.939 78.3764 113.601V149.998Z" fill="white"/>
<path d="M45.9001 127.737C46.4847 125.046 44.7773 122.391 42.0866 121.807C39.3958 121.222 36.7407 122.929 36.1561 125.62C35.5715 128.311 37.2789 130.966 39.9697 131.551C42.6604 132.135 45.3155 130.428 45.9001 127.737Z" fill="#E5E5E5"/>
<path d="M9.03125 53.0859L9.15131 56.1443C9.30297 59.9168 12.4119 62.9056 16.2033 62.9056H27.2805" stroke="white" stroke-width="1.89569" stroke-miterlimit="10" stroke-linecap="round"/>
<path d="M29.347 64.8075H26.9584C25.821 64.8075 24.8984 63.8849 24.8984 62.7475C24.8984 61.6101 25.821 60.6875 26.9584 60.6875H29.347C30.4844 60.6875 31.407 61.6101 31.407 62.7475C31.4133 63.8786 30.4907 64.8075 29.347 64.8075Z" fill="#1D2747"/>
<path d="M8.77443 45.7181C8.77443 45.7181 4.33219 12.5371 41.5384 12.5371C78.7445 12.5371 74.277 47.5127 74.277 47.5127" stroke="white" stroke-width="1.89569" stroke-miterlimit="10"/>
<path d="M9.41271 55.7014H8.12996C6.94831 55.7014 5.99414 54.7472 5.99414 53.5656V44.9718C5.99414 43.7901 6.94831 42.8359 8.12996 42.8359H9.41271C10.5944 42.8359 11.5485 43.7901 11.5485 44.9718V53.5656C11.5548 54.7409 10.5944 55.7014 9.41271 55.7014Z" fill="#1D2747"/>
<path d="M74.9166 55.7014H73.6339C72.4522 55.7014 71.498 54.7472 71.498 53.5656V44.9718C71.498 43.7901 72.4522 42.8359 73.6339 42.8359H74.9166C76.0983 42.8359 77.0524 43.7901 77.0524 44.9718V53.5656C77.0588 54.7409 76.0983 55.7014 74.9166 55.7014Z" fill="#1D2747"/>
</g>
<defs>
<clipPath id="clip0_573_2990">
<rect width="82.5891" height="150" fill="white"/>
</clipPath>
</defs>
</svg>
