<svg width="29" height="28" viewBox="0 0 29 28" fill="none" xmlns="http://www.w3.org/2000/svg">
<circle cx="14.5" cy="14" r="13.5" stroke="#7E8695"/>
<g clip-path="url(#clip0_605_3010)">
<path d="M14.4992 7.19922C10.7499 7.19922 7.69922 10.2499 7.69922 13.9992C7.69922 17.7486 10.7499 20.7992 14.4992 20.7992C18.2486 20.7992 21.2992 17.7486 21.2992 13.9992C21.2992 10.2499 18.2486 7.19922 14.4992 7.19922ZM14.4992 8.19967C15.9757 8.19967 17.3238 8.75302 18.3497 9.66337C18.2452 9.81212 17.3714 10.9868 15.3059 11.7612C14.3539 10.0127 13.299 8.57622 13.1384 8.36117C13.5753 8.25577 14.0309 8.19967 14.4992 8.19967ZM12.03 8.75132C12.183 8.96127 13.2208 10.3995 14.183 12.1105C11.4664 12.8322 9.07367 12.822 8.81357 12.8186C9.19012 11.0157 10.4048 9.51802 12.03 8.75132ZM8.69032 14.0077C8.69032 13.9482 8.69117 13.8887 8.69287 13.8301C8.94702 13.836 11.7622 13.8717 14.6624 13.0039C14.829 13.3294 14.9871 13.6601 15.1333 13.9899C15.0568 14.0111 14.9803 14.0341 14.9047 14.0587C11.9093 15.0269 10.3155 17.6661 10.1838 17.8914C9.25642 16.862 8.69117 15.4995 8.69032 14.0077ZM14.4984 19.8158C13.1562 19.8158 11.9186 19.3576 10.9335 18.5901C11.038 18.3767 12.2144 16.1047 15.4903 14.9631C15.5031 14.9589 15.5158 14.9546 15.5286 14.9504C16.3446 17.0694 16.6812 18.8451 16.7679 19.3551C16.0709 19.6517 15.3042 19.8166 14.4984 19.8158ZM17.7445 18.823C17.685 18.4694 17.3765 16.7694 16.6166 14.6818C18.4364 14.3902 20.0353 14.8671 20.2342 14.93C19.9749 16.5458 19.0476 17.9415 17.7445 18.823ZM16.2613 13.7663C16.2205 13.6669 16.1788 13.5666 16.1363 13.4663C16.0156 13.1832 15.8864 12.9019 15.7513 12.6248C17.8992 11.7484 18.8725 10.5006 18.9949 10.3349C19.8041 11.3234 20.2937 12.5823 20.3056 13.9533C20.1143 13.9125 18.1942 13.5232 16.2613 13.7663Z" fill="#7E8695"/>
</g>
<defs>
<clipPath id="clip0_605_3010">
<rect width="13.6" height="13.6" fill="white" transform="translate(7.69922 7.19922)"/>
</clipPath>
</defs>
</svg>
