<svg width="29" height="28" viewBox="0 0 29 28" fill="none" xmlns="http://www.w3.org/2000/svg">
<circle cx="14.5" cy="14" r="13.5" stroke="#7E8695"/>
<path d="M19.9386 19.4386V15.4538C19.9386 13.4954 19.517 11.9994 17.2322 11.9994C16.1306 11.9994 15.3962 12.5978 15.097 13.169H15.0698V12.1762H12.9074V19.4386H15.165V15.8346C15.165 14.8826 15.3418 13.9714 16.5114 13.9714C17.6674 13.9714 17.681 15.0458 17.681 15.889V19.425H19.9386V19.4386ZM9.23539 12.1762H11.493V19.4386H9.23539V12.1762ZM10.3642 8.55859C9.64339 8.55859 9.05859 9.14339 9.05859 9.86419C9.05859 10.585 9.64339 11.1834 10.3642 11.1834C11.085 11.1834 11.6698 10.585 11.6698 9.86419C11.6698 9.14339 11.085 8.55859 10.3642 8.55859Z" fill="#7E8695"/>
</svg>
