<svg xmlns="http://www.w3.org/2000/svg" width="870" height="485" viewBox="0 0 870 485" fill="none"><path d="M239.322 147.327C218.04 147.327 200.812 130.065 200.812 108.783C200.812 87.5339 218.04 70.2712 239.322 70.2712C260.603 70.2712 277.832 87.5339 277.832 108.783C277.832 130.065 260.603 147.327 239.322 147.327ZM294.843 115.627V101.962C294.843 100.625 293.759 99.5405 292.423 99.5405H288.906C287.875 99.5405 286.964 98.8405 286.734 97.8365C285.516 92.5299 283.443 87.5499 280.646 83.0619C280.088 82.1659 280.194 81.0112 280.94 80.2659L283.414 77.7912C284.359 76.8459 284.359 75.3139 283.414 74.3686L273.751 64.7059C272.806 63.7605 271.272 63.7605 270.327 64.7059L267.856 67.1752C267.111 67.9219 265.955 68.0272 265.059 67.4685C260.572 64.6699 255.591 62.5939 250.282 61.3752C249.278 61.1446 248.578 60.2326 248.578 59.2032V55.6966C248.578 54.3592 247.495 53.2766 246.158 53.2766H232.491C231.155 53.2766 230.071 54.3592 230.071 55.6966V59.2032C230.071 60.2326 229.371 61.1446 228.367 61.3739C223.058 62.5926 218.075 64.6685 213.587 67.4672C212.691 68.0259 211.535 67.9205 210.79 67.1739L208.322 64.7059C207.376 63.7605 205.843 63.7605 204.898 64.7059L195.235 74.3686C194.29 75.3139 194.29 76.8459 195.235 77.7912L197.706 80.2619C198.452 81.0085 198.558 82.1632 198 83.0592C195.203 87.5485 193.13 92.5299 191.911 97.8365C191.68 98.8405 190.77 99.5405 189.74 99.5405H186.226C184.89 99.5405 183.806 100.625 183.806 101.962V115.627C183.806 116.965 184.89 118.049 186.226 118.049H189.742C190.771 118.049 191.682 118.747 191.912 119.751C193.132 125.059 195.207 130.039 198.003 134.526C198.562 135.422 198.456 136.577 197.71 137.323L195.235 139.797C194.29 140.742 194.29 142.275 195.235 143.221L204.898 152.883C205.843 153.829 207.376 153.829 208.322 152.883L210.798 150.407C211.543 149.661 212.699 149.555 213.594 150.113C218.08 152.907 223.06 154.978 228.367 156.197C229.371 156.427 230.071 157.338 230.071 158.367V161.893C230.071 163.23 231.155 164.313 232.491 164.313H246.158C247.495 164.313 248.578 163.23 248.578 161.893V158.367C248.578 157.337 249.278 156.426 250.282 156.195C255.588 154.978 260.567 152.906 265.054 150.111C265.948 149.554 267.103 149.659 267.85 150.406L270.327 152.883C271.272 153.829 272.806 153.829 273.751 152.883L283.414 143.221C284.359 142.275 284.359 140.742 283.412 139.797L280.938 137.322C280.191 136.575 280.084 135.421 280.643 134.525C283.439 130.038 285.514 125.059 286.732 119.751C286.962 118.747 287.874 118.049 288.903 118.049H292.423C293.759 118.049 294.843 116.965 294.843 115.627V115.627Z" stroke="#DEE3FC" stroke-width="1.05333" stroke-miterlimit="10"></path><path d="M319.861 182.012C306.177 182.012 295.099 170.912 295.099 157.226C295.099 143.562 306.177 132.462 319.861 132.462C333.547 132.462 344.625 143.562 344.625 157.226C344.625 170.912 333.547 182.012 319.861 182.012ZM357.699 161.89V152.577C357.699 151.665 356.96 150.928 356.049 150.928H353.652C352.951 150.928 352.329 150.45 352.172 149.766C351.343 146.149 349.929 142.756 348.024 139.697C347.643 139.086 347.715 138.3 348.224 137.792L349.909 136.105C350.553 135.461 350.553 134.417 349.909 133.773L343.324 127.188C342.68 126.542 341.636 126.542 340.992 127.188L339.308 128.87C338.799 129.38 338.012 129.452 337.401 129.07C334.343 127.164 330.948 125.749 327.331 124.917C326.647 124.76 326.169 124.14 326.169 123.437V121.048C326.169 120.137 325.431 119.398 324.52 119.398H315.207C314.296 119.398 313.557 120.137 313.557 121.048V123.437C313.557 124.14 313.08 124.76 312.396 124.917C308.777 125.748 305.381 127.162 302.323 129.069C301.712 129.45 300.925 129.378 300.417 128.869L298.735 127.188C298.091 126.544 297.047 126.544 296.401 127.188L289.817 133.773C289.173 134.417 289.173 135.461 289.817 136.105L291.501 137.789C292.009 138.297 292.081 139.085 291.701 139.696C289.795 142.754 288.381 146.149 287.552 149.766C287.395 150.45 286.773 150.928 286.072 150.928H283.677C282.767 150.928 282.028 151.665 282.028 152.577V161.89C282.028 162.801 282.767 163.54 283.677 163.54H286.073C286.775 163.54 287.395 164.017 287.552 164.7C288.384 168.318 289.797 171.712 291.703 174.769C292.084 175.38 292.012 176.166 291.503 176.676L289.817 178.361C289.173 179.005 289.173 180.05 289.817 180.694L296.401 187.28C297.047 187.924 298.091 187.924 298.735 187.28L300.423 185.592C300.931 185.084 301.717 185.012 302.328 185.392C305.385 187.296 308.779 188.708 312.396 189.537C313.08 189.694 313.557 190.316 313.557 191.017V193.42C313.557 194.33 314.296 195.069 315.207 195.069H324.52C325.431 195.069 326.169 194.33 326.169 193.42V191.017C326.169 190.314 326.647 189.694 327.331 189.537C330.947 188.708 334.34 187.294 337.397 185.39C338.008 185.01 338.795 185.082 339.303 185.592L340.992 187.28C341.636 187.924 342.68 187.924 343.324 187.28L349.909 180.694C350.553 180.05 350.553 179.005 349.909 178.361L348.221 176.674C347.713 176.166 347.641 175.378 348.021 174.768C349.927 171.71 351.34 168.317 352.171 164.701C352.328 164.017 352.949 163.54 353.651 163.54H356.049C356.96 163.54 357.699 162.801 357.699 161.89" fill="#DEE3FC"></path><path d="M186.835 403.973C186.835 406.466 184.814 408.487 182.321 408.487C179.827 408.487 177.806 406.466 177.806 403.973C177.806 401.479 179.827 399.458 182.321 399.458C184.814 399.458 186.835 401.479 186.835 403.973Z" fill="#A4AFFF"></path><path d="M791.677 280.61C791.677 283.103 789.656 285.125 787.162 285.125C784.669 285.125 782.648 283.103 782.648 280.61C782.648 278.117 784.669 276.095 787.162 276.095C789.656 276.095 791.677 278.117 791.677 280.61Z" fill="#A4AFFF"></path><path d="M782.647 119.398C782.647 121.891 780.626 123.913 778.133 123.913C775.639 123.913 773.618 121.891 773.618 119.398C773.618 116.905 775.639 114.883 778.133 114.883C780.626 114.883 782.647 116.905 782.647 119.398Z" fill="#A4AFFF"></path><path d="M618.64 64.6044C618.64 66.1684 617.372 67.4364 615.808 67.4364C614.244 67.4364 612.976 66.1684 612.976 64.6044C612.976 63.0404 614.244 61.7724 615.808 61.7724C617.372 61.7724 618.64 63.0404 618.64 64.6044Z" fill="#A4AFFF"></path><path d="M199.994 26.88C199.994 28.444 198.726 29.712 197.162 29.712C195.598 29.712 194.33 28.444 194.33 26.88C194.33 25.316 195.598 24.048 197.162 24.048C198.726 24.048 199.994 25.316 199.994 26.88Z" fill="#A4AFFF"></path><path d="M262.675 201.275C262.675 202.839 261.407 204.107 259.843 204.107C258.279 204.107 257.011 202.839 257.011 201.275C257.011 199.711 258.279 198.443 259.843 198.443C261.407 198.443 262.675 199.711 262.675 201.275Z" fill="#A4AFFF"></path><path d="M158.78 408.487C158.78 410.051 157.512 411.319 155.948 411.319C154.384 411.319 153.116 410.051 153.116 408.487C153.116 406.923 154.384 405.655 155.948 405.655C157.512 405.655 158.78 406.923 158.78 408.487Z" fill="#A4AFFF"></path><path d="M725.449 406.64C725.449 409.133 723.428 411.154 720.934 411.154C718.441 411.154 716.42 409.133 716.42 406.64C716.42 404.146 718.441 402.125 720.934 402.125C723.428 402.125 725.449 404.146 725.449 406.64Z" fill="#A4AFFF"></path><path d="M821.449 406.64C821.449 409.133 819.428 411.154 816.934 411.154C814.441 411.154 812.42 409.133 812.42 406.64C812.42 404.146 814.441 402.125 816.934 402.125C819.428 402.125 821.449 404.146 821.449 406.64Z" fill="#A4AFFF"></path><path d="M282.347 14.5699C282.347 17.0632 280.326 19.0845 277.832 19.0845C275.339 19.0845 273.318 17.0632 273.318 14.5699C273.318 12.0765 275.339 10.0552 277.832 10.0552C280.326 10.0552 282.347 12.0765 282.347 14.5699Z" fill="#A4AFFF"></path><path d="M589.333 219.981C589.333 223.317 586.629 226.022 583.292 226.022C579.956 226.022 577.252 223.317 577.252 219.981C577.252 216.645 579.956 213.94 583.292 213.94C586.629 213.94 589.333 216.645 589.333 219.981Z" fill="#A4AFFF"></path><path d="M143.778 145.28C143.778 148.616 141.074 151.322 137.736 151.322C134.4 151.322 131.696 148.616 131.696 145.28C131.696 141.944 134.4 139.239 137.736 139.239C141.074 139.239 143.778 141.944 143.778 145.28Z" fill="#A4AFFF"></path><path d="M126.781 55.107H119.183C118.695 55.107 118.298 54.711 118.298 54.2216V46.6243C118.298 46.1363 118.695 45.739 119.183 45.739H126.781C127.27 45.739 127.666 46.1363 127.666 46.6243V54.2216C127.666 54.711 127.27 55.107 126.781 55.107Z" fill="white"></path><path d="M139.311 55.107H131.714C131.226 55.107 130.828 54.711 130.828 54.2216V46.6243C130.828 46.1363 131.226 45.739 131.714 45.739H139.311C139.8 45.739 140.196 46.1363 140.196 46.6243V54.2216C140.196 54.711 139.8 55.107 139.311 55.107Z" fill="white"></path><path d="M151.842 55.107H144.244C143.756 55.107 143.359 54.711 143.359 54.2216V46.6243C143.359 46.1363 143.756 45.739 144.244 45.739H151.842C152.331 45.739 152.727 46.1363 152.727 46.6243V54.2216C152.727 54.711 152.331 55.107 151.842 55.107Z" fill="white"></path><path d="M764.886 384.084H757.289C756.801 384.084 756.403 383.688 756.403 383.199V375.601C756.403 375.113 756.801 374.716 757.289 374.716H764.886C765.375 374.716 765.771 375.113 765.771 375.601V383.199C765.771 383.688 765.375 384.084 764.886 384.084Z" fill="#DEE3FC"></path><path d="M777.416 384.084H769.819C769.331 384.084 768.934 383.688 768.934 383.199V375.601C768.934 375.113 769.331 374.716 769.819 374.716H777.416C777.906 374.716 778.302 375.113 778.302 375.601V383.199C778.302 383.688 777.906 384.084 777.416 384.084Z" fill="#DEE3FC"></path><path d="M789.947 384.084H782.351C781.862 384.084 781.464 383.688 781.464 383.199V375.601C781.464 375.113 781.862 374.716 782.351 374.716H789.947C790.436 374.716 790.832 375.113 790.832 375.601V383.199C790.832 383.688 790.436 384.084 789.947 384.084Z" fill="#DEE3FC"></path><path d="M185.598 378.95H178.001C177.513 378.95 177.115 378.554 177.115 378.065V370.469C177.115 369.98 177.513 369.582 178.001 369.582H185.598C186.087 369.582 186.483 369.98 186.483 370.469V378.065C186.483 378.554 186.087 378.95 185.598 378.95Z" fill="#DEE3FC"></path><path d="M198.129 378.95H190.531C190.043 378.95 189.646 378.554 189.646 378.065V370.469C189.646 369.98 190.043 369.582 190.531 369.582H198.129C198.618 369.582 199.014 369.98 199.014 370.469V378.065C199.014 378.554 198.618 378.95 198.129 378.95Z" fill="#DEE3FC"></path><path d="M210.659 378.95H203.062C202.574 378.95 202.177 378.554 202.177 378.065V370.469C202.177 369.98 202.574 369.582 203.062 369.582H210.659C211.149 369.582 211.545 369.98 211.545 370.469V378.065C211.545 378.554 211.149 378.95 210.659 378.95Z" fill="#DEE3FC"></path><path d="M525.201 459.465H344.799C329.077 459.465 316.333 446.721 316.333 431V29.4508C316.333 13.7308 329.077 0.98549 344.799 0.98549H525.201C540.923 0.98549 553.667 13.7308 553.667 29.4508V431C553.667 446.721 540.923 459.465 525.201 459.465Z" fill="#3945BA"></path><path d="M524.29 452.949H345.71C331.94 452.949 320.778 441.787 320.778 428.016V29.9335C320.778 16.1628 331.94 5.00012 345.71 5.00012H524.29C538.06 5.00012 549.223 16.1628 549.223 29.9335V428.016C549.223 441.787 538.06 452.949 524.29 452.949Z" fill="white"></path><path d="M539.222 29.1516V426.772C539.222 436.097 531.662 443.657 522.337 443.657H347.662C338.337 443.657 330.777 436.097 330.777 426.772V29.1516C330.777 19.8263 338.337 12.2663 347.662 12.2663H376.79C378.408 12.2663 379.885 13.1783 380.609 14.6237L383.702 20.7983C385.112 23.6476 388.021 25.433 391.185 25.433H478.814C481.978 25.433 484.888 23.6476 486.297 20.7983L489.39 14.6237C490.114 13.1783 491.592 12.2663 493.209 12.2663H522.337C531.662 12.2663 539.222 19.8263 539.222 29.1516Z" fill="#DEE3FC"></path><path d="M471.775 18.2095H401.197C399.555 18.2095 398.225 16.8788 398.225 15.2375C398.225 13.5961 399.555 12.2655 401.197 12.2655H471.775C473.417 12.2655 474.747 13.5961 474.747 15.2375C474.747 16.8788 473.417 18.2095 471.775 18.2095Z" fill="#DEE3FC"></path><path d="M511.494 429.856H354.438C348.269 429.856 343.266 424.855 343.266 418.684V363.228C343.266 357.058 348.269 352.055 354.438 352.055H511.494C517.665 352.055 522.666 357.058 522.666 363.228V418.684C522.666 424.855 517.665 429.856 511.494 429.856Z" stroke="#698BD1" stroke-width="1.33333" stroke-miterlimit="10" stroke-linecap="round" stroke-linejoin="round" stroke-dasharray="3.78 3.78"></path><path d="M503.534 238.942H425.624C421.173 238.942 417.565 235.334 417.565 230.883V192.376C417.565 187.926 421.173 184.318 425.624 184.318H503.534C507.985 184.318 511.593 187.926 511.593 192.376V230.883C511.593 235.334 507.985 238.942 503.534 238.942Z" stroke="#698BD1" stroke-width="1.33333" stroke-miterlimit="10" stroke-linecap="round" stroke-linejoin="round" stroke-dasharray="3.78 3.78"></path><path d="M520.308 339.115H359.399C354.096 339.115 349.798 334.816 349.798 329.513V261.645C349.798 256.343 354.096 252.044 359.399 252.044H520.308C525.611 252.044 529.91 256.343 529.91 261.645V329.513C529.91 334.816 525.611 339.115 520.308 339.115Z" fill="#4B5A9B"></path><path d="M522.667 254.587V322.493C522.667 327.787 518.373 332.067 513.08 332.067H352.853C347.56 332.067 343.267 327.787 343.267 322.493V254.587C343.267 249.293 347.56 245 352.853 245H513.08C518.373 245 522.667 249.293 522.667 254.587Z" fill="#7F95F4"></path><path d="M405.24 324.991H358.036C354.458 324.991 351.555 322.089 351.555 318.509V271.305C351.555 267.727 354.458 264.825 358.036 264.825H405.24C408.82 264.825 411.722 267.727 411.722 271.305V318.509C411.722 322.089 408.82 324.991 405.24 324.991Z" fill="white"></path><path d="M461.185 272.438H419.613C418.482 272.438 417.565 271.522 417.565 270.391C417.565 269.261 418.482 268.345 419.613 268.345H461.185C462.315 268.345 463.231 269.261 463.231 270.391C463.231 271.522 462.315 272.438 461.185 272.438Z" fill="#B2C1F9"></path><path d="M442.24 280.61H419.612C418.481 280.61 417.565 279.694 417.565 278.563C417.565 277.433 418.481 276.517 419.612 276.517H442.24C443.371 276.517 444.287 277.433 444.287 278.563C444.287 279.694 443.371 280.61 442.24 280.61Z" fill="#B2C1F9"></path><path d="M511.797 280.61H450.568C449.437 280.61 448.521 279.694 448.521 278.563C448.521 277.433 449.437 276.517 450.568 276.517H511.797C512.928 276.517 513.844 277.433 513.844 278.563C513.844 279.694 512.928 280.61 511.797 280.61Z" fill="#B2C1F9"></path><path d="M454.622 288.782H419.611C418.482 288.782 417.565 287.866 417.565 286.736C417.565 285.605 418.482 284.689 419.611 284.689H454.622C455.753 284.689 456.669 285.605 456.669 286.736C456.669 287.866 455.753 288.782 454.622 288.782Z" fill="#B2C1F9"></path><path d="M484.339 288.782H462.33C461.201 288.782 460.283 287.866 460.283 286.736C460.283 285.605 461.201 284.689 462.33 284.689H484.339C485.47 284.689 486.386 285.605 486.386 286.736C486.386 287.866 485.47 288.782 484.339 288.782Z" fill="#B2C1F9"></path><path d="M511.797 288.782H491.529C490.398 288.782 489.482 287.866 489.482 286.736C489.482 285.605 490.398 284.689 491.529 284.689H511.797C512.928 284.689 513.844 285.605 513.844 286.736C513.844 287.866 512.928 288.782 511.797 288.782Z" fill="#B2C1F9"></path><path d="M511.797 296.955H419.612C418.482 296.955 417.565 296.039 417.565 294.908C417.565 293.777 418.482 292.861 419.612 292.861H511.797C512.928 292.861 513.844 293.777 513.844 294.908C513.844 296.039 512.928 296.955 511.797 296.955Z" fill="#B2C1F9"></path><path d="M470.347 305.127H419.611C418.482 305.127 417.565 304.211 417.565 303.08C417.565 301.95 418.482 301.034 419.611 301.034H470.347C471.478 301.034 472.394 301.95 472.394 303.08C472.394 304.211 471.478 305.127 470.347 305.127Z" fill="#B2C1F9"></path><path d="M511.797 305.127H478.528C477.397 305.127 476.481 304.211 476.481 303.08C476.481 301.95 477.397 301.034 478.528 301.034H511.797C512.928 301.034 513.844 301.95 513.844 303.08C513.844 304.211 512.928 305.127 511.797 305.127Z" fill="#B2C1F9"></path><path d="M449.422 313.299H419.612C418.482 313.299 417.566 312.383 417.566 311.253C417.566 310.122 418.482 309.206 419.612 309.206H449.422C450.552 309.206 451.468 310.122 451.468 311.253C451.468 312.383 450.552 313.299 449.422 313.299Z" fill="#B2C1F9"></path><path d="M487.299 313.299H457.49C456.359 313.299 455.443 312.383 455.443 311.253C455.443 310.122 456.359 309.206 457.49 309.206H487.299C488.43 309.206 489.346 310.122 489.346 311.253C489.346 312.383 488.43 313.299 487.299 313.299Z" fill="#B2C1F9"></path><path d="M511.797 313.299H494.5C493.37 313.299 492.453 312.383 492.453 311.253C492.453 310.122 493.37 309.206 494.5 309.206H511.797C512.928 309.206 513.844 310.122 513.844 311.253C513.844 312.383 512.928 313.299 511.797 313.299Z" fill="#B2C1F9"></path><path d="M461.185 321.471H419.613C418.482 321.471 417.565 320.555 417.565 319.425C417.565 318.294 418.482 317.378 419.613 317.378H461.185C462.315 317.378 463.231 318.294 463.231 319.425C463.231 320.555 462.315 321.471 461.185 321.471Z" fill="#B2C1F9"></path><path d="M511.797 272.438H470.225C469.094 272.438 468.177 271.522 468.177 270.391C468.177 269.261 469.094 268.345 470.225 268.345H511.797C512.928 268.345 513.844 269.261 513.844 270.391C513.844 271.522 512.928 272.438 511.797 272.438Z" fill="#B2C1F9"></path><path d="M522.667 254.587V257.44H343.267V254.587C343.267 249.293 347.56 245 352.853 245H513.08C518.373 245 522.667 249.293 522.667 254.587Z" fill="#3052CE"></path><path d="M488.852 251.444C488.852 252.671 487.857 253.667 486.629 253.667C485.402 253.667 484.408 252.671 484.408 251.444C484.408 250.218 485.402 249.222 486.629 249.222C487.857 249.222 488.852 250.218 488.852 251.444Z" fill="#DEE3FC"></path><path d="M500.222 251.444C500.222 252.671 499.228 253.667 498 253.667C496.773 253.667 495.778 252.671 495.778 251.444C495.778 250.218 496.773 249.222 498 249.222C499.228 249.222 500.222 250.218 500.222 251.444Z" fill="#DEE3FC"></path><path d="M511.593 251.444C511.593 252.671 510.598 253.667 509.37 253.667C508.143 253.667 507.149 252.671 507.149 251.444C507.149 250.218 508.143 249.222 509.37 249.222C510.598 249.222 511.593 250.218 511.593 251.444Z" fill="#DEE3FC"></path><path d="M398.809 238.942H363.303C358.037 238.942 353.769 234.674 353.769 229.407V193.902C353.769 188.636 358.037 184.367 363.303 184.367H398.809C404.074 184.367 408.343 188.636 408.343 193.902V229.407C408.343 234.674 404.074 238.942 398.809 238.942Z" stroke="#495AD6" stroke-width="1.19467" stroke-miterlimit="10"></path><path d="M372.543 203.761L364.68 211.623L372.604 219.547" stroke="#495AD6" stroke-width="2.22933" stroke-miterlimit="10" stroke-linecap="round" stroke-linejoin="round"></path><path d="M389.569 203.761L397.431 211.623L389.507 219.547" stroke="#495AD6" stroke-width="2.22933" stroke-miterlimit="10" stroke-linecap="round" stroke-linejoin="round"></path><path d="M384.738 203.761L377.374 219.547" stroke="#495AD6" stroke-width="2.22933" stroke-miterlimit="10" stroke-linecap="round" stroke-linejoin="round"></path><path d="M522.667 51.16V162.187C522.667 168.213 517.787 173.093 511.76 173.093H354.173C348.16 173.093 343.267 168.213 343.267 162.187V51.16C343.267 45.1334 348.16 40.2534 354.173 40.2534H511.76C517.787 40.2534 522.667 45.1334 522.667 51.16Z" fill="#B2C1F9"></path><path d="M512.333 75.3334C512.333 89.6934 500.693 101.333 486.333 101.333C471.973 101.333 460.333 89.6934 460.333 75.3334C460.333 60.9734 471.973 49.3334 486.333 49.3334C500.693 49.3334 512.333 60.9734 512.333 75.3334Z" fill="#F0F4FF"></path><path d="M448.72 173.093H354.173C348.16 173.093 343.267 168.213 343.267 162.187V144.707L384.64 73.04C386.8 69.2934 392.213 69.2934 394.373 73.04L425.613 127.147L448.813 167.333C449.933 169.253 449.76 171.44 448.72 173.093Z" fill="white"></path><path d="M489.493 173.093H399.08L425.613 127.147L439.907 102.387C441.853 99.0134 446.72 99.0134 448.667 102.387L489.493 173.093Z" fill="#F0F4FF"></path><path d="M668.825 484.151H599.124V379.4H668.825V484.151Z" fill="#3B47BC"></path><path d="M668.825 484.151H695.515V379.4H668.825V484.151Z" fill="#495AD6"></path><path d="M692.24 386.767H672.645V383.424H692.24V386.767Z" fill="#B2C1F9"></path><path d="M692.24 393.948H672.645V390.605H692.24V393.948Z" fill="#B2C1F9"></path><path d="M692.24 401.129H672.645V397.787H692.24V401.129Z" fill="#B2C1F9"></path><path d="M692.24 408.311H672.645V404.968H692.24V408.311Z" fill="#B2C1F9"></path><path d="M692.24 415.493H672.645V412.151H692.24V415.493Z" fill="#B2C1F9"></path><path d="M692.24 422.675H672.645V419.332H692.24V422.675Z" fill="#B2C1F9"></path><path d="M692.24 429.856H672.645V426.513H692.24V429.856Z" fill="#B2C1F9"></path><path d="M692.24 437.039H672.645V433.696H692.24V437.039Z" fill="#B2C1F9"></path><path d="M692.24 444.22H672.645V440.877H692.24V444.22Z" fill="#B2C1F9"></path><path d="M692.24 451.401H672.645V448.059H692.24V451.401Z" fill="#B2C1F9"></path><path d="M692.24 458.583H672.645V455.24H692.24V458.583Z" fill="#B2C1F9"></path><path d="M692.24 465.765H672.645V462.423H692.24V465.765Z" fill="#B2C1F9"></path><path d="M692.24 472.947H672.645V469.604H692.24V472.947Z" fill="#B2C1F9"></path><path d="M692.24 480.128H672.645V476.785H692.24V480.128Z" fill="#B2C1F9"></path><path d="M587.8 484.151H623.224C623.224 484.151 625.204 477.843 620.914 470.028C620.914 470.028 618.063 472.315 609.522 470.768C609.522 470.768 605.958 473.795 603.496 474.978C601.022 476.175 586.846 478.959 587.8 484.151Z" fill="#281616"></path><path d="M590.271 384.265C592.559 397.917 603.116 444.105 607.655 471.391C615.949 472.098 619.933 471.146 622.044 470.659C621.631 461.145 620.812 438.385 620.908 428.405C621.067 411.537 621.859 389.291 614.432 377.085L589.464 379.05C589.616 380.369 589.755 381.441 589.876 382.207C589.996 382.942 590.133 383.622 590.271 384.265Z" fill="#002C54"></path><path d="M523.726 484.151H559.15C559.15 484.151 561.13 477.843 556.839 470.028C556.839 470.028 553.989 472.315 545.447 470.768C545.447 470.768 541.883 473.795 539.422 474.978C536.947 476.175 522.771 478.959 523.726 484.151Z" fill="#281616"></path><path d="M544.421 470.593C551.19 472.267 556.093 472.105 558.414 471.843C560.298 460.877 563.273 436.743 565.951 425.433C570.106 407.85 574.173 383.671 571.347 375.045L546.786 368.877C546.705 369.654 544.705 443.655 544.421 470.593Z" fill="#052635"></path><path d="M642.171 343.7C641.678 338.847 641.11 335.301 641.11 335.301L613.67 342.017L590.36 347.328C581.719 349.252 571.279 351.571 562.076 353.651C551.75 355.997 544.894 363.841 547.155 374.183L549.744 386.725C564.187 386.528 632.098 380.017 637.906 377.085C644.468 373.771 646.444 362.053 642.171 343.7Z" fill="#052635"></path><path d="M683.133 343.7C682.64 338.847 680.273 333.639 680.273 333.639L654.632 342.017L631.323 347.328C622.681 349.252 612.241 351.571 603.039 353.651C592.712 355.997 585.856 363.841 588.117 374.183L590.707 386.725C605.151 386.528 665.52 384.424 678.868 377.085C685.311 373.543 687.407 362.053 683.133 343.7Z" fill="#002C54"></path><path d="M606.329 304.373C606.329 304.373 618.517 298.868 621.872 304.389C623.708 307.413 622.437 313.028 618.281 315.384C614.124 317.741 590.634 327.676 568.465 333.216C568.465 333.216 567.517 330.132 565.992 326.892C565.992 326.892 575.937 322.765 585.824 315.821C595.712 308.877 606.329 304.373 606.329 304.373Z" fill="#E5918F"></path><path d="M609.376 266.313L598.931 308.035C598.931 308.035 600.009 318.583 610.661 313.405C621.315 308.228 628.373 274.989 628.373 274.989L609.376 266.313Z" fill="#E5918F"></path><path d="M627.048 289.647C625.755 289.335 624.523 288.994 623.333 288.637C622.115 288.281 620.956 287.909 619.856 287.522C609.931 284.119 604.567 280.034 604.567 280.034C607.687 266.467 611.447 257.359 614.789 251.357C614.879 251.209 614.968 251.074 615.043 250.911C615.131 250.762 615.22 250.614 615.309 250.465C617.108 247.478 619.693 244.967 622.576 242.902C622.873 242.694 623.155 242.501 623.452 242.293L624.685 264.075L624.893 266.319L627.048 289.647Z" fill="white"></path><path d="M627.048 289.647C625.755 289.335 624.523 288.994 623.333 288.637C622.115 288.281 620.956 287.909 619.856 287.522C621.94 272.85 623.824 263.63 623.824 263.63L624.893 266.319L627.048 289.647Z" fill="#C7E5F2"></path><path d="M688.712 251.981C688.46 258.43 687.33 268.786 686.349 279.187C686.037 282.486 685.74 285.799 685.488 288.994C685.309 290.985 682.308 301.609 682.189 303.51C681.654 312.605 677.196 319.409 681.416 333.258C682.426 336.571 682.68 338.279 682.68 339.647C682.68 340.598 681.446 341.593 680.956 341.861C679.188 342.886 675.71 343.599 671.49 344.119H671.476C663.17 345.13 651.966 345.323 645.205 345.323C636.126 345.323 622.501 343.882 620.778 341.593C619.202 339.498 620.66 336.453 621.402 332.247C624.745 313.273 623.557 303.377 623.349 289.677C623.349 289.335 623.333 288.994 623.333 288.637C622.992 267.507 621.596 249.425 622.576 242.902C622.873 242.694 623.156 242.501 623.453 242.293C624.894 241.313 626.305 240.435 627.672 239.663C627.792 239.603 627.94 239.514 628.089 239.425C628.505 239.187 628.936 238.965 629.337 238.742C629.485 238.653 629.649 238.578 629.812 238.503C632.888 237.003 637.374 235.398 639.945 234.507C640.273 234.403 640.569 234.299 640.822 234.225C643.244 234.077 645.874 234.046 648.712 234.121C651.178 234.195 654.953 234.522 659.054 235.057H659.069C663.705 235.651 668.772 236.527 672.798 237.627C672.798 237.627 672.842 237.642 672.873 237.657C673.63 237.895 678.549 239.737 683.674 245.219C685.384 247.033 687.137 249.262 688.712 251.981Z" fill="white"></path><path d="M681.416 333.258C682.427 336.571 682.679 338.28 682.679 339.647C682.679 340.598 681.445 341.594 680.956 341.86C679.187 342.886 675.711 343.599 671.491 344.119C673.229 343.911 676.229 341.154 676.231 338.666C676.231 336.924 673.972 325.16 674.596 317.567C675.22 309.99 676.453 297.924 674.105 288.266C671.743 278.607 669.529 265.903 669.529 265.903L682.768 273.898C682.768 273.898 684.477 276.29 686.349 279.187C686.037 282.486 685.74 285.799 685.487 288.994C685.309 290.984 677.196 319.41 681.416 333.258Z" fill="#C7E5F2"></path><path d="M623.173 196.139C623.173 196.139 624.318 209.985 628.91 210.915C633.501 211.845 632.374 205.963 632.374 205.963L631.732 199.387L623.173 196.139Z" fill="#002C54"></path><path d="M644.344 246.32C635.354 245.25 638.712 236.513 639.945 234.508C640.273 234.404 641.818 233.928 641.937 233.853C641.952 233.838 641.966 233.838 641.966 233.838C642.264 233.601 642.486 233.244 642.665 232.798C643.541 230.496 643.14 225.904 643.11 225.606V225.592V224.76C643.258 224.21 643.408 223.69 643.526 223.2L648.252 219.485L658.252 211.625C658.252 211.625 655.592 224.774 657.732 233.066C657.894 233.69 658.221 234.566 659.054 235.057C659.054 235.072 659.069 235.057 659.069 235.057C659.336 235.236 659.662 235.354 660.064 235.413C662.516 236.573 659.098 248.073 644.344 246.32Z" fill="#E5918F"></path><path d="M652.267 219.981C652.267 219.981 652.183 228.757 642.657 232.793C643.543 230.502 643.135 225.908 643.107 225.613L647.097 222.48L652.267 219.981Z" fill="#CC6362"></path><path d="M625.368 198.109C625.368 198.109 627.446 226.839 635.203 229.28C635.203 229.28 645.087 230.211 652.183 220.665C654.227 217.915 656.811 217.297 657.655 213.976C659.026 208.581 660.959 198.632 658.492 192.636C654.98 184.096 625.702 177.316 625.368 198.109Z" fill="#E5918F"></path><path d="M658.611 187.895C658.483 182.676 653.202 180.726 653.202 180.726C647.943 178.266 637.014 179.327 625.748 181.84C623.107 182.43 619.792 180.808 617.947 182.088C615.718 183.635 617.938 190.702 617.938 190.702C622.283 203.863 638.275 199.583 643.082 197.959C644.224 201.347 644.076 206.059 646.926 208.488C648.55 209.872 651.371 209.912 654.24 209.434C654.594 210.106 655.92 210.698 656.19 211.619C657.094 214.696 656.964 219.506 656.936 223.218L658.292 222.556C658.468 221.551 672.495 188.326 658.611 187.895Z" fill="#002C54"></path><path d="M633.325 207.785C633.731 210.17 632.555 212.361 630.697 212.677C628.841 212.993 627.007 211.314 626.6 208.929C626.195 206.543 627.371 204.353 629.228 204.037C631.085 203.721 632.92 205.399 633.325 207.785Z" stroke="white" stroke-width="0.668" stroke-miterlimit="10"></path><path d="M642.699 206.034C643.105 208.419 641.929 210.61 640.071 210.926C638.215 211.242 636.381 209.563 635.974 207.178C635.569 204.792 636.745 202.602 638.602 202.286C640.459 201.97 642.294 203.648 642.699 206.034Z" stroke="white" stroke-width="0.668" stroke-miterlimit="10"></path><path d="M633.325 207.785C633.325 207.785 633.736 207.118 635.895 207.305" stroke="white" stroke-width="0.668" stroke-miterlimit="10"></path><path d="M642.779 206.606L650.793 205.326" stroke="white" stroke-width="0.668" stroke-miterlimit="10"></path><path d="M651.382 215.496C656.899 217.609 658.623 204.028 653.383 203.425C649.408 202.969 649.247 208.513 649.247 208.513C649.247 208.513 648.231 214.289 651.382 215.496Z" fill="#E5918F"></path><g opacity="0.5"><g opacity="0.5"><path opacity="0.5" d="M653.201 205.474C653.201 205.474 652.844 205.84 652.517 206.447C652.187 207.051 651.897 207.878 651.844 208.763C651.792 209.2 651.804 209.652 651.824 210.08C651.839 210.51 651.891 210.915 651.92 211.272C651.959 211.635 651.989 211.936 652.012 212.148C652.033 212.363 652.033 212.494 652.033 212.494C652.033 212.494 651.953 212.396 651.836 212.212C651.735 212.023 651.525 211.77 651.385 211.422C651.231 211.078 651.068 210.663 650.98 210.19C650.872 209.722 650.843 209.199 650.883 208.675C650.932 208.152 651.068 207.63 651.289 207.182C651.5 206.73 651.804 206.366 652.088 206.099C652.684 205.574 653.201 205.474 653.201 205.474Z" fill="#CC6362"></path></g><g opacity="0.5"><path opacity="0.5" d="M654.062 208.052C654.062 208.052 653.837 208.076 653.528 208.193C653.218 208.303 652.837 208.52 652.549 208.812C652.256 209.1 652.066 209.456 651.97 209.733C651.869 210.009 651.837 210.204 651.837 210.204L650.928 209.879C650.928 209.879 651.034 209.647 651.257 209.34C651.472 209.029 651.832 208.659 652.262 208.424C652.688 208.181 653.153 208.071 653.496 208.045C653.84 208.013 654.062 208.052 654.062 208.052Z" fill="#CC6362"></path></g></g><path d="M704.434 309.871L704.433 309.885C702.007 312.699 692.805 314.75 688.377 310.857C686.986 309.618 685.415 306.351 683.871 302.297C679.946 291.933 676.23 276.429 676.23 276.429L696.825 265.905C696.825 265.905 699.474 277.783 701.757 289.074C701.757 289.074 701.777 289.187 701.818 289.387C702.562 293.005 703.253 296.561 703.797 299.614C703.818 299.699 703.827 299.771 703.835 299.855C704.379 303.501 704.729 307.301 704.434 309.871Z" fill="#E5918F"></path><path d="M668.452 262.003C670.441 270.274 676.692 285.946 676.692 285.946C681.07 286.673 686.941 285.866 691.808 284.118C697.422 282.101 701.434 277.865 701.434 277.865C701.434 277.865 697.289 266.213 693.568 257.841C690.229 250.326 688.222 247.521 686.777 246.031C684.601 243.753 681.09 241.138 678.6 239.95L668.452 262.003Z" fill="white"></path><path d="M694.495 267.405L682.41 262.191L672.887 237.655C672.887 237.655 674.633 238.185 676.93 239.113H676.941C676.986 239.136 677.085 239.168 677.25 239.235C677.306 239.257 677.371 239.279 677.427 239.312C679.482 240.273 687.447 244.968 692.959 262.025C693.003 262.169 693.049 262.312 693.093 262.456C693.678 264.423 694.109 266.003 694.341 266.82C694.363 266.897 694.385 266.975 694.407 267.063C694.441 267.173 694.462 267.295 694.495 267.405Z" fill="white"></path><path d="M704.434 309.871L704.433 309.885C704.255 311.394 703.841 312.477 703.095 312.861C702.977 312.937 701.285 313.943 701.167 314.019C698.649 315.559 694.082 318.179 688.401 320.621C674.625 326.573 654.613 333.475 643.823 336.638C643.823 336.638 642.758 333.59 641.095 330.415C641.095 330.415 650.855 325.883 660.449 318.537C670.054 311.203 683.871 302.297 683.871 302.297L687.361 298.193C687.361 298.193 699.765 286.777 701.757 289.074C701.757 289.074 701.777 289.187 701.818 289.387C702.114 290.578 703.099 294.958 703.797 299.614C703.818 299.699 703.827 299.771 703.835 299.855C704.379 303.501 704.729 307.301 704.434 309.871Z" fill="#E5918F"></path><path d="M642.523 329.719C642.523 329.719 640.097 331.18 637.627 330.66C636.26 330.372 635.709 329.814 634.697 329.636C633.687 329.458 630.995 329.126 629.661 328.472C628.329 327.818 627.809 327.746 627.856 329.083C627.903 330.422 630.532 331.579 631.245 331.95C631.959 332.32 632.853 333.507 632.949 333.656C633.047 333.806 628.568 336.15 627.363 335.674C627.363 335.674 627.005 336.752 627.208 337.355C627.412 337.956 628.333 338.168 628.405 338.47C628.476 338.772 628.193 339.391 628.393 339.871C628.592 340.352 629.415 340.354 629.747 341.134C630.079 341.914 629.713 341.927 629.956 342.74C630.197 343.555 631.237 343.7 631.435 344.12C631.632 344.54 631.528 345.031 631.964 345.32C632.401 345.61 636.429 344.316 637.9 343.687C639.369 343.056 643.3 337.399 647.648 335.471L642.523 329.719Z" fill="#E5918F"></path><path d="M663.11 354.969H631.78V351.904H663.11C663.956 351.904 664.643 352.589 664.643 353.436C664.643 354.283 663.956 354.969 663.11 354.969Z" fill="#375F84"></path><path d="M646.158 354.969H567.714C566.775 354.969 565.951 354.343 565.699 353.439L549.645 295.641C549.289 294.363 550.251 293.097 551.579 293.097H627.435C629.203 293.097 630.754 294.275 631.227 295.979L647.225 353.567C647.421 354.272 646.89 354.969 646.158 354.969Z" fill="#375F84"></path><path d="M643.319 354.969H564.875C563.936 354.969 563.112 354.343 562.86 353.439L546.806 295.641C546.45 294.363 547.412 293.097 548.74 293.097H624.596C626.364 293.097 627.915 294.275 628.388 295.979L644.386 353.567C644.58 354.272 644.051 354.969 643.319 354.969Z" fill="#467CDB"></path><path d="M332.418 317.625L341.505 308.309C341.505 308.309 341.82 304.155 342.314 303.279C342.81 302.403 344.088 299.157 344.725 298.804C345.361 298.449 346.636 298.804 346.636 298.804C346.636 298.804 347.897 298.379 348.464 298.379C349.029 298.379 350.088 298.896 350.088 298.896C350.088 298.896 351.446 298.804 352.013 298.804C352.578 298.804 352.761 298.963 352.761 298.963C352.761 298.963 354.95 296.443 356.012 295.593C357.073 294.744 358.697 293.181 359.177 293.188C359.63 293.193 359.83 293.991 359.501 294.84C359.17 295.689 357.733 297.059 357.733 297.059L353.593 303.332C353.593 303.332 354.301 303.049 354.678 302.813C355.056 302.577 357.58 300.219 357.733 300.124C357.886 300.029 359.018 299.275 359.678 300.029C360.338 300.785 355.344 306.768 354.542 307.571C353.74 308.372 349.149 310.697 349.149 310.697C349.149 310.697 344.3 319.417 343.829 319.984C343.357 320.551 332.418 317.625 332.418 317.625Z" fill="#E49191"></path><path d="M340.971 274.623C340.971 274.623 335.895 304.025 331.117 304.708C331.117 304.708 312.045 305.477 307.796 282.34C304.111 262.273 318.891 257.995 325.803 259.529C332.716 261.065 342.455 262.063 340.971 274.623Z" fill="#E49191"></path><path d="M324.114 300.005C324.114 300.005 321.442 303.606 320.505 312.331C320.505 312.331 312.562 313.466 305.238 309.695C305.238 309.695 309.186 297.39 309.669 284.03" fill="#E49191"></path><path d="M318.735 254.607C308.312 256.909 309.146 263.403 309.146 263.403C304.266 264.611 303.218 266.624 303.258 275.632C303.298 284.639 306.556 295.455 308.354 296.335C310.151 297.215 320.34 297.257 321.192 296.949C322.043 296.64 325.608 288.376 324.778 286.923C323.946 285.469 324.819 279.752 327.192 279.536C329.564 279.319 329.1 282.997 329.1 282.997L331.051 282.569L332.556 278.876C346.33 279.696 349.888 264 349.888 264C346.58 261.843 329.158 252.304 318.735 254.607Z" fill="#002C54"></path><path d="M203.036 453.652L213.575 455.176L210.084 467.481L198.67 464.603C198.67 464.603 194.027 458.308 201.038 453.652C201.376 453.427 202.483 453.527 203.036 453.652" fill="#E5918F"></path><path d="M281.695 422.044L266.162 375.012C266.162 375.012 261.454 373.335 259.042 375.012C259.042 375.012 242.862 383.713 244.587 408.524C245.889 427.228 249.838 447.515 251.438 455.648L209.995 454.117C209.995 454.117 204.883 460.193 208.191 468.104C208.191 468.104 260.265 482.109 267.601 483.404C273.562 484.456 280.087 485.267 283.237 482.567C288.787 477.812 281.695 422.044 281.695 422.044Z" fill="black"></path><path d="M252.105 453.652L262.643 455.176L259.153 467.481L247.738 464.603C247.738 464.603 243.095 458.308 250.106 453.652C250.445 453.427 251.551 453.527 252.105 453.652" fill="#E5918F"></path><path d="M248.28 460.104C248.044 462.526 250.164 464.709 249.776 465.313C249.388 465.917 242.304 477.801 242.304 477.801C242.304 477.801 247.652 480.13 246.789 483.496H233.245C233.245 483.496 229.708 480.304 229.795 475.732C229.795 475.732 230.715 470.469 233.131 465.81C235.545 461.152 241.037 450.634 241.037 450.634C241.037 450.634 242.704 449.961 245.552 450.721C248.888 451.61 252.104 453.652 252.104 453.652C252.104 453.652 248.863 454.117 248.28 460.104Z" fill="#467CDB"></path><path d="M356.774 472.687C353.43 460.21 321.968 406.942 311.324 392.559C289.462 383.066 266.162 375.011 266.162 375.011C256.525 377.313 251.78 396.73 257.245 409.675C260.994 418.555 284.781 440.906 299.348 454.066L258.925 454.017C258.925 454.017 254.164 461.135 258.478 467.895C258.478 467.895 325.708 483.181 331.604 484.045C337.501 484.907 350.733 484.045 350.733 484.045C350.733 484.045 359.589 483.191 356.774 472.687" fill="#002C54"></path><path d="M199.212 460.104C198.976 462.526 201.096 464.709 200.708 465.313C200.32 465.917 193.236 477.801 193.236 477.801C193.236 477.801 198.584 480.13 197.721 483.496H184.177C184.177 483.496 180.64 480.304 180.727 475.732C180.727 475.732 181.647 470.469 184.063 465.81C186.477 461.152 191.969 450.634 191.969 450.634C191.969 450.634 193.636 449.961 196.484 450.721C199.82 451.61 203.036 453.652 203.036 453.652C203.036 453.652 199.795 454.117 199.212 460.104Z" fill="#467CDB"></path><path d="M407.388 308.572L385.706 346.71L370.18 331.232L357.326 350.362L361.058 352.155L359.716 353.272C359.716 353.272 389.681 367.866 393.272 364.646C396.862 361.427 413.593 312.908 413.593 312.908L407.388 308.572Z" fill="#E49191"></path><path d="M372.947 333.653C372.947 333.653 368.853 350.92 360.667 359.107L339.72 351.133C339.72 351.133 330 367.48 320.493 380.013C316.84 384.853 315.627 391.667 311.333 392.56C311.067 392.467 310.813 392.387 310.547 392.32C298.907 388.827 281.733 392.533 267.56 387.267C251.907 381.44 254.947 378.16 254.947 378.16C254.947 378.16 264.44 361.053 269.827 342.933C272.227 334.92 273.893 327.493 275 321.693C276.987 311.427 285.213 303.4 295.587 302C295.707 301.987 295.813 301.96 295.933 301.947C307.8 300.44 338.867 304.107 344.907 306.693C350.947 309.28 372.947 333.653 372.947 333.653Z" fill="#467CDB"></path><path d="M339.72 351.133C339.72 351.133 330 367.48 320.493 380.013C316.84 384.853 315.627 391.667 311.333 392.56C313.213 391.893 316.333 382 317.44 379.773C318.56 377.56 320.333 375.333 324.173 367.56C328 359.773 333.195 348.361 333.195 348.361L339.72 351.133Z" fill="#5996EF"></path><path d="M299.347 454.066C299.347 454.066 299.676 453.992 300.258 453.918C300.839 453.856 301.672 453.736 302.674 453.696C304.678 453.587 307.36 453.668 310.014 454.036C311.338 454.227 312.658 454.46 313.876 454.768C315.098 455.056 316.223 455.398 317.167 455.743C318.118 456.067 318.879 456.428 319.414 456.667C319.947 456.911 320.243 457.068 320.243 457.068C320.243 457.068 319.906 457.03 319.331 456.931C318.763 456.81 317.938 456.699 316.962 456.532C315.008 456.206 312.419 455.79 309.819 455.442C308.523 455.24 307.218 455.099 305.996 454.928C304.77 454.775 303.624 454.631 302.644 454.508C300.666 454.243 299.347 454.066 299.347 454.066Z" fill="black"></path><path d="M423.592 294.534C423.242 294.499 421.02 296.283 419.946 297.165L421.182 294.797C421.182 294.797 422.818 293.218 423.406 292.351C423.994 291.485 423.685 290.618 423.22 290.571C422.893 290.539 420.938 292.09 419.805 293.014L420.054 292.538C420.054 292.538 421.689 290.958 422.277 290.091C422.865 289.225 422.556 288.358 422.092 288.311C421.628 288.266 417.866 291.423 417.866 291.423L416.034 293.875L417.416 291.193C417.416 291.193 418.142 290.303 418.628 289.334C419.112 288.365 418.762 288.069 418.493 287.745C418.224 287.422 415.692 289.307 415.045 290.062C414.398 290.815 412.352 293.873 412.19 294.303L410.074 298.681C409.94 297.414 409.726 295.242 409.577 293.859C409.362 291.866 407.557 291.395 407.494 292.365C407.432 293.334 406.426 298.102 406.654 300.687C406.882 303.273 407.314 304.97 407.477 306.425C407.638 307.879 406.13 310.785 406.13 310.785C406.13 310.785 412.164 314.531 413.161 313.41C414.158 312.289 416.281 309.798 417.308 308.121C418.717 305.817 419.669 302.787 419.669 302.787L421.554 298.759C421.554 298.759 423.189 297.181 423.777 296.314C424.365 295.447 424.056 294.581 423.592 294.534Z" fill="#E49191"></path><path d="M769.923 173.099H699.171C694.636 173.099 690.961 176.775 690.961 181.31V198.023C690.961 202.207 694.089 205.659 698.135 206.168C698.728 206.243 699.171 206.747 699.171 207.344V216.494C699.171 217.023 699.849 217.24 700.157 216.81L707.364 206.732C707.588 206.419 707.949 206.234 708.335 206.234H769.923C774.457 206.234 778.133 202.558 778.133 198.023V181.31C778.133 176.775 774.457 173.099 769.923 173.099Z" stroke="white" stroke-width="1.19467" stroke-miterlimit="10"></path><path d="M710.025 189.641C710.025 191.135 708.814 192.344 707.322 192.344C705.829 192.344 704.618 191.135 704.618 189.641C704.618 188.148 705.829 186.939 707.322 186.939C708.814 186.939 710.025 188.148 710.025 189.641Z" stroke="white" stroke-width="1.19467" stroke-miterlimit="10"></path><path d="M723.637 189.641C723.637 191.135 722.427 192.344 720.935 192.344C719.441 192.344 718.231 191.135 718.231 189.641C718.231 188.148 719.441 186.939 720.935 186.939C722.427 186.939 723.637 188.148 723.637 189.641Z" stroke="white" stroke-width="1.19467" stroke-miterlimit="10"></path><path d="M737.25 189.641C737.25 191.135 736.04 192.344 734.546 192.344C733.054 192.344 731.844 191.135 731.844 189.641C731.844 188.148 733.054 186.939 734.546 186.939C736.04 186.939 737.25 188.148 737.25 189.641Z" stroke="white" stroke-width="1.19467" stroke-miterlimit="10"></path><path d="M750.863 189.641C750.863 191.135 749.652 192.344 748.159 192.344C746.667 192.344 745.456 191.135 745.456 189.641C745.456 188.148 746.667 186.939 748.159 186.939C749.652 186.939 750.863 188.148 750.863 189.641Z" stroke="white" stroke-width="1.19467" stroke-miterlimit="10"></path><path d="M764.475 189.641C764.475 191.135 763.264 192.344 761.771 192.344C760.279 192.344 759.068 191.135 759.068 189.641C759.068 188.148 760.279 186.939 761.771 186.939C763.264 186.939 764.475 188.148 764.475 189.641Z" stroke="white" stroke-width="1.19467" stroke-miterlimit="10"></path><path d="M210.855 246.374H281.607C286.141 246.374 289.816 250.05 289.816 254.585V271.298C289.816 275.482 286.688 278.934 282.643 279.444C282.049 279.518 281.607 280.022 281.607 280.62V289.769C281.607 290.298 280.928 290.516 280.62 290.085L273.413 280.008C273.189 279.694 272.828 279.509 272.443 279.509H210.855C206.32 279.509 202.644 275.833 202.644 271.298V254.585C202.644 250.05 206.32 246.374 210.855 246.374Z" stroke="white" stroke-width="1.19467" stroke-miterlimit="10"></path><path d="M270.752 262.917C270.752 264.41 271.963 265.619 273.455 265.619C274.948 265.619 276.159 264.41 276.159 262.917C276.159 261.423 274.948 260.214 273.455 260.214C271.963 260.214 270.752 261.423 270.752 262.917Z" stroke="white" stroke-width="1.19467" stroke-miterlimit="10"></path><path d="M257.14 262.917C257.14 264.41 258.351 265.619 259.843 265.619C261.336 265.619 262.547 264.41 262.547 262.917C262.547 261.423 261.336 260.214 259.843 260.214C258.351 260.214 257.14 261.423 257.14 262.917Z" stroke="white" stroke-width="1.19467" stroke-miterlimit="10"></path><path d="M243.527 262.917C243.527 264.41 244.738 265.619 246.23 265.619C247.723 265.619 248.934 264.41 248.934 262.917C248.934 261.423 247.723 260.214 246.23 260.214C244.738 260.214 243.527 261.423 243.527 262.917Z" stroke="white" stroke-width="1.19467" stroke-miterlimit="10"></path><path d="M229.915 262.917C229.915 264.41 231.125 265.619 232.617 265.619C234.111 265.619 235.321 264.41 235.321 262.917C235.321 261.423 234.111 260.214 232.617 260.214C231.125 260.214 229.915 261.423 229.915 262.917Z" stroke="white" stroke-width="1.19467" stroke-miterlimit="10"></path><path d="M216.302 262.917C216.302 264.41 217.513 265.619 219.005 265.619C220.498 265.619 221.709 264.41 221.709 262.917C221.709 261.423 220.498 260.214 219.005 260.214C217.513 260.214 216.302 261.423 216.302 262.917Z" stroke="white" stroke-width="1.19467" stroke-miterlimit="10"></path><path d="M638.144 134.539H509.189C502.077 134.539 496.312 128.774 496.312 121.662C496.312 114.55 502.077 108.785 509.189 108.785H638.144C645.256 108.785 651.021 114.55 651.021 121.662C651.021 128.774 645.256 134.539 638.144 134.539Z" fill="white"></path><path d="M638.144 134.539H509.189C502.077 134.539 496.312 128.774 496.312 121.662C496.312 114.55 502.077 108.785 509.189 108.785H638.144C645.256 108.785 651.021 114.55 651.021 121.662C651.021 128.774 645.256 134.539 638.144 134.539Z" stroke="#495AD6" stroke-width="1.19467" stroke-miterlimit="10"></path><path d="M636.254 120.774C636.254 124.555 633.189 127.622 629.406 127.622C625.625 127.622 622.558 124.555 622.558 120.774C622.558 116.991 625.625 113.926 629.406 113.926C633.189 113.926 636.254 116.991 636.254 120.774Z" stroke="#495AD6" stroke-width="2.22933" stroke-miterlimit="10"></path><path d="M634.248 125.616L638.03 129.397" stroke="#495AD6" stroke-width="2.22933" stroke-miterlimit="10" stroke-linecap="round"></path><path d="M442.801 484.771H410.359C404.683 484.771 400.082 480.17 400.082 474.494V442.053C400.082 436.377 404.683 431.775 410.359 431.775H442.801C448.477 431.775 453.078 436.377 453.078 442.053V474.494C453.078 480.17 448.477 484.771 442.801 484.771Z" fill="#193091"></path><path d="M433.143 484.771H400.701C395.025 484.771 390.424 480.17 390.424 474.494V442.053C390.424 436.377 395.025 431.775 400.701 431.775H433.143C438.819 431.775 443.42 436.377 443.42 442.053V474.494C443.42 480.17 438.819 484.771 433.143 484.771Z" fill="#495AD6"></path><path d="M410.663 448.271L425.875 457.053C426.815 457.596 426.815 458.951 425.875 459.493L410.663 468.276C409.725 468.819 408.55 468.14 408.55 467.056V449.491C408.55 448.407 409.725 447.728 410.663 448.271Z" fill="white"></path><path d="M778.38 484.771H735.971C728.551 484.771 722.536 478.757 722.536 471.337V428.927C722.536 421.507 728.551 415.493 735.971 415.493H778.38C785.8 415.493 791.815 421.507 791.815 428.927V471.337C791.815 478.757 785.8 484.771 778.38 484.771Z" fill="#193091"></path><path d="M765.754 484.771H723.345C715.925 484.771 709.91 478.757 709.91 471.337V428.927C709.91 421.507 715.925 415.493 723.345 415.493H765.754C773.174 415.493 779.189 421.507 779.189 428.927V471.337C779.189 478.757 773.174 484.771 765.754 484.771Z" fill="#495AD6"></path><path d="M752.874 432.49C752.874 437.088 749.147 440.814 744.55 440.814C739.952 440.814 736.226 437.088 736.226 432.49C736.226 427.893 739.952 424.166 744.55 424.166C749.147 424.166 752.874 427.893 752.874 432.49Z" fill="white"></path><path d="M761.902 460.673V472.959C761.902 474.07 761.002 474.97 759.891 474.97H729.208C728.098 474.97 727.198 474.07 727.198 472.959V460.673C727.198 451.09 734.967 443.321 744.55 443.321C754.134 443.321 761.902 451.09 761.902 460.673Z" fill="white"></path><path d="M589.62 149.374H562.383C561.252 149.374 560.335 148.458 560.335 147.327C560.335 146.197 561.252 145.281 562.383 145.281H589.62C590.751 145.281 591.667 146.197 591.667 147.327C591.667 148.458 590.751 149.374 589.62 149.374Z" fill="#F0F4FF"></path><path d="M616.87 149.374H597.158C596.027 149.374 595.111 148.458 595.111 147.327C595.111 146.197 596.027 145.281 597.158 145.281H616.87C618.001 145.281 618.917 146.197 618.917 147.327C618.917 148.458 618.001 149.374 616.87 149.374Z" fill="#F0F4FF"></path><path d="M573.954 158.374H562.382C561.251 158.374 560.335 157.458 560.335 156.327C560.335 155.197 561.251 154.281 562.382 154.281H573.954C575.085 154.281 576.001 155.197 576.001 156.327C576.001 157.458 575.085 158.374 573.954 158.374Z" fill="#F0F4FF"></path><path d="M616.87 158.374H580.824C579.694 158.374 578.778 157.458 578.778 156.327C578.778 155.197 579.694 154.281 580.824 154.281H616.87C618 154.281 618.916 155.197 618.916 156.327C618.916 157.458 618 158.374 616.87 158.374Z" fill="#F0F4FF"></path><path d="M598.287 167.374H562.383C561.252 167.374 560.335 166.458 560.335 165.327C560.335 164.197 561.252 163.281 562.383 163.281H598.287C599.417 163.281 600.333 164.197 600.333 165.327C600.333 166.458 599.417 167.374 598.287 167.374Z" fill="#F0F4FF"></path><path d="M616.87 167.374H605.297C604.166 167.374 603.25 166.458 603.25 165.327C603.25 164.197 604.166 163.281 605.297 163.281H616.87C618.001 163.281 618.917 164.197 618.917 165.327C618.917 166.458 618.001 167.374 616.87 167.374Z" fill="#F0F4FF"></path><path d="M244.706 358.431H149.619C146.803 358.431 144.521 356.148 144.521 353.334V305.334C144.521 302.518 146.803 300.236 149.619 300.236H244.706C247.521 300.236 249.803 302.518 249.803 305.334V353.334C249.803 356.148 247.521 358.431 244.706 358.431Z" fill="#193091"></path><path d="M148.996 308.098H245.329" stroke="white" stroke-width="1.19467" stroke-miterlimit="10" stroke-linecap="round"></path><path d="M243.953 304.098C243.953 304.742 243.43 305.264 242.786 305.264C242.142 305.264 241.62 304.742 241.62 304.098C241.62 303.454 242.142 302.931 242.786 302.931C243.43 302.931 243.953 303.454 243.953 304.098Z" fill="white"></path><path d="M237.87 304.098C237.87 304.742 237.347 305.264 236.703 305.264C236.059 305.264 235.536 304.742 235.536 304.098C235.536 303.454 236.059 302.931 236.703 302.931C237.347 302.931 237.87 303.454 237.87 304.098Z" fill="white"></path><path d="M231.786 304.098C231.786 304.742 231.264 305.264 230.62 305.264C229.976 305.264 229.453 304.742 229.453 304.098C229.453 303.454 229.976 302.931 230.62 302.931C231.264 302.931 231.786 303.454 231.786 304.098Z" fill="white"></path><path d="M166.953 315.931H150.606C149.717 315.931 148.996 315.21 148.996 314.32C148.996 313.43 149.717 312.708 150.606 312.708H166.953C167.842 312.708 168.564 313.43 168.564 314.32C168.564 315.21 167.842 315.931 166.953 315.931Z" fill="#6589D1"></path><path d="M166.953 323.375H150.606C149.717 323.375 148.996 322.654 148.996 321.765C148.996 320.874 149.717 320.153 150.606 320.153H166.953C167.842 320.153 168.564 320.874 168.564 321.765C168.564 322.654 167.842 323.375 166.953 323.375Z" fill="#6589D1"></path><path d="M166.953 330.82H150.606C149.717 330.82 148.996 330.099 148.996 329.209C148.996 328.319 149.717 327.597 150.606 327.597H166.953C167.842 327.597 168.564 328.319 168.564 329.209C168.564 330.099 167.842 330.82 166.953 330.82Z" fill="#6589D1"></path><path d="M166.953 338.264H150.606C149.717 338.264 148.996 337.543 148.996 336.654C148.996 335.763 149.717 335.042 150.606 335.042H166.953C167.842 335.042 168.564 335.763 168.564 336.654C168.564 337.543 167.842 338.264 166.953 338.264Z" fill="#6589D1"></path><path d="M166.953 345.709H150.606C149.717 345.709 148.996 344.987 148.996 344.098C148.996 343.207 149.717 342.486 150.606 342.486H166.953C167.842 342.486 168.564 343.207 168.564 344.098C168.564 344.987 167.842 345.709 166.953 345.709Z" fill="#6589D1"></path><path d="M166.953 353.153H150.606C149.717 353.153 148.996 352.432 148.996 351.543C148.996 350.652 149.717 349.931 150.606 349.931H166.953C167.842 349.931 168.564 350.652 168.564 351.543C168.564 352.432 167.842 353.153 166.953 353.153Z" fill="#6589D1"></path><path d="M243.718 315.931H173.274C172.383 315.931 171.662 315.21 171.662 314.32C171.662 313.43 172.383 312.708 173.274 312.708H243.718C244.607 312.708 245.329 313.43 245.329 314.32C245.329 315.21 244.607 315.931 243.718 315.931Z" fill="#3B5FB7"></path><path d="M243.718 323.375H173.274C172.383 323.375 171.662 322.654 171.662 321.765C171.662 320.874 172.383 320.153 173.274 320.153H243.718C244.607 320.153 245.329 320.874 245.329 321.765C245.329 322.654 244.607 323.375 243.718 323.375Z" fill="#3B5FB7"></path><path d="M243.718 330.82H173.274C172.383 330.82 171.662 330.099 171.662 329.209C171.662 328.319 172.383 327.597 173.274 327.597H243.718C244.607 327.597 245.329 328.319 245.329 329.209C245.329 330.099 244.607 330.82 243.718 330.82Z" fill="#3B5FB7"></path><path d="M243.718 338.264H173.274C172.383 338.264 171.662 337.543 171.662 336.654C171.662 335.763 172.383 335.042 173.274 335.042H243.718C244.607 335.042 245.329 335.763 245.329 336.654C245.329 337.543 244.607 338.264 243.718 338.264Z" fill="#3B5FB7"></path><path d="M243.718 345.709H173.274C172.383 345.709 171.662 344.987 171.662 344.098C171.662 343.207 172.383 342.486 173.274 342.486H243.718C244.607 342.486 245.329 343.207 245.329 344.098C245.329 344.987 244.607 345.709 243.718 345.709Z" fill="#3B5FB7"></path><path d="M243.718 353.153H173.274C172.383 353.153 171.662 352.432 171.662 351.543C171.662 350.652 172.383 349.931 173.274 349.931H243.718C244.607 349.931 245.329 350.652 245.329 351.543C245.329 352.432 244.607 353.153 243.718 353.153Z" fill="#3B5FB7"></path><path d="M739.494 44.3262C739.494 68.2622 720.09 87.6662 696.154 87.6662C672.217 87.6662 652.813 68.2622 652.813 44.3262C652.813 20.3902 672.217 0.986247 696.154 0.986247C720.09 0.986247 739.494 20.3902 739.494 44.3262Z" stroke="#DEE3FC" stroke-width="1.05333" stroke-miterlimit="10"></path><path d="M733.833 44.3263C733.833 65.1356 716.964 82.0063 696.153 82.0063C675.344 82.0063 658.473 65.1356 658.473 44.3263C658.473 23.5169 675.344 6.64627 696.153 6.64627C716.964 6.64627 733.833 23.5169 733.833 44.3263Z" fill="#3945BA"></path><path d="M699.583 44.3263C699.583 46.2209 698.047 47.7556 696.154 47.7556C694.259 47.7556 692.723 46.2209 692.723 44.3263C692.723 42.4316 694.259 40.8969 696.154 40.8969C698.047 40.8969 699.583 42.4316 699.583 44.3263Z" fill="white"></path><path d="M695.78 43.6523C695.261 43.939 694.609 43.7523 694.321 43.2336L683.24 23.2456C682.953 22.7283 683.14 22.075 683.659 21.7883C684.176 21.5003 684.829 21.6883 685.116 22.2056L696.199 42.1936C696.485 42.7123 696.299 43.3656 695.78 43.6523Z" fill="white"></path><path d="M696.699 44.8712C697.117 44.4526 697.797 44.4526 698.216 44.8712L707.803 54.4579C708.221 54.8766 708.221 55.5566 707.803 55.9752C707.384 56.3939 706.704 56.3939 706.285 55.9752L696.699 46.3886C696.28 45.9699 696.28 45.2899 696.699 44.8712Z" fill="white"></path><path d="M696.384 14.1667V9.83334" stroke="white" stroke-width="2.66667" stroke-miterlimit="10" stroke-linecap="round"></path><path d="M726.313 44.5569H730.646" stroke="white" stroke-width="2.66667" stroke-miterlimit="10" stroke-linecap="round"></path><path d="M695.923 74.4857V78.8191" stroke="white" stroke-width="2.66667" stroke-miterlimit="10" stroke-linecap="round"></path><path d="M665.994 44.0954H661.661" stroke="white" stroke-width="2.66667" stroke-miterlimit="10" stroke-linecap="round"></path><g opacity="0.5"><g opacity="0.5"><path opacity="0.5" d="M681.274 18.0919L679.107 14.3386" stroke="#DEE3FC" stroke-width="1.33333" stroke-miterlimit="10" stroke-linecap="round"></path></g><g opacity="0.5"><path opacity="0.5" d="M722.388 29.4463L726.141 27.2796" stroke="#DEE3FC" stroke-width="1.33333" stroke-miterlimit="10" stroke-linecap="round"></path></g><g opacity="0.5"><path opacity="0.5" d="M711.033 70.5606L713.2 74.3139" stroke="#DEE3FC" stroke-width="1.33333" stroke-miterlimit="10" stroke-linecap="round"></path></g><g opacity="0.5"><path opacity="0.5" d="M669.919 59.2062L666.166 61.3728" stroke="#DEE3FC" stroke-width="1.33333" stroke-miterlimit="10" stroke-linecap="round"></path></g></g><g opacity="0.5"><g opacity="0.5"><path opacity="0.5" d="M670.15 29.0466L666.397 26.8799" stroke="#DEE3FC" stroke-width="1.33333" stroke-miterlimit="10" stroke-linecap="round"></path></g><g opacity="0.5"><path opacity="0.5" d="M711.433 18.3227L713.6 14.5694" stroke="#DEE3FC" stroke-width="1.33333" stroke-miterlimit="10" stroke-linecap="round"></path></g><g opacity="0.5"><path opacity="0.5" d="M722.157 59.6058L725.911 61.7724" stroke="#DEE3FC" stroke-width="1.33333" stroke-miterlimit="10" stroke-linecap="round"></path></g><g opacity="0.5"><path opacity="0.5" d="M680.874 70.3298L678.707 74.0831" stroke="#DEE3FC" stroke-width="1.33333" stroke-miterlimit="10" stroke-linecap="round"></path></g></g><path d="M181.211 262.437H133.617C126.571 262.437 120.859 256.725 120.859 249.678V202.085C120.859 195.038 126.571 189.326 133.617 189.326H181.211C188.257 189.326 193.969 195.038 193.969 202.085V249.678C193.969 256.725 188.257 262.437 181.211 262.437Z" fill="#193091"></path><path d="M178.081 256.104H125.414C119.769 256.104 115.191 251.528 115.191 245.881V193.214C115.191 187.569 119.769 182.993 125.414 182.993H178.081C183.726 182.993 188.303 187.569 188.303 193.214V245.881C188.303 251.528 183.726 256.104 178.081 256.104Z" fill="#7E89FD"></path><path d="M178.081 256.104H125.414C119.769 256.104 115.191 251.528 115.191 245.881V193.214C115.191 187.569 119.769 182.993 125.414 182.993H178.081C183.726 182.993 188.303 187.569 188.303 193.214V245.881C188.303 251.528 183.726 256.104 178.081 256.104Z" stroke="#DEE3FC" stroke-width="1.33333" stroke-miterlimit="10"></path><path d="M142.252 206.989C142.252 201.857 146.429 197.681 151.56 197.681C156.692 197.681 160.869 201.857 160.869 206.989V211.177H142.252V206.989ZM164.408 211.177H164.025V206.989C164.025 200.114 158.434 194.522 151.56 194.522C144.685 194.522 139.096 200.114 139.096 206.989V211.177H139.012C137.08 211.177 135.513 212.744 135.513 214.676V230.458C135.513 232.39 137.08 233.956 139.012 233.956H164.408C166.34 233.956 167.905 232.39 167.905 230.458V214.676C167.905 212.744 166.34 211.177 164.408 211.177" fill="#DEE3FC"></path><path d="M155.814 219.289C155.814 216.769 153.522 214.785 150.91 215.305C149.37 215.612 148.093 216.876 147.772 218.413C147.385 220.266 148.261 221.957 149.696 222.796C149.988 222.966 150.153 223.286 150.065 223.613L149.357 226.225C148.937 227.778 150.106 229.306 151.716 229.306C153.325 229.306 154.494 227.778 154.073 226.225L153.373 223.641C153.284 223.31 153.454 222.986 153.752 222.817C154.982 222.12 155.814 220.805 155.814 219.289Z" fill="#7E89FD"></path><path d="M166.405 239.491H137.013C136.184 239.491 135.513 238.819 135.513 237.991C135.513 237.163 136.184 236.491 137.013 236.491H166.405C167.233 236.491 167.905 237.163 167.905 237.991C167.905 238.819 167.233 239.491 166.405 239.491Z" fill="#DEE3FC"></path><path d="M166.405 244.574H137.013C136.184 244.574 135.513 243.902 135.513 243.074C135.513 242.246 136.184 241.574 137.013 241.574H166.405C167.233 241.574 167.905 242.246 167.905 243.074C167.905 243.902 167.233 244.574 166.405 244.574Z" fill="#DEE3FC"></path><path d="M757.097 348.376H729.078C724.93 348.376 721.566 345.013 721.566 340.864V312.845C721.566 308.697 724.93 305.335 729.078 305.335H757.097C761.245 305.335 764.609 308.697 764.609 312.845V340.864C764.609 345.013 761.245 348.376 757.097 348.376Z" fill="#193091"></path><path d="M755.255 344.647H724.249C720.925 344.647 718.231 341.953 718.231 338.63V307.623C718.231 304.301 720.925 301.606 724.249 301.606H755.255C758.579 301.606 761.272 304.301 761.272 307.623V338.63C761.272 341.953 758.579 344.647 755.255 344.647Z" fill="#7E89FD"></path><path d="M755.255 344.647H724.249C720.925 344.647 718.231 341.953 718.231 338.63V307.623C718.231 304.301 720.925 301.606 724.249 301.606H755.255C758.579 301.606 761.272 304.301 761.272 307.623V338.63C761.272 341.953 758.579 344.647 755.255 344.647Z" stroke="#DEE3FC" stroke-width="1.33333" stroke-miterlimit="10"></path><path d="M731.056 335.981C730.935 335.981 730.813 335.965 730.693 335.93C729.983 335.731 729.572 334.994 729.772 334.286L736.281 311.243C736.48 310.533 737.221 310.119 737.925 310.323C738.636 310.522 739.047 311.259 738.847 311.967L732.337 335.009C732.172 335.598 731.637 335.981 731.056 335.981Z" fill="white"></path><path d="M741.94 335.981C741.819 335.981 741.697 335.965 741.577 335.93C740.867 335.731 740.456 334.994 740.656 334.286L747.167 311.243C747.365 310.533 748.107 310.119 748.811 310.323C749.521 310.522 749.932 311.259 749.732 311.967L743.221 335.009C743.056 335.598 742.521 335.981 741.94 335.981Z" fill="white"></path><path d="M751.272 319.238H728.231C727.493 319.238 726.897 318.642 726.897 317.905C726.897 317.168 727.493 316.572 728.231 316.572H751.272C752.009 316.572 752.605 317.168 752.605 317.905C752.605 318.642 752.009 319.238 751.272 319.238Z" fill="white"></path><path d="M751.272 329.764H728.231C727.493 329.764 726.897 329.168 726.897 328.431C726.897 327.694 727.493 327.098 728.231 327.098H751.272C752.009 327.098 752.605 327.694 752.605 328.431C752.605 329.168 752.009 329.764 751.272 329.764Z" fill="white"></path><path d="M237.497 211.655H220.833C219.824 211.655 219.005 210.836 219.005 209.828C219.005 208.819 219.824 208 220.833 208H237.497C238.507 208 239.324 208.819 239.324 209.828C239.324 210.836 238.507 211.655 237.497 211.655Z" fill="#F0F4FF"></path><path d="M254.284 219.766H220.833C219.824 219.766 219.005 218.947 219.005 217.939C219.005 216.93 219.824 216.111 220.833 216.111H254.284C255.293 216.111 256.111 216.93 256.111 217.939C256.111 218.947 255.293 219.766 254.284 219.766Z" fill="#F0F4FF"></path><path d="M224.784 227.877H220.833C219.824 227.877 219.005 227.058 219.005 226.05C219.005 225.041 219.824 224.222 220.833 224.222H224.784C225.793 224.222 226.611 225.041 226.611 226.05C226.611 227.058 225.793 227.877 224.784 227.877Z" fill="#F0F4FF"></path><path d="M254.284 227.877H230.992C229.983 227.877 229.165 227.058 229.165 226.05C229.165 225.041 229.983 224.222 230.992 224.222H254.284C255.293 224.222 256.111 225.041 256.111 226.05C256.111 227.058 255.293 227.877 254.284 227.877Z" fill="#F0F4FF"></path><path d="M254.284 211.655H244.184C243.175 211.655 242.356 210.836 242.356 209.828C242.356 208.819 243.175 208 244.184 208H254.284C255.293 208 256.111 208.819 256.111 209.828C256.111 210.836 255.293 211.655 254.284 211.655Z" fill="#F0F4FF"></path><path d="M160.311 460.888C158.141 460.888 156.109 461.484 154.37 462.52C153.671 456.299 148.395 451.461 141.987 451.461C135.105 451.461 129.525 457.041 129.525 463.924C129.525 464.385 129.553 464.84 129.601 465.288C129.03 465.181 128.441 465.123 127.838 465.123C122.582 465.123 118.322 469.384 118.322 474.639C118.322 479.895 122.582 484.155 127.838 484.155H160.311C166.737 484.155 171.945 478.947 171.945 472.521C171.945 466.096 166.737 460.888 160.311 460.888Z" fill="white"></path><path d="M77.7245 410.92C77.4099 409.18 77.4525 407.4 77.8912 405.687C79.3579 399.951 81.0392 389.16 77.3059 377.503C71.0779 358.056 45.8352 340.832 45.8352 340.832C45.8352 340.832 52.6859 369.531 58.3192 381.749C62.4432 390.696 69.6592 400.876 73.6619 406.237C74.7725 407.724 75.5339 409.439 75.8645 411.265C79.9459 433.848 79.3539 451.329 79.3432 451.6L81.2379 451.675C81.2485 451.401 81.8499 433.741 77.7245 410.92Z" fill="#DEE3FC"></path><path d="M97.8505 392.636C102.865 376.782 105.197 358.108 105.197 358.108C105.197 358.108 82.5639 376.782 80.7092 391.232C79.5719 400.082 80.9852 407.182 82.2519 411.358C82.7892 413.133 82.9839 414.988 82.7852 416.83C80.4945 438.096 82.2892 454.392 82.3185 454.641L84.0225 454.445C83.9945 454.205 82.3279 439.042 84.2905 418.949C84.5585 416.197 85.6679 413.596 87.4079 411.448C90.6479 407.453 95.2785 400.766 97.8505 392.636Z" fill="#B4C1EF"></path><path d="M120.858 357.37C120.858 357.37 96.4691 366.421 90.0917 386.334C86.2104 398.454 88.0437 409.657 89.5611 415.46C89.9877 417.088 89.9637 418.788 89.5571 420.421C83.8437 443.336 83.7557 467.057 83.7557 467.373H85.6984C85.6984 467.064 85.7864 443.908 91.3037 421.434C91.8517 419.201 92.8251 417.102 94.1957 415.257C98.3557 409.654 105.434 399.574 109.533 390.682C115.301 378.17 120.858 357.37 120.858 357.37Z" fill="#DEE3FC"></path><path d="M77.826 441.392C77.2193 433.056 74.9473 425.55 72.194 419.256C71.642 417.994 71.4473 416.614 71.6246 415.25C71.966 412.621 72.106 408.537 71.0553 403.348C69.0766 393.577 56.1086 372.47 37.3326 371.233C37.3326 371.233 43.81 381.649 47.1446 390.362C51.362 401.386 57.382 412.92 67.3646 417.345C69.1206 418.124 70.4953 419.581 71.2286 421.357C73.634 427.19 75.5673 434.004 76.114 441.516L77.826 441.392Z" fill="#B4C1EF"></path><path d="M65.1305 484.151H96.1145L104.155 435.024C104.511 432.85 102.832 430.875 100.628 430.875H60.6172C58.4132 430.875 56.7359 432.85 57.0919 435.024L65.1305 484.151Z" fill="#DEE3FC"></path><path d="M1.52026 484.151H868.48" stroke="white" stroke-width="1.48533" stroke-miterlimit="10" stroke-linecap="round"></path></svg>