<svg width="148" height="130" viewBox="0 0 148 130" fill="none" xmlns="http://www.w3.org/2000/svg">
<path d="M96.8882 65H119.776V83.3105C119.776 93.41 111.565 101.621 101.466 101.621H99.1771C98.2748 101.619 97.3809 101.795 96.5469 102.139C95.7128 102.484 94.955 102.989 94.3169 103.627C93.6788 104.265 93.1731 105.023 92.8288 105.857C92.4845 106.691 92.3084 107.585 92.3105 108.488V122.221C92.3084 123.123 92.4845 124.017 92.8288 124.851C93.1731 125.685 93.6788 126.443 94.3169 127.081C94.955 127.719 95.7128 128.225 96.5469 128.569C97.3809 128.913 98.2748 129.089 99.1771 129.087H101.466C126.757 129.087 147.242 108.602 147.242 83.3108V14.646C147.242 7.06426 141.091 0.913086 133.509 0.913086H96.8882C89.3064 0.913086 83.1553 7.06426 83.1553 14.646V51.2671C83.1553 58.8488 89.3064 65 96.8882 65ZM14.4907 65H37.3789V83.3105C37.3789 93.41 29.1679 101.621 19.0684 101.621H16.7797C15.8773 101.619 14.9835 101.795 14.1494 102.139C13.3153 102.484 12.5575 102.989 11.9194 103.627C11.2814 104.265 10.7757 105.023 10.4314 105.857C10.0871 106.691 9.91092 107.585 9.91309 108.488V122.221C9.91092 123.123 10.0871 124.017 10.4314 124.851C10.7757 125.685 11.2814 126.443 11.9194 127.081C12.5575 127.719 13.3153 128.225 14.1494 128.569C14.9835 128.913 15.8773 129.089 16.7797 129.087H19.0684C44.3598 129.087 64.8447 108.602 64.8447 83.3108V14.646C64.8447 7.06426 58.6936 0.913086 51.1118 0.913086H14.4907C6.90898 0.913086 0.757812 7.06426 0.757812 14.646V51.2671C0.757812 58.8488 6.90898 65 14.4907 65Z" fill="#32363E"/>
</svg>
