<svg width="18" height="19" viewBox="0 0 18 19" fill="none" xmlns="http://www.w3.org/2000/svg">
<g clip-path="url(#clip0_257_2451)">
<path d="M17.9531 7.40521C17.8352 7.04073 17.512 6.78186 17.1295 6.74739L11.9342 6.27565L9.87984 1.46722C9.72837 1.11483 9.38339 0.886719 9.00009 0.886719C8.6168 0.886719 8.27182 1.11483 8.12034 1.46805L6.06598 6.27565L0.869863 6.74739C0.488078 6.78268 0.165621 7.04073 0.0471028 7.40521C-0.0714152 7.76969 0.0380389 8.16947 0.326849 8.42147L4.25388 11.8655L3.09589 16.9664C3.01115 17.3415 3.15673 17.7292 3.46792 17.9541C3.63519 18.075 3.83089 18.1365 4.02824 18.1365C4.19839 18.1365 4.36718 18.0907 4.51865 18L9.00009 15.3216L13.4799 18C13.8077 18.1972 14.2209 18.1792 14.5314 17.9541C14.8428 17.7285 14.9882 17.3407 14.9035 16.9664L13.7455 11.8655L17.6725 8.42216C17.9613 8.16947 18.0716 7.77038 17.9531 7.40521Z" fill="#FFC107"/>
</g>
<defs>
<clipPath id="clip0_257_2451">
<rect width="18" height="18" fill="white" transform="translate(0 0.5)"/>
</clipPath>
</defs>
</svg>
