<svg width="48" height="48" viewBox="0 0 48 48" fill="none" xmlns="http://www.w3.org/2000/svg">
<path d="M43.9725 5.45239C38.4277 -0.123648 29.2769 0.153538 23.9977 5.94962C18.7181 0.153743 9.56772 -0.12375 4.02296 5.45249C-1.49081 10.9435 -1.30297 19.9855 4.37812 25.2853C1.47166 28.0611 3.13673 33.0492 7.09274 33.5355C6.85576 36.2444 9.16137 38.7285 11.8886 38.6824C12.0558 41.6645 15.0489 43.7991 17.9184 43.011C18.8598 46.5638 23.3854 47.7778 25.9817 45.163C27.4563 43.6972 28.6289 42.7729 28.7037 40.553C31.1402 40.4851 33.2484 38.3483 33.2855 35.9132C35.7454 35.8753 37.8886 33.7313 37.9265 31.2722C40.4784 31.2334 42.6911 28.9301 42.5723 26.33L43.9723 24.9301C49.3424 19.5601 49.3424 10.8223 43.9725 5.45239ZM6.48902 27.5267L7.80396 26.2117C7.9657 26.0497 8.15786 25.9213 8.36938 25.8339C8.5809 25.7464 8.80763 25.7016 9.03653 25.702C10.5673 25.6918 11.3663 27.5844 10.2689 28.6766L8.95395 29.9916C7.25185 31.5586 4.92182 29.2295 6.48902 27.5267ZM10.1555 33.8644C10.1555 33.3988 10.3369 32.961 10.6661 32.6318L11.9818 31.3163C12.1432 31.1541 12.3352 31.0256 12.5466 30.938C12.758 30.8505 12.9847 30.8058 13.2135 30.8064C14.7573 30.8037 15.5398 32.6919 14.446 33.7819L13.2857 34.9422C12.9311 35.3441 12.4439 35.616 11.8985 35.6073C10.9618 35.6266 10.1361 34.8013 10.1555 33.8644ZM15.4619 39.5831C14.7857 38.9344 14.7857 37.7671 15.4619 37.1183L16.6221 35.958C17.2986 35.1549 18.4861 35.0504 19.2418 35.8033C19.9214 36.4829 19.9214 37.5885 19.2418 38.2682L17.9268 39.5832C17.2473 40.2631 16.1415 40.263 15.4619 39.5831ZM25.1206 41.6719L23.8057 42.9868C23.6442 43.1492 23.4521 43.2779 23.2406 43.3655C23.029 43.4532 22.8022 43.498 22.5732 43.4974C22.3442 43.498 22.1174 43.4532 21.9058 43.3656C21.6942 43.2779 21.5021 43.1492 21.3406 42.9868C20.6646 42.338 20.6643 41.1706 21.3407 40.5219L22.6556 39.2069C23.3351 38.5273 24.441 38.5273 25.1205 39.2068C25.7968 39.8557 25.7969 41.023 25.1206 41.6719ZM38.986 27.6905C38.3371 28.3666 37.1698 28.3667 36.5211 27.6905L29.6727 20.8422L27.4966 23.0183L34.3449 29.8666C35.0244 30.5463 35.0244 31.6519 34.3449 32.3316C33.6653 33.0114 32.5596 33.0112 31.88 32.3316L25.1478 25.5994L25.0317 25.4833L22.8555 27.6594L22.9717 27.7755L29.7038 34.5077C30.3835 35.1873 30.3835 36.2931 29.7038 36.9727C29.0242 37.6524 27.9184 37.6524 27.2388 36.9727L27.2375 36.9741C25.9871 35.7652 24.2395 35.3672 22.6611 35.78C22.1587 33.7268 20.0947 32.1724 18.0192 32.2177C17.9186 30.0078 16.0503 28.0115 13.8425 27.773C14.1338 23.9814 9.96965 21.3703 6.68342 23.2381C2.10667 19.1498 1.82476 11.973 6.19932 7.62854C10.5487 3.24865 17.7353 3.53886 21.8218 8.12577L18.0173 11.9303L21.0658 14.9788C23.4075 17.3207 27.0161 17.6429 29.7066 15.9458L38.9863 25.2256C39.6655 25.9051 39.6655 27.0109 38.986 27.6905ZM41.7963 22.754L41.3274 23.2228C41.2737 23.1637 41.2187 23.1059 41.1622 23.0494L29.8275 11.7146L28.7394 12.8026C27.2238 14.3182 24.7577 14.3185 23.2418 12.8026L22.3694 11.9303L26.6711 7.62854C37.1206 -1.98917 51.412 12.3113 41.7963 22.754Z" fill="#143157"/>
</svg>
